<svg id="Layer_1" data-name="Layer 1" xmlns="http://www.w3.org/2000/svg" xmlns:xlink="http://www.w3.org/1999/xlink" viewBox="0 0 227 78"><defs><clipPath id="clip-path"><rect x="10" y="6" width="208" height="65" style="fill:none"/></clipPath><clipPath id="clip-path-2"><rect x="10" y="6" width="208" height="65" style="fill:none"/></clipPath></defs><text transform="translate(62.3 31.93)" style="font-size:18px;fill:#fff;font-family:KidGames, Kid Games">RE<tspan x="28" y="0" style="letter-spacing:-0.0322265625em">A</tspan><tspan x="42.38" y="0">DY TO </tspan><tspan x="-2.86" y="21.6">PRACTICE?</tspan></text><g id="Artwork_27" data-name="Artwork 27"><g style="clip-path:url(#clip-path)"><g style="clip-path:url(#clip-path-2)"><path d="M207,16.25a34.18,34.18,0,0,0-17.35-4.34H38.34A34.18,34.18,0,0,0,21,16.25c-4.45,2.67-7.21,6.36-7.21,10.42V53.73c0,4.06,2.76,7.75,7.21,10.43a34.28,34.28,0,0,0,17.35,4.33H189.66A34.28,34.28,0,0,0,207,64.16c4.45-2.68,7.21-6.37,7.21-10.43V26.67C214.22,22.61,211.46,18.92,207,16.25Zm-.35,37.48c0,2.81-1.91,5.37-5,7.22a23.77,23.77,0,0,1-12,3H38.34a23.7,23.7,0,0,1-12-3c-3.09-1.85-5-4.41-5-7.22V26.67c0-2.8,1.91-5.36,5-7.21a23.7,23.7,0,0,1,12-3H189.66a23.77,23.77,0,0,1,12,3c3.08,1.85,5,4.41,5,7.21Z" style="fill:none;stroke:#792205;stroke-miterlimit:22.926000595092773;stroke-width:6.157202285580006px"/><path d="M207,16.25a34.21,34.21,0,0,0-17.35-4.34H114v4.55h75.66a23.77,23.77,0,0,1,12,3c3.08,1.85,5,4.41,5,7.21V53.73c0,2.81-1.91,5.37-5,7.22a23.77,23.77,0,0,1-12,3H114v4.54h75.66A34.31,34.31,0,0,0,207,64.16c4.45-2.68,7.21-6.37,7.21-10.43V26.67c0-4.06-2.76-7.75-7.21-10.42" style="fill:#792205;fill-rule:evenodd"/><path d="M38.34,64a23.7,23.7,0,0,1-12-3c-3.09-1.85-5-4.41-5-7.22V26.67c0-2.8,1.91-5.36,5-7.21a23.7,23.7,0,0,1,12-3H114V11.91H38.34A34.18,34.18,0,0,0,21,16.25c-4.45,2.67-7.21,6.36-7.21,10.42V53.73c0,4.06,2.76,7.75,7.21,10.43a34.28,34.28,0,0,0,17.35,4.33H114V64Z" style="fill:#792205;fill-rule:evenodd"/><path d="M207,12.84a34.28,34.28,0,0,0-17.35-4.33H38.34A34.28,34.28,0,0,0,21,12.84c-4.45,2.68-7.21,6.37-7.21,10.43V50.33c0,4.06,2.76,7.75,7.21,10.42a34.18,34.18,0,0,0,17.35,4.34H189.66A34.18,34.18,0,0,0,207,60.75c4.45-2.67,7.21-6.36,7.21-10.42V23.27C214.22,19.21,211.46,15.52,207,12.84Zm-.35,37.49c0,2.81-1.91,5.36-5,7.21a23.77,23.77,0,0,1-12,3H38.34a23.7,23.7,0,0,1-12-3c-3.09-1.85-5-4.4-5-7.21V23.27c0-2.81,1.91-5.37,5-7.22a23.7,23.7,0,0,1,12-3H189.66a23.77,23.77,0,0,1,12,3c3.08,1.85,5,4.41,5,7.22Z" style="fill:none;stroke:#962a06;stroke-miterlimit:22.926000595092773;stroke-width:6.157202285580006px"/><path d="M38.34,60.54a23.6,23.6,0,0,1-12-3c-3.09-1.85-5-4.4-5-7.21V23.27c0-2.81,1.91-5.36,5-7.22a23.7,23.7,0,0,1,12-3H114V8.51H38.34A34.28,34.28,0,0,0,21,12.84c-4.45,2.68-7.21,6.37-7.21,10.43V50.33c0,4.06,2.76,7.75,7.21,10.42a34.18,34.18,0,0,0,17.35,4.34H114V60.54Z" style="fill:#fff;fill-rule:evenodd"/><path d="M207,12.84a34.31,34.31,0,0,0-17.35-4.33H114v4.54h75.66a23.77,23.77,0,0,1,12,3c3.08,1.85,5,4.41,5,7.22V50.33c0,2.8-1.91,5.36-5,7.21a23.77,23.77,0,0,1-12,3H114v4.55h75.66A34.21,34.21,0,0,0,207,60.75c4.45-2.67,7.21-6.36,7.21-10.42V23.27c0-4.06-2.76-7.75-7.21-10.43" style="fill:#fff;fill-rule:evenodd"/><path d="M191.62,10.78H36.38C26,10.78,17.56,16.4,17.56,23.27V50.33c0,6.87,8.47,12.49,18.82,12.49H191.62c10.35,0,18.82-5.62,18.82-12.49V23.27c0-6.87-8.47-12.49-18.82-12.49" style="fill:#dcb000;fill-rule:evenodd"/><path d="M188.41,13.29H39.59c-8.66,0-15.76,4.71-15.76,10.46V46.42c0,5.75,7.1,10.46,15.76,10.46H188.41c8.66,0,15.76-4.71,15.76-10.46V23.75C204.17,18,197.07,13.29,188.41,13.29Z" style="fill:none;stroke:#fef500;stroke-miterlimit:22.926000595092773;stroke-width:1.5393005713950014px"/><path d="M188.41,13.29H39.59c-8.66,0-15.76,4.71-15.76,10.46V46.42c0,5.75,7.1,10.46,15.76,10.46H188.41c8.66,0,15.76-4.71,15.76-10.46V23.75c0-5.75-7.1-10.46-15.76-10.46" style="fill:#fc0;fill-rule:evenodd"/><path d="M188.41,54.51H39.59c-8.66,0-15.76-4.71-15.76-10.46v2.36c0,5.76,7.1,10.47,15.76,10.47H188.41c8.66,0,15.76-4.71,15.76-10.47V44.05c0,5.75-7.1,10.46-15.76,10.46" style="fill:#fef500;fill-rule:evenodd"/></g></g></g><text transform="translate(59.37 46.84)" style="font-size:35.2364387512207px;font-family:KidGames, Kid Games">BACK</text></svg>