<?xml version="1.0" encoding="utf-8"?>
<!-- Generator: Adobe Illustrator 24.2.1, SVG Export Plug-In . SVG Version: 6.00 Build 0)  -->
<svg version="1.1" id="Layer_1" xmlns="http://www.w3.org/2000/svg" xmlns:xlink="http://www.w3.org/1999/xlink" x="0px" y="0px"
	 viewBox="0 0 1118 1071" style="enable-background:new 0 0 1118 1071;" xml:space="preserve">
<g id="Artwork_25">
	<g>
		<defs>
			<rect id="SVGID_1_" x="506.6" y="52.6" width="605.4" height="356.4"/>
		</defs>
		<clipPath id="SVGID_2_">
			<use xlink:href="#SVGID_1_"  style="overflow:visible;"/>
		</clipPath>
		<g style="clip-path:url(#SVGID_2_);">
			<g>
				<defs>
					<rect id="SVGID_3_" x="506.6" y="52.6" width="605.4" height="356.4"/>
				</defs>
				<clipPath id="SVGID_4_">
					<use xlink:href="#SVGID_3_"  style="overflow:visible;"/>
				</clipPath>
				<g style="clip-path:url(#SVGID_4_);">
					<path d="M809.3,52.6c-166.1,0-302.7,72-302.7,162c0,52.2,47,98.2,117.9,127.7c-0.1,1.8,0,4.4-3.7,13
						c-4.6,10.5-13.7,25.4-32.6,41.9l-13.6,11.7l23.5,0.2c81.5,0.2,128.7-32.8,136.1-38.1c24.9,3.6,49.9,5.4,75,5.6
						c166,0,302.7-72,302.7-162S975.3,52.5,809.3,52.6 M809.3,67.8c154.6,0,277.9,66.2,277.9,146.7S963.9,361.3,809.3,361.3
						c-25.5,0-51.1-1.8-76.3-5.6l-7.4-1l-5,3.8c0,0-38.1,26.5-99,32.8c11-12.1,19.3-23.4,23.1-32c5.3-12,5.4-20.3,5.4-20.3v-4.1
						l-5.8-2.3c-69-26.9-113-69.8-113-118c0-80.5,123.3-146.7,277.9-146.7"/>
				</g>
			</g>
		</g>
	</g>
</g>
<text transform="matrix(0.78 0 0 1 671.0801 158.1802)" style="font-family:'KidGames'; font-size:50.7992px;">HOW SHOU</text>
<text transform="matrix(0.78 0 0 1 907.873 158.1802)" style="font-family:'KidGames'; font-size:50.7992px; letter-spacing:-1.3;">L</text>
<text transform="matrix(0.78 0 0 1 932.5205 158.1802)" style="font-family:'KidGames'; font-size:50.7992px;">D</text>
<text transform="matrix(0.78 0 0 1 638.1719 219.1401)" style="font-family:'KidGames'; font-size:50.7992px;">OUR </text>
<text transform="matrix(0.78 0 0 1 748.1758 219.1401)" style="font-family:'KidGames'; font-size:50.7992px; letter-spacing:-2.6;">F</text>
<text transform="matrix(0.78 0 0 1 772.2305 219.1401)" style="font-family:'KidGames'; font-size:50.7992px;">ACE LOOK</text>
<text transform="matrix(0.78 0 0 1 580.8652 280.1001)" style="font-family:'KidGames'; font-size:50.7992px;">WHEN WE RESPOND?r</text>
<g id="Artwork_15_1_">
	<g>
		<defs>
			<rect id="SVGID_5_" x="-677.9" y="142" width="3633.7" height="1527.4"/>
		</defs>
		<clipPath id="SVGID_6_">
			<use xlink:href="#SVGID_5_"  style="overflow:visible;"/>
		</clipPath>
		<g style="clip-path:url(#SVGID_6_);">
			<defs>
				<rect id="SVGID_7_" x="-677.9" y="142" width="3633.7" height="1527.4"/>
			</defs>
			<clipPath id="SVGID_8_">
				<use xlink:href="#SVGID_7_"  style="overflow:visible;"/>
			</clipPath>
			<g style="clip-path:url(#SVGID_8_);">
				<defs>
					<path id="SVGID_9_" d="M564,452.6c-2.4,0.2-6.6,5.6-8.1,25.4c-0.6-7.5-9-21.6-11.8-21.4c-2.8,0.2-1.5,4.3-4.7,25.7
						c-3.2,21.4,4.9,51.8,4.9,51.8s59.6,53.2,83.8,80.8c28.6-38.4,24.4-83.2,21.5-84.2c-3-1-7.9,2.3-17.4,23
						c9.8-47.9-5.4-66.2-8.4-66.2c-3,0-8.1,6.2-18.4,34.9c2.8-27.8-6.4-39.1-9.2-39.1s-6.2,7.3-9.6,28.2
						C582.9,465,566.6,452.6,564,452.6C564,452.6,564,452.6,564,452.6"/>
				</defs>
				<clipPath id="SVGID_10_">
					<use xlink:href="#SVGID_9_"  style="overflow:visible;"/>
				</clipPath>
				
					<radialGradient id="SVGID_11_" cx="-8.4231" cy="1078.4358" r="1" gradientTransform="matrix(80.4769 0 0 80.4769 1354.4988 -86370.7656)" gradientUnits="userSpaceOnUse">
					<stop  offset="0" style="stop-color:#F89708"/>
					<stop  offset="0.8601" style="stop-color:#7F3506"/>
					<stop  offset="1" style="stop-color:#7F3506"/>
				</radialGradient>
				<rect x="536.2" y="452.6" style="clip-path:url(#SVGID_10_);fill:url(#SVGID_11_);" width="120.4" height="162.4"/>
			</g>
			<g style="clip-path:url(#SVGID_8_);">
				<defs>
					<rect id="SVGID_12_" x="-677.9" y="142" width="3633.7" height="1527.4"/>
				</defs>
				<clipPath id="SVGID_13_">
					<use xlink:href="#SVGID_12_"  style="overflow:visible;"/>
				</clipPath>
				<path style="clip-path:url(#SVGID_13_);fill:#9D4D06;" d="M546.3,563.7c0,0-7.2-34.7-2.7-53.3c4.5-18.5,11.7-36.1,15.3-35.2
					c3.6,0.9,18.1,24.8,9.5,70.8c0,0,8.4-32.9,14.2-34.3c5.9-1.4,6.8,19.9,5.2,34.5c15-20.6,20.6-28.4,24.6-27.7
					c4,0.7,16.5,25,11.8,59.9c0,0,6.8-12,10.4-10.7c3.6,1.3,3.6,38.4-14.8,59.1C582.8,588.8,546.3,563.7,546.3,563.7"/>
			</g>
			<g style="clip-path:url(#SVGID_8_);">
				<defs>
					<path id="SVGID_14_" d="M286.7,822.4c0,0,1.2,16.5,5.8,30c4.6,13.5,6.7,24.2-4.4,30.9c-11.2,6.8-29.1,1.2-53.7,16
						c-12.6,8.1-16.3,20-11.8,22.5c4.4,2.5,12.5-13.5,54.4-19.5c-15.3,12.3-41.1,43.7-29,48.3c6.5,1.9,11.8-7.4,22.1-20.5
						c10.2-13,25.8-23,30.2-23.9c-5.1,23.7-8.6,51.1,0,52.8c8.6,1.6,10.2-25.3,14.2-42.3c3.9-17,8.6-24.6,13-24.4
						c4.4,0.2,13.5,0.7,13.9-4.6c0.5-5.4-13-6.5-19.5-14.2c-6.5-7.7-5.8-21.8-3-40.4c0,0-20-12.5-28.5-12.5
						C288.4,820.5,287.2,821,286.7,822.4"/>
				</defs>
				<clipPath id="SVGID_15_">
					<use xlink:href="#SVGID_14_"  style="overflow:visible;"/>
				</clipPath>
				
					<radialGradient id="SVGID_16_" cx="-5.1862" cy="1075.5784" r="1" gradientTransform="matrix(130.7055 0 0 130.7055 931.821 -139646.2656)" gradientUnits="userSpaceOnUse">
					<stop  offset="0" style="stop-color:#FC9B00"/>
					<stop  offset="0.1029" style="stop-color:#FC9B00"/>
					<stop  offset="0.8687" style="stop-color:#EB6D00"/>
					<stop  offset="1" style="stop-color:#EB6D00"/>
				</radialGradient>
				<rect x="218.1" y="820.5" style="clip-path:url(#SVGID_15_);fill:url(#SVGID_16_);" width="123.6" height="140.1"/>
			</g>
			<g style="clip-path:url(#SVGID_8_);">
				<defs>
					<rect id="SVGID_17_" x="-677.9" y="142" width="3633.7" height="1527.4"/>
				</defs>
				<clipPath id="SVGID_18_">
					<use xlink:href="#SVGID_17_"  style="overflow:visible;"/>
				</clipPath>
				<path style="clip-path:url(#SVGID_18_);fill:#EB6D00;" d="M293.5,843c0,0,0.9-0.1,2.1-0.1c0.6,0,1.3,0,2,0c0.4,0,0.7,0,1.1,0
					c0.4,0,0.8,0,1.1,0h1.1c0.4,0,0.8,0,1.1,0c0.7,0,1.4,0,2,0c1.2-0.1,2.1,0,2.1,0s-0.7,0.5-1.8,1.1c-0.6,0.3-1.3,0.5-2.1,0.6
					c-0.8,0.2-1.6,0.2-2.5,0.2c-1.7,0-3.3-0.4-4.5-0.9C294.2,843.6,293.5,843,293.5,843"/>
				<path style="clip-path:url(#SVGID_18_);fill:#EB6D00;" d="M294.1,856.7c0,0,0.9,0.2,2.3,0.6c0.7,0.2,1.5,0.4,2.3,0.5
					c0.8,0.2,1.7,0.4,2.6,0.5c1.8,0.3,3.5,0.3,4.9,0.3c0.7,0,1.3,0,1.7-0.1c0.4,0,0.7,0,0.7,0s-0.2,0.1-0.5,0.4
					c-0.4,0.2-0.9,0.6-1.6,0.8c-0.3,0.2-0.7,0.3-1.1,0.4c-0.4,0.1-0.9,0.2-1.3,0.2c-0.9,0.1-1.9,0.1-2.9,0c-1-0.1-2-0.4-2.8-0.8
					c-0.9-0.4-1.6-0.8-2.2-1.2C294.7,857.5,294.1,856.7,294.1,856.7"/>
				<path style="clip-path:url(#SVGID_18_);fill:#EB6D00;" d="M295.8,874.9c0,0,1.7,0.6,4.2,1.3c1.3,0.3,2.7,0.7,4.3,0.9
					c0.8,0.2,1.6,0.2,2.4,0.3c0.8,0.1,1.7,0.1,2.5,0.1c0.8,0,1.7,0,2.5-0.1c0.8-0.1,1.6-0.2,2.4-0.4c0.7-0.2,1.5-0.4,2.1-0.7
					c0.7-0.3,1.3-0.5,1.9-0.8c0.6-0.3,1.1-0.6,1.5-0.8c0.4-0.3,0.8-0.6,1.1-0.8c0.6-0.4,1-0.7,1-0.7s-0.3,0.4-0.7,1
					c-0.3,0.3-0.5,0.7-0.9,1.1c-0.4,0.4-0.9,0.8-1.4,1.2c-0.5,0.5-1.1,0.8-1.8,1.2c-0.7,0.4-1.5,0.7-2.3,1c-0.8,0.3-1.7,0.5-2.6,0.6
					c-0.9,0.2-1.8,0.2-2.7,0.2c-0.9-0.1-1.8-0.1-2.7-0.2s-1.7-0.3-2.6-0.5c-1.6-0.4-3.1-1-4.3-1.5
					C297.1,876.1,295.8,874.9,295.8,874.9z"/>
				<path style="clip-path:url(#SVGID_18_);fill:#EB6D00;" d="M291,881c0,0,0.4,0.4,1.2,1c0.7,0.7,1.9,1.5,3.2,2.6
					c1.4,1,2.9,2.1,4.7,3.3c0.9,0.6,1.8,1.1,2.8,1.6c1,0.5,1.9,1.1,3,1.5c1,0.5,2,1,3,1.3c0.5,0.2,1,0.4,1.5,0.5
					c0.5,0.1,1,0.3,1.5,0.4c0.5,0.1,1,0.3,1.5,0.4c0.5,0.1,1,0.2,1.4,0.3c0.9,0.2,1.8,0.4,2.7,0.4c0.8,0.1,1.6,0.2,2.3,0.2
					c0.7,0,1.3,0,1.8,0c1,0,1.6,0.1,1.6,0.1s-0.5,0.1-1.5,0.3c-0.5,0.1-1.1,0.2-1.8,0.3c-0.7,0.1-1.5,0.1-2.4,0.1
					c-0.9,0.1-1.8,0-2.8-0.1c-0.5,0-1-0.1-1.5-0.1c-0.5-0.1-1-0.2-1.6-0.3c-0.5-0.1-1.1-0.2-1.6-0.4c-0.5-0.2-1.1-0.4-1.6-0.5
					c-1.1-0.3-2.2-0.8-3.2-1.3c-1.1-0.5-2.1-1.1-3.1-1.6c-1-0.6-1.9-1.2-2.8-1.9c-1.8-1.3-3.3-2.6-4.5-3.9
					C292.2,883,291,881,291,881z"/>
				<path style="clip-path:url(#SVGID_18_);fill:#EB6D00;" d="M227.4,904.8c0,0,0.9,0.1,2.1,0.7c0.6,0.3,1.2,0.7,1.9,1.2
					c0.6,0.5,1.3,1.1,1.9,1.8c0.3,0.4,0.5,0.7,0.8,1.1c0.3,0.3,0.5,0.8,0.6,1.1c0.2,0.4,0.3,0.8,0.5,1.1c0.2,0.3,0.3,0.7,0.3,1
					c0.2,1.3,0.2,2.2,0.2,2.2s-0.6-0.7-1.3-1.8c-0.3-0.5-0.8-1.1-1.2-1.7c-0.4-0.6-1-1.2-1.5-1.9c-0.5-0.7-1.1-1.2-1.5-1.8
					c-0.5-0.5-1-1.1-1.4-1.6C228,905.4,227.4,904.8,227.4,904.8"/>
				<path style="clip-path:url(#SVGID_18_);fill:#EB6D00;" d="M246.7,893.3c0,0,1.1,0.2,2.5,1c0.7,0.4,1.5,1,2.2,1.6
					c0.8,0.7,1.5,1.5,2.1,2.4c0.6,0.9,1.1,1.9,1.4,2.9c0.2,0.5,0.3,1,0.4,1.5c0.1,0.5,0.2,0.9,0.1,1.3c0,0.8,0,1.5-0.2,2
					c-0.1,0.5-0.2,0.7-0.2,0.7s-0.1-0.3-0.2-0.7c0-0.2-0.1-0.5-0.2-0.8c-0.1-0.3-0.2-0.6-0.4-1c-0.1-0.4-0.3-0.7-0.5-1.1
					c-0.1-0.4-0.4-0.8-0.6-1.2c-0.2-0.4-0.5-0.8-0.7-1.2c-0.2-0.4-0.5-0.8-0.8-1.2c-0.5-0.8-1.2-1.6-1.7-2.3c-0.6-0.7-1.2-1.4-1.7-2
					C247.4,894.1,246.7,893.3,246.7,893.3"/>
				<path style="clip-path:url(#SVGID_18_);fill:#EB6D00;" d="M266.9,888.2c0,0,1.1,0.3,2.4,1.4c0.7,0.5,1.4,1.2,2,2
					c0.6,0.8,1.2,1.8,1.7,2.8c0.2,0.5,0.4,1,0.6,1.6c0.2,0.5,0.2,1.1,0.4,1.6c0.1,0.5,0.1,1,0.1,1.5c0,0.5,0,0.9,0,1.3
					c0,0.8-0.2,1.5-0.3,2c-0.1,0.5-0.2,0.7-0.2,0.7s-0.1-0.3-0.2-0.7c0-0.2-0.1-0.5-0.2-0.8c0-0.3-0.2-0.7-0.2-1
					c-0.3-1.5-0.9-3.4-1.7-5.2c-0.4-0.9-0.9-1.8-1.3-2.6c-0.5-0.8-0.9-1.5-1.4-2.2C267.5,889,266.9,888.2,266.9,888.2"/>
				<path style="clip-path:url(#SVGID_18_);fill:#EB6D00;" d="M276.7,902.5c0,0,0.5-0.9,1.4-1.9c0.5-0.5,1-1.1,1.6-1.7
					c0.6-0.6,1.4-1.1,2.1-1.7c0.8-0.5,1.5-1,2.3-1.5c0.8-0.4,1.5-0.7,2.2-0.9c1.3-0.5,2.2-0.6,2.2-0.6s-0.6,0.8-1.7,1.6
					c-0.5,0.5-1.1,0.9-1.8,1.4c-0.6,0.5-1.4,1.1-2.1,1.6c-0.7,0.5-1.5,1-2.2,1.5c-0.7,0.5-1.4,0.9-2,1.2
					C277.6,902.1,276.7,902.5,276.7,902.5"/>
				<path style="clip-path:url(#SVGID_18_);fill:#EB6D00;" d="M249.5,933.3c0,0,0.9-0.5,2.4-0.7c0.8-0.1,1.7-0.1,2.6,0.1
					c1,0.2,2,0.5,2.9,1c0.5,0.3,0.9,0.6,1.3,0.9c0.4,0.3,0.8,0.7,1.1,1c0.6,0.7,1.2,1.5,1.5,2.2c0.4,0.7,0.6,1.3,0.7,1.7
					c0.1,0.4,0.2,0.7,0.2,0.7s-0.2-0.2-0.5-0.5c-0.3-0.3-0.7-0.8-1.3-1.2c-0.5-0.5-1.1-1-1.8-1.6c-0.7-0.5-1.4-1-2.2-1.5
					c-0.8-0.5-1.6-0.8-2.4-1.1c-0.8-0.3-1.6-0.5-2.3-0.7C250.5,933.5,249.5,933.3,249.5,933.3"/>
				<path style="clip-path:url(#SVGID_18_);fill:#EB6D00;" d="M261.1,917.6c0,0,1-0.5,2.5-0.7c0.8-0.1,1.7-0.1,2.7,0
					c1,0.1,2,0.4,3,0.8c1,0.4,1.9,1,2.7,1.6c0.4,0.3,0.7,0.7,1,1c0.3,0.3,0.6,0.7,0.8,1c0.9,1.3,1,2.4,1.1,2.4c0,0-0.2-0.2-0.5-0.5
					c-0.3-0.3-0.8-0.7-1.4-1.2c-0.5-0.5-1.2-1-2-1.4c-0.7-0.5-1.5-0.9-2.4-1.2c-0.8-0.4-1.7-0.6-2.6-0.9c-0.9-0.2-1.7-0.4-2.4-0.6
					C262.1,917.8,261.1,917.6,261.1,917.6"/>
				<path style="clip-path:url(#SVGID_18_);fill:#EB6D00;" d="M276.1,903.3c0,0,1.1-0.5,2.8-0.5c0.9-0.1,1.9,0,2.9,0.3
					c0.5,0.2,1.1,0.3,1.6,0.5c0.5,0.2,1.1,0.5,1.6,0.8c0.5,0.3,1,0.7,1.5,1c0.5,0.3,0.8,0.8,1.2,1.2c0.4,0.4,0.7,0.9,1,1.3
					c0.3,0.4,0.5,0.8,0.7,1.2c0.2,0.4,0.4,0.7,0.5,1.1c0.1,0.3,0.2,0.6,0.2,0.9c0.1,0.5,0.2,0.8,0.2,0.8s-0.2-0.2-0.5-0.6
					c-0.1-0.2-0.3-0.4-0.5-0.7c-0.2-0.3-0.5-0.5-0.7-0.8c-0.3-0.3-0.5-0.6-0.9-0.9c-0.3-0.3-0.6-0.7-1-1c-0.4-0.3-0.7-0.6-1.2-0.9
					c-0.4-0.3-0.8-0.6-1.3-0.8c-0.9-0.5-1.8-0.9-2.7-1.3c-0.5-0.1-0.9-0.3-1.3-0.5c-0.5-0.1-0.9-0.3-1.2-0.4
					C277.2,903.5,276.1,903.3,276.1,903.3z"/>
				<path style="clip-path:url(#SVGID_18_);fill:#EB6D00;" d="M294.9,947.3c0,0,0.1-1.3,0.8-3c0.2-0.5,0.4-0.9,0.6-1.4
					c0.3-0.5,0.5-1,1-1.5c0.4-0.5,0.8-1,1.3-1.4c0.5-0.5,1.1-0.8,1.6-1.2c0.6-0.3,1.3-0.6,2-0.6c0.7-0.2,1.4-0.1,2,0
					c0.7,0,1.2,0.4,1.7,0.5c0.6,0.2,1,0.6,1.4,0.8c0.8,0.5,1.3,1.2,1.7,1.5c0.4,0.4,0.5,0.7,0.5,0.7s-0.3-0.1-0.8-0.3
					c-0.2-0.1-0.5-0.3-0.9-0.4c-0.3-0.2-0.7-0.3-1.1-0.5c-0.4-0.1-0.8-0.4-1.3-0.4c-0.5,0-1-0.3-1.5-0.2c-0.5,0-1,0-1.5,0.2
					c-0.5,0-1,0.3-1.4,0.5c-0.5,0.3-0.9,0.5-1.3,0.9c-0.4,0.3-0.8,0.7-1.2,1.1c-0.7,0.8-1.4,1.6-1.9,2.3
					C295.6,946.3,294.9,947.3,294.9,947.3z"/>
				<path style="clip-path:url(#SVGID_18_);fill:#EB6D00;" d="M296.4,927.9c0,0,0.5-1.1,1.7-2.5c0.6-0.7,1.4-1.4,2.4-2
					c1-0.6,2.1-1.2,3.3-1.5c0.6-0.1,1.2-0.3,1.9-0.3c0.6-0.1,1.2,0,1.8,0.1c0.6,0,1.1,0.2,1.6,0.4c0.5,0.1,1,0.4,1.4,0.6
					c0.4,0.2,0.8,0.4,1,0.7c0.3,0.2,0.5,0.5,0.7,0.6c0.4,0.4,0.6,0.5,0.6,0.5s-0.3-0.1-0.8-0.2c-0.2-0.1-0.5-0.2-0.9-0.3
					c-0.3-0.1-0.7-0.2-1.1-0.3c-0.4-0.1-0.8-0.2-1.3-0.2c-0.5,0-1-0.1-1.4-0.1c-0.5,0-1,0-1.5,0.1c-0.5,0-1,0.2-1.5,0.3
					c-0.5,0.1-1,0.3-1.5,0.5c-0.5,0.2-1,0.4-1.4,0.6c-0.9,0.4-1.8,0.9-2.5,1.4C297.4,927.2,296.4,927.9,296.4,927.9"/>
				<path style="clip-path:url(#SVGID_18_);fill:#EB6D00;" d="M299.7,909.2c0,0,0.6-1,2-2.2c0.7-0.6,1.6-1.1,2.6-1.5
					c0.5-0.2,1.1-0.4,1.7-0.5c0.6-0.2,1.2-0.2,1.8-0.3c0.6-0.1,1.2,0,1.8,0c0.6,0,1.2,0.2,1.7,0.3c0.5,0.1,1,0.3,1.5,0.5
					c0.5,0.1,0.9,0.4,1.3,0.6c0.8,0.4,1.3,0.9,1.7,1.2c0.4,0.3,0.6,0.5,0.6,0.5s-0.3-0.1-0.8-0.2c-0.5-0.1-1.1-0.4-2-0.5
					c-0.4-0.1-0.8-0.2-1.3-0.3c-0.5-0.1-0.9-0.1-1.4-0.2c-0.5,0-1-0.1-1.5-0.1c-0.5,0-1,0-1.5,0c-1,0-2.1,0.3-3,0.5
					c-1,0.3-1.9,0.5-2.6,0.9C300.7,908.7,299.7,909.2,299.7,909.2z"/>
				<path style="clip-path:url(#SVGID_18_);fill:#EB6D00;" d="M281,885.9c0.9,0.3,1.8,0.8,2.6,1.4c0.8,0.5,1.6,1.2,2.3,2
					c0.3,0.4,0.6,0.8,0.9,1.3c0.1,0.2,0.3,0.5,0.4,0.7c0.1,0.2,0.3,0.5,0.3,0.7c0.2,0.5,0.3,1,0.4,1.5c0.1,0.5,0.1,1.1,0.1,1.6
					l-1.1-1c0.9-0.2,1.7-0.2,2.6-0.1c0.4,0.1,0.9,0.1,1.3,0.2c0.4,0.1,0.8,0.2,1.2,0.4c1.6,0.7,2.9,1.8,3.9,3c0.5,0.6,1,1.3,1.4,2
					c0.4,0.7,0.7,1.5,1,2.2c0.1,0.4,0.3,0.7,0.3,1.1c0.1,0.4,0.2,0.8,0.2,1.2c0.1,0.8,0.1,1.6,0.1,2.4c-0.2-0.8-0.4-1.5-0.7-2.2
					c-0.3-0.7-0.6-1.4-1-2c-0.4-0.6-0.7-1.3-1.2-1.9c-0.4-0.6-0.9-1.1-1.4-1.6c-0.5-0.5-1-1-1.6-1.4c-0.6-0.4-1.2-0.8-1.8-1
					c-0.3-0.1-0.6-0.2-1-0.3c-0.3-0.1-0.7-0.1-1-0.2c-0.7-0.1-1.3,0-2,0l-1.1,0.2l0-1.1c0-0.4,0.1-0.9,0-1.3c0-0.4-0.1-0.9-0.2-1.3
					c-0.2-0.8-0.6-1.7-1.1-2.4C283.8,888.5,282.5,887.1,281,885.9z"/>
			</g>
			<g style="clip-path:url(#SVGID_8_);">
				<defs>
					<path id="SVGID_19_" d="M433.8,835.4c0,0,4.9,14.1,7.9,27.3c2.9,13.1,0.3,17.1-7.2,22.6c-7.5,5.6-13.1,16.1-2.3,14.1
						c10.8-2,10.5-0.7,15.4,3.9c4.9,4.6,22.7,20.4,30.9,29.5c8.2,9.2,9.2,17.7,14.4,17.7s9.2-13.8-2.6-29.5
						c-11.8-15.8-20.4-20-20.4-20s22,5.6,40.4,19.4c16.4,12.2,21.3,16.4,25.3,11.5c3.9-4.9-5.8-22.7-41.3-37
						c21.4,5.2,27.8,6.4,38.7,13.6c10.8,7.1,16.7,8.6,18.5,0c1.7-8.6-25.4-17-52.9-21.9c-15.8-3.7-30.5-6.7-33.5-16
						c-2.9-9.3-5.2-30.5-5.2-30.5s-13.7-7.9-21.3-7.9C436,832.1,434.2,833,433.8,835.4"/>
				</defs>
				<clipPath id="SVGID_20_">
					<use xlink:href="#SVGID_19_"  style="overflow:visible;"/>
				</clipPath>
				
					<radialGradient id="SVGID_21_" cx="-6.2363" cy="1076.5054" r="1" gradientTransform="matrix(108.6961 0 0 108.6961 1194.2919 -116093.4375)" gradientUnits="userSpaceOnUse">
					<stop  offset="0" style="stop-color:#FC9B00"/>
					<stop  offset="0.1029" style="stop-color:#FC9B00"/>
					<stop  offset="0.8687" style="stop-color:#EB6D00"/>
					<stop  offset="1" style="stop-color:#EB6D00"/>
				</radialGradient>
				<rect x="421.3" y="832.1" style="clip-path:url(#SVGID_20_);fill:url(#SVGID_21_);" width="131.9" height="118.5"/>
			</g>
			<g style="clip-path:url(#SVGID_8_);">
				<defs>
					<rect id="SVGID_22_" x="-677.9" y="142" width="3633.7" height="1527.4"/>
				</defs>
				<clipPath id="SVGID_23_">
					<use xlink:href="#SVGID_22_"  style="overflow:visible;"/>
				</clipPath>
				<path style="clip-path:url(#SVGID_23_);fill:#EB6D00;" d="M437.9,848.9c0,0,1.5,0.3,3.6,0.6c1.1,0.2,2.3,0.3,3.7,0.4
					c1.3,0,2.8,0.1,4.2,0c1.4,0,2.8-0.2,4.1-0.5c0.7-0.1,1.3-0.3,1.9-0.4c0.6-0.1,1.2-0.3,1.7-0.4c1.1-0.3,1.9-0.6,2.5-0.8
					c0.6-0.2,1-0.3,1-0.3s-0.3,0.2-0.8,0.6c-0.5,0.4-1.3,1-2.3,1.5c-0.5,0.3-1,0.6-1.7,0.8c-0.6,0.2-1.2,0.5-2,0.7
					c-0.7,0.2-1.4,0.4-2.2,0.5c-0.7,0.1-1.5,0.2-2.3,0.2c-3.1,0.2-6.1-0.4-8.2-1.2C439.1,849.8,437.9,848.9,437.9,848.9"/>
				<path style="clip-path:url(#SVGID_23_);fill:#EB6D00;" d="M441.3,861.9c0,0,0.3,0.1,0.8,0.2c0.5,0.1,1.2,0.2,2,0.4
					c0.4,0,0.9,0.1,1.3,0.1c0.5,0.1,1,0.1,1.5,0.1c0.5,0,1,0,1.6,0.1c0.5,0,1.1,0,1.6-0.1c0.5,0,1.1,0,1.6,0
					c0.5-0.1,1.1-0.1,1.6-0.2c0.5-0.1,1-0.1,1.5-0.1c0.5-0.1,0.9-0.2,1.3-0.2c1.7-0.3,2.9-0.3,2.9-0.3s-1,0.7-2.6,1.4
					c-0.4,0.2-0.8,0.4-1.3,0.6c-0.5,0.1-1,0.3-1.5,0.4c-0.5,0.1-1.1,0.3-1.7,0.4c-0.6,0.1-1.2,0.1-1.8,0.1h-1.8
					c-0.6-0.1-1.2-0.2-1.7-0.3c-0.5-0.1-1.1-0.2-1.6-0.4c-0.5-0.2-1-0.3-1.4-0.5c-0.8-0.4-1.5-0.8-1.9-1.1
					C441.5,862.1,441.3,861.9,441.3,861.9"/>
				<path style="clip-path:url(#SVGID_23_);fill:#EB6D00;" d="M442.7,876.4c0,0,0.4,0,1.1,0.1c0.7,0.1,1.6,0,2.7,0.1
					c0.5,0,1.2-0.1,1.8,0c0.6,0,1.3,0,2-0.1c0.7-0.1,1.4-0.2,2.1-0.2c0.7,0,1.5-0.2,2.2-0.3c0.7-0.1,1.5-0.2,2.2-0.4
					c0.7-0.2,1.4-0.4,2.1-0.5c0.7-0.2,1.3-0.3,2-0.5c0.6-0.1,1.2-0.4,1.7-0.6c2.1-0.8,3.6-1.1,3.6-1.1s-1.2,1-3.2,2.2
					c-0.5,0.3-1,0.7-1.7,0.9c-0.6,0.2-1.3,0.5-2,0.8c-0.7,0.2-1.4,0.6-2.1,0.7c-0.8,0.1-1.5,0.3-2.3,0.5c-0.8,0.1-1.5,0.3-2.3,0.3
					c-0.8,0-1.5,0-2.3,0c-0.7,0-1.4-0.1-2.1-0.2c-0.7-0.1-1.3-0.1-1.9-0.3c-1.1-0.3-2.1-0.5-2.7-0.8
					C443,876.6,442.7,876.4,442.7,876.4"/>
				<path style="clip-path:url(#SVGID_23_);fill:#EB6D00;" d="M434.9,884.8c0,0,0.5,0.4,1.4,1c0.5,0.3,1,0.6,1.7,1
					c0.7,0.4,1.5,0.7,2.3,1c0.9,0.3,1.8,0.6,2.8,0.9c0.5,0.1,1,0.2,1.5,0.4c0.5,0.1,1.1,0.2,1.7,0.3c1.1,0.2,2.3,0.1,3.5,0.2
					c1.2-0.1,2.4-0.1,3.6-0.3c1.2-0.2,2.4-0.3,3.6-0.7c1.1-0.4,2.3-0.5,3.4-1c1.1-0.4,2.1-0.8,3.1-1.2c1-0.5,1.9-0.9,2.7-1.3
					c1.7-0.7,3-1.6,4-2.1c1-0.5,1.5-0.8,1.5-0.8s-0.5,0.4-1.3,1.1c-0.4,0.3-1,0.8-1.6,1.2c-0.6,0.5-1.3,1-2.1,1.5
					c-0.8,0.5-1.7,1-2.6,1.6c-1,0.5-2,1-3.1,1.5c-1.1,0.5-2.3,0.8-3.5,1.2c-1.2,0.4-2.5,0.5-3.8,0.8c-1.3,0.2-2.6,0.2-3.9,0.2
					c-1.3-0.1-2.5-0.1-3.7-0.5c-0.6-0.1-1.2-0.2-1.8-0.4c-0.5-0.2-1.1-0.4-1.6-0.5c-1-0.4-2-0.8-2.9-1.3c-0.9-0.5-1.6-1-2.2-1.4
					c-0.6-0.5-1.1-0.9-1.6-1.3C435.3,885.3,434.9,884.8,434.9,884.8"/>
				<path style="clip-path:url(#SVGID_23_);fill:#EB6D00;" d="M452.2,907.6c0,0,0.5-1.4,2.1-3c0.4-0.4,0.9-0.8,1.4-1.2
					c0.5-0.4,1.1-0.8,1.8-1c1.3-0.7,2.7-1.1,4.2-1.4c0.8-0.1,1.5-0.2,2.2-0.2c0.7,0,1.5,0,2.2,0.1c0.7,0.1,1.4,0.2,2,0.3
					c0.6,0.2,1.2,0.3,1.7,0.5c1.1,0.3,1.9,0.8,2.5,1c0.6,0.3,0.9,0.5,0.9,0.5s-0.4,0-1-0.1c-0.6,0-1.5-0.2-2.6-0.3
					c-0.5,0-1.1-0.1-1.7-0.1c-0.6,0-1.2,0-1.9,0c-0.6,0-1.3,0.1-2,0.1s-1.4,0.2-2,0.2c-0.7,0.1-1.3,0.3-2,0.4
					c-0.6,0.2-1.3,0.3-1.9,0.6c-1.2,0.4-2.3,1-3.2,1.5C453.2,906.5,452.2,907.6,452.2,907.6"/>
				<path style="clip-path:url(#SVGID_23_);fill:#EB6D00;" d="M465.1,919.6c0,0,0.3-1.2,1.3-2.9c0.5-0.8,1.2-1.7,2-2.5
					c0.8-0.9,1.9-1.6,3.1-2.2c0.6-0.2,1.2-0.5,1.9-0.7c0.6-0.2,1.3-0.3,1.9-0.3c0.3,0,0.6,0,0.9,0c0.3,0,0.6,0.1,0.9,0.1
					c0.3,0,0.5,0.1,0.8,0.1c0.2,0.1,0.5,0.2,0.7,0.3c0.5,0.2,0.9,0.3,1.2,0.5c0.3,0.2,0.6,0.4,0.8,0.5c0.5,0.3,0.7,0.5,0.7,0.5
					s-0.3,0-0.9-0.2c-0.3,0-0.6-0.1-0.9-0.2c-0.4-0.1-0.8-0.1-1.2-0.1c-0.4-0.1-0.9-0.1-1.4,0c-0.5,0-1,0-1.5,0.1
					c-0.5,0-1,0.2-1.5,0.4c-0.5,0.1-1,0.4-1.5,0.6c-0.5,0.3-1,0.5-1.5,0.8c-0.5,0.3-1,0.6-1.4,1c-0.9,0.6-1.6,1.3-2.3,1.9
					C466,918.7,465.1,919.6,465.1,919.6z"/>
				<path style="clip-path:url(#SVGID_23_);fill:#EB6D00;" d="M476,930.2c0,0,0.3-1,1.3-2.2c0.5-0.6,1.1-1.2,1.9-1.8
					c0.4-0.3,0.8-0.6,1.3-0.8c0.5-0.3,0.9-0.5,1.4-0.7c0.5-0.2,1-0.3,1.5-0.5c0.5-0.2,1-0.2,1.5-0.3c0.5-0.1,1,0,1.4,0
					c0.4,0,0.9,0.1,1.2,0.1c0.8,0.1,1.4,0.3,1.8,0.5c0.4,0.2,0.6,0.3,0.6,0.3s-0.3,0-0.7,0.1c-0.2,0-0.5,0.1-0.8,0.1
					c-0.3,0-0.6,0.1-1,0.2c-0.7,0.1-1.5,0.3-2.3,0.5c-0.8,0.2-1.7,0.5-2.5,0.8c-0.9,0.3-1.7,0.7-2.4,1.1c-0.7,0.4-1.5,0.8-2.1,1.2
					C476.8,929.6,476,930.2,476,930.2z"/>
				<path style="clip-path:url(#SVGID_23_);fill:#EB6D00;" d="M486.3,944.5c0,0-0.1-0.6,0.3-1.5c0.1-0.2,0.2-0.4,0.4-0.6
					c0.1-0.2,0.3-0.5,0.5-0.6c0.4-0.4,0.8-0.8,1.4-1.1l0.8-0.4c0.3-0.1,0.6-0.1,0.8-0.2c0.5-0.1,1-0.2,1.5-0.1
					c0.9,0.1,1.4,0.4,1.4,0.4s-0.5,0.4-1.2,0.8c-0.4,0.1-0.7,0.4-1.1,0.6c-0.4,0.2-0.8,0.4-1.2,0.7c-0.5,0.2-0.8,0.5-1.2,0.7
					c-0.2,0.1-0.4,0.2-0.6,0.3c-0.2,0.1-0.4,0.2-0.5,0.3C486.9,944.2,486.3,944.5,486.3,944.5"/>
				<path style="clip-path:url(#SVGID_23_);fill:#EB6D00;" d="M479.1,903.9c0,0,0-1.3,0.8-3.1c0.4-0.9,1-1.9,1.8-2.9
					c0.4-0.5,0.8-1,1.4-1.4c0.5-0.5,1-0.8,1.6-1.2c0.6-0.4,1.2-0.6,1.8-0.9c0.6-0.3,1.3-0.3,1.9-0.5c0.6-0.1,1.2-0.1,1.8-0.2
					c0.6,0,1.1,0.1,1.6,0.1c1,0,1.8,0.4,2.3,0.5c0.5,0.2,0.8,0.3,0.8,0.3s-0.3,0-0.9,0.1c-0.5,0.1-1.3,0-2.2,0.2
					c-0.5,0.1-1,0.1-1.4,0.2c-0.5,0.1-1,0.3-1.6,0.4c-0.5,0.2-1,0.4-1.6,0.6c-0.5,0.3-1.1,0.4-1.5,0.8c-1,0.5-1.9,1.3-2.7,2
					c-0.4,0.4-0.8,0.8-1.1,1.2c-0.3,0.4-0.7,0.8-1,1.1C479.8,902.8,479.1,903.9,479.1,903.9"/>
				<path style="clip-path:url(#SVGID_23_);fill:#EB6D00;" d="M498.6,895.7c0,0,0-0.2,0.1-0.6c0.1-0.4,0.3-0.9,0.6-1.5
					c0.3-0.6,0.8-1.2,1.3-1.9c0.3-0.3,0.6-0.6,0.9-0.9c0.3-0.3,0.6-0.6,1-0.9c0.4-0.2,0.8-0.5,1.2-0.7c0.4-0.3,0.8-0.4,1.2-0.5
					c0.4-0.1,0.8-0.3,1.2-0.4c0.4-0.1,0.7-0.2,1.1-0.2c1.4,0,2.2,0.1,2.2,0.1s-0.8,0.5-1.9,1c-0.6,0.2-1.1,0.7-1.8,1
					c-0.7,0.3-1.3,0.8-2,1.3c-0.4,0.2-0.6,0.5-1,0.7c-0.3,0.3-0.6,0.5-1,0.7c-0.5,0.5-1.2,0.9-1.6,1.3
					C499.2,895.2,498.6,895.7,498.6,895.7"/>
				<path style="clip-path:url(#SVGID_23_);fill:#EB6D00;" d="M497.6,912.3c0,0,0-1.1,0.7-2.7c0.3-0.8,0.7-1.7,1.3-2.5
					c0.6-0.9,1.4-1.7,2.2-2.5c0.9-0.7,1.9-1.4,2.9-1.8c0.5-0.2,1-0.4,1.5-0.5c0.5-0.1,0.9-0.2,1.4-0.2c0.9-0.1,1.5,0,2,0.1
					c0.5,0.1,0.7,0.2,0.7,0.2s-0.3,0.1-0.7,0.2c-0.2,0-0.5,0.1-0.8,0.2c-0.3,0.1-0.6,0.2-1,0.4c-0.4,0.1-0.7,0.3-1.1,0.5
					c-0.4,0.2-0.8,0.4-1.2,0.6c-0.4,0.2-0.8,0.5-1.2,0.8c-0.4,0.2-0.8,0.6-1.2,0.9c-0.4,0.3-0.8,0.7-1.1,1c-0.3,0.4-0.7,0.7-1,1.1
					c-0.7,0.7-1.2,1.4-1.7,2C498.2,911.4,497.6,912.3,497.6,912.3"/>
				<path style="clip-path:url(#SVGID_23_);fill:#EB6D00;" d="M512.6,922.2c0,0,0.1-1.1,0.8-2.7c0.4-0.8,0.9-1.6,1.5-2.4
					c0.6-0.8,1.5-1.6,2.4-2.3c1-0.7,2-1.2,3-1.5c0.5-0.2,1-0.3,1.5-0.4c0.5-0.1,1-0.1,1.4-0.1c0.9,0,1.5,0.1,2,0.2
					c0.5,0.1,0.7,0.2,0.7,0.2s-0.3,0.1-0.7,0.2c-0.5,0.1-1.1,0.2-1.9,0.5c-0.7,0.2-1.6,0.5-2.4,0.9c-0.4,0.2-0.9,0.4-1.3,0.7
					c-0.4,0.2-0.8,0.5-1.2,0.8c-0.4,0.3-0.8,0.6-1.2,0.9c-0.4,0.3-0.8,0.6-1.1,1c-0.7,0.7-1.3,1.3-1.9,1.9
					C513.3,921.4,512.6,922.2,512.6,922.2"/>
				<path style="clip-path:url(#SVGID_23_);fill:#EB6D00;" d="M525.3,931.6c0,0-0.1-0.9,0.3-2.2c0.2-0.6,0.5-1.4,0.9-2.1
					c0.4-0.8,1-1.5,1.5-2.1c0.4-0.3,0.7-0.6,1-0.9c0.4-0.3,0.7-0.5,1.1-0.7c0.4-0.2,0.8-0.4,1.2-0.5c0.4-0.1,0.7-0.2,1.1-0.2
					c0.7-0.1,1.2,0,1.6,0c0.4,0,0.6,0.1,0.6,0.1s-0.2,0.1-0.5,0.3c-0.2,0.1-0.4,0.2-0.6,0.3c-0.2,0.1-0.5,0.3-0.7,0.4
					c-0.5,0.3-1.1,0.7-1.7,1.1c-0.3,0.2-0.5,0.5-0.9,0.7c-0.3,0.2-0.5,0.5-0.8,0.8c-1.1,1.1-2,2.4-2.8,3.4
					C525.8,930.9,525.3,931.6,525.3,931.6z"/>
				<path style="clip-path:url(#SVGID_23_);fill:#EB6D00;" d="M535.6,910.4c0,0,0.2-1,1-2.3c0.4-0.6,0.9-1.4,1.5-2.1
					c0.6-0.7,1.4-1.4,2.2-2c0.9-0.5,1.8-1,2.7-1.3c0.5-0.2,0.9-0.3,1.3-0.4c0.4-0.1,0.8-0.2,1.2-0.2c1.5-0.1,2.5,0.3,2.5,0.3
					c0,0-0.2,0.1-0.6,0.2c-0.4,0.1-1,0.3-1.6,0.6c-0.6,0.3-1.4,0.6-2.1,1c-0.4,0.2-0.7,0.4-1.1,0.6c-0.4,0.2-0.8,0.5-1.1,0.7
					c-0.8,0.5-1.5,1-2.2,1.6c-0.7,0.5-1.3,1-1.8,1.5C536.3,909.7,535.6,910.4,535.6,910.4"/>
				<path style="clip-path:url(#SVGID_23_);fill:#EB6D00;" d="M521.3,902.6c0,0,0-0.9,0.3-2.2c0.2-0.6,0.5-1.4,0.9-2.1
					c0.4-0.7,1-1.4,1.6-2.1c0.7-0.6,1.4-1.2,2.2-1.6c0.4-0.2,0.8-0.4,1.2-0.5c0.4-0.1,0.8-0.2,1.1-0.2c0.7,0,1.3,0,1.6,0.1
					c0.4,0.1,0.6,0.2,0.6,0.2s-0.2,0.1-0.6,0.2c-0.2,0.1-0.4,0.1-0.6,0.2c-0.2,0.1-0.5,0.2-0.7,0.3c-0.3,0.1-0.5,0.3-0.8,0.5
					c-0.3,0.1-0.5,0.4-0.9,0.6c-0.3,0.2-0.5,0.5-0.9,0.7c-0.3,0.2-0.5,0.5-0.8,0.8c-0.5,0.5-1.1,1.1-1.5,1.7
					c-0.5,0.6-0.9,1.1-1.3,1.6C521.9,901.9,521.3,902.6,521.3,902.6"/>
			</g>
			<g style="clip-path:url(#SVGID_8_);">
				<defs>
					<path id="SVGID_24_" d="M480.1,804.2c-0.3,0-0.5,0-0.8,0C479.6,804.2,479.9,804.2,480.1,804.2 M475,803.9c0,0,1.7,0.3,4.4,0.3
						C476.7,804.2,475,803.9,475,803.9 M493.3,801.6c0,0-0.1,0-0.1,0.1C493.2,801.7,493.2,801.7,493.3,801.6 M444.8,533.7
						c-7.9,14.8-99.6,64.1-191.7,0.1c0,0-3.9,6.5-15.2,16.1c-11.3,9.6-20,17-29.2,20.9c0-2,0-3.9,0-5.9c0,0.5-0.1,0.9-0.2,1.4
						c-1.2,17.1,8.9,35,5.4,38.5c-3.5,3.5-8.2,7.4-26.9,29.6c-16.8,20.9-20.3,44.6-20.9,50.7c0.4-0.1,0.5-0.2,0.5-0.2
						s-10,27.1,29.4,63.5c39.4,36.4,55.5,41.7,67.3,54.2c11.8,12.6,14.1,24.7,16.1,29.8c2,5.1,7.1-0.4,9-5.1
						c5.5,6.7,6.7,5.1,8.6-0.8c9.4,9.4,18.8,12.9,22.7,8.2c3.9-4.7,17.1-16.1,25.9-14.1c33.1,7.5,41.4,7.5,52.8,7
						c11.3-0.5,12.3,1,18.7,7.4c6.4,6.4,11.7,11.3,11.7,11.3s4-3.6,5.8-8.2c7.1,6.9,8.7,8.2,8.7,8.2s3.4-8.2,4.9-8.4
						c1.5-0.2,6.4,6.2,9.8,8c2.7,0.9,6.2-9.5,10.4-20.7c4.2-11.3,13.1-19.8,34.7-27.7c21.7-7.9,37.7-22,48.6-40.4
						c1.4,0.2,3.3,0.3,5.7,0.3c-47.6-4.1-54.2-44.3-54.2-44.3s-3.3,4.8-2.6,14.8c-16.8-15.7-16.4-41.7-11.6-68.5
						c-6.2,9.7-10.9,26.4-14.1,26.8c-7.8-5-10.3-27.8-6.1-46c-5.4-14.6,2.6-42.5,7.2-59.6c9.1-33.9,25.2-42.9,36.9-44.6
						c-13-8.5-26.4-16.5-39.7-23.6c-2.5-0.9-4.7-1.3-6.8-1.3C456.5,511.2,451.3,521.4,444.8,533.7"/>
				</defs>
				<clipPath id="SVGID_25_">
					<use xlink:href="#SVGID_24_"  style="overflow:visible;"/>
				</clipPath>
				
					<radialGradient id="SVGID_26_" cx="-2.8481" cy="1073.5143" r="1" gradientTransform="matrix(238.0045 0 0 238.0045 1007.655 -254841.7969)" gradientUnits="userSpaceOnUse">
					<stop  offset="0" style="stop-color:#ECB251"/>
					<stop  offset="0.1327" style="stop-color:#ECB251"/>
					<stop  offset="1" style="stop-color:#D3670C"/>
				</radialGradient>
				<rect x="156.7" y="511.2" style="clip-path:url(#SVGID_25_);fill:url(#SVGID_26_);" width="400.9" height="335.8"/>
			</g>
			<g style="clip-path:url(#SVGID_8_);">
				<defs>
					<path id="SVGID_27_" d="M476.2,580.7c-4.6,17.1-12.5,45-7.2,59.6c-4.3,18.2-1.8,41,6.1,46c3.2-0.4,7.9-17.1,14.1-26.8
						c-4.8,26.8-5.2,52.8,11.6,68.5c-0.7-10,2.6-14.8,2.6-14.8s6.6,40.2,54.3,44.3c20.3-0.1,72.4-8.8,82.3-37.3
						c1.8-5.7-7.8,1.5-15.3,3.9c24.2-14.2,31.7-34.2,28.5-37.8c-3.2-3.6-21.4,12.5-32.8,17.5c24.2-18.9,31.7-40.3,28.1-42.4
						c-3.6-2.1-20.7,7.5-33.1,22.5c17.8-27.1,21.5-40,9.7-56.2c-9.5-13.1-57.3-56.1-111.9-91.6C501.4,537.8,485.3,546.8,476.2,580.7
						"/>
				</defs>
				<clipPath id="SVGID_28_">
					<use xlink:href="#SVGID_27_"  style="overflow:visible;"/>
				</clipPath>
				
					<radialGradient id="SVGID_29_" cx="-2.0782" cy="1072.8346" r="1" gradientTransform="matrix(326.1804 0 0 326.1804 1324.13 -349491.5)" gradientUnits="userSpaceOnUse">
					<stop  offset="0" style="stop-color:#F89708"/>
					<stop  offset="0.8601" style="stop-color:#7F3506"/>
					<stop  offset="1" style="stop-color:#7F3506"/>
				</radialGradient>
				<rect x="463.7" y="536.1" style="clip-path:url(#SVGID_28_);fill:url(#SVGID_29_);" width="192.6" height="221.4"/>
			</g>
			<g style="clip-path:url(#SVGID_8_);">
				<defs>
					<rect id="SVGID_30_" x="-677.9" y="142" width="3633.7" height="1527.4"/>
				</defs>
				<clipPath id="SVGID_31_">
					<use xlink:href="#SVGID_30_"  style="overflow:visible;"/>
				</clipPath>
				<g style="opacity:0.5;clip-path:url(#SVGID_31_);enable-background:new    ;">
					<g>
						<defs>
							<rect id="SVGID_32_" x="557.8" y="661.1" width="91.5" height="81.4"/>
						</defs>
						<clipPath id="SVGID_33_">
							<use xlink:href="#SVGID_32_"  style="overflow:visible;"/>
						</clipPath>
						<g style="clip-path:url(#SVGID_33_);">
							<defs>
								<path id="SVGID_34_" d="M615.3,683.9c1.9-2.8,3.5-5.4,5.1-8c-6.7,8.2-13.9,15.9-20.2,24.4c-11.8,15.8-26.5,26-42.4,36.8
									c8.7-1.1,16-6.2,23.5-10.5c0.4-0.2,0.6,0.2,0.6,0.6c-0.2,2.8-0.6,5.4-1.6,8c-0.8,2.2-5.6,10.9,0.6,5.7
									c5.4-4.5,8-10.9,11-17.1c5.6-11.3,14.7-21.2,23.3-30.3c10.4-10.9,21.7-21.1,34.2-29.5c0-1.3-0.2-2.2-0.8-2.6
									C644.9,659.3,627.8,668.9,615.3,683.9"/>
							</defs>
							<clipPath id="SVGID_35_">
								<use xlink:href="#SVGID_34_"  style="overflow:visible;"/>
							</clipPath>
							
								<radialGradient id="SVGID_36_" cx="-2.0781" cy="1072.8345" r="1" gradientTransform="matrix(326.1942 0 0 326.1942 1324.1282 -349506.2812)" gradientUnits="userSpaceOnUse">
								<stop  offset="0" style="stop-color:#F89708"/>
								<stop  offset="0.8601" style="stop-color:#7F3506"/>
								<stop  offset="1" style="stop-color:#7F3506"/>
							</radialGradient>
							<rect x="557.8" y="659.3" style="clip-path:url(#SVGID_35_);fill:url(#SVGID_36_);" width="91.6" height="86.8"/>
						</g>
					</g>
				</g>
				<g style="opacity:0.5;clip-path:url(#SVGID_31_);">
					<g>
						<defs>
							<rect id="SVGID_37_" x="230.5" y="511.2" width="327.1" height="335.3"/>
						</defs>
						<clipPath id="SVGID_38_">
							<use xlink:href="#SVGID_37_"  style="overflow:visible;"/>
						</clipPath>
						<g style="clip-path:url(#SVGID_38_);">
							<defs>
								<path id="SVGID_39_" d="M503.4,713.3c0,0-3.3,4.8-2.6,14.8c-16.8-15.7-16.4-41.7-11.6-68.5c-6.2,9.7-10.9,26.4-14.1,26.8
									c-7.8-5-10.3-27.8-6.1-46c-5.4-14.6,2.6-42.5,7.2-59.6c9.1-33.9,25.2-42.9,36.9-44.6c-13-8.5-26.4-16.5-39.7-23.6
									c-14.8-5.4-20.7,6.4-28.6,21.2c-7.9,14.8-99.6,64.1-191.7,0.1c0,0-3.9,6.5-15.2,16.1c-0.2,0.2-0.5,0.4-0.7,0.6
									c6.4,10.9,21.2,31.1,49.1,46.1c-3.1-6.9-3.9-11.5-3.9-11.5S327,663.6,414,598.2l-3.9,17.7c0,0,9.1,1.5,26.2-16.9
									c20.5-22.2,17.3,22.2,11.5,30.5c9-11.3,12-15.3,12-15.3s6.9,24.6-4.9,42.4c-11.8,17.7,15.8,15.8,20.7,75.8
									c4.9,60.1-42.2,87.8-97.2,82.7c-55-5.1-77.5-28.9-77.5-28.9s7.1,13.9,19,24.5c5.1,6.8-10.2,30.2-18.7,9.8
									c-4.1,6-10.6,0.4-13.2-6.4c-5.9,13.2-5.7,13-13.5-2.8c-6.4-12.8-18.8-21.9-44-33.9c16,12.1,25.4,17.1,32.9,25.2
									c11.8,12.6,14.1,24.7,16.1,29.8c2,5.1,7.1-0.4,9-5.1c5.5,6.7,6.7,5.1,8.6-0.8c9.4,9.4,18.8,12.9,22.7,8.2
									c3.9-4.7,17.1-16.1,25.9-14.1c33.1,7.5,41.4,7.5,52.8,7c11.3-0.5,12.3,1,18.7,7.4c6.4,6.4,11.7,11.3,11.7,11.3
									s4-3.6,5.8-8.2c7.1,6.9,8.7,8.2,8.7,8.2s3.4-8.2,4.9-8.4c1.4-0.2,6.4,6.2,9.8,8c2.7,0.9,6.2-9.5,10.4-20.7
									c4.2-11.3,13.1-19.8,34.7-27.7c21.7-7.9,37.7-22,48.6-40.4c1.4,0.2,3.3,0.3,5.7,0.3C510,753.5,503.4,713.3,503.4,713.3
									 M475,803.9c0,0,9.1,1.4,18.3-2.3C484,805.3,475,803.9,475,803.9"/>
							</defs>
							<clipPath id="SVGID_40_">
								<use xlink:href="#SVGID_39_"  style="overflow:visible;"/>
							</clipPath>
							
								<radialGradient id="SVGID_41_" cx="-2.8481" cy="1073.5143" r="1" gradientTransform="matrix(238.0048 0 0 238.0048 1007.6545 -254842.0312)" gradientUnits="userSpaceOnUse">
								<stop  offset="0" style="stop-color:#ECB251"/>
								<stop  offset="0.1327" style="stop-color:#ECB251"/>
								<stop  offset="1" style="stop-color:#D3670C"/>
							</radialGradient>
							<rect x="230.5" y="507.1" style="clip-path:url(#SVGID_40_);fill:url(#SVGID_41_);" width="327.1" height="339.9"/>
						</g>
					</g>
				</g>
			</g>
			<g style="clip-path:url(#SVGID_8_);">
				<defs>
					<path id="SVGID_42_" d="M138.7,452.3c4.3,12.5,17.4,39.7,17.4,39.7s-16.1-16.7-24.3-0.3c-7.9-1-13.8,17.7-15.4,33.2
						c-10.2,15.1-21.2,48.2-9.4,108.8c14.1,51.2,25.8,60.6,30.5,60.2c4.3-0.4,25.1-7.5,28.8-8.8c0.6-6.1,4.1-29.8,20.9-50.7
						c18.7-22.2,23.4-26.1,26.9-29.6c3.5-3.5-6.6-21.4-5.4-38.5c0-0.5,0.1-1,0.2-1.4c-0.4-28.7-2.7-55.8,14.4-79.5
						c-9.2-6.5-29.1,8-33.5,20.7c-0.9-23.2-30-53.9-50.3-53.9C139.1,452.2,138.9,452.3,138.7,452.3"/>
				</defs>
				<clipPath id="SVGID_43_">
					<use xlink:href="#SVGID_42_"  style="overflow:visible;"/>
				</clipPath>
				
					<radialGradient id="SVGID_44_" cx="-3.2855" cy="1073.9004" r="1" gradientTransform="matrix(206.3182 0 0 206.3182 733.7596 -221054.8594)" gradientUnits="userSpaceOnUse">
					<stop  offset="0" style="stop-color:#F89708"/>
					<stop  offset="0.8601" style="stop-color:#7F3506"/>
					<stop  offset="1" style="stop-color:#7F3506"/>
				</radialGradient>
				<rect x="95.2" y="452.2" style="clip-path:url(#SVGID_43_);fill:url(#SVGID_44_);" width="127.9" height="242"/>
			</g>
			<g style="clip-path:url(#SVGID_8_);">
				<defs>
					<rect id="SVGID_45_" x="-677.9" y="142" width="3633.7" height="1527.4"/>
				</defs>
				<clipPath id="SVGID_46_">
					<use xlink:href="#SVGID_45_"  style="overflow:visible;"/>
				</clipPath>
				<g style="opacity:0.5;clip-path:url(#SVGID_46_);enable-background:new    ;">
					<g>
						<defs>
							<rect id="SVGID_47_" x="104.2" y="485.1" width="118.8" height="208.8"/>
						</defs>
						<clipPath id="SVGID_48_">
							<use xlink:href="#SVGID_47_"  style="overflow:visible;"/>
						</clipPath>
						<g style="clip-path:url(#SVGID_48_);">
							<defs>
								<path id="SVGID_49_" d="M222.6,485.1c-12.7,12.2-20,27.8-22,45.8c-1.9,17,1.2,34.7-1.6,51.5c-2.7,16-10.1,31.9-22.5,42.6
									c-2.8,2.4-10.7,9.9-15,8.5c-2.1-0.7-2-4.3-1.7-7.1c-5.1,9.9-13.7,19.9-22.6,25.8c-10.9,7.3-18.3-6.6-23.4-15.1
									c-3.8-6.3-7-12.9-9.7-19.7c0.7,5.2,1.6,10.5,2.7,16.2c14.1,51.2,25.8,60.6,30.5,60.2c4.3-0.4,25.1-7.5,28.8-8.8
									c0.6-6.1,4.1-29.8,20.9-50.7c18.7-22.2,23.4-26.1,26.9-29.6c3.5-3.5-6.6-21.4-5.4-38.5c0-0.5,0.1-1,0.2-1.4
									c-0.4-28.7-2.7-55.8,14.4-79.5C222.9,485.3,222.7,485.2,222.6,485.1"/>
							</defs>
							<clipPath id="SVGID_50_">
								<use xlink:href="#SVGID_49_"  style="overflow:visible;"/>
							</clipPath>
							
								<radialGradient id="SVGID_51_" cx="-3.2855" cy="1073.9004" r="1" gradientTransform="matrix(206.3203 0 0 206.3203 733.7558 -221057.1562)" gradientUnits="userSpaceOnUse">
								<stop  offset="0" style="stop-color:#F89708"/>
								<stop  offset="0.8601" style="stop-color:#7F3506"/>
								<stop  offset="1" style="stop-color:#7F3506"/>
							</radialGradient>
							<rect x="104.2" y="485.1" style="clip-path:url(#SVGID_50_);fill:url(#SVGID_51_);" width="118.8" height="209.2"/>
						</g>
					</g>
				</g>
			</g>
			<g style="clip-path:url(#SVGID_8_);">
				<defs>
					<path id="SVGID_52_" d="M359.6,292.4C300,312.6,300,375.6,298.1,413c-2,37.4-6.2,45.1-24.3,58.4
						c-18.1,13.3-28.4,29.8-24.9,29.5c3.5-0.3,9.3-3.4,9.5-3.5c-20,17.4-21.3,45.6-18.4,45.6c2.9,0,1-3.9,7.9-11.3
						c-9.3,32.5,32.5,49.3,32.5,49.3s-3.4-5.9-1.5-19.2c1,15.3,16.2,36.9,59.1,46.8c79.3,0,91.1-37.4,91.1-37.4s0.5,4.4-1.5,17.2
						c61.6-41.9,37.4-79.8,37.4-79.8s8.4,3.4,12.3,16.2c1.5-24.1-11.8-32-24.6-53.2c-12.8-21.2-11.8-64-8.4-111.8
						c2.4-46.4-22.4-72.1-57.6-72C378.2,287.8,369.1,289.3,359.6,292.4"/>
				</defs>
				<clipPath id="SVGID_53_">
					<use xlink:href="#SVGID_52_"  style="overflow:visible;"/>
				</clipPath>
				
					<radialGradient id="SVGID_54_" cx="-2.5059" cy="1073.2122" r="1" gradientTransform="matrix(270.5041 0 0 270.5041 1035.941 -289946.5938)" gradientUnits="userSpaceOnUse">
					<stop  offset="0" style="stop-color:#F89708"/>
					<stop  offset="0.8601" style="stop-color:#7F3506"/>
					<stop  offset="1" style="stop-color:#7F3506"/>
				</radialGradient>
				<rect x="237" y="287.8" style="clip-path:url(#SVGID_53_);fill:url(#SVGID_54_);" width="252.1" height="320.7"/>
			</g>
			<g style="clip-path:url(#SVGID_8_);">
				<defs>
					<rect id="SVGID_55_" x="-677.9" y="142" width="3633.7" height="1527.4"/>
				</defs>
				<clipPath id="SVGID_56_">
					<use xlink:href="#SVGID_55_"  style="overflow:visible;"/>
				</clipPath>
				<g style="opacity:0.5;clip-path:url(#SVGID_56_);enable-background:new    ;">
					<g>
						<defs>
							<rect id="SVGID_57_" x="345.1" y="287.8" width="99.3" height="69.7"/>
						</defs>
						<clipPath id="SVGID_58_">
							<use xlink:href="#SVGID_57_"  style="overflow:visible;"/>
						</clipPath>
						<g style="clip-path:url(#SVGID_58_);">
							<defs>
								<path id="SVGID_59_" d="M357.4,297.7c6.6,3,8.5,16.8,8.5,16.8s11.2-21.2,33.8-17.8c22.6,3.4,45.3,28.5,44.6,59.7v1
									c1.8-56-36.7-80.7-84.8-65.1c-5.3,1.8-10.1,3.9-14.5,6.4C349.7,297.3,354.5,296.4,357.4,297.7"/>
							</defs>
							<clipPath id="SVGID_60_">
								<use xlink:href="#SVGID_59_"  style="overflow:visible;"/>
							</clipPath>
							
								<radialGradient id="SVGID_61_" cx="-2.5059" cy="1073.2122" r="1" gradientTransform="matrix(270.5085 0 0 270.5085 1035.9429 -289951.2812)" gradientUnits="userSpaceOnUse">
								<stop  offset="0" style="stop-color:#F89708"/>
								<stop  offset="0.8601" style="stop-color:#7F3506"/>
								<stop  offset="1" style="stop-color:#7F3506"/>
							</radialGradient>
							<rect x="345.1" y="276.8" style="clip-path:url(#SVGID_60_);fill:url(#SVGID_61_);" width="101" height="80.7"/>
						</g>
					</g>
				</g>
				<g style="opacity:0.5;clip-path:url(#SVGID_56_);enable-background:new    ;">
					<g>
						<defs>
							<rect id="SVGID_62_" x="374.8" y="315.2" width="54.1" height="74.7"/>
						</defs>
						<clipPath id="SVGID_63_">
							<use xlink:href="#SVGID_62_"  style="overflow:visible;"/>
						</clipPath>
						<g style="clip-path:url(#SVGID_63_);">
							<defs>
								<path id="SVGID_64_" d="M397.9,389.8c0,0,14.4-10.6,28-6.5c-3.3-4.1-10.9-3-10.9-3s19.4-11.7,12.2-42.9
									c-6.8-29.7-44.2-31.2-51.9,5.1c-2.2,13.9,0.5,41.9,24.7,42.1C397.6,387.1,397.9,389.9,397.9,389.8L397.9,389.8z"/>
							</defs>
							<clipPath id="SVGID_65_">
								<use xlink:href="#SVGID_64_"  style="overflow:visible;"/>
							</clipPath>
							
								<radialGradient id="SVGID_66_" cx="-5.5154" cy="1075.8689" r="1" gradientTransform="matrix(122.9045 0 0 122.9045 1045.0819 -131898.625)" gradientUnits="userSpaceOnUse">
								<stop  offset="0" style="stop-color:#F89708"/>
								<stop  offset="0.8601" style="stop-color:#7F3506"/>
								<stop  offset="1" style="stop-color:#7F3506"/>
							</radialGradient>
							<rect x="373.2" y="306.2" style="clip-path:url(#SVGID_65_);fill:url(#SVGID_66_);" width="61.2" height="83.6"/>
						</g>
					</g>
				</g>
				<g style="opacity:0.5;clip-path:url(#SVGID_56_);enable-background:new    ;">
					<g>
						<defs>
							<rect id="SVGID_67_" x="307.4" y="315.6" width="46.7" height="60.5"/>
						</defs>
						<clipPath id="SVGID_68_">
							<use xlink:href="#SVGID_67_"  style="overflow:visible;"/>
						</clipPath>
						<g style="clip-path:url(#SVGID_68_);">
							<defs>
								<path id="SVGID_69_" d="M307.4,371c0,0,9-3.5,14.9,5c0.7-3.5-0.7-4.8-0.7-4.8s11.8,5.7,24.5-13.2
									c12.7-18.8,9.2-41.4-3.5-42.5c-12.7-1.1-30.4,14.5-30.4,41.8c0,6.8,4.2,10.1,4.2,10.1S308.9,367.1,307.4,371L307.4,371z"/>
							</defs>
							<clipPath id="SVGID_70_">
								<use xlink:href="#SVGID_69_"  style="overflow:visible;"/>
							</clipPath>
							
								<radialGradient id="SVGID_71_" cx="-5.5158" cy="1075.8693" r="1" gradientTransform="matrix(122.8943 0 0 122.8943 1045.0847 -131887.6875)" gradientUnits="userSpaceOnUse">
								<stop  offset="0" style="stop-color:#F89708"/>
								<stop  offset="0.8601" style="stop-color:#7F3506"/>
								<stop  offset="1" style="stop-color:#7F3506"/>
							</radialGradient>
							<rect x="307.4" y="314.5" style="clip-path:url(#SVGID_70_);fill:url(#SVGID_71_);" width="51.4" height="62.4"/>
						</g>
					</g>
				</g>
			</g>
			<g style="clip-path:url(#SVGID_8_);">
				<defs>
					<path id="SVGID_72_" d="M358.2,440c0,0-7.1,14.7-19.7,27.4c-12.7,12.7-11.8,20.3-5.9,25c5.9,4.7,12.7,0.6,15.6-2.1
						c-8.8,10.9-12.7,26.2,5.6,27.1C372,518.4,385,496,385,471.8c0-24.2,0.6-39.4,2.2-47.8C377.9,431.5,358.2,440,358.2,440"/>
				</defs>
				<clipPath id="SVGID_73_">
					<use xlink:href="#SVGID_72_"  style="overflow:visible;"/>
				</clipPath>
				
					<radialGradient id="SVGID_74_" cx="-9.9648" cy="1079.7968" r="1" gradientTransform="matrix(68.0261 0 0 68.0261 1027.1217 -72976.5)" gradientUnits="userSpaceOnUse">
					<stop  offset="0" style="stop-color:#E40000"/>
					<stop  offset="0.1327" style="stop-color:#E40000"/>
					<stop  offset="1" style="stop-color:#420D00"/>
				</radialGradient>
				<rect x="325.8" y="424" style="clip-path:url(#SVGID_73_);fill:url(#SVGID_74_);" width="61.4" height="94.4"/>
			</g>
			<g style="clip-path:url(#SVGID_8_);">
				<defs>
					<path id="SVGID_75_" d="M377.5,348.9c-1.1,18,8.7,33.3,21.8,34.1c13.1,0.8,24.6-13.1,25.7-31.2v0c1.1-18-8.7-33.3-21.8-34.1
						c-0.4,0-0.7,0-1.1,0C389.4,317.6,378.5,331.3,377.5,348.9"/>
				</defs>
				<clipPath id="SVGID_76_">
					<use xlink:href="#SVGID_75_"  style="overflow:visible;"/>
				</clipPath>
				
					<linearGradient id="SVGID_77_" gradientUnits="userSpaceOnUse" x1="-14.9953" y1="1081.9131" x2="-13.9953" y2="1081.9131" gradientTransform="matrix(47.8445 -3.9513 3.6292 49.4393 -2831.7227 -53195.6758)">
					<stop  offset="0" style="stop-color:#FFFFFF"/>
					<stop  offset="0.8358" style="stop-color:#EAEAEA"/>
					<stop  offset="1" style="stop-color:#E5E5E5"/>
				</linearGradient>
				<polygon style="clip-path:url(#SVGID_76_);fill:url(#SVGID_77_);" points="376.7,387.8 430.9,383.3 425.8,313.6 371.6,318 				
					"/>
			</g>
			<g style="clip-path:url(#SVGID_8_);">
				<defs>
					<path id="SVGID_78_" d="M318.1,337.1c-6.5,14.1-5.1,28.4,3,32.2c8.1,3.7,19.9-4.7,26.4-18.7v0c6.5-14.1,5.1-28.5-2.9-32.2
						c-1.3-0.6-2.7-0.9-4.1-0.9C332.7,317.5,323.5,325.2,318.1,337.1"/>
				</defs>
				<clipPath id="SVGID_79_">
					<use xlink:href="#SVGID_78_"  style="overflow:visible;"/>
				</clipPath>
				
					<linearGradient id="SVGID_80_" gradientUnits="userSpaceOnUse" x1="-13.8165" y1="1088.7633" x2="-12.8165" y2="1088.7633" gradientTransform="matrix(31.702 8.1549 -13.5276 40.1044 15482.8789 -43210.5312)">
					<stop  offset="0" style="stop-color:#FFFFFF"/>
					<stop  offset="0.8358" style="stop-color:#EAEAEA"/>
					<stop  offset="1" style="stop-color:#E5E5E5"/>
				</linearGradient>
				<polygon style="clip-path:url(#SVGID_79_);fill:url(#SVGID_80_);" points="294.4,368.5 350.5,382.9 371.1,321.9 315,307.5 				
					"/>
			</g>
			<g style="clip-path:url(#SVGID_8_);">
				<defs>
					<path id="SVGID_81_" d="M337.1,327.5c-6.8,0.1-13.5,8.3-15.1,18.3c-1.6,10,2.7,18,9.4,17.9c6.8-0.1,13.5-8.3,15.1-18.3
						c1.6-9.9-2.6-17.9-9.3-17.9C337.2,327.5,337.1,327.5,337.1,327.5"/>
				</defs>
				<clipPath id="SVGID_82_">
					<use xlink:href="#SVGID_81_"  style="overflow:visible;"/>
				</clipPath>
				
					<radialGradient id="SVGID_83_" cx="-13.5475" cy="1087.6272" r="1" gradientTransform="matrix(41.9525 5.999330e-02 -6.5864 36.0388 8069.5884 -38873.1836)" gradientUnits="userSpaceOnUse">
					<stop  offset="0" style="stop-color:#0BB8FF"/>
					<stop  offset="0.262" style="stop-color:#0BB8FF"/>
					<stop  offset="1" style="stop-color:#00496E"/>
				</radialGradient>
				<polygon style="clip-path:url(#SVGID_82_);fill:url(#SVGID_83_);" points="313.8,363.9 348.1,363.9 354.7,327.5 320.4,327.5 
									"/>
			</g>
			<g style="clip-path:url(#SVGID_8_);">
				<defs>
					<path id="SVGID_84_" d="M336.3,334c-4.5,0.1-9,5.5-10,12.2c-1,6.6,1.8,12,6.3,11.9c4.5-0.1,9-5.5,10-12.2
						c1-6.6-1.7-11.9-6.2-11.9C336.4,334,336.3,334,336.3,334"/>
				</defs>
				<clipPath id="SVGID_85_">
					<use xlink:href="#SVGID_84_"  style="overflow:visible;"/>
				</clipPath>
				
					<radialGradient id="SVGID_86_" cx="-20.4076" cy="1088.0328" r="1" gradientTransform="matrix(34.2376 -5.4954 1.2235 28.5486 -290.3753 -30837.459)" gradientUnits="userSpaceOnUse">
					<stop  offset="0" style="stop-color:#215673"/>
					<stop  offset="0.2679" style="stop-color:#215673"/>
					<stop  offset="0.4726" style="stop-color:#1F526F"/>
					<stop  offset="0.6939" style="stop-color:#194862"/>
					<stop  offset="0.9223" style="stop-color:#0F364C"/>
					<stop  offset="1" style="stop-color:#0B2E43"/>
				</radialGradient>
				<polygon style="clip-path:url(#SVGID_85_);fill:url(#SVGID_86_);" points="325.4,361 344.6,358 343.5,331.1 324.2,334.1 				"/>
			</g>
			<g style="clip-path:url(#SVGID_8_);">
				<defs>
					<path id="SVGID_87_" d="M340,333.3c-2.6,0.7-4.6,4.5-4.5,8.5c0.1,4,2.3,6.6,4.8,5.8c2.5-0.7,4.5-4.6,4.4-8.5
						c-0.1-3.5-1.8-6-3.9-6C340.6,333.2,340.3,333.2,340,333.3"/>
				</defs>
				<clipPath id="SVGID_88_">
					<use xlink:href="#SVGID_87_"  style="overflow:visible;"/>
				</clipPath>
				
					<linearGradient id="SVGID_89_" gradientUnits="userSpaceOnUse" x1="45.7526" y1="1045.3806" x2="46.7526" y2="1045.3806" gradientTransform="matrix(-16.8565 3.6467 -3.6467 -16.8565 4933.1216 17793.3066)">
					<stop  offset="0" style="stop-color:#FFFFFF"/>
					<stop  offset="0.8358" style="stop-color:#EAEAEA"/>
					<stop  offset="1" style="stop-color:#E5E5E5"/>
				</linearGradient>
				<polygon style="clip-path:url(#SVGID_88_);fill:url(#SVGID_89_);" points="344.4,331.2 332.3,333.9 335.8,350.3 348,347.7 				
					"/>
			</g>
			<g style="clip-path:url(#SVGID_8_);">
				<defs>
					<path id="SVGID_90_" d="M398.4,330.9c-8.3,3.4-13,15.7-10.5,27.5c2.4,11.9,11.1,18.8,19.4,15.4c8.3-3.4,13-15.7,10.5-27.5
						c-2-9.8-8.3-16.3-15.1-16.3C401.3,330.1,399.9,330.3,398.4,330.9"/>
				</defs>
				<clipPath id="SVGID_91_">
					<use xlink:href="#SVGID_90_"  style="overflow:visible;"/>
				</clipPath>
				
					<radialGradient id="SVGID_92_" cx="-14.2433" cy="1078.3265" r="1" gradientTransform="matrix(51.4969 -19.8052 7.5914 43.1742 -7055.3594 -46512.6133)" gradientUnits="userSpaceOnUse">
					<stop  offset="0" style="stop-color:#0BB8FF"/>
					<stop  offset="0.262" style="stop-color:#0BB8FF"/>
					<stop  offset="1" style="stop-color:#00496E"/>
				</radialGradient>
				<polygon style="clip-path:url(#SVGID_91_);fill:url(#SVGID_92_);" points="387.7,389.8 428,374.3 418,317.5 377.7,333.1 				"/>
			</g>
			<g style="clip-path:url(#SVGID_8_);">
				<defs>
					<path id="SVGID_93_" d="M400.3,338.4c-5.5,2.2-8.6,10.4-7,18.3c1.6,7.9,7.4,12.5,12.9,10.2c5.5-2.2,8.6-10.4,7-18.3
						c-1.4-6.5-5.6-10.8-10.1-10.8C402.2,337.9,401.2,338.1,400.3,338.4"/>
				</defs>
				<clipPath id="SVGID_94_">
					<use xlink:href="#SVGID_93_"  style="overflow:visible;"/>
				</clipPath>
				
					<radialGradient id="SVGID_95_" cx="-19.0581" cy="1076.5492" r="1" gradientTransform="matrix(39.6215 -22.3289 13.9204 31.1513 -13822.3066 -33623.0273)" gradientUnits="userSpaceOnUse">
					<stop  offset="0" style="stop-color:#215673"/>
					<stop  offset="0.2679" style="stop-color:#215673"/>
					<stop  offset="0.4726" style="stop-color:#1F526F"/>
					<stop  offset="0.6939" style="stop-color:#194862"/>
					<stop  offset="0.9223" style="stop-color:#0F364C"/>
					<stop  offset="1" style="stop-color:#0B2E43"/>
				</radialGradient>
				<polygon style="clip-path:url(#SVGID_94_);fill:url(#SVGID_95_);" points="396.3,379.6 426,362.9 410.1,327.5 380.5,344.2 				
					"/>
			</g>
			<g style="clip-path:url(#SVGID_8_);">
				<defs>
					<path id="SVGID_96_" d="M404.5,336c-2.8,2-3.6,7.2-1.8,11.6c1.8,4.4,5.6,6.3,8.4,4.2c2.8-2,3.6-7.2,1.8-11.6
						c-1.3-3.2-3.7-5-6-5C406.1,335.1,405.3,335.4,404.5,336"/>
				</defs>
				<clipPath id="SVGID_97_">
					<use xlink:href="#SVGID_96_"  style="overflow:visible;"/>
				</clipPath>
				
					<linearGradient id="SVGID_98_" gradientUnits="userSpaceOnUse" x1="40.0438" y1="1065.3572" x2="41.0438" y2="1065.3572" gradientTransform="matrix(-18.6579 12.3253 -12.3253 -18.6579 14296.6348 19721.1152)">
					<stop  offset="0" style="stop-color:#FFFFFF"/>
					<stop  offset="0.8358" style="stop-color:#EAEAEA"/>
					<stop  offset="1" style="stop-color:#E5E5E5"/>
				</linearGradient>
				<polygon style="clip-path:url(#SVGID_97_);fill:url(#SVGID_98_);" points="410.6,328.8 392.3,340.8 405.1,360.2 423.3,348.1 
									"/>
			</g>
			<g style="clip-path:url(#SVGID_8_);">
				<defs>
					<rect id="SVGID_99_" x="-677.9" y="142" width="3633.7" height="1527.4"/>
				</defs>
				<clipPath id="SVGID_100_">
					<use xlink:href="#SVGID_99_"  style="overflow:visible;"/>
				</clipPath>
				<path style="clip-path:url(#SVGID_100_);fill:#7F3506;" d="M384,321.1c0,0,12.1-16,31.3-1C415.6,308.1,392.9,297,384,321.1"/>
				<path style="clip-path:url(#SVGID_100_);fill:#7F3506;" d="M329.5,318.7c0,0,7-4.9,13.2-3.9c6.2,1,9,6.6,10.2,10
					c0.3-9.5-5.9-17.6-11.7-17.3C335.4,307.9,330.7,312.1,329.5,318.7L329.5,318.7z"/>
			</g>
			<g style="clip-path:url(#SVGID_8_);">
				<defs>
					<path id="SVGID_101_" d="M320.9,379.6c-23.4,24.1-20.2,64.5-20.2,64.5c1.9-5.6,14.2-16.1,25.7-21.3c0,0,15.9-6.9,42.7-0.4
						c11.4,2.9,18,1.7,18,1.7s11.5-4.9,1.7-31.8l0,0c-9.4-20.6-22.1-28.4-34.9-28.4C342.2,363.7,330.5,370.3,320.9,379.6"/>
				</defs>
				<clipPath id="SVGID_102_">
					<use xlink:href="#SVGID_101_"  style="overflow:visible;"/>
				</clipPath>
				
					<radialGradient id="SVGID_103_" cx="-9.9503" cy="1079.7841" r="1" gradientTransform="matrix(68.1248 0 0 68.1248 1021.7563 -73180.1797)" gradientUnits="userSpaceOnUse">
					<stop  offset="0" style="stop-color:#FCD000"/>
					<stop  offset="8.180001e-02" style="stop-color:#FCD000"/>
					<stop  offset="0.813" style="stop-color:#FFB600"/>
					<stop  offset="1" style="stop-color:#FFB600"/>
				</radialGradient>
				<rect x="297.6" y="363.7" style="clip-path:url(#SVGID_102_);fill:url(#SVGID_103_);" width="101.1" height="80.3"/>
			</g>
			<g style="clip-path:url(#SVGID_8_);">
				<defs>
					<path id="SVGID_104_" d="M326.5,422.7c-3.6,8.2-6.9,31.8-0.3,47.6c6.9-14.8,34.5-28.9,47.3-33.8c12.8-4.9,13.8-12.5,13.8-12.5
						s-2.9,0.5-8.2,0l0,0c-2.2,1.4-5.3,2.9-9.6,4.1c-12.4,3.4-33.6,18.7-39.9,27.8c-2.4-12.7-1-24.6,2.4-34.9
						C328.3,421.9,326.5,422.7,326.5,422.7"/>
				</defs>
				<clipPath id="SVGID_105_">
					<use xlink:href="#SVGID_104_"  style="overflow:visible;"/>
				</clipPath>
				
					<radialGradient id="SVGID_106_" cx="-16.1982" cy="1085.2996" r="1" gradientTransform="matrix(41.8482 0 0 41.8482 1018.2919 -44983.1914)" gradientUnits="userSpaceOnUse">
					<stop  offset="0" style="stop-color:#FCD000"/>
					<stop  offset="8.180001e-02" style="stop-color:#FCD000"/>
					<stop  offset="0.813" style="stop-color:#FFB600"/>
					<stop  offset="1" style="stop-color:#FFB600"/>
				</radialGradient>
				<rect x="319.6" y="421.1" style="clip-path:url(#SVGID_105_);fill:url(#SVGID_106_);" width="67.6" height="49.2"/>
			</g>
			<g style="clip-path:url(#SVGID_8_);">
				<defs>
					<rect id="SVGID_107_" x="-677.9" y="142" width="3633.7" height="1527.4"/>
				</defs>
				<clipPath id="SVGID_108_">
					<use xlink:href="#SVGID_107_"  style="overflow:visible;"/>
				</clipPath>
				<g style="opacity:0.5;clip-path:url(#SVGID_108_);enable-background:new    ;">
					<g>
						<defs>
							<rect id="SVGID_109_" x="322.4" y="421.1" width="64.8" height="49.2"/>
						</defs>
						<clipPath id="SVGID_110_">
							<use xlink:href="#SVGID_109_"  style="overflow:visible;"/>
						</clipPath>
						<g style="clip-path:url(#SVGID_110_);">
							<defs>
								<path id="SVGID_111_" d="M379,424.1c-2.2,1.4-5.3,2.9-9.6,4.1c-12.4,3.4-33.6,18.7-39.9,27.8c-2.4-12.8-1-24.6,2.4-34.9
									c-3.5,0.8-5.4,1.6-5.4,1.6c-3.6,8.2-6.9,31.8-0.3,47.6c6.9-14.8,34.5-28.9,47.3-33.8c12.8-4.9,13.8-12.5,13.8-12.5
									S384.3,424.6,379,424.1L379,424.1z"/>
							</defs>
							<clipPath id="SVGID_112_">
								<use xlink:href="#SVGID_111_"  style="overflow:visible;"/>
							</clipPath>
							
								<radialGradient id="SVGID_113_" cx="-16.1982" cy="1085.2996" r="1" gradientTransform="matrix(41.8482 0 0 41.8482 1018.2919 -44983.1914)" gradientUnits="userSpaceOnUse">
								<stop  offset="0" style="stop-color:#FCD000"/>
								<stop  offset="8.180001e-02" style="stop-color:#FCD000"/>
								<stop  offset="0.813" style="stop-color:#FFB600"/>
								<stop  offset="1" style="stop-color:#FFB600"/>
							</radialGradient>
							<rect x="319.6" y="421.1" style="clip-path:url(#SVGID_112_);fill:url(#SVGID_113_);" width="67.6" height="49.2"/>
						</g>
					</g>
				</g>
			</g>
			<g style="clip-path:url(#SVGID_8_);">
				<defs>
					<path id="SVGID_114_" d="M331.8,421.1c-3.4,10.2-4.8,22.1-2.4,34.9c1.2-1.7,2.9-3.5,4.9-5.5c0.3-13.8,8-25.2,12.8-30.9
						c-0.1,0-0.2,0-0.3,0C340.4,419.5,335.3,420.3,331.8,421.1"/>
				</defs>
				<clipPath id="SVGID_115_">
					<use xlink:href="#SVGID_114_"  style="overflow:visible;"/>
				</clipPath>
				
					<linearGradient id="SVGID_116_" gradientUnits="userSpaceOnUse" x1="1.5482" y1="1085.4771" x2="2.5482" y2="1085.4771" gradientTransform="matrix(35.9504 50.7244 -50.7244 35.9504 55316.4062 -38699.7188)">
					<stop  offset="0" style="stop-color:#E75667"/>
					<stop  offset="0.1146" style="stop-color:#E75667"/>
					<stop  offset="1" style="stop-color:#420D00"/>
				</linearGradient>
				<polygon style="clip-path:url(#SVGID_115_);fill:url(#SVGID_116_);" points="309.8,431.7 333.8,465.5 364.3,443.8 340.4,410 
									"/>
			</g>
			<g style="clip-path:url(#SVGID_8_);">
				<defs>
					<path id="SVGID_117_" d="M334.4,450.4c9-8.8,24.9-19.5,35.1-22.2c4.4-1.2,7.4-2.7,9.6-4.1c-2.7-0.2-6-0.8-9.8-1.7
						c-8.5-2.1-15.9-2.8-22-2.8C342.4,425.2,334.6,436.6,334.4,450.4"/>
				</defs>
				<clipPath id="SVGID_118_">
					<use xlink:href="#SVGID_117_"  style="overflow:visible;"/>
				</clipPath>
				
					<linearGradient id="SVGID_119_" gradientUnits="userSpaceOnUse" x1="-15.1847" y1="1084.4048" x2="-14.1847" y2="1084.4048" gradientTransform="matrix(44.6414 0 0 44.6414 1012.2194 -47974.3711)">
					<stop  offset="0" style="stop-color:#E75667"/>
					<stop  offset="0.1146" style="stop-color:#E75667"/>
					<stop  offset="1" style="stop-color:#CA1A18"/>
				</linearGradient>
				<rect x="334.4" y="419.5" style="clip-path:url(#SVGID_118_);fill:url(#SVGID_119_);" width="44.6" height="30.9"/>
			</g>
			<g style="clip-path:url(#SVGID_8_);">
				<defs>
					<path id="SVGID_120_" d="M347.4,491.3L347.4,491.3C347.4,491.4,347.4,491.4,347.4,491.3C347.4,491.3,347.4,491.3,347.4,491.3
						 M353.9,481.4c-0.2,0.3-0.4,0.6-0.5,1c-0.2,0.3-0.5,0.6-0.6,1c-0.2,0.4-0.4,0.7-0.6,1.1c-0.2,0.4-0.4,0.7-0.7,1.1
						c-0.4,0.8-0.9,1.5-1.4,2.1c-0.2,0.3-0.4,0.7-0.7,1c-0.2,0.3-0.4,0.6-0.6,0.9c-0.4,0.5-0.7,1-1,1.3c-0.2,0.3-0.4,0.4-0.4,0.5
						c0,0,0.3,0,0.6-0.1c0.4-0.1,0.9-0.4,1.5-0.8c0.6-0.4,1.3-0.9,1.9-1.6c0.3-0.3,0.6-0.7,0.9-1c0.3-0.4,0.5-0.8,0.8-1.2
						c0.2-0.4,0.5-0.8,0.7-1.2c0.2-0.4,0.4-0.9,0.5-1.3c0.3-0.8,0.5-1.6,0.6-2.3c0.2-1.4,0.2-2.3,0.2-2.3S354.5,480.3,353.9,481.4"
						/>
				</defs>
				<clipPath id="SVGID_121_">
					<use xlink:href="#SVGID_120_"  style="overflow:visible;"/>
				</clipPath>
				
					<radialGradient id="SVGID_122_" cx="-12.2809" cy="1081.8414" r="1" gradientTransform="matrix(55.1966 0 0 55.1966 1000.8489 -59207.4062)" gradientUnits="userSpaceOnUse">
					<stop  offset="0" style="stop-color:#E40000"/>
					<stop  offset="0.1327" style="stop-color:#E40000"/>
					<stop  offset="1" style="stop-color:#420D00"/>
				</radialGradient>
				<rect x="347.4" y="479.5" style="clip-path:url(#SVGID_121_);fill:url(#SVGID_122_);" width="7.8" height="11.9"/>
			</g>
			<g style="clip-path:url(#SVGID_8_);">
				<defs>
					<rect id="SVGID_123_" x="-677.9" y="142" width="3633.7" height="1527.4"/>
				</defs>
				<clipPath id="SVGID_124_">
					<use xlink:href="#SVGID_123_"  style="overflow:visible;"/>
				</clipPath>
				<path style="clip-path:url(#SVGID_124_);fill:#903F00;" d="M155.1,490.9c0,0,0.8,0.4,2,1.1c1.3,0.8,3.1,1.8,5.2,3.3
					c2.1,1.5,4.5,3.2,6.8,5.5c1.1,1.2,2.4,2.4,3.3,3.9c0.3,0.4,0.5,0.8,0.6,1.2l0.3,0.6l0.2,0.8c0,0.3,0.1,0.5,0.1,0.8l0,0.6
					c0,0.4,0,0.9-0.1,1.3c-0.3,1.9-0.9,3.5-1.5,5.1c-0.7,1.6-1.5,3.1-2.3,4.4c-0.9,1.4-1.8,2.7-2.7,3.8c-0.9,1.2-1.9,2.2-2.8,3.1
					c-0.9,0.9-1.8,1.7-2.7,2.3c-0.8,0.6-1.6,1.1-2.3,1.5c-0.6,0.4-1.2,0.6-1.5,0.8c-0.4,0.2-0.5,0.3-0.5,0.3s0.2-0.1,0.5-0.4
					c0.3-0.2,0.8-0.5,1.4-1c0.6-0.5,1.3-1,2-1.7c0.4-0.3,0.7-0.8,1.1-1.2c0.4-0.4,0.8-0.8,1.2-1.3c0.8-0.9,1.7-2,2.5-3.2
					c0.8-1.2,1.6-2.5,2.4-3.8c0.8-1.4,1.5-2.8,2.1-4.3c0.6-1.5,1.1-3.1,1.3-4.6c0.3-1.7,0.1-2.9-0.8-4.2c-0.8-1.3-1.9-2.5-2.9-3.7
					c-1.1-1.1-2.2-2.2-3.2-3.2c-1.1-1-2.1-1.9-3.1-2.7c-2-1.6-3.6-3-4.8-3.9C155.8,491.4,155.1,490.9,155.1,490.9z"/>
				<path style="clip-path:url(#SVGID_124_);fill:#903F00;" d="M131.8,491.6c0,0,1.4,0.5,3.6,1.7c1.1,0.7,2.5,1.4,3.9,2.4
					c1.5,1,3.1,2.2,4.8,3.7c0.8,0.7,1.6,1.6,2.5,2.4c0.9,0.8,1.7,1.7,2.5,2.7c1.7,1.9,3.3,4,4.9,6.2c1.5,2.3,3.3,4.7,4.1,7.6
					l0.3,1.1l0.1,1.1c0.1,0.8,0.2,1.5,0.2,2.3c0,1.5,0,3-0.2,4.4c-0.3,2.9-0.7,5.8-1.1,8.7c-0.4,2.8-0.8,5.6-1.3,8.3
					c-0.5,2.7-1,5.3-1.7,7.8c-0.7,2.4-1.5,4.8-2.8,6.7c-0.7,0.9-1.7,1.8-2.9,1.9l-0.4,0c-0.3,0-0.3,0-0.4-0.1
					c-0.2,0-0.5-0.1-0.7-0.2c-0.5-0.2-0.9-0.5-1.3-0.9c-1.3-1.4-1.8-2.9-2.2-4.2c-0.4-1.2-0.5-2.2-0.6-2.9c-0.1-0.7-0.1-1-0.1-1
					s0.2,1.5,1.1,3.8c0.5,1.1,1.1,2.6,2.3,3.8c0.3,0.3,0.7,0.5,1,0.6c0.1,0.1,0.4,0.1,0.6,0.1c0.1,0,0.3,0,0.3,0l0.3,0
					c0.8-0.1,1.5-0.7,2.1-1.5c1.1-1.7,1.8-4,2.4-6.4c0.6-2.4,1-5,1.4-7.7c0.4-2.7,0.8-5.4,1.1-8.3c0.3-2.8,0.7-5.7,1-8.6
					c0.2-1.5,0.2-2.8,0.3-4.3c0-0.7-0.1-1.4-0.1-2l-0.1-1l-0.3-1c-0.6-2.6-2.3-4.9-3.7-7.1c-1.6-2.2-3.1-4.4-4.6-6.3
					c-0.7-1-1.5-1.9-2.3-2.8c-0.8-0.9-1.5-1.7-2.3-2.4c-1.6-1.5-3-2.8-4.4-3.9c-1.4-1.1-2.7-2-3.7-2.7c-1.1-0.7-1.9-1.2-2.5-1.5
					C132.1,491.8,131.8,491.6,131.8,491.6z"/>
				<path style="clip-path:url(#SVGID_124_);fill:#903F00;" d="M116.3,524.8c0,0,0.1-0.5,0.5-1.3c0.3-0.8,0.8-2.1,1.7-3.6
					c0.9-1.5,2-3.3,4-4.7c1-0.7,2.3-1.2,3.9-1c0.3,0.1,0.6,0.1,1,0.2c0.4,0.1,0.7,0.3,1,0.4c0.7,0.3,1.3,0.7,1.9,1.1
					c2.4,1.8,4.6,4.1,6.7,6.8c2,2.7,4,5.7,5.5,9.1c0.8,1.7,1.5,3.4,1.9,5.4c0.5,1.8,0.8,3.8,0.9,5.8c0.1,4-0.9,7.9-1.6,11.6
					c-0.8,3.7-1.4,7.6-2.1,11.3c-0.4,1.9-0.8,3.8-1.5,5.6c-0.4,0.9-0.8,1.9-1.7,2.7c-0.5,0.4-1.2,0.7-1.8,0.6
					c-0.8-0.1-1.2-0.4-1.7-0.6c-3.4-2.1-5.5-5.1-7.3-7.9c-1.8-2.9-3.1-5.8-4.1-8.6c-1.9-5.6-2.1-10.6-2-13.9c0-1.7,0.2-3,0.3-3.9
					c0.1-0.9,0.2-1.4,0.2-1.4s0,0.5-0.1,1.4c0,0.9-0.1,2.2,0,3.9c0.1,3.4,0.7,8.2,2.7,13.6c1,2.7,2.4,5.5,4.2,8.2
					c1.8,2.6,4.1,5.4,7,7.2c0.3,0.2,0.7,0.3,0.9,0.4c0.3,0,0.5-0.1,0.7-0.3c0.5-0.4,0.9-1.2,1.2-2c0.6-1.6,1-3.5,1.3-5.3
					c0.7-3.7,1.2-7.6,2-11.4c0.8-3.8,1.8-7.5,1.7-11.2c0-1.8-0.3-3.5-0.7-5.4c-0.4-1.8-1-3.4-1.7-5.1c-1.5-3.3-3.2-6.3-5.1-8.9
					c-1.9-2.7-3.9-5-6.2-6.8c-0.5-0.4-1.1-0.8-1.7-1.1c-0.3-0.1-0.6-0.3-0.8-0.4c-0.3-0.1-0.6-0.2-1-0.3c-1.1-0.2-2.3,0.1-3.3,0.7
					c-1.9,1.2-3.1,3-4,4.3C117,523,116.3,524.8,116.3,524.8z"/>
				<path style="clip-path:url(#SVGID_124_);fill:#903F00;" d="M115.2,546.6c0,0,0.6,0.2,1.4,0.6c0.8,0.4,1.7,1,2.5,1.7
					c0.4,0.4,0.8,0.7,1.2,1.1c0.4,0.3,0.7,0.7,1,1c0.6,0.6,1,1.1,1,1.1s-0.6,0.1-1.5-0.1c-0.4-0.1-0.9-0.3-1.4-0.6
					c-0.5-0.3-1-0.6-1.4-1c-0.9-0.8-1.6-1.7-2-2.5C115.4,547.2,115.2,546.6,115.2,546.6"/>
				<path style="clip-path:url(#SVGID_124_);fill:#903F00;" d="M189.7,506.2c0,0-0.4,1.6-0.7,3.9c-0.1,0.6-0.2,1.2-0.3,1.9
					c-0.1,0.7-0.1,1.4-0.3,2.1c-0.1,1.5-0.3,3-0.3,4.5c0,0.8,0,1.5,0,2.3c0,0.8,0,1.5,0.1,2.2c0.1,1.4,0.3,2.8,0.5,3.9
					c0.1,0.6,0.2,1.1,0.3,1.6c0.1,0.5,0.2,0.9,0.3,1.2c0.1,0.7,0.2,1.1,0.2,1.1s-0.2-0.3-0.6-0.9c-0.4-0.6-0.9-1.5-1.3-2.6
					c-0.3-0.6-0.5-1.2-0.6-1.9c-0.2-0.7-0.4-1.4-0.5-2.1c-0.3-1.5-0.4-3.1-0.4-4.8c0-0.8,0.1-1.6,0.2-2.4c0.1-0.8,0.2-1.6,0.4-2.3
					c0.3-1.5,0.7-2.9,1.2-4C188.7,507.6,189.7,506.2,189.7,506.2z"/>
				<path style="clip-path:url(#SVGID_124_);fill:#903F00;" d="M171.8,576.7c-0.9,1.7-1.9,3.3-2.7,5c-0.4,0.9-0.9,1.7-1.3,2.5
					l-1.2,2.5l-1,2.6c-0.4,0.9-0.6,1.7-1,2.6c-0.3,0.9-0.6,1.7-0.8,2.6l-0.6,2.7l-1.1-1.1l3.3-1l3.1-1.4c1-0.6,1.9-1.2,2.9-1.9
					l1.3-1.1c0.4-0.4,0.9-0.7,1.3-1.2l1.1-1.3c0.4-0.5,0.8-0.9,1.1-1.4l0.9-1.5c0.3-0.5,0.6-1,0.8-1.5c0.2-0.5,0.4-1.1,0.6-1.6
					s0.5-1.1,0.6-1.7c0.2-1.2,0.5-2.3,0.8-3.5c0,1.2-0.1,2.4-0.2,3.6c-0.1,0.6-0.3,1.2-0.4,1.8c-0.2,0.6-0.3,1.2-0.5,1.8
					c-0.2,0.6-0.5,1.1-0.7,1.7l-0.8,1.7c-0.3,0.5-0.7,1-1,1.5l-1.1,1.5c-0.4,0.5-0.9,0.9-1.3,1.3l-1.4,1.3c-1,0.8-2,1.4-3.1,2.1
					l-3.4,1.6l-3.6,1l-1.5,0.4l0.4-1.5l0.7-2.8c0.2-1,0.6-1.8,1-2.7c0.4-0.9,0.7-1.8,1.1-2.7l1.3-2.6c1-1.6,1.9-3.3,3-4.9
					C169.5,579.6,170.6,578.1,171.8,576.7"/>
				<path style="clip-path:url(#SVGID_124_);fill:#903F00;" d="M138.7,617.1c-0.2,1.6-0.5,3.2-0.7,4.9c-0.1,0.8-0.2,1.6-0.3,2.4
					c0,0.8-0.2,1.6-0.2,2.4c0,0.8,0,1.6-0.1,2.4c0,0.8,0,1.6,0,2.4c0,0.8,0,1.6,0.2,2.4l0.3,2.4l-1.6-0.5l1.6-1.6
					c0.6-0.5,1-1.2,1.4-1.8c0.5-0.6,1-1.2,1.3-1.9l1.2-2l1.1-2.1c0.4-0.7,0.7-1.4,1-2.1c0.7-1.4,1.3-2.9,1.9-4.4
					c-0.1,0.8-0.2,1.6-0.4,2.4s-0.3,1.6-0.6,2.4c-0.2,0.8-0.4,1.6-0.7,2.3l-0.9,2.3c-0.4,0.7-0.7,1.5-1.1,2.2
					c-0.3,0.7-0.8,1.4-1.3,2.1c-0.5,0.7-0.9,1.4-1.5,2l-1.7,1.9l-1.5,1.6l-0.2-2.1c-0.1-1.7-0.5-3.4-0.4-5c0-0.8,0-1.7,0.1-2.5
					c0.1-0.8,0.2-1.6,0.3-2.5c0.1-0.8,0.3-1.6,0.4-2.4c0.1-0.8,0.4-1.6,0.6-2.4C137.5,620.1,138,618.6,138.7,617.1"/>
				<path style="clip-path:url(#SVGID_124_);fill:#903F00;" d="M208.6,570.6c0,0,0.1,1,0.1,2.8c0,0.9,0,2-0.1,3.3
					c-0.1,1.3-0.2,2.7-0.5,4.2c-0.2,1.5-0.6,3.2-0.9,4.9c-0.5,1.7-0.8,3.6-1.4,5.4c-0.6,1.9-1.2,3.8-2,5.7c-0.7,1.9-1.6,3.8-2.5,5.7
					c-0.8,1.9-2,3.7-2.9,5.5c-1,1.8-2.2,3.4-3.3,5c-1.1,1.6-2.3,3-3.4,4.4c-1.1,1.4-2.3,2.6-3.3,3.8c-1.1,1.1-2,2.2-3,3
					c-1,0.8-1.8,1.6-2.5,2.2c-1.4,1.2-2.1,1.9-2.1,1.9s0.7-0.8,1.9-2.1c0.6-0.7,1.3-1.5,2.2-2.4c0.9-0.9,1.7-2.1,2.7-3.2
					c1-1.2,2.1-2.4,3-3.9c1-1.5,2.1-2.9,3.1-4.5c1-1.6,2.1-3.3,3-5c0.9-1.8,2-3.5,2.8-5.4c0.9-1.8,1.8-3.7,2.5-5.5
					c0.4-0.9,0.8-1.9,1.1-2.8c0.3-0.9,0.6-1.8,1-2.7c0.7-1.8,1.1-3.6,1.7-5.3c0.4-1.7,0.9-3.3,1.2-4.8
					C208.3,574.7,208.6,570.6,208.6,570.6"/>
				<path style="clip-path:url(#SVGID_124_);fill:#903F00;" d="M239.5,578.3c0,0-0.2,0.5-0.7,1.3c-0.5,0.8-1.3,2-2.3,3.5
					c-1.1,1.5-2.4,3.2-4,5.1c-1.6,2-3.6,4-5.8,6.3c-2.3,2.1-4.7,4.5-7.5,6.7c-1.4,1.1-2.8,2.3-4.2,3.5c-1.4,1.2-2.9,2.4-4.3,3.7
					c-1.4,1.3-2.9,2.6-4.3,4c-1.5,1.4-2.8,2.9-4.2,4.3c-2.8,2.9-5.4,6.1-7.9,9.3c-2.5,3.2-5,6.5-7.3,9.8c-2.2,3.4-4.4,6.7-6.2,10.1
					c-1,1.6-1.8,3.4-2.7,5c-0.9,1.6-1.7,3.2-2.4,4.9c-0.7,1.6-1.5,3.2-2.1,4.7c-0.6,1.5-1.2,3-1.7,4.5c-0.6,1.4-0.9,2.9-1.4,4.2
					c-0.4,1.3-0.9,2.6-1.2,3.8c-0.6,2.4-1.2,4.5-1.5,6.3c-0.6,3.6-1,5.6-1,5.6s0.2-2.1,0.6-5.7c0.2-1.8,0.7-3.9,1.1-6.4
					c0.6-2.5,1.3-5.2,2.2-8.2c0.5-1.5,1-3,1.6-4.6c0.6-1.6,1.3-3.2,2-4.8c0.6-1.7,1.5-3.3,2.3-5c0.8-1.7,1.7-3.4,2.6-5.1
					c3.7-6.8,8.3-13.8,13.4-20.3c2.6-3.2,5.3-6.4,8.2-9.3c1.4-1.5,2.8-2.9,4.3-4.3c1.4-1.4,2.9-2.8,4.4-4c2.9-2.6,6-4.8,8.7-7
					c2.9-2.1,5.3-4.4,7.6-6.4c1.1-1,2.1-2.1,3.2-3.1c1-1,2-1.9,2.8-2.9c1.7-1.8,3.1-3.5,4.3-4.9c1.1-1.4,2-2.5,2.5-3.4
					C239.2,578.8,239.5,578.3,239.5,578.3z"/>
				<path style="clip-path:url(#SVGID_124_);fill:#903F00;" d="M228.3,575.7c0,0,0.2,1.5,0.1,3.6c0,1.1-0.1,2.4-0.3,3.7
					c-0.1,1.4-0.5,2.8-0.8,4.2c-0.1,0.7-0.4,1.4-0.6,2.1c-0.2,0.7-0.4,1.4-0.7,2c-0.5,1.3-1.1,2.4-1.6,3.4c-0.6,1-1.1,1.7-1.5,2.2
					c-0.4,0.5-0.6,0.8-0.6,0.8s0.1-0.4,0.3-1c0.2-0.6,0.5-1.4,0.8-2.4c0.2-1,0.6-2.2,1-3.5c0.1-0.6,0.3-1.3,0.5-2
					c0.2-0.7,0.4-1.3,0.5-2c0.3-1.4,0.7-2.8,1-4.1c0.3-1.3,0.6-2.5,0.9-3.5C227.8,577.1,228.3,575.7,228.3,575.7z"/>
				<path style="clip-path:url(#SVGID_124_);fill:#ECB251;" d="M224.2,618.4c-2.9,2-5.6,4.3-8.1,6.8c-2.5,2.5-4.8,5.2-6.5,8.2
					c-0.9,1.5-1.7,3-2.3,4.6c-0.3,0.8-0.6,1.6-0.8,2.4c-0.2,0.8-0.4,1.7-0.5,2.5c-0.1,0.8-0.2,1.7-0.2,2.5c0,0.9,0.1,1.7,0.2,2.5
					c0.1,0.8,0.3,1.7,0.5,2.5c0.2,0.8,0.5,1.6,0.8,2.4l-1.6-0.2c1.2-1.7,2.4-3.5,3.6-5.3c1.2-1.8,2.5-3.5,3.8-5.2l2-2.5
					c0.7-0.8,1.5-1.6,2.2-2.4c0.7-0.8,1.6-1.5,2.4-2.3c0.8-0.8,1.9-1.3,2.8-2l4.2-3l-3.2,4.2c-1.4,1.8-2.7,3.5-3.9,5.4
					c-1.3,1.8-2.5,3.7-3.4,5.7c-0.4,1-0.9,2-1.1,3.1c-0.1,0.5-0.2,1-0.2,1.6c0,0.5,0,1.1,0,1.6c0.2,1.1,0.5,2.1,1,3.1
					c0.5,1,1.1,1.9,1.8,2.8c-0.7-0.8-1.5-1.7-2-2.7c-0.6-1-1-2-1.3-3.2c-0.1-0.6-0.2-1.1-0.2-1.7c0-0.6,0-1.2,0.1-1.7
					c0-0.6,0.2-1.1,0.4-1.7c0.1-0.6,0.4-1.1,0.6-1.6c0.9-2.1,2-4.1,3.2-6c1.2-1.9,2.5-3.8,3.7-5.6l1,1.2c-0.8,0.6-1.7,1.1-2.4,1.8
					c-0.7,0.7-1.5,1.4-2.2,2.2c-0.7,0.8-1.4,1.6-2.1,2.4l-2,2.5c-2.5,3.4-4.9,7-7.4,10.5l-1.1,1.5l-0.6-1.7
					c-0.3-0.9-0.7-1.7-0.9-2.6c-0.3-0.9-0.4-1.8-0.5-2.7c-0.1-0.9-0.2-1.9-0.1-2.8c0-0.9,0.1-1.9,0.2-2.8c0.2-0.9,0.3-1.8,0.6-2.7
					c0.2-0.9,0.5-1.8,0.9-2.6c0.7-1.7,1.6-3.3,2.6-4.8c1-1.5,2.1-2.9,3.3-4.3c1.2-1.3,2.5-2.6,3.8-3.8
					C218.2,622.2,221.1,620.1,224.2,618.4"/>
				<path style="clip-path:url(#SVGID_124_);fill:#ECB251;" d="M191.5,669.9c-1.3,1.1-2.3,2.4-3.1,3.8c-0.5,0.7-0.8,1.5-1.2,2.2
					l-0.9,2.3c-0.2,0.8-0.5,1.5-0.7,2.3l-0.5,2.4l-0.3,2.4c-0.1,0.8-0.1,1.6-0.1,2.4c0,0.8-0.1,1.6,0,2.4l0.1,2.5
					c0,0.8,0.2,1.6,0.3,2.4c0.1,0.8,0.2,1.6,0.3,2.4c0.3,1.6,0.6,3.2,1,4.8l1.2,4.8l-1.6-0.4l2.2-2.6c0.8-0.9,1.4-1.8,2.1-2.7
					c0.7-0.9,1.4-1.8,2-2.8c0.6-1,1.4-1.9,1.9-2.9c0.6-1,1.2-2,1.8-2.9l0.8-1.5c0.3-0.5,0.6-1,0.8-1.5c0.5-1,1.1-2,1.5-3.1l0.7-1.6
					l0.5-1.7l-0.3,1.7c-0.1,0.6-0.3,1.1-0.5,1.7c-0.3,1.1-0.8,2.2-1.2,3.3c-0.4,1.1-1,2.1-1.4,3.2c-0.5,1-1.1,2.1-1.6,3.1
					c-0.5,1-1.2,2-1.8,3c-0.6,1-1.2,2-2,2.9c-0.7,1-1.3,2-2.1,2.9l-2.2,2.7l-1.1,1.4l-0.5-1.8l-1.3-4.9c-0.2-0.8-0.3-1.6-0.5-2.5
					l-0.5-2.5c-0.1-0.8-0.2-1.7-0.3-2.5c-0.1-0.8-0.2-1.7-0.2-2.5l0-2.5c0-0.9,0-1.7,0.1-2.5c0.1-0.9,0.1-1.7,0.3-2.5l0.5-2.5
					l0.7-2.5c0.3-0.8,0.6-1.6,0.9-2.4c0.7-1.5,1.5-3,2.6-4.4C188.9,672,190.1,670.8,191.5,669.9"/>
				<path style="clip-path:url(#SVGID_124_);fill:#ECB251;" d="M259.2,643.3c-1.5,2.9-2.4,6.1-3.1,9.2c-0.2,0.8-0.3,1.6-0.4,2.4
					c-0.1,0.8-0.2,1.6-0.2,2.4c-0.1,0.8,0,1.6-0.1,2.4c0,0.8,0,1.6,0.1,2.4c0.1,0.8,0.1,1.6,0.3,2.4l0.4,2.3l0.7,2.3
					c0.2,0.8,0.6,1.5,0.9,2.2c0.3,0.7,0.6,1.5,1,2.1l1.2,2c0.4,0.7,0.9,1.3,1.4,2l1.5,1.9l-1.4,0.3l1.8-3.8c0.6-1.3,1.2-2.5,1.9-3.8
					c1.3-2.5,2.7-4.9,4.4-7.2c-0.6,1.3-1.2,2.5-1.8,3.8c-0.5,1.3-1,2.6-1.6,3.9c-0.6,1.3-1,2.6-1.5,3.9l-1.5,3.9l-0.5,1.3l-0.9-1.1
					l-1.6-1.9c-0.5-0.6-1.1-1.3-1.5-2l-1.3-2.2c-0.5-0.7-0.7-1.5-1.1-2.3c-0.3-0.8-0.7-1.5-0.9-2.4l-0.7-2.4l-0.4-2.5
					c-0.2-0.8-0.2-1.7-0.2-2.5c0-0.8-0.1-1.7,0-2.5c0.1-0.8,0-1.7,0.2-2.5c0.1-0.8,0.3-1.7,0.5-2.5c0.2-0.8,0.4-1.6,0.6-2.4
					c0.5-1.6,1-3.2,1.8-4.6C257.4,646.1,258.2,644.6,259.2,643.3"/>
				<path style="clip-path:url(#SVGID_124_);fill:#ECB251;" d="M269.3,656.8c-0.1,1.8-0.1,3.6,0.1,5.4c0,0.4,0.1,0.9,0.2,1.3
					c0,0.4,0.2,0.9,0.3,1.3c0.2,0.8,0.5,1.7,0.8,2.5c0.3,0.8,0.7,1.5,1.1,2.3c0.2,0.4,0.5,0.7,0.7,1c0.2,0.4,0.5,0.7,0.8,1
					c0.5,0.6,1.2,1.2,1.8,1.7c0.6,0.6,1.4,1,2.1,1.5l-1.4,0.6l0.6-1.6c0.2-0.5,0.5-1,0.7-1.5c0.3-0.5,0.5-1,0.9-1.4
					c0.3-0.4,0.6-0.9,0.9-1.3c0.7-0.8,1.3-1.6,2.1-2.4c0.7-0.8,1.5-1.5,2.3-2.2c-1.2,1.7-2.3,3.5-3.4,5.3c-0.3,0.5-0.5,0.9-0.7,1.4
					c-0.2,0.5-0.5,0.9-0.7,1.4c-0.2,0.5-0.4,0.9-0.5,1.4l-0.4,1.4l-0.4,1.2l-1-0.6c-0.8-0.5-1.7-1-2.4-1.6l-1.1-0.9
					c-0.4-0.3-0.7-0.7-1-1.1c-0.3-0.4-0.6-0.7-0.9-1.1c-0.3-0.4-0.5-0.8-0.8-1.2c-0.5-0.9-0.9-1.7-1.1-2.6c-0.3-0.9-0.5-1.8-0.6-2.8
					c-0.1-1-0.2-1.9-0.1-2.8c0-0.5,0-0.9,0.1-1.4c0.1-0.5,0.1-0.9,0.2-1.4C268.8,658.5,269,657.6,269.3,656.8"/>
				<path style="clip-path:url(#SVGID_124_);fill:#ECB251;" d="M369.6,650.3c0,0,0.1,1.1,0.3,2.9c0.2,1.9,0.6,4.5,1.2,7.7
					c0.5,3.1,1.4,6.8,2.8,10.4c0.7,1.8,1.6,3.6,2.9,5c0.6,0.7,1.4,1.2,2.2,1.5c0.3,0.1,0.5,0.1,0.6,0.1c0.1,0,0.4,0,0.5,0
					c0.4,0,0.8-0.2,1.2-0.4c1.6-0.8,2.9-2.5,4.1-4.1c1.1-1.7,2.1-3.5,2.9-5.3c1.7-3.6,3-7.1,4.1-10.1c1-3,1.8-5.6,2.3-7.4
					c0.5-1.8,0.7-2.9,0.7-2.9s-0.1,1.1-0.4,2.9c-0.3,1.9-0.8,4.5-1.6,7.6c-0.9,3.1-1.9,6.8-3.5,10.5c-0.8,1.9-1.7,3.8-2.9,5.6
					c-1.2,1.8-2.6,3.7-4.8,4.9c-0.6,0.3-1.2,0.5-1.9,0.5c-0.3,0-0.7,0-1,0c-0.4,0-0.7-0.1-1-0.2c-1.2-0.4-2.2-1.2-3-2.1
					c-1.5-1.7-2.4-3.8-3.1-5.7c-1.4-3.9-1.9-7.7-2.3-10.9c-0.4-3.2-0.4-5.9-0.5-7.8C369.5,651.4,369.6,650.3,369.6,650.3"/>
				<path style="clip-path:url(#SVGID_124_);fill:#ECB251;" d="M411.2,651.2c0,0.7,0.1,1.4,0.2,2c0,0.3,0.1,0.6,0.2,1
					c0.1,0.3,0.1,0.6,0.2,1l0.3,0.9l0.4,0.9c0.2,0.6,0.6,1.1,0.9,1.6l-1-0.4c0.2-0.1,0.6-0.4,0.9-0.5l0.9-0.7
					c0.3-0.2,0.5-0.5,0.8-0.8l0.8-0.8c0.5-0.6,1-1.2,1.4-1.8c0.5-0.6,0.8-1.3,1.3-1.9c0.2-0.3,0.5-0.6,0.6-1l0.5-1
					c0.4-0.7,0.7-1.4,1.1-2.1c0.6-1.5,1.2-2.9,2-4.4c-0.2,1.6-0.5,3.2-0.8,4.8c-0.3,0.8-0.5,1.5-0.8,2.3l-0.5,1.1
					c-0.1,0.4-0.4,0.7-0.6,1.1c-0.4,0.7-0.8,1.5-1.3,2.1c-0.5,0.7-1,1.3-1.6,2l-0.9,0.9c-0.3,0.3-0.6,0.6-1,0.8l-1.1,0.7
					c-0.4,0.2-0.7,0.4-1.3,0.6l-0.7,0.2l-0.3-0.6c-0.3-0.7-0.7-1.3-0.8-2c-0.2-0.7-0.4-1.4-0.4-2.1c-0.1-0.3,0-0.7,0-1
					c0-0.4,0-0.7,0-1C410.8,652.5,411,651.8,411.2,651.2"/>
				<path style="clip-path:url(#SVGID_124_);fill:#ECB251;" d="M448,618.2c0.8,1.1,1.4,2.5,1.8,3.9c0.2,0.7,0.3,1.4,0.3,2.1
					c0.1,0.7,0,1.5-0.1,2.2l-1.6-0.7c0.3-0.5,0.6-1,1-1.5c0.4-0.5,0.5-1.1,0.8-1.6c0.1-0.3,0.3-0.5,0.4-0.8l0.3-0.9
					c0.2-0.6,0.4-1.1,0.5-1.7c0.2-0.6,0.3-1.2,0.3-1.8c0-0.3,0.1-0.6,0.1-0.9l0-0.9c0-0.3,0-0.6-0.1-0.9l-0.2-0.9
					c0-0.3-0.2-0.6-0.3-0.9l-0.4-0.9c0.4,0.5,1,0.9,1.3,1.5l0.5,0.9c0.2,0.3,0.2,0.6,0.3,1l0.3,1c0,0.3,0,0.7,0.1,1l0,1l-0.1,1
					c-0.1,0.7-0.2,1.4-0.4,2l-0.3,1c-0.1,0.3-0.3,0.6-0.4,1c-0.3,0.6-0.5,1.2-1,1.8c-0.4,0.6-0.8,1.1-1.2,1.7l-2,2.7l0.4-3.4
					c0.1-0.6,0.2-1.2,0.3-1.9c0.1-0.6,0-1.3,0-2c0-0.3,0-0.7-0.1-1c0-0.3-0.1-0.7-0.1-1C448.3,619.5,448.1,618.9,448,618.2"/>
				<path style="clip-path:url(#SVGID_124_);fill:#ECB251;" d="M444.9,696.1c0.4,0.8,0.8,1.5,1.2,2.4c0.4,0.8,0.7,1.6,1,2.4
					c0.4,0.8,0.6,1.6,0.9,2.5c0.3,0.9,0.5,1.7,0.7,2.5l0.6,2.6c0.1,0.9,0.3,1.8,0.4,2.6c0.1,0.9,0.2,1.8,0.2,2.7l0.1,2.7l-1.5-0.8
					l1.3-1l1.1-1.3l1-1.4c0.3-0.5,0.6-1,0.9-1.5c0.3-0.5,0.5-1.1,0.7-1.6c0.2-0.5,0.4-1.1,0.6-1.7c0.4-1.1,0.7-2.3,0.9-3.5
					c0.3-1.2,0.5-2.4,0.6-3.6c0.2-1.2,0.2-2.4,0.3-3.6c0-1.2,0.1-2.5,0-3.7c0-0.6-0.1-1.2-0.2-1.8c0-0.6-0.2-1.2-0.3-1.8
					c0.3,0.5,0.5,1.1,0.7,1.8c0.2,0.6,0.3,1.2,0.4,1.8c0.2,1.2,0.4,2.5,0.5,3.7c0,1.2,0.1,2.5,0,3.8c-0.1,1.3-0.1,2.5-0.4,3.8
					c-0.2,1.2-0.5,2.5-0.8,3.7c-0.2,0.6-0.3,1.2-0.6,1.8c-0.3,0.6-0.5,1.2-0.8,1.8c-0.3,0.6-0.6,1.2-0.9,1.7
					c-0.4,0.5-0.7,1.1-1.1,1.6L451,716l-1.6,1.2l-1.4,1.1l0-1.9l0-2.5c0-0.9,0-1.7-0.1-2.5c-0.1-0.9-0.1-1.7-0.2-2.5l-0.4-2.5
					c-0.1-0.9-0.3-1.7-0.5-2.5c-0.2-0.9-0.3-1.7-0.5-2.5C445.9,699.4,445.4,697.7,444.9,696.1"/>
				<path style="clip-path:url(#SVGID_124_);fill:#903F00;" d="M474.4,594.9c0,0-0.2,0.7-0.5,2c-0.4,1.3-0.8,3.1-1.3,5.3
					c-0.5,2.2-1.1,4.8-1.7,7.6c-0.3,1.4-0.5,2.8-0.8,4.3c-0.3,1.5-0.5,2.9-0.7,4.4c-0.2,1.5-0.4,3-0.6,4.4c-0.1,1.5-0.3,2.9-0.4,4.3
					c0,1.4-0.2,2.8-0.2,4c0,1.3,0,2.5,0,3.6c0.1,1.1,0.1,2.2,0.2,3.1c0,0.9,0.2,1.7,0.3,2.4c0.2,1.3,0.3,2.1,0.3,2.1s-0.2-0.7-0.6-2
					c-0.2-0.6-0.5-1.4-0.6-2.3c-0.2-0.9-0.4-2-0.6-3.1c-0.2-1.1-0.3-2.4-0.4-3.7c-0.1-1.3-0.1-2.7-0.1-4.2c0-1.5,0.1-2.9,0.2-4.4
					c0.1-1.5,0.3-3,0.5-4.5c0.3-1.5,0.5-3,0.8-4.5c0.3-1.5,0.6-2.9,1-4.3c0.7-2.8,1.5-5.3,2.3-7.5c0.8-2.2,1.5-3.9,2-5.1
					C474.1,595.6,474.4,594.9,474.4,594.9"/>
				<path style="clip-path:url(#SVGID_124_);fill:#903F00;" d="M486.7,604.3c-3.1,3.8-5.8,8.1-8.2,12.4l-1.7,3.3l-1.5,3.4
					c-0.5,1.1-1,2.3-1.4,3.4c-0.4,1.2-0.9,2.3-1.3,3.4c-0.7,2.4-1.6,4.7-2.1,7.1c-0.3,1.2-0.6,2.4-0.9,3.6l-0.6,3.6
					c-0.5,2.4-0.6,4.9-0.8,7.3c-0.1,1.2-0.1,2.4-0.1,3.7v3.7c0.1,2.4,0.4,4.9,0.6,7.3c0.4,2.4,0.9,4.8,1.4,7.2
					c0.2,1.1,0.7,2.4,1.1,3.5c0.4,1.1,0.8,2.3,1.3,3.4c0.5,1.1,1.1,2.1,1.8,3c0.6,0.9,1.6,1.7,2.2,1.5c0.7,0,1.4-1,1.9-2
					c0.5-1,0.8-2.2,1.1-3.4c0.7-2.3,1.6-4.8,2.6-7c2-4.6,4.1-9,6.4-13.5l3-5.8l-1.3,6.4c-1.2,5.8-1.8,11.8-2.2,17.7
					c-0.3,5.9-0.3,11.9,0.3,17.8c0.6,5.9,1.8,11.7,3.9,17.3c0.5,1.4,1.1,2.7,1.7,4.1c0.6,1.3,1.3,2.6,2.1,3.9
					c0.8,1.2,1.6,2.5,2.5,3.6c0.9,1.2,1.9,2.2,2.9,3.3L500,728l0.4-3.8l0.2-1.9c0.1-0.6,0.1-1.3,0.2-1.9l0.7-3.8
					c0.1-0.6,0.3-1.2,0.5-1.9l0.3-0.9c0.1-0.3,0.3-0.7,0.4-1l1-2.5l0.5,2.8c0.5,2.8,1.3,5.6,2.3,8.3c0.5,1.3,1.1,2.7,1.7,4
					c0.7,1.3,1.2,2.6,2,3.8c0.8,1.2,1.4,2.5,2.3,3.7c0.9,1.2,1.6,2.4,2.5,3.5l2.8,3.3c1,1,2.1,2,3.1,3c1,1.1,2.2,1.9,3.3,2.8
					c1.1,0.9,2.3,1.8,3.5,2.5l3.7,2.3l3.9,1.9l2,0.9c0.7,0.3,1.4,0.5,2,0.7l4.1,1.4c1.4,0.5,2.8,0.7,4.2,1.1l4.3,1l-4.3-0.9
					c-1.4-0.3-2.9-0.5-4.3-1l-4.2-1.3c-0.7-0.2-1.4-0.4-2.1-0.7l-2-0.9l-4-1.8l-3.8-2.2c-1.3-0.7-2.5-1.6-3.6-2.5
					c-1.2-0.9-2.4-1.7-3.4-2.7c-1.1-1-2.2-2-3.2-3l-2.9-3.3c-1-1.1-1.8-2.4-2.7-3.5c-0.9-1.2-1.6-2.5-2.4-3.7
					c-0.8-1.2-1.4-2.6-2.1-3.9c-0.6-1.3-1.2-2.7-1.8-4c-1.1-2.8-2-5.5-2.5-8.5l1.5,0.2c-0.1,0.3-0.2,0.5-0.3,0.8l-0.2,0.9
					c-0.1,0.6-0.4,1.2-0.4,1.8l-0.6,3.7c-0.1,0.6-0.1,1.2-0.2,1.9l-0.2,1.9l-0.4,3.7l-0.2,1.9l-1.2-1.3c-1-1.1-2.1-2.2-3-3.5
					c-1-1.2-1.8-2.5-2.6-3.8c-0.8-1.3-1.5-2.6-2.2-4c-0.7-1.4-1.3-2.8-1.8-4.2c-2.2-5.7-3.4-11.7-4.1-17.7c-0.7-6-0.7-12.1-0.4-18.1
					c0.4-6,1.1-12,2.3-18l1.7,0.6c-2.3,4.4-4.5,8.8-6.4,13.3c-1,2.3-1.9,4.4-2.6,6.8c-0.4,1.2-0.7,2.4-1.3,3.6l-0.5,0.9
					c-0.2,0.3-0.4,0.6-0.6,0.9c-0.5,0.5-1.2,1.1-2.1,1.2c-0.5,0.1-0.9,0-1.3-0.1c-0.4-0.1-0.7-0.4-1-0.5l-0.8-0.7
					c-0.2-0.3-0.4-0.5-0.6-0.8c-0.8-1.1-1.4-2.2-1.9-3.4c-0.5-1.2-1-2.3-1.4-3.5c-0.4-1.2-0.8-2.3-1-3.6c-0.4-2.5-0.9-4.9-1.3-7.4
					c-0.2-2.5-0.5-5-0.5-7.5l0-3.7c0-1.3,0-2.5,0.2-3.7c0.3-2.5,0.4-5,1-7.4l0.7-3.7c0.3-1.2,0.6-2.4,1-3.6c0.6-2.4,1.5-4.8,2.3-7.1
					c0.4-1.2,1-2.3,1.4-3.4c0.5-1.1,1-2.3,1.5-3.4l1.6-3.3l1.8-3.3C480.6,612.1,483.4,608,486.7,604.3"/>
				<path style="clip-path:url(#SVGID_124_);fill:#903F00;" d="M519.5,636.3c-0.9,2.8-1.5,5.7-1.8,8.6c-0.1,0.7-0.1,1.5-0.2,2.2
					c-0.1,0.7,0,1.5,0,2.2c0,1.5,0.1,2.9,0.4,4.3c0.2,0.7,0.3,1.4,0.5,2c0.2,0.7,0.4,1.3,0.7,2l0.5,1l0.4,1l0.9,2
					c0.5,1.4,1.1,2.7,1.5,4.2c0.2,0.7,0.5,1.4,0.7,2.2c0.1,0.8,0.4,1.4,0.4,2.4l-1.5-0.9c0.5-0.3,1-0.7,1.5-1.1
					c0.5-0.4,1-0.9,1.4-1.4c0.5-0.5,0.9-1,1.2-1.5c0.4-0.5,0.7-1.1,1.1-1.6c0.4-0.5,0.6-1.1,1-1.7c0.3-0.6,0.5-1.2,0.8-1.8
					c0.3-0.6,0.5-1.2,0.7-1.8c0.2-0.6,0.5-1.2,0.6-1.9l0.5-1.9l0.3-2c0.3-1.3,0.2-2.6,0.4-4c0.1-1.3,0.1-2.7,0.1-4
					c-0.1-1.4-0.1-2.7-0.2-4.1c0.2,1.3,0.5,2.7,0.7,4c0.1,1.4,0.3,2.7,0.3,4.1l0,2c0,0.7,0,1.4-0.1,2.1l-0.2,2l-0.4,2
					c-0.1,0.7-0.3,1.4-0.5,2c-0.2,0.7-0.4,1.4-0.6,2c-0.3,0.6-0.5,1.3-0.8,1.9c-0.3,0.6-0.6,1.3-1,1.9c-0.4,0.6-0.7,1.2-1.1,1.8
					c-0.4,0.6-0.9,1.1-1.3,1.7c-0.5,0.5-1,1-1.5,1.5c-0.5,0.5-1.1,0.9-1.8,1.4l-1.4,0.8l-0.1-1.7c0-0.5-0.3-1.3-0.4-1.9
					c-0.1-0.7-0.4-1.4-0.6-2c-0.4-1.4-0.9-2.7-1.5-4.1l-0.8-2.1l-0.4-1l-0.4-1c-0.3-0.7-0.5-1.5-0.8-2.2c-0.2-0.7-0.3-1.5-0.5-2.3
					c-0.2-1.5-0.2-3-0.2-4.5c0.1-0.8,0.1-1.5,0.2-2.3c0.1-0.7,0.2-1.5,0.3-2.2c0.3-1.5,0.7-2.9,1.2-4.3
					C518.3,639.1,518.9,637.7,519.5,636.3"/>
				<path style="clip-path:url(#SVGID_124_);fill:#903F00;" d="M555.6,673.8c0.2,1.4,0.3,2.8,0.4,4.3c0.1,1.4,0.2,2.8,0.3,4.3
					c0.1,2.9,0.2,5.7,0.2,8.6l-1.2-0.8l1.8-1.1c0.6-0.4,1.1-0.9,1.6-1.3c0.5-0.5,1-1,1.4-1.5c0.5-0.5,0.8-1.1,1.2-1.7
					c0.4-0.6,0.7-1.2,1-1.9c0.4-0.6,0.6-1.3,0.9-2c0.3-0.6,0.5-1.4,0.7-2c0.2-0.7,0.4-1.4,0.6-2.1c0.2-0.7,0.3-1.4,0.4-2.1
					c0.1-0.7,0.3-1.4,0.3-2.2c0.1-0.7,0.2-1.5,0.2-2.2c0-0.7,0.1-1.5,0.1-2.2c0-1.5,0-2.9-0.1-4.4c-0.1-1.5-0.4-2.9-0.7-4.4
					c0.3,0.7,0.6,1.4,0.8,2.1c0.2,0.7,0.4,1.4,0.6,2.2c0.3,1.5,0.5,3,0.6,4.5c0.1,0.8,0,1.5,0.1,2.3c0,0.8,0,1.5,0,2.3
					c0,0.8-0.1,1.5-0.2,2.3c-0.1,0.8-0.2,1.5-0.4,2.3c-0.1,0.8-0.3,1.5-0.5,2.2c-0.2,0.7-0.4,1.5-0.7,2.2c-0.3,0.7-0.5,1.5-0.9,2.1
					c-0.4,0.7-0.7,1.4-1.1,2c-0.5,0.6-0.9,1.3-1.4,1.9c-0.5,0.6-1,1.2-1.6,1.7c-0.6,0.5-1.2,1-1.9,1.5l-2.1,1.1l-1.3,0.7l0-1.5
					c0.1-2.8,0.3-5.7,0.4-8.5l0.2-4.3C555.4,676.7,555.5,675.3,555.6,673.8"/>
				<path style="clip-path:url(#SVGID_124_);fill:#903F00;" d="M560.8,607.8c1.5,1.5,3.1,2.9,4.7,4.2c0.4,0.3,0.8,0.6,1.2,0.9
					c0.4,0.3,0.8,0.6,1.3,0.9c0.5,0.2,0.9,0.6,1.3,0.7l1.3,0.6l-1.2,0.9c-0.2-0.9-0.3-1.8-0.5-2.7l-0.2-1.4c0-0.5-0.2-0.9-0.3-1.3
					l-0.7-2.7c-0.1-0.5-0.3-0.9-0.5-1.3l-0.5-1.3c-0.3-0.9-0.6-1.7-1-2.6l-0.6-1.3c-0.2-0.4-0.4-0.8-0.6-1.3
					c-0.4-0.8-0.8-1.7-1.3-2.5c-0.5-0.8-1-1.6-1.5-2.4c0.7,0.6,1.4,1.3,2,2c0.7,0.7,1.2,1.5,1.8,2.3c0.3,0.4,0.6,0.8,0.8,1.2
					l0.7,1.3c0.5,0.8,1,1.7,1.3,2.6l0.6,1.3c0.2,0.5,0.4,0.9,0.5,1.4l0.8,2.8c0.1,0.5,0.3,0.9,0.3,1.4l0.2,1.5
					c0.1,1,0.3,1.9,0.4,2.9l0.2,1.6l-1.4-0.7l-1.5-0.8c-0.5-0.3-0.9-0.6-1.4-1s-0.9-0.7-1.3-1c-0.4-0.4-0.8-0.7-1.2-1.1
					c-0.7-0.8-1.5-1.6-2.1-2.5C562,609.7,561.4,608.8,560.8,607.8"/>
				<path style="clip-path:url(#SVGID_124_);fill:#903F00;" d="M616.2,682.2c0,0-0.6,1.2-1.7,3.1c-1.2,2-2.8,4.7-5.1,7.9
					c-2.2,3.2-4.9,6.8-8.1,10.5c-1.6,1.9-3.3,3.7-5,5.6c-1.8,1.8-3.6,3.7-5.5,5.5c-2,1.7-3.8,3.5-5.9,5.1c-2,1.6-3.9,3.2-6,4.6
					c-1,0.7-2,1.4-2.9,2.1c-1,0.7-2,1.2-2.9,1.8c-1.9,1.1-3.7,2.3-5.5,3.1c-1.7,0.9-3.4,1.7-4.8,2.3c-1.5,0.6-2.8,1.1-3.8,1.5
					c-2.1,0.8-3.3,1.2-3.3,1.2s1.2-0.6,3.2-1.6c1-0.5,2.2-1.1,3.6-1.8c1.4-0.8,2.9-1.7,4.6-2.6c1.7-0.9,3.4-2.1,5.2-3.4
					c1.9-1.2,3.7-2.6,5.6-4.1c2-1.4,3.8-3,5.8-4.6c2-1.6,3.8-3.4,5.7-5.1c1.9-1.7,3.7-3.6,5.5-5.4c1.7-1.9,3.5-3.6,5.1-5.4
					c3.2-3.6,6.2-7,8.5-10.1c2.4-3,4.4-5.6,5.6-7.4C615.5,683.3,616.2,682.2,616.2,682.2"/>
				<path style="clip-path:url(#SVGID_124_);fill:#903F00;" d="M592.5,711.5c0,0,0.1,0.4,0.2,1c0.1,0.7,0.2,1.6,0.2,2.8
					c0,1.1,0,2.5-0.3,3.9c-0.1,0.7-0.2,1.5-0.4,2.2c-0.2,0.7-0.4,1.5-0.6,2.2c-0.2,0.7-0.4,1.5-0.7,2.2c-0.3,0.7-0.6,1.4-0.9,2
					c-0.3,0.7-0.6,1.3-0.9,1.9c-0.3,0.6-0.6,1.1-1,1.6c-1.2,1.9-2.2,3.2-2.2,3.2s0.4-1.5,1.1-3.6c0.2-0.5,0.4-1.1,0.6-1.7
					c0.2-0.6,0.4-1.3,0.6-1.9c0.2-0.7,0.5-1.4,0.7-2c0.2-0.7,0.4-1.4,0.6-2.1c0.2-0.7,0.5-1.4,0.6-2.1c0.1-0.7,0.4-1.4,0.5-2.1
					c0.2-0.7,0.4-1.3,0.5-2c0.1-0.6,0.3-1.2,0.4-1.8c0.2-1.1,0.4-2,0.5-2.7C592.4,711.9,592.5,711.5,592.5,711.5"/>
				<path style="clip-path:url(#SVGID_124_);fill:#ECB251;" d="M322.5,809.3c0,0,0.3,0.3,1,0.7c0.3,0.2,0.7,0.4,1.2,0.7
					c0.4,0.3,0.9,0.6,1.5,0.9c0.6,0.3,1.2,0.6,1.8,1c0.7,0.3,1.4,0.6,2.1,1c0.7,0.4,1.5,0.7,2.2,1c0.8,0.3,1.6,0.7,2.3,1
					c1.5,0.7,3.2,1.2,4.7,1.9c0.8,0.3,1.5,0.6,2.2,0.9c0.7,0.2,1.4,0.5,2,0.7c2.4,0.9,4,1.7,4,1.7s-1.8-0.1-4.3-0.6
					c-0.6-0.1-1.4-0.3-2.1-0.4c-0.7-0.1-1.5-0.4-2.3-0.6c-1.6-0.5-3.3-1-4.9-1.7c-0.8-0.4-1.6-0.7-2.4-1.1c-0.8-0.3-1.5-0.8-2.3-1.2
					c-0.7-0.4-1.4-0.9-2-1.3c-0.6-0.4-1.2-0.9-1.7-1.3c-0.5-0.4-1-0.8-1.4-1.2c-0.4-0.4-0.7-0.7-1-1
					C322.7,809.6,322.5,809.3,322.5,809.3"/>
				<path style="clip-path:url(#SVGID_124_);fill:#ECB251;" d="M405.6,827.2c0,0,3.9-1.3,9.7-3.3c1.5-0.5,3-1,4.7-1.7
					c1.6-0.6,3.4-1.3,5.2-2c1.8-0.7,3.6-1.4,5.4-2.2c1.8-0.8,3.7-1.6,5.5-2.5c1.8-0.9,3.6-1.9,5.4-2.8c1.8-1,3.5-1.9,5.3-2.8
					c1.7-0.9,3.3-1.8,4.9-2.5c1.6-0.7,3.2-1.4,4.6-2c1.4-0.7,2.8-1.1,4-1.5s2.2-0.8,3.1-0.9c1.8-0.4,2.8-0.5,2.8-0.5s-1,0.3-2.7,0.9
					c-0.9,0.2-1.8,0.8-3,1.2c-1.1,0.5-2.4,1-3.8,1.8c-1.4,0.7-2.8,1.5-4.4,2.3c-1.5,0.8-3.1,1.9-4.8,2.8c-1.7,1-3.4,2-5.1,2.9
					c-1.8,1-3.6,1.9-5.5,2.9c-1.9,0.8-3.8,1.6-5.7,2.4c-1.9,0.8-3.8,1.4-5.6,2.1c-1.8,0.7-3.6,1.2-5.3,1.7c-1.7,0.5-3.3,1-4.8,1.4
					c-3,0.9-5.5,1.3-7.3,1.7C406.6,827,405.6,827.2,405.6,827.2"/>
				<path style="clip-path:url(#SVGID_124_);fill:#903F00;" d="M360,386.4c0,0,4.4-7.9,7.9-7.4c3.5,0.5,1.5,6.6-1.6,7
					C363.2,386.3,360,386.4,360,386.4L360,386.4z"/>
			</g>
			<g style="clip-path:url(#SVGID_8_);">
				<defs>
					<path id="SVGID_125_" d="M394.1,255.4c0,0-9.6-15.8-20.4-8.3c-10.8,7.5,1.7,26.3,1.7,26.3s-35.1-26.3-43.8-7.1
						c-7.6,16.7,15.8,20,22.5,25c6.7,5,12.5,12.1,12.5,18.4c0,0,10.8-25.9,37.9-16.7c27.1,9.2,37.1,35,37.1,35s26.7-5.4,22.9-16.3
						c-3.8-10.8-20.4-8.8-20.4-8.8s24.2-7.1,20-15.4c-4.2-8.3-15.8-6.3-15.8-6.3s9.6-14.2-3.3-20.9c-12.9-6.7-27.1,2.9-27.1,2.9
						s-0.4-19.6-7.9-20.9c-0.3-0.1-0.6-0.1-1-0.1C401.7,242.4,394.1,255.4,394.1,255.4"/>
				</defs>
				<clipPath id="SVGID_126_">
					<use xlink:href="#SVGID_125_"  style="overflow:visible;"/>
				</clipPath>
				
					<radialGradient id="SVGID_127_" cx="-4.5558" cy="1075.0217" r="1" gradientTransform="matrix(148.7924 0 0 148.7924 1040.3438 -159686.0781)" gradientUnits="userSpaceOnUse">
					<stop  offset="0" style="stop-color:#E40000"/>
					<stop  offset="0.1327" style="stop-color:#E40000"/>
					<stop  offset="1" style="stop-color:#420D00"/>
				</radialGradient>
				<rect x="323.9" y="239.6" style="clip-path:url(#SVGID_126_);fill:url(#SVGID_127_);" width="144.3" height="88.4"/>
			</g>
			<g style="clip-path:url(#SVGID_8_);">
				<defs>
					<rect id="SVGID_128_" x="-677.9" y="142" width="3633.7" height="1527.4"/>
				</defs>
				<clipPath id="SVGID_129_">
					<use xlink:href="#SVGID_128_"  style="overflow:visible;"/>
				</clipPath>
				<g style="opacity:0.5;clip-path:url(#SVGID_129_);">
					<g>
						<defs>
							<rect id="SVGID_130_" x="346.5" y="258.1" width="118.4" height="69.9"/>
						</defs>
						<clipPath id="SVGID_131_">
							<use xlink:href="#SVGID_130_"  style="overflow:visible;"/>
						</clipPath>
						<g style="clip-path:url(#SVGID_131_);">
							<defs>
								<path id="SVGID_132_" d="M464.5,311.7c-3.8-10.8-20.4-8.8-20.4-8.8s24.2-7.1,20-15.4c-4.2-8.3-15.8-6.3-15.8-6.3
									s9.6-14.2-3.3-20.9c-4.2-2.2-8.5-2.6-12.4-2.2c14.8,2.3,16.7,18.7,9.4,27.5c7.8-3.8,13.8,2.3,8,8c-5.8,5.8-18.1,11.8-33.3-1
									c-26.6-20.5-49.9,3.8-49.9,3.8c-3.2-4.9-8.9-7.9-20.3-9c3.1,1.3,5.9,2.5,7.6,3.7c6.7,5,12.5,12.1,12.5,18.3
									c0,0,10.8-25.9,37.9-16.7c27.1,9.2,37.1,35,37.1,35S468.3,322.6,464.5,311.7"/>
							</defs>
							<clipPath id="SVGID_133_">
								<use xlink:href="#SVGID_132_"  style="overflow:visible;"/>
							</clipPath>
							
								<radialGradient id="SVGID_134_" cx="-4.5559" cy="1075.0219" r="1" gradientTransform="matrix(148.7898 0 0 148.7898 1040.3464 -159683.2812)" gradientUnits="userSpaceOnUse">
								<stop  offset="0" style="stop-color:#E40000"/>
								<stop  offset="0.1327" style="stop-color:#E40000"/>
								<stop  offset="1" style="stop-color:#420D00"/>
							</radialGradient>
							<rect x="346.5" y="257.8" style="clip-path:url(#SVGID_133_);fill:url(#SVGID_134_);" width="121.8" height="70.1"/>
						</g>
					</g>
				</g>
				<g style="opacity:0.5;clip-path:url(#SVGID_129_);enable-background:new    ;">
					<g>
						<defs>
							<rect id="SVGID_135_" x="332.1" y="263.4" width="28.5" height="30.7"/>
						</defs>
						<clipPath id="SVGID_136_">
							<use xlink:href="#SVGID_135_"  style="overflow:visible;"/>
						</clipPath>
						<g style="clip-path:url(#SVGID_136_);">
							<defs>
								<path id="SVGID_137_" d="M360.4,292.2c-3.3-4.3-7.1-7.4-12.1-9.5c-8.5-3.5-19.6-6.8-12.7-18.9c0.1-0.2,0-0.6-0.2-0.3
									c-3.8,5.1-4.9,9.8-0.5,15.2c2.5,3.1,7.4,4.3,10.9,5.8c5.5,2.4,9,5.8,13.5,9.5C360.1,294.6,360.8,292.8,360.4,292.2"/>
							</defs>
							<clipPath id="SVGID_138_">
								<use xlink:href="#SVGID_137_"  style="overflow:visible;"/>
							</clipPath>
							
								<linearGradient id="SVGID_139_" gradientUnits="userSpaceOnUse" x1="-27.1763" y1="1091.2651" x2="-26.1763" y2="1091.2651" gradientTransform="matrix(26.5804 -2.1951 2.1951 26.5804 -1340.3817 -28786.0293)">
								<stop  offset="0" style="stop-color:#FFFFFF"/>
								<stop  offset="0.8358" style="stop-color:#EAEAEA"/>
								<stop  offset="1" style="stop-color:#E5E5E5"/>
							</linearGradient>
							<polygon style="clip-path:url(#SVGID_138_);fill:url(#SVGID_139_);" points="328.9,297.2 363.4,294.4 360.6,260.6 
								326.1,263.5 							"/>
						</g>
					</g>
				</g>
				<g style="opacity:0.5;clip-path:url(#SVGID_129_);enable-background:new    ;">
					<g>
						<defs>
							<rect id="SVGID_140_" x="331.1" y="308.6" width="19.1" height="9.5"/>
						</defs>
						<clipPath id="SVGID_141_">
							<use xlink:href="#SVGID_140_"  style="overflow:visible;"/>
						</clipPath>
						<path style="clip-path:url(#SVGID_141_);fill:#7F3506;" d="M331.1,316.2c0,0,12.1-9.8,19.1,1.9c-1.4-3.6-4.6-7.3-6.6-7.8
							c4.5,1.2,6.5,4.8,6.5,4.8S341.4,299.6,331.1,316.2"/>
					</g>
				</g>
				<g style="opacity:0.5;clip-path:url(#SVGID_129_);enable-background:new    ;">
					<g>
						<defs>
							<rect id="SVGID_142_" x="388.1" y="307.3" width="24.1" height="8.7"/>
						</defs>
						<clipPath id="SVGID_143_">
							<use xlink:href="#SVGID_142_"  style="overflow:visible;"/>
						</clipPath>
						<path style="clip-path:url(#SVGID_143_);fill:#7F3506;" d="M388.1,315.6c0,0,10.9-10.9,24.1,0.4c-1.9-3.6-7.9-6.4-7.9-6.4
							s4,1,7.2,3.3C409.9,308.7,396.1,301.6,388.1,315.6"/>
					</g>
				</g>
				<g style="opacity:0.5;clip-path:url(#SVGID_129_);">
					<g>
						<defs>
							<rect id="SVGID_144_" x="300.6" y="374.6" width="92.2" height="69.5"/>
						</defs>
						<clipPath id="SVGID_145_">
							<use xlink:href="#SVGID_144_"  style="overflow:visible;"/>
						</clipPath>
						<g style="clip-path:url(#SVGID_145_);">
							<defs>
								<path id="SVGID_146_" d="M388.8,392.2c-3.4-7.5-7.3-13.3-11.4-17.6c14.7,20.2,11.9,47.3-7.9,42c-20.4-5.4-49.6-8.8-65,13.1
									c-1.3-15.4,3.3-29.2,4.9-33.3c-10.7,22.5-8.7,47.7-8.7,47.7c1.9-5.6,14.2-16.1,25.7-21.3c0,0,15.9-6.9,42.7-0.4
									c11.4,2.9,18,1.7,18,1.7S398.7,419.1,388.8,392.2"/>
							</defs>
							<clipPath id="SVGID_147_">
								<use xlink:href="#SVGID_146_"  style="overflow:visible;"/>
							</clipPath>
							
								<radialGradient id="SVGID_148_" cx="-9.9504" cy="1079.7841" r="1" gradientTransform="matrix(68.1241 0 0 68.1241 1021.7552 -73179.4141)" gradientUnits="userSpaceOnUse">
								<stop  offset="0" style="stop-color:#FCD000"/>
								<stop  offset="8.180001e-02" style="stop-color:#FCD000"/>
								<stop  offset="0.813" style="stop-color:#FFB600"/>
								<stop  offset="1" style="stop-color:#FFB600"/>
							</radialGradient>
							<rect x="298.8" y="374.6" style="clip-path:url(#SVGID_147_);fill:url(#SVGID_148_);" width="99.9" height="69.5"/>
						</g>
					</g>
				</g>
			</g>
			<g style="clip-path:url(#SVGID_8_);">
				<defs>
					<path id="SVGID_149_" d="M308.6,403.2c-0.4,1.2,0.5,1.5,1,0.4c4.4-9.3,8.4-18.4,16.2-25.5c6.4-5.9,15.6-10.5,24.1-12.1
						c0.3-0.1,0.7-1,0.3-1C329.1,365,315.1,385.8,308.6,403.2"/>
				</defs>
				<clipPath id="SVGID_150_">
					<use xlink:href="#SVGID_149_"  style="overflow:visible;"/>
				</clipPath>
				
					<radialGradient id="SVGID_151_" cx="-33.4131" cy="1100.4951" r="1.0009" gradientTransform="matrix(20.2885 0 0 20.2885 1007.2834 -21942.7227)" gradientUnits="userSpaceOnUse">
					<stop  offset="0" style="stop-color:#FCD000"/>
					<stop  offset="8.180001e-02" style="stop-color:#FCD000"/>
					<stop  offset="0.813" style="stop-color:#FFB600"/>
					<stop  offset="1" style="stop-color:#FFB600"/>
				</radialGradient>
				<rect x="308.2" y="365" style="clip-path:url(#SVGID_150_);fill:url(#SVGID_151_);" width="42.4" height="39.7"/>
			</g>
			<g style="clip-path:url(#SVGID_8_);">
				<defs>
					<path id="SVGID_152_" d="M307.7,407.5c-0.1,0.9-0.7,1.6-0.9,2.5c-0.2,1.3-0.4,2.7-0.7,4c-0.2,0.9,0.5,0.8,0.8,0.1
						c0.5-1.2,0.6-2.4,0.8-3.6c0.1-1.1,0.7-2.2,0.7-3.4c0-0.3-0.1-0.4-0.2-0.4C308.1,406.8,307.8,407.2,307.7,407.5"/>
				</defs>
				<clipPath id="SVGID_153_">
					<use xlink:href="#SVGID_152_"  style="overflow:visible;"/>
				</clipPath>
				
					<radialGradient id="SVGID_154_" cx="-232.5641" cy="1276.3044" r="1" gradientTransform="matrix(2.9147 0 0 2.9147 985.2149 -3309.3879)" gradientUnits="userSpaceOnUse">
					<stop  offset="0" style="stop-color:#FCD000"/>
					<stop  offset="8.180001e-02" style="stop-color:#FCD000"/>
					<stop  offset="0.813" style="stop-color:#FFB600"/>
					<stop  offset="1" style="stop-color:#FFB600"/>
				</radialGradient>
				<rect x="306" y="406.8" style="clip-path:url(#SVGID_153_);fill:url(#SVGID_154_);" width="2.5" height="8.1"/>
			</g>
			<g style="clip-path:url(#SVGID_8_);">
				<defs>
					<path id="SVGID_155_" d="M295.5,447.9c-4.9,13.3-12,21.7-24,28.8c-8.3,4.9-15.4,6.7-20.3,15.9c-0.5,1,0,2.3,0.8,1
						c7.6-11.7,21.1-13.7,30.9-22.8c6.7-6.2,10.3-14.5,13.1-22.9c0.1-0.3,0-0.4-0.1-0.4C295.7,447.5,295.6,447.6,295.5,447.9"/>
				</defs>
				<clipPath id="SVGID_156_">
					<use xlink:href="#SVGID_155_"  style="overflow:visible;"/>
				</clipPath>
				
					<radialGradient id="SVGID_157_" cx="-5.5093" cy="1075.8635" r="1" gradientTransform="matrix(123.0408 0 0 123.0408 929.7298 -131872.9688)" gradientUnits="userSpaceOnUse">
					<stop  offset="0" style="stop-color:#F89708"/>
					<stop  offset="0.8601" style="stop-color:#7F3506"/>
					<stop  offset="1" style="stop-color:#7F3506"/>
				</radialGradient>
				<rect x="250.7" y="447.5" style="clip-path:url(#SVGID_156_);fill:url(#SVGID_157_);" width="45.4" height="47.4"/>
			</g>
			<g style="clip-path:url(#SVGID_8_);">
				<defs>
					<path id="SVGID_158_" d="M271.4,490.5c-8.3,5.2-17,10-23,18c-5.1,6.9-7.4,16.5-8.2,25c-0.1,1.2,1,0.3,1.2-0.4
						c1.9-8.9,3.5-17.4,9-25c5-7,14-11.7,20.9-16.6c0.3-0.2,0.4-1.1,0.1-1.1C271.5,490.5,271.5,490.5,271.4,490.5"/>
				</defs>
				<clipPath id="SVGID_159_">
					<use xlink:href="#SVGID_158_"  style="overflow:visible;"/>
				</clipPath>
				
					<radialGradient id="SVGID_160_" cx="-5.5096" cy="1075.8638" r="1" gradientTransform="matrix(123.0339 0 0 123.0339 929.7331 -131865.5781)" gradientUnits="userSpaceOnUse">
					<stop  offset="0" style="stop-color:#F89708"/>
					<stop  offset="0.8601" style="stop-color:#7F3506"/>
					<stop  offset="1" style="stop-color:#7F3506"/>
				</radialGradient>
				<rect x="240.2" y="490.5" style="clip-path:url(#SVGID_159_);fill:url(#SVGID_160_);" width="31.6" height="44.3"/>
			</g>
			<g style="clip-path:url(#SVGID_8_);">
				<defs>
					<path id="SVGID_161_" d="M256.5,516.2c-11.4,19.8-4.8,43.1,12.8,57c0.7,0.6,1.7-1.4,1.1-2c-15.3-15.1-23.6-34-13.5-54.7
						c0.1-0.3,0-0.6-0.1-0.6C256.7,516,256.6,516.1,256.5,516.2"/>
				</defs>
				<clipPath id="SVGID_162_">
					<use xlink:href="#SVGID_161_"  style="overflow:visible;"/>
				</clipPath>
				
					<radialGradient id="SVGID_163_" cx="-5.5096" cy="1075.8638" r="1" gradientTransform="matrix(123.0334 0 0 123.0334 929.7298 -131865.0781)" gradientUnits="userSpaceOnUse">
					<stop  offset="0" style="stop-color:#F89708"/>
					<stop  offset="0.8601" style="stop-color:#7F3506"/>
					<stop  offset="1" style="stop-color:#7F3506"/>
				</radialGradient>
				<rect x="245.1" y="516" style="clip-path:url(#SVGID_162_);fill:url(#SVGID_163_);" width="25.9" height="57.8"/>
			</g>
			<g style="clip-path:url(#SVGID_8_);">
				<defs>
					<path id="SVGID_164_" d="M182.5,655c-13.9,17-18.3,37.8-8.8,58c12,25.5,37.7,43,58.3,61c1.7,1.4,3.6-3.1,2.5-4.4
						c-12.6-16.5-31.8-26.9-45.2-42.8c-7.7-9.1-15.1-19.5-17.4-31.4c-2.7-13.8,3.1-28,11-39.3c0.3-0.4,0.4-1.5,0-1.5
						C182.8,654.7,182.7,654.7,182.5,655"/>
				</defs>
				<clipPath id="SVGID_165_">
					<use xlink:href="#SVGID_164_"  style="overflow:visible;"/>
				</clipPath>
				
					<radialGradient id="SVGID_166_" cx="-14.0285" cy="1083.3842" r="1" gradientTransform="matrix(48.3207 0 0 48.3207 879.5845 -51635.4219)" gradientUnits="userSpaceOnUse">
					<stop  offset="0" style="stop-color:#ECB251"/>
					<stop  offset="0.1327" style="stop-color:#ECB251"/>
					<stop  offset="1" style="stop-color:#D3670C"/>
				</radialGradient>
				<rect x="164.2" y="654.7" style="clip-path:url(#SVGID_165_);fill:url(#SVGID_166_);" width="71.4" height="120.7"/>
			</g>
			<g style="clip-path:url(#SVGID_8_);">
				<defs>
					<path id="SVGID_167_" d="M236.3,776.2c1.4,3.8,5,6.6,8.7,8c1.5,0.6,2.9-3.1,1.6-3.9c-2.8-1.7-6.8-3.3-8.4-6.4
						c-0.2-0.3-0.3-0.4-0.5-0.4C236.9,773.5,236,775.4,236.3,776.2"/>
				</defs>
				<clipPath id="SVGID_168_">
					<use xlink:href="#SVGID_167_"  style="overflow:visible;"/>
				</clipPath>
				
					<radialGradient id="SVGID_169_" cx="-125.3849" cy="1181.6881" r="1" gradientTransform="matrix(5.4063 0 0 5.4063 919.5166 -5609.6504)" gradientUnits="userSpaceOnUse">
					<stop  offset="0" style="stop-color:#ECB251"/>
					<stop  offset="0.1327" style="stop-color:#ECB251"/>
					<stop  offset="1" style="stop-color:#D3670C"/>
				</radialGradient>
				<rect x="236" y="773.5" style="clip-path:url(#SVGID_168_);fill:url(#SVGID_169_);" width="11.8" height="11.3"/>
			</g>
		</g>
	</g>
</g>
</svg>
