<svg id="Layer_1" data-name="Layer 1" xmlns="http://www.w3.org/2000/svg" xmlns:xlink="http://www.w3.org/1999/xlink" viewBox="0 0 1118 1071"><defs><clipPath id="clip-path"><rect x="506.63" y="52.58" width="605.37" height="356.42" style="fill:none"/></clipPath><clipPath id="clip-path-2"><rect x="506.63" y="52.58" width="605.37" height="356.42" style="fill:none"/></clipPath><clipPath id="clip-path-3"><rect y="184.18" width="566" height="822.07" style="fill:none"/></clipPath><clipPath id="clip-path-6"><rect x="120.12" y="833.1" width="84.03" height="61.02" style="fill:none"/></clipPath><clipPath id="clip-path-7"><rect x="392.87" y="880.74" width="97.67" height="47.02" style="fill:none"/></clipPath><clipPath id="clip-path-8"><rect x="375.53" y="650.66" width="135.16" height="264.83" style="fill:none"/></clipPath><clipPath id="clip-path-9"><rect x="251.79" y="588.54" width="167.14" height="132.66" style="fill:none"/></clipPath><clipPath id="clip-path-10"><rect x="188.23" y="881.52" width="97.78" height="47.02" style="fill:none"/></clipPath><clipPath id="clip-path-11"><rect x="164.86" y="652.76" width="137.56" height="263.78" style="fill:none"/></clipPath><clipPath id="clip-path-12"><rect x="372.3" y="881.19" width="61.17" height="68.72" style="fill:none"/></clipPath><clipPath id="clip-path-13"><rect x="245.07" y="881.35" width="61.89" height="69.28" style="fill:none"/></clipPath><clipPath id="clip-path-14"><rect x="263.47" y="908.5" width="12.3" height="50.63" style="fill:none"/></clipPath><clipPath id="clip-path-15"><rect x="235.61" y="911.99" width="12.07" height="47.24" style="fill:none"/></clipPath><clipPath id="clip-path-16"><rect x="398.56" y="907.72" width="12.69" height="50.51" style="fill:none"/></clipPath><clipPath id="clip-path-17"><rect x="426.7" y="910.83" width="12.43" height="47.13" style="fill:none"/></clipPath><clipPath id="clip-path-18"><rect x="243.63" y="383.37" width="185.79" height="98.59" style="fill:none"/></clipPath><clipPath id="clip-path-19"><rect x="174.84" y="545.74" width="73.01" height="327.56" style="fill:none"/></clipPath><clipPath id="clip-path-20"><rect x="116.73" y="672.13" width="29.93" height="139.22" style="fill:none"/></clipPath><clipPath id="clip-path-21"><rect x="427.26" y="630.56" width="72.55" height="242.75" style="fill:none"/></clipPath></defs><g id="Artwork_25" data-name="Artwork 25"><g style="clip-path:url(#clip-path)"><g style="clip-path:url(#clip-path-2)"><path d="M809.32,52.58c-166.09,0-302.68,72-302.68,162,0,52.2,47,98.24,117.93,127.69-.1,1.75,0,4.44-3.71,12.95-4.59,10.5-13.66,25.39-32.58,41.89l-13.6,11.68,23.5.25c81.5.22,128.71-32.75,136.09-38.08a551.09,551.09,0,0,0,75.05,5.58c166,0,302.67-72,302.67-162s-136.64-162-302.67-162m0,15.23c154.59,0,277.93,66.22,277.93,146.73S963.91,361.27,809.32,361.27A517,517,0,0,1,733,355.69l-7.43-1-5,3.8s-38.14,26.47-99,32.75c11-12.13,19.33-23.39,23.09-32,5.27-12,5.36-20.31,5.36-20.31v-4.06l-5.77-2.28c-69-26.92-113-69.78-113-118,0-80.51,123.29-146.73,277.94-146.73"/></g></g></g><path d="M572.86,178.73q-.06,4.32-.27,9.13c0,.39-.39.62-1.09.67a34.56,34.56,0,0,1-7.75-1,.68.68,0,0,1-.6-.64q-.43-12.13-.31-22.53l-1.81.13c-.28,0-.46-.14-.54-.47a67.29,67.29,0,0,1-.68-8.61,1.78,1.78,0,0,1,.66-1q5-2.46,13.85-2.93a28,28,0,0,1,12.46,2.33q2.51,1.26,3.22,5.73,1,11.94-.6,15.73a5.27,5.27,0,0,1-3.22,2.7c-.41.1-.82.19-1.24.27q3,4,4.6,6c.18.28.06.7-.37,1.27a41.45,41.45,0,0,1-5.2,5.8c-.3.26-.54.28-.73.05Q579.73,187.34,572.86,178.73Zm6.56-15c-1.66-.08-3.86-.06-6.62,0q.06,3.6.08,7.2a15.41,15.41,0,0,0,7.25,0,1.57,1.57,0,0,0,.93-.72,7.21,7.21,0,0,0,.68-3.1,10.23,10.23,0,0,0-.15-2.29C581.41,164.22,580.68,163.84,579.42,163.77Z"/><path d="M605.36,177.09q8.49-.32,13.28-.72c.35,0,.55.46.61,1.27a50.49,50.49,0,0,1-.08,9q-.07.71-.57.72a151.71,151.71,0,0,1-17.08.8,27,27,0,0,1-5.23-.23.66.66,0,0,1-.62-.64q-.46-12.75-.35-23.29l-1.77.14a.49.49,0,0,1-.54-.42,69.77,69.77,0,0,1-.8-9.55c.08-.64.29-1,.64-1a164.4,164.4,0,0,1,23.7-.7c.39,0,.63.21.72.67a39.89,39.89,0,0,1,.27,8.71c0,.81-.29,1.24-.7,1.29-3.84,0-7.69.11-11.56.27,0,.79,0,1.59,0,2.38q5-.16,8.3-.15c.31,0,.49.34.54,1a34.71,34.71,0,0,1-.07,7c-.05.35-.22.53-.51.55-2.41.1-5.15.24-8.2.42C605.38,175.41,605.37,176.25,605.36,177.09Z"/><path d="M632.64,181.46c-.64,2.87-1.31,5.64-2,8.28-.11.38-.51.49-1.21.32a24.08,24.08,0,0,1-7.13-3.07.79.79,0,0,1-.49-.82q3.21-19.29,6.56-33a1,1,0,0,1,.79-.65,53.46,53.46,0,0,1,16-.32,1.27,1.27,0,0,1,1.16,1q3.36,13.66,6.35,32.74a.79.79,0,0,1-.47.82A41,41,0,0,1,645,189.4c-.7.16-1.1,0-1.21-.33q-1-4-1.9-8.11C639,181.19,635.88,181.36,632.64,181.46Zm3.15-15.31c-.41,2.22-.83,4.44-1.29,6.65,2.06,0,3.93-.06,5.63-.07q-.66-3.28-1.26-6.6C637.87,166.15,636.84,166.15,635.79,166.15Z"/><path d="M655.74,163.9l-1.44.14c-.33.17-.55.1-.66-.19a55.83,55.83,0,0,1-.36-9.16.82.82,0,0,1,.38-.91q15.93-3.22,25.85-.43a7,7,0,0,1,4,3.63q2,5,.73,23c-.42,4.11-1.73,6.54-3.91,7.32q-10.12,2.58-23.66-.2a.65.65,0,0,1-.62-.59Q655.61,174,655.74,163.9Zm9.85,13.47a18.08,18.08,0,0,0,8.3-.35,2,2,0,0,0,1.3-1.42,37,37,0,0,0,.15-5.85,15,15,0,0,0-1.06-5.16,2,2,0,0,0-1.17-.94,21.43,21.43,0,0,0-7.58-.13Q665.67,170.57,665.59,177.37Z"/><path d="M706.81,171.66q.2,9.71,0,15.7c0,.4-.4.62-1.11.67a33.88,33.88,0,0,1-7.79-.07.67.67,0,0,1-.62-.65q-.29-8.13-.26-15.18-3.68-4.24-9-11.88c-.17-.25-.09-.63.23-1.14a33.36,33.36,0,0,1,5.93-7.37c.21-.18.38-.18.53,0q4.38,6.44,7,10.22,2.65-3.79,7-10.22c.13-.18.31-.18.53,0a33,33,0,0,1,5.91,7.37c.34.51.42.89.25,1.14Q710.38,167.47,706.81,171.66Z"/><path d="M735.53,165.61c-2.25.06-4.53.14-6.84.22-.3,0-.49-.16-.57-.52a85.51,85.51,0,0,1-.71-10.81c.09-.75.31-1.14.68-1.17a74.88,74.88,0,0,1,25.11-.15,1,1,0,0,1,.83.89,49.87,49.87,0,0,1-.23,9.63c-.13,1-.38,1.46-.76,1.46l-7.6.15q0,11.2-.58,22.3c0,.4-.39.62-1.09.67a18.7,18.7,0,0,1-6.94-.4.67.67,0,0,1-.6-.64Q735.56,175.48,735.53,165.61Z"/><path d="M785.68,153.63c1.87.59,3.26,2.16,4.15,4.69q1.65,4.91.75,21.2-.8,7-4,7.84-14.55,2.26-24.82-.4a4.57,4.57,0,0,1-2.54-2.3q-2.43-4.93-2.39-15.46.2-8.17,1.77-12.15a4.41,4.41,0,0,1,3.16-2.93A47,47,0,0,1,785.68,153.63Zm-6.58,24.28a1.83,1.83,0,0,0,1.4-1.24,17.85,17.85,0,0,0,.68-5.18,16.37,16.37,0,0,0-.95-6.55,2,2,0,0,0-1.13-1,23.19,23.19,0,0,0-10-.08c-1.36.2-2.16,1.28-2.41,3.25-.24,4.61-.13,7.62.35,9a3,3,0,0,0,1.81,2A20.34,20.34,0,0,0,779.1,177.91Z"/><path d="M806.79,164.34l-1.8.13c-.28,0-.46-.14-.54-.47a65.14,65.14,0,0,1-.74-8.61,1.78,1.78,0,0,1,.66-1,35.29,35.29,0,0,1,14.08-3q10.06.45,12.84,2.65,2.15,1.17,2.63,5.46,1.11,11.94-.48,15.73a5.32,5.32,0,0,1-3.2,2.7,37.35,37.35,0,0,1-13.32.74c0,2.9,0,6,0,9.21,0,.39-.39.62-1.09.67a35.55,35.55,0,0,1-7.95-1,.68.68,0,0,1-.6-.64Q806.75,174.74,806.79,164.34Zm16.58-.57c-1.65-.08-3.86-.06-6.61,0,.07,2.4.1,4.8.12,7.2a15.4,15.4,0,0,0,7.25,0,1.59,1.59,0,0,0,.93-.72,6.91,6.91,0,0,0,.66-3.1,9.49,9.49,0,0,0-.18-2.29C825.36,164.22,824.64,163.84,823.37,163.77Z"/><path d="M850,178.73q-.06,4.32-.27,9.13c0,.39-.39.62-1.09.67a34.74,34.74,0,0,1-7.76-1,.68.68,0,0,1-.6-.64q-.42-12.13-.31-22.53l-1.8.13c-.29,0-.47-.14-.54-.47a65.51,65.51,0,0,1-.68-8.61,1.78,1.78,0,0,1,.66-1q5-2.46,13.84-2.93a28.06,28.06,0,0,1,12.47,2.33q2.51,1.26,3.22,5.73,1,11.94-.6,15.73a5.3,5.3,0,0,1-3.22,2.7c-.41.1-.83.19-1.24.27q3,4,4.59,6c.18.28.06.7-.37,1.27a42.13,42.13,0,0,1-5.19,5.8c-.3.26-.54.28-.74.05Q856.86,187.34,850,178.73Zm6.55-15c-1.65-.08-3.86-.06-6.61,0,0,2.4.06,4.8.08,7.2a15.4,15.4,0,0,0,7.25,0,1.59,1.59,0,0,0,.93-.72,7.21,7.21,0,0,0,.68-3.1,9.78,9.78,0,0,0-.16-2.29C858.54,164.22,857.82,163.84,856.55,163.77Z"/><path d="M881,181.46c-.65,2.87-1.32,5.64-2,8.28-.11.38-.51.49-1.2.32a24,24,0,0,1-7.14-3.07.79.79,0,0,1-.49-.82q3.21-19.29,6.56-33a1,1,0,0,1,.79-.65,53.47,53.47,0,0,1,16-.32,1.29,1.29,0,0,1,1.17,1q3.35,13.66,6.34,32.74a.79.79,0,0,1-.47.82,41,41,0,0,1-7.19,2.63q-1,.24-1.2-.33c-.66-2.68-1.3-5.38-1.9-8.11C887.25,181.19,884.18,181.36,881,181.46Zm3.14-15.31q-.6,3.33-1.28,6.65c2.05,0,3.93-.06,5.62-.07q-.66-3.28-1.26-6.6C886.17,166.15,885.15,166.15,884.09,166.15Z"/><path d="M929.37,184.43a.83.83,0,0,1-.39.9q-10.8,4.71-20.91,2.28a6.67,6.67,0,0,1-4.09-3.42q-2.07-4.84-.75-22.65.81-7,4-7.84,11.46-2.25,20.5-.12c.46.25.66.55.6.92a44.86,44.86,0,0,1-1.86,8.48q-.32.72-1.26.42a23.71,23.71,0,0,0-11.41,1.27,1.93,1.93,0,0,0-1.31,1.41,28.77,28.77,0,0,0-.16,5.28,19.12,19.12,0,0,0,1.18,6.33,1.93,1.93,0,0,0,1.19.89q4.57.72,12.12-2.08c.33-.17.56-.1.67.2A32.08,32.08,0,0,1,929.37,184.43Z"/><path d="M939.54,165.61c-2.25.06-4.53.14-6.84.22-.3,0-.49-.16-.56-.52a83.74,83.74,0,0,1-.72-10.81c.09-.75.32-1.14.68-1.17a74.88,74.88,0,0,1,25.11-.15.94.94,0,0,1,.83.89,49.87,49.87,0,0,1-.23,9.63c-.13,1-.38,1.46-.76,1.46l-7.6.15q0,11.2-.58,22.3c0,.4-.39.62-1.08.67a18.75,18.75,0,0,1-6.95-.4.67.67,0,0,1-.6-.64Q939.57,175.48,939.54,165.61Z"/><path d="M970.18,162.06A79.27,79.27,0,0,1,962,162c-.39,0-.65-.38-.78-1.09a22.23,22.23,0,0,1,0-7,1.62,1.62,0,0,1,1-1.27,16.11,16.11,0,0,1,8.55,0c.32.14.48.49.49,1a43,43,0,0,1,.14,7.51C971.32,161.74,970.92,162,970.18,162.06Zm-.89,26.09a26.43,26.43,0,0,1-6.59,0,.6.6,0,0,1-.56-.67q-.63-10.36-.64-22.94c0-.33.29-.55.83-.64a34.75,34.75,0,0,1,8.09.05.5.5,0,0,1,.38.52q-.07,15.25-.42,22.94C970.34,187.86,970,188.09,969.29,188.15Z"/><path d="M1000.24,184.43a.83.83,0,0,1-.39.9q-10.8,4.71-20.9,2.28a6.64,6.64,0,0,1-4.09-3.42q-2.08-4.84-.76-22.65.81-7,4-7.84,11.46-2.25,20.5-.12c.47.25.67.55.6.92a43.35,43.35,0,0,1-1.86,8.48q-.32.72-1.26.42a23.68,23.68,0,0,0-11.4,1.27,1.92,1.92,0,0,0-1.32,1.41,29.7,29.7,0,0,0-.16,5.28,19.07,19.07,0,0,0,1.19,6.33,1.88,1.88,0,0,0,1.18.89q4.58.72,12.12-2.08c.34-.17.56-.1.68.2A32.65,32.65,0,0,1,1000.24,184.43Z"/><path d="M1015.05,177.09c5.67-.21,10.09-.45,13.29-.72.35,0,.55.46.6,1.27a50.49,50.49,0,0,1-.08,9c0,.47-.24.71-.56.72a151.9,151.9,0,0,1-17.09.8,27,27,0,0,1-5.23-.23.67.67,0,0,1-.62-.64q-.47-12.75-.35-23.29l-1.77.14a.49.49,0,0,1-.54-.42,69.73,69.73,0,0,1-.79-9.55c.07-.64.29-1,.64-1a164.26,164.26,0,0,1,23.69-.7c.39,0,.63.21.72.67a39.27,39.27,0,0,1,.27,8.71c0,.81-.28,1.24-.7,1.29-3.84,0-7.69.11-11.55.27l0,2.38c3.37-.11,6.13-.16,8.3-.15.31,0,.49.34.55,1a34.6,34.6,0,0,1-.08,7c0,.35-.22.53-.5.55q-3.63.15-8.21.42C1015.07,175.41,1015.07,176.25,1015.05,177.09Z"/><path d="M1036.34,173.17a5.9,5.9,0,0,1,2.17-3.85,14.86,14.86,0,0,1,5.63-2.62,4.21,4.21,0,0,0,1.44-.7,1.77,1.77,0,0,0,.63-1.36A6.4,6.4,0,0,0,1046,163a1.26,1.26,0,0,0-1-.94,15.6,15.6,0,0,0-10.2,4.11c-.49.14-.81,0-1-.27-1.83-4.45-2.78-7.47-2.83-9.08,0-.25.1-.45.47-.62q6.57-5.48,13.57-4.76,7.83.68,9.75,6.77a18.56,18.56,0,0,1-1.22,13q-1,1.68-4.71,3.05a3.38,3.38,0,0,0-2.81,3.77c-.41.35-3.45.32-9.11-.07C1036.53,177.37,1036.32,175.79,1036.34,173.17Zm10.2,7a44.88,44.88,0,0,1,0,6.77c-.11.81-.33,1.29-.63,1.44a16.56,16.56,0,0,1-8.56,0,1.56,1.56,0,0,1-1-1.22,20.54,20.54,0,0,1,0-6.65c.13-.67.4-1.08.83-1.21a79.27,79.27,0,0,1,8.18,0C1046.05,179.3,1046.45,179.6,1046.54,180.19Z"/><path d="M632.67,230.19q-.12-7.44-.23-15c0-.41.14-.67.41-.77a39.06,39.06,0,0,1,8.49-1,.94.94,0,0,1,.89.91,290.66,290.66,0,0,1,.23,33.81q0,.83-.6,1a22.07,22.07,0,0,1-7.75.25c-.71-.08-1.1-.42-1.15-1,0-2.61-.07-5.24-.11-7.88q-2.72.27-5.59.49c0,2.53,0,5.05-.07,7.54,0,.4-.43.63-1.17.7a37.26,37.26,0,0,1-8.18-.08.69.69,0,0,1-.64-.67q-.76-19.81-.06-34.35c0-.35.31-.56.89-.64a38.84,38.84,0,0,1,8.55,0,.49.49,0,0,1,.43.53q.19,8.18.25,16.12C629.24,230.16,631,230.16,632.67,230.19Z"/><path d="M654.76,223a79.27,79.27,0,0,1-8.18-.05c-.39,0-.65-.38-.78-1.09a22.3,22.3,0,0,1,0-7,1.62,1.62,0,0,1,1-1.26,16.2,16.2,0,0,1,8.55,0c.31.15.47.5.49,1a42.91,42.91,0,0,1,.13,7.51Q655.87,223,654.76,223Zm-.89,26.09a26.5,26.5,0,0,1-6.6,0,.61.61,0,0,1-.56-.67q-.62-10.37-.64-22.94c0-.33.29-.55.84-.65a35.21,35.21,0,0,1,8.08,0,.52.52,0,0,1,.39.53q-.07,15.26-.43,22.94Q654.89,249,653.87,249.11Z"/><path d="M666.32,226.57c-2.25.06-4.53.14-6.85.22-.3,0-.48-.16-.56-.52a83.77,83.77,0,0,1-.72-10.82c.09-.74.32-1.13.68-1.16a74.63,74.63,0,0,1,25.11-.15,1,1,0,0,1,.84.89,50.84,50.84,0,0,1-.24,9.63c-.13,1-.38,1.46-.75,1.46l-7.61.15q0,11.21-.58,22.3c0,.39-.38.62-1.08.67a18.68,18.68,0,0,1-6.94-.4.68.68,0,0,1-.61-.64Q666.33,236.44,666.32,226.57Z"/><path d="M702.06,212.36a62.22,62.22,0,0,0-1.79,12.29h-2a59.48,59.48,0,0,1,2.1-12.29Zm5.72,0A65.92,65.92,0,0,0,706,224.65h-2a59.83,59.83,0,0,1,2.11-12.29Z"/><path d="M721,226.52a24.54,24.54,0,0,1,8.83,1,6,6,0,0,1,3.43,2.53q3.13,6.53,1.16,15.53a5.21,5.21,0,0,1-3.76,3.59q-9,1.54-20.19-1.36c-.36-.18-.51-.39-.46-.62q.08-2.48,1-9.18.25-.5,1-.3,9.33,1,12.45.62a2.13,2.13,0,0,0,1.28-.94c.48-.76.25-1.24-.68-1.44a31.64,31.64,0,0,1-10.32-.94,5.18,5.18,0,0,1-3.22-2.33q-3.13-6.53-1.18-15.53a5.29,5.29,0,0,1,3.76-3.6q9-1.5,20.19,1.39c.37.17.53.38.48.62q-.07,2.46-1,9.18c-.15.32-.48.41-1,.27q-9.33-1-12.45-.62a1.1,1.1,0,0,0-1,1C719.11,226.33,719.69,226.72,721,226.52Z" style="fill:#ff3900"/><path d="M745.64,226.57c-2.25.06-4.53.14-6.84.22-.3,0-.49-.16-.57-.52a85.55,85.55,0,0,1-.71-10.82c.09-.74.31-1.13.68-1.16a74.62,74.62,0,0,1,25.11-.15,1,1,0,0,1,.83.89,49.87,49.87,0,0,1-.23,9.63c-.13,1-.38,1.46-.76,1.46l-7.6.15q0,11.21-.58,22.3c0,.39-.39.62-1.09.67a18.7,18.7,0,0,1-6.94-.4.68.68,0,0,1-.6-.64Q745.67,236.44,745.64,226.57Z" style="fill:#ff3900"/><path d="M773.72,242.42c-.65,2.87-1.31,5.64-2,8.28-.1.38-.5.49-1.2.32a24.15,24.15,0,0,1-7.14-3.07.77.77,0,0,1-.48-.82q3.2-19.31,6.55-33a1.07,1.07,0,0,1,.8-.64,53.46,53.46,0,0,1,16-.32,1.3,1.3,0,0,1,1.16,1q3.36,13.68,6.34,32.75a.76.76,0,0,1-.46.81,39.87,39.87,0,0,1-7.2,2.63c-.7.17-1.1.06-1.2-.32q-1-4-1.9-8.11Q778.57,242.27,773.72,242.42Zm3.14-15.31c-.4,2.22-.83,4.43-1.28,6.65,2.06,0,3.93-.06,5.62-.07q-.66-3.28-1.26-6.6Z" style="fill:#ff3900"/><path d="M806.64,239.69q0,4.32-.27,9.13c0,.39-.38.62-1.08.67a34.66,34.66,0,0,1-7.76-1,.68.68,0,0,1-.6-.65q-.42-12.12-.31-22.52l-1.8.13c-.29,0-.47-.14-.55-.48a67.15,67.15,0,0,1-.68-8.6,1.78,1.78,0,0,1,.66-1q5-2.46,13.85-2.93a28.06,28.06,0,0,1,12.47,2.33q2.5,1.26,3.22,5.73,1,11.92-.6,15.73a5.33,5.33,0,0,1-3.22,2.7l-1.24.27q3,4,4.59,6c.18.28.06.7-.37,1.27a42.74,42.74,0,0,1-5.19,5.8c-.3.26-.55.28-.74,0Q813.51,248.3,806.64,239.69Zm6.56-15q-2.49-.12-6.61.05c0,2.4.06,4.8.07,7.19a15.19,15.19,0,0,0,7.26,0,1.52,1.52,0,0,0,.93-.72,7.3,7.3,0,0,0,.68-3.1,9.73,9.73,0,0,0-.16-2.28C815.19,225.18,814.47,224.8,813.2,224.73Z" style="fill:#ff3900"/><path d="M834.51,226.57c-2.25.06-4.53.14-6.85.22-.29,0-.48-.16-.56-.52a83.77,83.77,0,0,1-.72-10.82c.09-.74.32-1.13.68-1.16a74.63,74.63,0,0,1,25.11-.15,1,1,0,0,1,.84.89,50.7,50.7,0,0,1-.23,9.63c-.13,1-.39,1.46-.76,1.46l-7.6.15q0,11.21-.58,22.3c0,.39-.39.62-1.09.67a18.7,18.7,0,0,1-6.94-.4.68.68,0,0,1-.6-.64Q834.52,236.44,834.51,226.57Z" style="fill:#ff3900"/><path d="M856.63,224a65.69,65.69,0,0,0,1.79-12.29h2A59.63,59.63,0,0,1,858.3,224Zm5.72,0a62,62,0,0,0,1.79-12.29h2A59.92,59.92,0,0,1,864,224Z"/><path d="M895.25,222.38c.14-.27.31-.39.52-.38s.38.11.52.38q2.87,4.11,5,7.29.79-8.34,1.76-15.8.1-.6,1.2-.57a36.45,36.45,0,0,1,8.17.89.68.68,0,0,1,.56.72q-1.34,19.72-3.32,32.27c-.05.33-.42.66-1.12,1a24.88,24.88,0,0,1-8.4,1.32.76.76,0,0,1-.54-.45c-1.18-2.28-2.46-4.8-3.86-7.57q-2.12,4.16-3.88,7.57a.81.81,0,0,1-.62.45,24.94,24.94,0,0,1-8.41-1.32c-.7-.33-1.08-.66-1.13-1q-2-12.56-3.31-32.27a.68.68,0,0,1,.58-.72,36.09,36.09,0,0,1,8.14-.89c.74,0,1.15.17,1.22.57q1,7.53,1.77,15.95Q892.34,226.57,895.25,222.38Z"/><path d="M931.76,230.19q-.12-7.44-.23-15c0-.41.14-.67.41-.77a39.06,39.06,0,0,1,8.49-1,1,1,0,0,1,.89.91,290.66,290.66,0,0,1,.23,33.81q0,.83-.6,1a22.07,22.07,0,0,1-7.75.25c-.71-.08-1.1-.42-1.15-1q-.06-3.91-.11-7.88c-1.81.18-3.68.34-5.59.49,0,2.53,0,5.05-.08,7.54,0,.4-.42.63-1.16.7a37.26,37.26,0,0,1-8.18-.08.69.69,0,0,1-.64-.67q-.76-19.81-.06-34.35c0-.35.31-.56.89-.64a38.84,38.84,0,0,1,8.55,0,.49.49,0,0,1,.43.53q.2,8.18.25,16.12C928.33,230.16,930.13,230.16,931.76,230.19Z"/><path d="M957.24,238.05q8.49-.31,13.28-.72c.35,0,.55.46.6,1.27a49.71,49.71,0,0,1-.07,9q-.07.69-.57.72a152,152,0,0,1-17.08.79,26.28,26.28,0,0,1-5.23-.22.69.69,0,0,1-.63-.64q-.45-12.75-.34-23.3l-1.77.15a.49.49,0,0,1-.54-.42,69.77,69.77,0,0,1-.8-9.55c.08-.64.29-1,.64-1a164.4,164.4,0,0,1,23.7-.7c.39,0,.63.21.72.67a40.53,40.53,0,0,1,.27,8.71c0,.81-.29,1.24-.7,1.29q-5.76,0-11.56.27c0,.79,0,1.59,0,2.38q5-.16,8.3-.15c.31,0,.49.34.54,1a34.71,34.71,0,0,1-.07,7c-.05.35-.22.53-.51.55q-3.63.15-8.2.42C957.26,236.36,957.25,237.21,957.24,238.05Z"/><path d="M983.73,236.17q-.13,8-.31,12.89c0,.57-.42.83-1.14.8a23.68,23.68,0,0,1-7-1.12,1,1,0,0,1-.62-1q-.66-14.46-.77-31.13c0-.43.33-.91,1-1.44,1.82-1.57,4.63-2.3,8.43-2.21.13,0,.27.16.41.43Q987,219,991.2,227.06q.13-8.28.3-13.37c0-.56.42-.82,1.15-.79a22.8,22.8,0,0,1,7,1.14,1,1,0,0,1,.62,1q.66,14.46.78,31.13a2.25,2.25,0,0,1-1,1.46,13,13,0,0,1-8.22,2.26q-.31-.06-.84-.87Q987.8,244.08,983.73,236.17Z"/><path d="M653.55,293.58q.19,9.69-.06,15.7c0,.4-.4.62-1.11.67a33.81,33.81,0,0,1-7.79-.08.67.67,0,0,1-.62-.64q-.27-8.13-.25-15.18a146.59,146.59,0,0,1-9-11.88c-.17-.25-.09-.63.23-1.14a33.14,33.14,0,0,1,5.94-7.37c.2-.18.38-.18.52,0q4.38,6.42,7,10.22,2.66-3.79,7-10.22c.13-.18.3-.18.52,0a33,33,0,0,1,5.92,7.37c.33.51.42.89.25,1.14Q657.12,289.39,653.55,293.58Z"/><path d="M693.16,275.55q2.82.88,4.15,4.68,1.65,4.92.76,21.21-.8,7-4,7.84-14.54,2.25-24.82-.4a4.6,4.6,0,0,1-2.54-2.3q-2.41-4.93-2.38-15.46c.13-5.45.72-9.51,1.76-12.15a4.4,4.4,0,0,1,3.16-2.93A46.86,46.86,0,0,1,693.16,275.55Zm-6.57,24.28a1.86,1.86,0,0,0,1.4-1.24,17.94,17.94,0,0,0,.67-5.19,16.14,16.14,0,0,0-.95-6.54,2,2,0,0,0-1.12-1,23.25,23.25,0,0,0-10-.07c-1.35.2-2.16,1.28-2.4,3.25q-.37,6.91.35,9a3,3,0,0,0,1.8,2A20.38,20.38,0,0,0,686.59,299.83Z"/><path d="M727.41,273.71c.32-.07.55.1.7.5q2.32,16.49.42,29.41a8.65,8.65,0,0,1-2.67,5.24q-3.78,2.65-17.71,1-5.45-1-6.12-5.1a110.15,110.15,0,0,1,.56-29.92c.09-.51.33-.77.71-.77a14.33,14.33,0,0,1,7,1.64c.38.26.49.8.33,1.61q-1.12,12.18,0,19a2.15,2.15,0,0,0,1.1,1.68,13.92,13.92,0,0,0,4.13.2,8.68,8.68,0,0,0,4.4-1.46,2.68,2.68,0,0,0,.7-1.52q.57-5.85-1-19.19c-.13-.45-.08-.74.16-.87A26.48,26.48,0,0,1,727.41,273.71Z"/><path d="M755.76,300.65c0,2.87-.13,5.92-.27,9.13,0,.39-.39.62-1.09.66a34.23,34.23,0,0,1-7.76-1,.68.68,0,0,1-.6-.65q-.42-12.12-.31-22.52-.88.08-1.8.12c-.29,0-.47-.14-.54-.47a65.5,65.5,0,0,1-.68-8.6,1.78,1.78,0,0,1,.66-1.05q5-2.44,13.84-2.92a28.06,28.06,0,0,1,12.47,2.33q2.51,1.26,3.22,5.73,1,11.93-.6,15.72a5.31,5.31,0,0,1-3.22,2.71c-.41.1-.83.19-1.24.27q3,4,4.59,6c.18.28.06.7-.37,1.26a42.31,42.31,0,0,1-5.19,5.81c-.3.26-.54.28-.74.05Q762.62,309.26,755.76,300.65Zm6.55-15c-1.65-.08-3.86-.07-6.61.05,0,2.4.06,4.8.08,7.19a15.14,15.14,0,0,0,7.25,0,1.52,1.52,0,0,0,.93-.72,7.33,7.33,0,0,0,.68-3.1,9.73,9.73,0,0,0-.16-2.28C764.3,286.14,763.58,285.76,762.31,285.69Z"/><path d="M788.26,299q8.49-.31,13.28-.72c.35,0,.55.46.6,1.27a49.56,49.56,0,0,1-.08,8.95c0,.46-.24.7-.56.72a152.14,152.14,0,0,1-17.08.79,26.39,26.39,0,0,1-5.24-.22.69.69,0,0,1-.62-.64q-.46-12.75-.35-23.3l-1.76.15a.49.49,0,0,1-.55-.42,69.73,69.73,0,0,1-.79-9.55c.08-.64.29-1,.64-1a164.5,164.5,0,0,1,23.7-.69c.38,0,.62.21.71.67a39.27,39.27,0,0,1,.27,8.71q-.07,1.21-.69,1.29c-3.84,0-7.7.1-11.56.27,0,.79,0,1.59,0,2.38,3.36-.12,6.12-.17,8.3-.15.31,0,.49.34.54,1a33.89,33.89,0,0,1-.08,7c-.05.35-.22.53-.5.55q-3.63.15-8.2.42C788.28,297.32,788.27,298.17,788.26,299Z"/><path d="M827.39,300.65c0,2.87-.13,5.92-.27,9.13,0,.39-.39.62-1.09.66a34.23,34.23,0,0,1-7.76-1,.68.68,0,0,1-.6-.65q-.42-12.12-.31-22.52-.89.08-1.8.12c-.29,0-.47-.14-.54-.47a65.5,65.5,0,0,1-.68-8.6,1.83,1.83,0,0,1,.66-1.05q5-2.44,13.84-2.92a28.06,28.06,0,0,1,12.47,2.33q2.51,1.26,3.22,5.73,1,11.93-.6,15.72a5.28,5.28,0,0,1-3.22,2.71c-.41.1-.83.19-1.24.27q3,4,4.59,6c.19.28.06.7-.36,1.26a42.27,42.27,0,0,1-5.2,5.81c-.3.26-.54.28-.74.05Q834.25,309.26,827.39,300.65Zm6.55-15c-1.65-.08-3.86-.07-6.61.05,0,2.4.06,4.8.08,7.19a15.14,15.14,0,0,0,7.25,0,1.52,1.52,0,0,0,.93-.72,7.18,7.18,0,0,0,.68-3.1,9.73,9.73,0,0,0-.16-2.28C835.93,286.14,835.21,285.76,833.94,285.69Z"/><path d="M859.89,299q8.49-.31,13.28-.72c.35,0,.55.46.6,1.27a49.56,49.56,0,0,1-.08,8.95c-.05.46-.24.7-.56.72a152,152,0,0,1-17.08.79,26.39,26.39,0,0,1-5.24-.22.69.69,0,0,1-.62-.64q-.47-12.75-.35-23.3l-1.76.15a.47.47,0,0,1-.54-.42,68.23,68.23,0,0,1-.8-9.55c.08-.64.29-1,.64-1a164.5,164.5,0,0,1,23.7-.69c.38,0,.62.21.71.67a39.27,39.27,0,0,1,.27,8.71q-.07,1.21-.69,1.29c-3.84,0-7.7.1-11.56.27,0,.79,0,1.59,0,2.38q5-.18,8.3-.15c.31,0,.49.34.54,1a33.89,33.89,0,0,1-.08,7c-.05.35-.22.53-.5.55q-3.63.15-8.2.42C859.91,297.32,859.9,298.17,859.89,299Z"/><path d="M887.17,303.38c-.65,2.87-1.31,5.63-2,8.28-.1.38-.5.49-1.2.32a24.27,24.27,0,0,1-7.14-3.07.79.79,0,0,1-.48-.82q3.2-19.3,6.55-33a1.07,1.07,0,0,1,.8-.64,53.46,53.46,0,0,1,16-.32,1.28,1.28,0,0,1,1.16,1q3.36,13.68,6.34,32.75a.76.76,0,0,1-.46.81,39.87,39.87,0,0,1-7.2,2.63c-.7.17-1.1.06-1.2-.32q-1-4-1.9-8.11Q892,303.23,887.17,303.38Zm3.14-15.31c-.4,2.22-.83,4.43-1.28,6.65l5.63-.08q-.67-3.27-1.27-6.59Z"/><path d="M910.26,285.81l-1.43.15c-.34.17-.56.1-.66-.2a56.66,56.66,0,0,1-.37-9.15.86.86,0,0,1,.39-.92q15.91-3.22,25.85-.42a7,7,0,0,1,4,3.62q2,5,.74,23c-.43,4.1-1.73,6.54-3.92,7.32q-10.12,2.58-23.66-.2a.66.66,0,0,1-.62-.59Q910.13,295.89,910.26,285.81Zm9.86,13.47a17.89,17.89,0,0,0,8.29-.34,2,2,0,0,0,1.3-1.42,35.63,35.63,0,0,0,.16-5.85,14.92,14.92,0,0,0-1.07-5.16,2,2,0,0,0-1.16-.94q-2.4-.7-7.58-.13Q920.2,292.49,920.12,299.28Z"/><path d="M961.34,293.58q.2,9.69-.06,15.7c0,.4-.39.62-1.1.67a33.88,33.88,0,0,1-7.8-.08.68.68,0,0,1-.62-.64q-.27-8.13-.25-15.18a149,149,0,0,1-9-11.88q-.25-.37.24-1.14a33.08,33.08,0,0,1,5.93-7.37c.21-.18.38-.18.52,0q4.38,6.42,7,10.22,2.65-3.79,7-10.22c.13-.18.3-.18.52,0A32.73,32.73,0,0,1,969.7,281c.33.51.42.89.25,1.14Q964.91,289.39,961.34,293.58Z"/><path d="M981.51,310.59a79.5,79.5,0,0,1-8.19,0c-.42-.13-.7-.55-.83-1.26a21.59,21.59,0,0,1,.06-6.87,1.63,1.63,0,0,1,1-1.27,16.11,16.11,0,0,1,8.55,0c.31.15.52.64.64,1.49a48.24,48.24,0,0,1,0,7C982.64,310.29,982.23,310.59,981.51,310.59Z"/><g id="Artwork_17" data-name="Artwork 17"><g style="clip-path:url(#clip-path-3)"><g style="clip-path:url(#clip-path-3)"><g style="clip-path:url(#clip-path-3)"><path d="M129.72,914.38c6.5-9.38,15.6-15.26,27.48-17.65,10.82-2.17,21.76-3.66,32.25-6.44,8.33-4.33,13-12,14.27-21.15,3.88-27.87-22.43-44.63-45.08-31.47-7.44,1.11-19-1.23-23.87-1.5" style="fill:#773629"/><g style="opacity:0.39999398589134216;isolation:isolate"><g style="clip-path:url(#clip-path-6)"><path d="M120.12,836a111.52,111.52,0,0,0,28.14,39.86,263.44,263.44,0,0,0,23.37,18.26c6.05-1,12.05-2.22,17.88-3.77,8.32-4.33,13-12.05,14.26-21.15,3.83-27.93-22.48-44.69-45.13-31.53-7.44,1.11-19-1.22-23.87-1.5" style="fill:#663f24"/></g></g><path d="M466.39,882.63l-65.17-1.89s-22.76,42.8,6.88,49.91,28,2.44,45.36,12.54,66.83,16,89.53,8" style="fill:#583720"/><g style="opacity:0.5;isolation:isolate"><g style="clip-path:url(#clip-path-7)"><path d="M490.54,899.67c-26.76,17.93-57.79,26.59-89.54,28.09-18.43-11.94.22-47,.22-47l65.17,1.94" style="fill:#6d4328"/></g></g><path d="M526.06,864.81c-22.87,24.92-60.11,55.46-97,52-32.42-3.05-49.57-31.8-52.63-61-4.77-46,9.16-88.76,32.75-127.68.28-.5.61-1,1-1.55,13.1-21.43,28.7-42.24,47.57-58.84,22.15-19.43,54.73-25.09,75.94-2.11" style="fill:#6d4328"/><path d="M526.06,864.81c-22.87,24.92-60.11,55.46-97,52-32.42-3.05-49.57-31.8-52.63-61-4.77-46,9.16-88.76,32.75-127.68.28-.5.61-1,1-1.55,13.1-21.43,28.7-42.24,47.57-58.84,22.15-19.43,54.73-25.09,75.94-2.11" style="fill:#6d4328"/><g style="opacity:0.5;isolation:isolate"><g style="clip-path:url(#clip-path-8)"><path d="M469.39,792.2c-13.66,42-30.64,82.71-48,123.29-27.48-6.49-42.19-32.86-45-59.67-4.77-46,9.16-88.71,32.75-127.68.28-.5.61-1,1-1.55,13.1-21.43,28.7-42.24,47.57-58.84,15.1-13.27,35.08-20.1,53-15.82" style="fill:#6d4328"/></g></g><path d="M358.42,588.54l-45.4.27s-68.84,29.7-63.4,145.5,28,178.79,84.27,185.46l7.93-.06c56.13-7.38,77.94-70.66,81.88-186.57s-65.28-144.6-65.28-144.6Z" style="fill:#c7976b"/><g style="opacity:0.5;isolation:isolate"><g style="clip-path:url(#clip-path-9)"><path d="M333.55,720.87c26.65-2.27,49.57-17,70.39-32.75q7.67-5.82,15-12c-15.21-68.66-60.56-87.59-60.56-87.59l-45.41.27s-49.46,21.38-61.17,98.37c21.37,21.92,49.62,36.41,81.76,33.69" style="fill:#995f39"/></g></g><path d="M130.5,915.21c7.49-6.93,23.81-9.77,39.47-11,44.68-3.44,42.24-19.87,42.24-19.87l65.11-2.78s23.32,42.47-6.21,50-28,2.83-45.19,13.1-66.61,16.93-89.43,9.21" style="fill:#583720"/><g style="opacity:0.5;isolation:isolate"><g style="clip-path:url(#clip-path-10)"><path d="M188.23,901.61c27,17.6,58.12,25.82,89.87,26.93,18.26-12.22-.83-47-.83-47l-65.12,2.77c0,.06,1.72,11.55-23.92,17.32" style="fill:#6d4328"/></g></g><path d="M205.83,914.16s-38.2,1.05-39.64,18,3,24.31,3,24.31-3.89-24.59,4-31.19c10.15-8.38,32.64-11.16,32.64-11.16" style="fill:#3e2113"/><path d="M140.16,953.57s-3.89-24.59,4-31.14c10.11-8.44,32.59-11.21,32.59-11.21s-38.19,1-39.64,18" style="fill:#3e2113"/><path d="M266.39,727.53C253,706.27,237.19,685.62,218,669.3c-22.43-19.15-55.07-24.37-76-1.11-48.12,53.46-37.3,148.66,10.22,199.06C175.46,891.9,213,921.93,249.9,918c32.42-3.44,49.18-32.42,51.85-61.67,4.16-46-10.33-88.65-34.42-127.29-.28-.5-.61-1-.94-1.5" style="fill:#6d4328"/><path d="M266.39,727.53C253,706.27,237.19,685.62,218,669.3c-22.43-19.15-55.07-24.37-76-1.11-48.12,53.46-37.3,148.66,10.22,199.06C175.46,891.9,213,921.93,249.9,918c32.42-3.44,49.18-32.42,51.85-61.67,4.16-46-10.33-88.65-34.42-127.29-.28-.5-.61-1-.94-1.5" style="fill:#6d4328"/><g style="opacity:0.5;isolation:isolate"><g style="clip-path:url(#clip-path-11)"><path d="M267.33,729c-.33-.5-.61-1-.94-1.5C253,706.27,237.19,685.62,218,669.3c-15.32-13.1-35.36-19.65-53.18-15.09,4.49,19,8.38,38.08,14.54,56.56,9.33,27.81,19.15,55.4,28.59,83.15,14.16,41.8,31.7,82.27,49.51,122.63,27.43-6.89,41.8-33.42,44.19-60.29,4.22-46-10.27-88.59-34.36-127.23" style="fill:#6d4328"/></g></g><path d="M508.19,621.45c5.61-53.78-76.83-139.83-76.83-139.83l-6.49-98.25-177.25,1.17-5.21,98.31s-81.33,87.09-75.16,140.88,101.52,326.9,101.52,326.9l30.42-.22S333,791.7,284.93,667.14c0,0,12.15,25.92,53.23,22.09,41.13,3.28,52.9-22.76,52.9-22.76-46.46,125.23-10.6,283.44-10.6,283.44l30.42-.22s91.81-274.34,97.31-328.24" style="fill:#835130"/><g style="opacity:0.39999398589134216;isolation:isolate"><g style="clip-path:url(#clip-path-12)"><path d="M399.5,893.51c-9.1,2.22-18.15,3.94-27.2,5.22,3.77,31.25,8.27,51.18,8.27,51.18l30.42-.22s9.49-28.31,22.48-68.5a183.36,183.36,0,0,1-34,12.32Z" style="fill:#835130;fill-rule:evenodd"/></g></g><g style="opacity:0.39999398589134216;isolation:isolate"><g style="clip-path:url(#clip-path-13)"><path d="M245.07,881.35c13.71,40.58,23.76,69.28,23.76,69.28l30.42-.22s4.33-20.32,7.72-52.18a284.29,284.29,0,0,1-61.9-16.88" style="fill:#835130;fill-rule:evenodd"/></g></g><path d="M420.26,547.4c4.33,4,8.77,7.05,11.27,5.5,5-3.16,1.89-12.32.44-17-4.22-13.26-12.15-26.42-21.92-37.58-22.48-25.48-56.73-50-90.15-44.63-29.53,4.72-53.35,22.21-73.5,45.69-9.66,11.27-17.43,24.53-21.48,37.86-1.44,4.66-4.38,13.87.67,17,2.55,1.56,6.88-1.55,11.21-5.61-9.94,15.16-21.54,32-15.54,50.08A2,2,0,0,0,223,600c3.27.55,6.49-.72,9.55-3-6.33,12.88-10.44,26.92-7.05,40.91.44,1.83,2.55,1.39,3.66.94,3.66-1.55,7-5.21,10.1-9.32-10.38,44.3,48.57,73,90.32,75.05,45.41-4.39,100.3-32.09,89.37-76.22,3.16,4.06,6.49,7.66,10.21,9.16,1.11.45,3.22.83,3.61-.94,3.22-14-1.11-28.09-7.55-40.86,3.06,2.22,6.33,3.44,9.61,2.89a2,2,0,0,0,1.72-1.33c5.66-18.15-6.22-34.81-16.27-49.91" style="fill:#e9c58e"/><path d="M300.47,908.77c-7.44-5.55-17.37-4.77-24.7-.22-4-3.22-8-3.38-13.27-3.16-6.05.22-12.71,3.55-14.27,5.77a7.37,7.37,0,0,0-.55.89c-12.6-5.22-29.09,11.05-29.81,24.42-1.89,34.75,56.23,29.81,76.33,24.15,20.54-5.83,25.42-37.69,6.27-51.85" style="fill:#835130"/><g style="opacity:0.5;isolation:isolate"><g style="clip-path:url(#clip-path-14)"><path d="M275.77,908.5s-21.26,15.76-7.88,50.62c0,0-10.16-32.36,7.88-50.62" style="fill:#592e14"/></g></g><g style="opacity:0.5;isolation:isolate"><g style="clip-path:url(#clip-path-15)"><path d="M247.68,912s-20.93,18.93-7.66,47.24c0-.05-9.27-26.14,7.66-47.24" style="fill:#592e14"/></g></g><path d="M380.79,960c20.15,5.39,78.38,9.55,76-25.15-.89-13.32-17.54-29.42-30.09-24-.22-.28-.39-.61-.61-.89-1.55-2.16-8.27-5.38-14.32-5.61-5.17-.16-9.22.06-13.21,3.33-7.39-4.44-17.32-5-24.7.56-19,14.49-13.72,46.29,6.93,51.79" style="fill:#835130"/><g style="opacity:0.5;isolation:isolate"><g style="clip-path:url(#clip-path-16)"><path d="M398.56,907.72s21.48,15.49,8.55,50.51c0,0,9.71-32.47-8.55-50.51" style="fill:#592e14"/></g></g><g style="opacity:0.5;isolation:isolate"><g style="clip-path:url(#clip-path-17)"><path d="M426.7,910.83S447.85,929.42,435,958c-.05,0,8.88-26.2-8.27-47.13" style="fill:#592e14"/></g></g><g style="opacity:0.5;isolation:isolate"><g style="clip-path:url(#clip-path-18)"><path d="M330.17,482c37-.17,69.72-7.88,99.25-29.7l-4.55-68.89-177.25,1.17-4,68.61C262,472.52,306.24,482.07,330.17,482" style="fill:#995f39"/></g></g><path d="M125.39,302.94c10.83,54.34,37.36,111.3,81.55,146.71a11.2,11.2,0,0,0,6,.61c4.22-.89,7.44-6.27,7.88-10.21,1.61-15.32,2.78-31,3.11-46.41,1-38.69.22-77.71,6.94-116a134,134,0,0,1,24.2-55.62" style="fill:#773629"/><path d="M258.23,200.69c-25.09,12.1-50.13,29.25-55.18,56.51-5.94,32.14,7.22,66.39,21.54,97.19.55-25.7,1.72-51.34,6.21-76.65A134.11,134.11,0,0,1,255,222.11" style="fill:#79463e"/><path d="M543.55,301.22C533.39,355.73,507.63,413,464,449a11.18,11.18,0,0,1-6,.67c-4.27-.83-7.49-6.16-8-10.16-1.78-15.26-3.16-31-3.72-46.35-1.44-38.69-1.22-77.71-8.44-115.85A134,134,0,0,0,412.88,222" style="fill:#773629"/><path d="M412.82,222.06a134,134,0,0,1,24.93,55.29c5.27,27.75,6.55,56.06,7.44,84.43A231.34,231.34,0,0,0,455.4,330c4.77-19.21,10.43-41,10.16-60.89" style="fill:#79463e"/><path d="M465.56,269.08c-.34-22.71-13.1-38.25-28.92-53.07" style="fill:#79463e"/><path d="M222.31,241.88c-13.27,22.64-7,51.9-1.16,75.6,2.33,9.49,6.55,18.26,10.49,27.15.33.88.66,1.77,1,2.66,6.6,18.1-1.34,33.86-5.67,51.51-6,24.54,11.94,41.52,33.53,55.73,19.88,13.05,47.63,18.77,75.05,17.6,27.42.83,55.12-5.22,74.83-18.54,21.37-14.49,39.14-31.7,32.81-56.17-4.55-17.55-12.72-33.2-6.33-51.41.28-.88.61-1.77.94-2.66,3.83-8.94,7.94-17.71,10.16-27.26,5.5-23.76,11.44-53.06-2.11-75.6" style="fill:#ecdfba"/><path d="M352.82,185.81c.22,28.2.66,56.4,2.83,84.49,2.5,31.86,6.71,64.33,26.09,92.48,14.1,20.59,36.25,45.24,32.69,70.49-1.22,8.66-5.22,16.94-11,24.48,2.44-1.33,4.77-2.72,7-4.21,21.37-14.49,39.13-31.7,32.8-56.18-4.55-17.54-12.71-33.2-6.33-51.4.23-.84.56-1.72.89-2.61,3.83-8.94,7.94-17.71,10.16-27.26,5.5-23.76,11.44-53.07-2.11-75.6" style="fill:#c7976b"/><path d="M222.26,241.93c-13.27,22.65-7,51.9-1.17,75.61,2.33,9.49,6.55,18.26,10.49,27.14.34.89.67,1.78,1,2.67,6.61,18.09-1.33,33.86-5.66,51.51-6,24.53,11.93,41.52,33.53,55.73A101.93,101.93,0,0,0,288.26,467c-29.2-14.43-50-37.64-33.14-65.17,8.27-13.54,21.92-23.87,30.92-37,11.82-17.21,17.59-36.8,19.87-56.4a1078.41,1078.41,0,0,0,7-122.56" style="fill:#c7976b"/><path d="M347.49,456.42c-10.55-2.11-10.61-6.94-10.61-6.94l-1.72-30.69-1.33,30.69s.06,4.83-10.49,7S292.59,448,287.7,442.77c0,0,15.49,17.43,35.64,18.2,0,0,6.61,1.39,12.05-7.05,5.55,8.39,12.1,6.94,12.1,6.94,20.15-1,35.41-18.65,35.41-18.65-4.77,5.22-24.87,16.32-35.41,14.21" style="fill:#594135"/><path d="M380.63,393c.11,12.82-20.21,33.92-45.41,34.08s-45.74-20.65-45.85-33.47,20.26-23.37,45.46-23.54,45.74,10.11,45.8,22.93" style="fill:#3e2d24"/><path d="M376.52,388c.05,7.83-18.49,20.65-41.41,20.82s-41.63-12.43-41.69-20.26,18.49-16.43,41.41-16.6,41.63,8.22,41.69,16" style="fill:#594135"/><path d="M323.56,417.62c.17-1.39.17-2.78.22-3.66.23-5.5-.55-19.27-8.27-15-5.77,3.17-4.49,11.88-.66,16.49,1.5,1.83,2.72,4.11,4.44,5.72,2.94,2.61,3.88-.39,4.27-3.5" style="fill:#271c14"/><path d="M344,417.51c-.17-1.39-.22-2.78-.28-3.66-.28-5.5.34-19.27,8.11-15.16,5.77,3.06,4.6,11.83.89,16.49-1.5,1.83-2.67,4.16-4.39,5.77-2.94,2.67-3.94-.39-4.33-3.44" style="fill:#271c14"/><path d="M296.86,312.71a11.49,11.49,0,1,1-11.54-11.38,11.39,11.39,0,0,1,11.54,11.38" style="fill:#fff"/><path d="M295.25,312.76a9.83,9.83,0,1,1-9.88-9.77,9.83,9.83,0,0,1,9.88,9.77" style="fill:#1a1718"/><path d="M286.48,310.43a4.14,4.14,0,1,1-4.16-4.11,4.14,4.14,0,0,1,4.16,4.11" style="fill:#fff"/><path d="M395.12,312a11.52,11.52,0,1,1-11.61-11.49A11.61,11.61,0,0,1,395.12,312" style="fill:#fff"/><path d="M393.56,312.15a9.83,9.83,0,1,1-9.94-9.77,9.8,9.8,0,0,1,9.94,9.77" style="fill:#1a1718"/><path d="M384.73,309.76a4.14,4.14,0,1,1-4.21-4.1,4.15,4.15,0,0,1,4.21,4.1" style="fill:#fff"/><g style="opacity:0.3000029921531677;isolation:isolate"><g style="clip-path:url(#clip-path-19)"><path d="M203.94,545.74s-33.36,39.8-28.64,84.82S247.85,873.3,247.85,873.3s-66.12-214.65-67.28-242.74,7-54.4,23.37-84.82" style="fill:#835130"/></g></g><g style="opacity:0.3000029921531677;isolation:isolate"><g style="clip-path:url(#clip-path-20)"><path d="M126.17,811.35c0-.05-19.87-70.83,20.48-139.21,0,0-50.29,47.35-20.48,139.21" style="fill:#835130"/></g></g><g style="opacity:0.3000029921531677;isolation:isolate"><g style="clip-path:url(#clip-path-21)"><path d="M499.81,630.56c-4.67,45-72.56,242.74-72.56,242.74s66.17-214.65,67.34-242.74" style="fill:#835130"/></g></g></g></g></g></g></svg>