<svg id="Layer_1" data-name="Layer 1" xmlns="http://www.w3.org/2000/svg" xmlns:xlink="http://www.w3.org/1999/xlink" viewBox="0 0 1118 1071"><defs><clipPath id="clip-path"><rect x="506.63" y="52.58" width="605.37" height="356.42" style="fill:none"/></clipPath><clipPath id="clip-path-2"><rect x="506.63" y="52.58" width="605.37" height="356.42" style="fill:none"/></clipPath><clipPath id="clip-path-3"><rect y="184.18" width="566" height="822.07" style="fill:none"/></clipPath><clipPath id="clip-path-6"><rect x="120.12" y="833.1" width="84.03" height="61.02" style="fill:none"/></clipPath><clipPath id="clip-path-7"><rect x="392.87" y="880.74" width="97.67" height="47.02" style="fill:none"/></clipPath><clipPath id="clip-path-8"><rect x="375.53" y="650.66" width="135.16" height="264.83" style="fill:none"/></clipPath><clipPath id="clip-path-9"><rect x="251.79" y="588.54" width="167.14" height="132.66" style="fill:none"/></clipPath><clipPath id="clip-path-10"><rect x="188.23" y="881.52" width="97.78" height="47.02" style="fill:none"/></clipPath><clipPath id="clip-path-11"><rect x="164.86" y="652.76" width="137.56" height="263.78" style="fill:none"/></clipPath><clipPath id="clip-path-12"><rect x="372.3" y="881.19" width="61.17" height="68.72" style="fill:none"/></clipPath><clipPath id="clip-path-13"><rect x="245.07" y="881.35" width="61.89" height="69.28" style="fill:none"/></clipPath><clipPath id="clip-path-14"><rect x="263.47" y="908.5" width="12.3" height="50.63" style="fill:none"/></clipPath><clipPath id="clip-path-15"><rect x="235.61" y="911.99" width="12.07" height="47.24" style="fill:none"/></clipPath><clipPath id="clip-path-16"><rect x="398.56" y="907.72" width="12.69" height="50.51" style="fill:none"/></clipPath><clipPath id="clip-path-17"><rect x="426.7" y="910.83" width="12.43" height="47.13" style="fill:none"/></clipPath><clipPath id="clip-path-18"><rect x="243.63" y="383.37" width="185.79" height="98.59" style="fill:none"/></clipPath><clipPath id="clip-path-19"><rect x="174.84" y="545.74" width="73.01" height="327.56" style="fill:none"/></clipPath><clipPath id="clip-path-20"><rect x="116.73" y="672.13" width="29.93" height="139.22" style="fill:none"/></clipPath><clipPath id="clip-path-21"><rect x="427.26" y="630.56" width="72.55" height="242.75" style="fill:none"/></clipPath></defs><g id="Artwork_25" data-name="Artwork 25"><g style="clip-path:url(#clip-path)"><g style="clip-path:url(#clip-path-2)"><path d="M809.32,52.58c-166.09,0-302.68,72-302.68,162,0,52.2,47,98.24,117.93,127.69-.1,1.75,0,4.44-3.71,12.95-4.59,10.5-13.66,25.39-32.58,41.89l-13.6,11.68,23.5.25c81.5.22,128.71-32.75,136.09-38.08a551.09,551.09,0,0,0,75.05,5.58c166,0,302.67-72,302.67-162s-136.64-162-302.67-162m0,15.23c154.59,0,277.93,66.22,277.93,146.73S963.91,361.27,809.32,361.27A517,517,0,0,1,733,355.69l-7.43-1-5,3.8s-38.14,26.47-99,32.75c11-12.13,19.33-23.39,23.09-32,5.27-12,5.36-20.31,5.36-20.31v-4.06l-5.77-2.28c-69-26.92-113-69.78-113-118,0-80.51,123.29-146.73,277.94-146.73"/></g></g></g><text transform="translate(671.08 158.18) scale(0.78 1)" style="font-size:50.799190521240234px;font-family:KidGames, Kid Games">HOW SHOU<tspan x="303.58" y="0" style="letter-spacing:-0.02977928230156626em">L</tspan><tspan x="335.18" y="0">D</tspan><tspan x="-42.19" y="60.96">OUR </tspan><tspan x="98.84" y="60.96" style="letter-spacing:-0.07468181696932842em">F</tspan><tspan x="129.68" y="60.96" style="letter-spacing:-0.00002459065425397709em">ACE LOOK</tspan><tspan x="-115.66" y="121.92">WHEN WE RESPOND?r</tspan></text><g id="Artwork_17" data-name="Artwork 17"><g style="clip-path:url(#clip-path-3)"><g style="clip-path:url(#clip-path-3)"><g style="clip-path:url(#clip-path-3)"><path d="M129.72,914.38c6.5-9.38,15.6-15.26,27.48-17.65,10.82-2.17,21.76-3.66,32.25-6.44,8.33-4.33,13-12,14.27-21.15,3.88-27.87-22.43-44.63-45.08-31.47-7.44,1.11-19-1.23-23.87-1.5" style="fill:#773629"/><g style="opacity:0.39999398589134216;isolation:isolate"><g style="clip-path:url(#clip-path-6)"><path d="M120.12,836a111.52,111.52,0,0,0,28.14,39.86,263.44,263.44,0,0,0,23.37,18.26c6.05-1,12.05-2.22,17.88-3.77,8.32-4.33,13-12.05,14.26-21.15,3.83-27.93-22.48-44.69-45.13-31.53-7.44,1.11-19-1.22-23.87-1.5" style="fill:#663f24"/></g></g><path d="M466.39,882.63l-65.17-1.89s-22.76,42.8,6.88,49.91,28,2.44,45.36,12.54,66.83,16,89.53,8" style="fill:#583720"/><g style="opacity:0.5;isolation:isolate"><g style="clip-path:url(#clip-path-7)"><path d="M490.54,899.67c-26.76,17.93-57.79,26.59-89.54,28.09-18.43-11.94.22-47,.22-47l65.17,1.94" style="fill:#6d4328"/></g></g><path d="M526.06,864.81c-22.87,24.92-60.11,55.46-97,52-32.42-3.05-49.57-31.8-52.63-61-4.77-46,9.16-88.76,32.75-127.68.28-.5.61-1,1-1.55,13.1-21.43,28.7-42.24,47.57-58.84,22.15-19.43,54.73-25.09,75.94-2.11" style="fill:#6d4328"/><path d="M526.06,864.81c-22.87,24.92-60.11,55.46-97,52-32.42-3.05-49.57-31.8-52.63-61-4.77-46,9.16-88.76,32.75-127.68.28-.5.61-1,1-1.55,13.1-21.43,28.7-42.24,47.57-58.84,22.15-19.43,54.73-25.09,75.94-2.11" style="fill:#6d4328"/><g style="opacity:0.5;isolation:isolate"><g style="clip-path:url(#clip-path-8)"><path d="M469.39,792.2c-13.66,42-30.64,82.71-48,123.29-27.48-6.49-42.19-32.86-45-59.67-4.77-46,9.16-88.71,32.75-127.68.28-.5.61-1,1-1.55,13.1-21.43,28.7-42.24,47.57-58.84,15.1-13.27,35.08-20.1,53-15.82" style="fill:#6d4328"/></g></g><path d="M358.42,588.54l-45.4.27s-68.84,29.7-63.4,145.5,28,178.79,84.27,185.46l7.93-.06c56.13-7.38,77.94-70.66,81.88-186.57s-65.28-144.6-65.28-144.6Z" style="fill:#c7976b"/><g style="opacity:0.5;isolation:isolate"><g style="clip-path:url(#clip-path-9)"><path d="M333.55,720.87c26.65-2.27,49.57-17,70.39-32.75q7.67-5.82,15-12c-15.21-68.66-60.56-87.59-60.56-87.59l-45.41.27s-49.46,21.38-61.17,98.37c21.37,21.92,49.62,36.41,81.76,33.69" style="fill:#995f39"/></g></g><path d="M130.5,915.21c7.49-6.93,23.81-9.77,39.47-11,44.68-3.44,42.24-19.87,42.24-19.87l65.11-2.78s23.32,42.47-6.21,50-28,2.83-45.19,13.1-66.61,16.93-89.43,9.21" style="fill:#583720"/><g style="opacity:0.5;isolation:isolate"><g style="clip-path:url(#clip-path-10)"><path d="M188.23,901.61c27,17.6,58.12,25.82,89.87,26.93,18.26-12.22-.83-47-.83-47l-65.12,2.77c0,.06,1.72,11.55-23.92,17.32" style="fill:#6d4328"/></g></g><path d="M205.83,914.16s-38.2,1.05-39.64,18,3,24.31,3,24.31-3.89-24.59,4-31.19c10.15-8.38,32.64-11.16,32.64-11.16" style="fill:#3e2113"/><path d="M140.16,953.57s-3.89-24.59,4-31.14c10.11-8.44,32.59-11.21,32.59-11.21s-38.19,1-39.64,18" style="fill:#3e2113"/><path d="M266.39,727.53C253,706.27,237.19,685.62,218,669.3c-22.43-19.15-55.07-24.37-76-1.11-48.12,53.46-37.3,148.66,10.22,199.06C175.46,891.9,213,921.93,249.9,918c32.42-3.44,49.18-32.42,51.85-61.67,4.16-46-10.33-88.65-34.42-127.29-.28-.5-.61-1-.94-1.5" style="fill:#6d4328"/><path d="M266.39,727.53C253,706.27,237.19,685.62,218,669.3c-22.43-19.15-55.07-24.37-76-1.11-48.12,53.46-37.3,148.66,10.22,199.06C175.46,891.9,213,921.93,249.9,918c32.42-3.44,49.18-32.42,51.85-61.67,4.16-46-10.33-88.65-34.42-127.29-.28-.5-.61-1-.94-1.5" style="fill:#6d4328"/><g style="opacity:0.5;isolation:isolate"><g style="clip-path:url(#clip-path-11)"><path d="M267.33,729c-.33-.5-.61-1-.94-1.5C253,706.27,237.19,685.62,218,669.3c-15.32-13.1-35.36-19.65-53.18-15.09,4.49,19,8.38,38.08,14.54,56.56,9.33,27.81,19.15,55.4,28.59,83.15,14.16,41.8,31.7,82.27,49.51,122.63,27.43-6.89,41.8-33.42,44.19-60.29,4.22-46-10.27-88.59-34.36-127.23" style="fill:#6d4328"/></g></g><path d="M508.19,621.45c5.61-53.78-76.83-139.83-76.83-139.83l-6.49-98.25-177.25,1.17-5.21,98.31s-81.33,87.09-75.16,140.88,101.52,326.9,101.52,326.9l30.42-.22S333,791.7,284.93,667.14c0,0,12.15,25.92,53.23,22.09,41.13,3.28,52.9-22.76,52.9-22.76-46.46,125.23-10.6,283.44-10.6,283.44l30.42-.22s91.81-274.34,97.31-328.24" style="fill:#835130"/><g style="opacity:0.39999398589134216;isolation:isolate"><g style="clip-path:url(#clip-path-12)"><path d="M399.5,893.51c-9.1,2.22-18.15,3.94-27.2,5.22,3.77,31.25,8.27,51.18,8.27,51.18l30.42-.22s9.49-28.31,22.48-68.5a183.36,183.36,0,0,1-34,12.32Z" style="fill:#835130;fill-rule:evenodd"/></g></g><g style="opacity:0.39999398589134216;isolation:isolate"><g style="clip-path:url(#clip-path-13)"><path d="M245.07,881.35c13.71,40.58,23.76,69.28,23.76,69.28l30.42-.22s4.33-20.32,7.72-52.18a284.29,284.29,0,0,1-61.9-16.88" style="fill:#835130;fill-rule:evenodd"/></g></g><path d="M420.26,547.4c4.33,4,8.77,7.05,11.27,5.5,5-3.16,1.89-12.32.44-17-4.22-13.26-12.15-26.42-21.92-37.58-22.48-25.48-56.73-50-90.15-44.63-29.53,4.72-53.35,22.21-73.5,45.69-9.66,11.27-17.43,24.53-21.48,37.86-1.44,4.66-4.38,13.87.67,17,2.55,1.56,6.88-1.55,11.21-5.61-9.94,15.16-21.54,32-15.54,50.08A2,2,0,0,0,223,600c3.27.55,6.49-.72,9.55-3-6.33,12.88-10.44,26.92-7.05,40.91.44,1.83,2.55,1.39,3.66.94,3.66-1.55,7-5.21,10.1-9.32-10.38,44.3,48.57,73,90.32,75.05,45.41-4.39,100.3-32.09,89.37-76.22,3.16,4.06,6.49,7.66,10.21,9.16,1.11.45,3.22.83,3.61-.94,3.22-14-1.11-28.09-7.55-40.86,3.06,2.22,6.33,3.44,9.61,2.89a2,2,0,0,0,1.72-1.33c5.66-18.15-6.22-34.81-16.27-49.91" style="fill:#e9c58e"/><path d="M300.47,908.77c-7.44-5.55-17.37-4.77-24.7-.22-4-3.22-8-3.38-13.27-3.16-6.05.22-12.71,3.55-14.27,5.77a7.37,7.37,0,0,0-.55.89c-12.6-5.22-29.09,11.05-29.81,24.42-1.89,34.75,56.23,29.81,76.33,24.15,20.54-5.83,25.42-37.69,6.27-51.85" style="fill:#835130"/><g style="opacity:0.5;isolation:isolate"><g style="clip-path:url(#clip-path-14)"><path d="M275.77,908.5s-21.26,15.76-7.88,50.62c0,0-10.16-32.36,7.88-50.62" style="fill:#592e14"/></g></g><g style="opacity:0.5;isolation:isolate"><g style="clip-path:url(#clip-path-15)"><path d="M247.68,912s-20.93,18.93-7.66,47.24c0-.05-9.27-26.14,7.66-47.24" style="fill:#592e14"/></g></g><path d="M380.79,960c20.15,5.39,78.38,9.55,76-25.15-.89-13.32-17.54-29.42-30.09-24-.22-.28-.39-.61-.61-.89-1.55-2.16-8.27-5.38-14.32-5.61-5.17-.16-9.22.06-13.21,3.33-7.39-4.44-17.32-5-24.7.56-19,14.49-13.72,46.29,6.93,51.79" style="fill:#835130"/><g style="opacity:0.5;isolation:isolate"><g style="clip-path:url(#clip-path-16)"><path d="M398.56,907.72s21.48,15.49,8.55,50.51c0,0,9.71-32.47-8.55-50.51" style="fill:#592e14"/></g></g><g style="opacity:0.5;isolation:isolate"><g style="clip-path:url(#clip-path-17)"><path d="M426.7,910.83S447.85,929.42,435,958c-.05,0,8.88-26.2-8.27-47.13" style="fill:#592e14"/></g></g><g style="opacity:0.5;isolation:isolate"><g style="clip-path:url(#clip-path-18)"><path d="M330.17,482c37-.17,69.72-7.88,99.25-29.7l-4.55-68.89-177.25,1.17-4,68.61C262,472.52,306.24,482.07,330.17,482" style="fill:#995f39"/></g></g><path d="M125.39,302.94c10.83,54.34,37.36,111.3,81.55,146.71a11.2,11.2,0,0,0,6,.61c4.22-.89,7.44-6.27,7.88-10.21,1.61-15.32,2.78-31,3.11-46.41,1-38.69.22-77.71,6.94-116a134,134,0,0,1,24.2-55.62" style="fill:#773629"/><path d="M258.23,200.69c-25.09,12.1-50.13,29.25-55.18,56.51-5.94,32.14,7.22,66.39,21.54,97.19.55-25.7,1.72-51.34,6.21-76.65A134.11,134.11,0,0,1,255,222.11" style="fill:#79463e"/><path d="M543.55,301.22C533.39,355.73,507.63,413,464,449a11.18,11.18,0,0,1-6,.67c-4.27-.83-7.49-6.16-8-10.16-1.78-15.26-3.16-31-3.72-46.35-1.44-38.69-1.22-77.71-8.44-115.85A134,134,0,0,0,412.88,222" style="fill:#773629"/><path d="M412.82,222.06a134,134,0,0,1,24.93,55.29c5.27,27.75,6.55,56.06,7.44,84.43A231.34,231.34,0,0,0,455.4,330c4.77-19.21,10.43-41,10.16-60.89" style="fill:#79463e"/><path d="M465.56,269.08c-.34-22.71-13.1-38.25-28.92-53.07" style="fill:#79463e"/><path d="M222.31,241.88c-13.27,22.64-7,51.9-1.16,75.6,2.33,9.49,6.55,18.26,10.49,27.15.33.88.66,1.77,1,2.66,6.6,18.1-1.34,33.86-5.67,51.51-6,24.54,11.94,41.52,33.53,55.73,19.88,13.05,47.63,18.77,75.05,17.6,27.42.83,55.12-5.22,74.83-18.54,21.37-14.49,39.14-31.7,32.81-56.17-4.55-17.55-12.72-33.2-6.33-51.41.28-.88.61-1.77.94-2.66,3.83-8.94,7.94-17.71,10.16-27.26,5.5-23.76,11.44-53.06-2.11-75.6" style="fill:#ecdfba"/><path d="M352.82,185.81c.22,28.2.66,56.4,2.83,84.49,2.5,31.86,6.71,64.33,26.09,92.48,14.1,20.59,36.25,45.24,32.69,70.49-1.22,8.66-5.22,16.94-11,24.48,2.44-1.33,4.77-2.72,7-4.21,21.37-14.49,39.13-31.7,32.8-56.18-4.55-17.54-12.71-33.2-6.33-51.4.23-.84.56-1.72.89-2.61,3.83-8.94,7.94-17.71,10.16-27.26,5.5-23.76,11.44-53.07-2.11-75.6" style="fill:#c7976b"/><path d="M222.26,241.93c-13.27,22.65-7,51.9-1.17,75.61,2.33,9.49,6.55,18.26,10.49,27.14.34.89.67,1.78,1,2.67,6.61,18.09-1.33,33.86-5.66,51.51-6,24.53,11.93,41.52,33.53,55.73A101.93,101.93,0,0,0,288.26,467c-29.2-14.43-50-37.64-33.14-65.17,8.27-13.54,21.92-23.87,30.92-37,11.82-17.21,17.59-36.8,19.87-56.4a1078.41,1078.41,0,0,0,7-122.56" style="fill:#c7976b"/><path d="M347.49,456.42c-10.55-2.11-10.61-6.94-10.61-6.94l-1.72-30.69-1.33,30.69s.06,4.83-10.49,7S292.59,448,287.7,442.77c0,0,15.49,17.43,35.64,18.2,0,0,6.61,1.39,12.05-7.05,5.55,8.39,12.1,6.94,12.1,6.94,20.15-1,35.41-18.65,35.41-18.65-4.77,5.22-24.87,16.32-35.41,14.21" style="fill:#594135"/><path d="M380.63,393c.11,12.82-20.21,33.92-45.41,34.08s-45.74-20.65-45.85-33.47,20.26-23.37,45.46-23.54,45.74,10.11,45.8,22.93" style="fill:#3e2d24"/><path d="M376.52,388c.05,7.83-18.49,20.65-41.41,20.82s-41.63-12.43-41.69-20.26,18.49-16.43,41.41-16.6,41.63,8.22,41.69,16" style="fill:#594135"/><path d="M323.56,417.62c.17-1.39.17-2.78.22-3.66.23-5.5-.55-19.27-8.27-15-5.77,3.17-4.49,11.88-.66,16.49,1.5,1.83,2.72,4.11,4.44,5.72,2.94,2.61,3.88-.39,4.27-3.5" style="fill:#271c14"/><path d="M344,417.51c-.17-1.39-.22-2.78-.28-3.66-.28-5.5.34-19.27,8.11-15.16,5.77,3.06,4.6,11.83.89,16.49-1.5,1.83-2.67,4.16-4.39,5.77-2.94,2.67-3.94-.39-4.33-3.44" style="fill:#271c14"/><path d="M296.86,312.71a11.49,11.49,0,1,1-11.54-11.38,11.39,11.39,0,0,1,11.54,11.38" style="fill:#fff"/><path d="M295.25,312.76a9.83,9.83,0,1,1-9.88-9.77,9.83,9.83,0,0,1,9.88,9.77" style="fill:#1a1718"/><path d="M286.48,310.43a4.14,4.14,0,1,1-4.16-4.11,4.14,4.14,0,0,1,4.16,4.11" style="fill:#fff"/><path d="M395.12,312a11.52,11.52,0,1,1-11.61-11.49A11.61,11.61,0,0,1,395.12,312" style="fill:#fff"/><path d="M393.56,312.15a9.83,9.83,0,1,1-9.94-9.77,9.8,9.8,0,0,1,9.94,9.77" style="fill:#1a1718"/><path d="M384.73,309.76a4.14,4.14,0,1,1-4.21-4.1,4.15,4.15,0,0,1,4.21,4.1" style="fill:#fff"/><g style="opacity:0.3000029921531677;isolation:isolate"><g style="clip-path:url(#clip-path-19)"><path d="M203.94,545.74s-33.36,39.8-28.64,84.82S247.85,873.3,247.85,873.3s-66.12-214.65-67.28-242.74,7-54.4,23.37-84.82" style="fill:#835130"/></g></g><g style="opacity:0.3000029921531677;isolation:isolate"><g style="clip-path:url(#clip-path-20)"><path d="M126.17,811.35c0-.05-19.87-70.83,20.48-139.21,0,0-50.29,47.35-20.48,139.21" style="fill:#835130"/></g></g><g style="opacity:0.3000029921531677;isolation:isolate"><g style="clip-path:url(#clip-path-21)"><path d="M499.81,630.56c-4.67,45-72.56,242.74-72.56,242.74s66.17-214.65,67.34-242.74" style="fill:#835130"/></g></g></g></g></g></g></svg>