<?xml version="1.0" encoding="utf-8"?>
<!-- Generator: Adobe Illustrator 24.2.1, SVG Export Plug-In . SVG Version: 6.00 Build 0)  -->
<svg version="1.1" id="Layer_1" xmlns="http://www.w3.org/2000/svg" xmlns:xlink="http://www.w3.org/1999/xlink" x="0px" y="0px"
	 viewBox="0 0 493 481" style="enable-background:new 0 0 493 481;" xml:space="preserve">
<g id="Artwork_31_1_">
	<g>
		<defs>
			<rect id="SVGID_1_" x="26" y="27" width="446" height="435"/>
		</defs>
		<clipPath id="SVGID_2_">
			<use xlink:href="#SVGID_1_"  style="overflow:visible;"/>
		</clipPath>
		<g style="clip-path:url(#SVGID_2_);">
			<defs>
				<rect id="SVGID_3_" x="26" y="27" width="446" height="435"/>
			</defs>
			<clipPath id="SVGID_4_">
				<use xlink:href="#SVGID_3_"  style="overflow:visible;"/>
			</clipPath>
			<path style="clip-path:url(#SVGID_4_);fill:none;stroke:#792205;stroke-width:15.3058;stroke-miterlimit:22.926;" d="M459,89.9
				c-4.1-6.1-9.8-9.8-16-9.8H55c-6.2,0-11.9,3.8-16,9.8l0,0c-4.1,6.1-6.7,14.4-6.7,23.6v305.8c0,9.2,2.6,17.5,6.7,23.6l0,0
				c4.1,6,9.8,9.8,16,9.8H443c6.2,0,11.9-3.8,16-9.8l0,0c4.1-6.1,6.7-14.4,6.7-23.6V113.5C465.7,104.4,463.1,96,459,89.9L459,89.9z
				 M455.6,419.3c0,5.1-1.4,9.7-3.7,13.1c-2.3,3.4-5.4,5.4-8.9,5.4H55c-3.5,0-6.6-2.1-8.9-5.4c-2.3-3.4-3.7-8-3.7-13.1V113.5
				c0-5.1,1.4-9.7,3.7-13.1c2.3-3.4,5.4-5.4,8.9-5.4H443c3.5,0,6.6,2.1,8.9,5.4c2.3,3.4,3.7,8,3.7,13.1V419.3z"/>
			<path style="clip-path:url(#SVGID_4_);fill-rule:evenodd;clip-rule:evenodd;fill:#792205;" d="M459,89.9c-4.1-6-9.8-9.8-16-9.8
				H249V95h194c3.5,0,6.6,2.1,8.9,5.4c2.3,3.4,3.7,8,3.7,13.1v305.8c0,5.1-1.4,9.8-3.7,13.1c-2.3,3.4-5.4,5.4-8.9,5.4H249v14.9h194
				c6.2,0,11.9-3.8,16-9.8l0,0c4.1-6.1,6.7-14.4,6.7-23.6V113.5C465.7,104.4,463.1,96,459,89.9L459,89.9z"/>
			<path style="clip-path:url(#SVGID_4_);fill-rule:evenodd;clip-rule:evenodd;fill:#792205;" d="M55,437.9c-3.5,0-6.6-2.1-8.9-5.4
				c-2.3-3.4-3.7-8-3.7-13.1V113.5c0-5.1,1.4-9.8,3.7-13.1c2.3-3.4,5.4-5.4,8.9-5.4h194V80.1H55c-6.2,0-11.9,3.8-16,9.8l0,0
				c-4.1,6.1-6.7,14.4-6.7,23.6v305.8c0,9.2,2.6,17.5,6.7,23.6l0,0c4.1,6,9.8,9.8,16,9.8h194v-14.9H55z"/>
			<path style="clip-path:url(#SVGID_4_);fill:none;stroke:#962A06;stroke-width:15.3058;stroke-miterlimit:22.926;" d="M459,77.8
				c-4.1-6.1-9.8-9.8-16-9.8H55c-6.2,0-11.9,3.8-16,9.8l0,0c-4.1,6-6.7,14.4-6.7,23.6v305.8c0,9.2,2.6,17.5,6.7,23.6l0,0
				c4.1,6.1,9.8,9.8,16,9.8H443c6.2,0,11.9-3.8,16-9.8l0,0c4.1-6.1,6.7-14.4,6.7-23.6V101.5C465.7,92.3,463.1,83.9,459,77.8
				L459,77.8z M455.6,407.2c0,5.1-1.4,9.7-3.7,13.1c-2.3,3.4-5.4,5.4-8.9,5.4H55c-3.5,0-6.6-2.1-8.9-5.4c-2.3-3.4-3.7-8-3.7-13.1
				V101.5c0-5.1,1.4-9.7,3.7-13.1c2.3-3.4,5.4-5.4,8.9-5.4H443c3.5,0,6.6,2.1,8.9,5.4c2.3,3.4,3.7,8,3.7,13.1V407.2z"/>
			<path style="clip-path:url(#SVGID_4_);fill-rule:evenodd;clip-rule:evenodd;fill:#FFFFFF;" d="M55,425.8c-3.5,0-6.6-2.1-8.9-5.4
				c-2.3-3.4-3.7-8-3.7-13.1V101.5c0-5.1,1.4-9.8,3.7-13.1c2.3-3.4,5.4-5.4,8.9-5.4h194V68H55c-6.2,0-11.9,3.8-16,9.8l0,0
				c-4.1,6-6.7,14.4-6.7,23.6v305.8c0,9.2,2.6,17.5,6.7,23.6l0,0c4.1,6.1,9.8,9.8,16,9.8h194v-14.9H55z"/>
			<path style="clip-path:url(#SVGID_4_);fill-rule:evenodd;clip-rule:evenodd;fill:#FFFFFF;" d="M459,77.8c-4.1-6-9.8-9.8-16-9.8
				H249v14.9h194c3.5,0,6.6,2.1,8.9,5.4c2.3,3.4,3.7,8,3.7,13.1v305.8c0,5.1-1.4,9.8-3.7,13.1c-2.3,3.4-5.4,5.4-8.9,5.4H249v14.9
				h194c6.2,0,11.9-3.8,16-9.8l0,0c4.1-6.1,6.7-14.4,6.7-23.6V101.5C465.7,92.3,463.1,83.9,459,77.8L459,77.8z"/>
			<path style="clip-path:url(#SVGID_4_);fill-rule:evenodd;clip-rule:evenodd;fill:#66CFF2;" d="M443,75.5H55
				c-9.7,0-17.7,11.7-17.7,26v305.8c0,14.3,8,26,17.7,26H443c9.7,0,17.7-11.7,17.7-26V101.5C460.6,87.2,452.7,75.5,443,75.5"/>
			<path style="clip-path:url(#SVGID_4_);fill:none;stroke:#BCE7F5;stroke-width:3.0739;stroke-miterlimit:22.926;" d="M432.7,85.4
				H65.3c-9.2,0-16.6,11-16.6,24.5v275.2c0,13.5,7.5,24.5,16.6,24.5h367.4c9.1,0,16.6-11,16.6-24.5V109.9
				C449.3,96.5,441.8,85.4,432.7,85.4z"/>
			<path style="clip-path:url(#SVGID_4_);fill-rule:evenodd;clip-rule:evenodd;fill:#91DAF2;" d="M432.7,85.4H65.3
				c-9.2,0-16.6,11-16.6,24.5v275.2c0,13.5,7.5,24.5,16.6,24.5h367.4c9.1,0,16.6-11,16.6-24.5V109.9
				C449.3,96.5,441.8,85.4,432.7,85.4"/>
			<path style="clip-path:url(#SVGID_4_);fill-rule:evenodd;clip-rule:evenodd;fill:#BCE7F5;" d="M432.7,404.9H65.3
				c-9.2,0-16.6-11-16.6-24.5v4.7c0,13.5,7.5,24.5,16.6,24.5h367.4c9.2,0,16.6-11,16.6-24.5v-4.7C447,393.1,441.8,404.9,432.7,404.9
				"/>
			<path style="clip-path:url(#SVGID_4_);fill-rule:evenodd;clip-rule:evenodd;fill:#66CFF2;" d="M428.9,126.8H68.8
				c-4,0-7.3,4.8-7.3,10.7v244.8c0,5.9,3.3,10.8,7.3,10.8h360.1c4,0,7.3-4.8,7.3-10.8V137.6C436.2,131.7,432.9,126.8,428.9,126.8"/>
			<path style="clip-path:url(#SVGID_4_);fill-rule:evenodd;clip-rule:evenodd;fill:#23ADDB;" d="M429,126.8H68.7
				c-3.9,0-7.2,4.8-7.2,10.7v7.2c1.5-7.9,3.2-10.8,7.2-10.8H429c3.9,0,7.2,4.8,7.2,10.8v-7.2C436.2,131.7,433,126.8,429,126.8"/>
			<path style="clip-path:url(#SVGID_4_);fill:none;stroke:#962A06;stroke-width:10.8576;stroke-miterlimit:22.926;" d="M432.2,45.6
				H427h-31.6c-0.2-3.2-1.1-6-2.6-8.1c-1.6-2.4-3.9-3.9-6.3-3.9H113.2c-2.5,0-4.7,1.5-6.3,3.9c-1.4,2.1-2.4,5-2.6,8.1H71h-5.2
				l3.6,5.6l13,19.9L69.4,93l-3.2,5.4H71h33.2c0.1,3.5,1.1,6.7,2.6,9c1.6,2.4,3.9,3.9,6.3,3.9h273.3c2.5,0,4.7-1.5,6.3-3.9
				c1.6-2.3,2.6-5.5,2.6-9H427h4.9l-3.2-5.4l-13.1-22l13-19.9L432.2,45.6z M410.9,68.7l-1.4,2.2l1.3,2.3L422,91.9h-28.9h-2.2v3.3v3
				c0,1.8-0.5,3.5-1.3,4.6c-0.8,1.2-1.9,1.9-3.2,1.9H113.2c-1.2,0-2.3-0.7-3.2-1.9c-0.8-1.2-1.3-2.8-1.3-4.6v-3v-3.3h-2.2H76
				l11.2-18.8l1.3-2.3l-1.4-2.2L76.3,52.2h30.2h2.2v-3.3v-2.1c0-1.8,0.5-3.5,1.3-4.6c0.8-1.2,1.9-1.9,3.2-1.9h273.3
				c1.2,0,2.4,0.7,3.2,1.9c0.8,1.2,1.3,2.8,1.3,4.6v2.1v3.3h2.2h28.5L410.9,68.7z"/>
			<path style="clip-path:url(#SVGID_4_);fill-rule:evenodd;clip-rule:evenodd;fill:#FFFFFF;" d="M432.2,45.6H427h-31.6
				c-0.2-3.2-1.1-6-2.6-8.1c-1.6-2.4-3.9-3.9-6.3-3.9H249v6.6h137.4c1.2,0,2.3,0.7,3.2,1.9c0.8,1.2,1.3,2.8,1.3,4.6v2.1v3.3h2.2
				h28.5l-10.8,16.5l-1.4,2.2l1.3,2.3L422,91.9h-28.9h-2.2v3.3v3c0,1.8-0.5,3.4-1.3,4.6c-0.8,1.2-1.9,1.9-3.2,1.9H249v6.6h137.4
				c2.5,0,4.7-1.5,6.3-3.9c1.6-2.3,2.6-5.5,2.6-9H427h4.9l-3.2-5.4l-13.1-22l13-19.9L432.2,45.6z"/>
			<path style="clip-path:url(#SVGID_4_);fill-rule:evenodd;clip-rule:evenodd;fill:#FFFFFF;" d="M113.2,104.7
				c-1.2,0-2.3-0.7-3.2-1.9c-0.8-1.2-1.3-2.8-1.3-4.6v-3v-3.3h-2.2H76l11.2-18.8l1.3-2.3l-1.4-2.2L76.3,52.2h30.2h2.2v-3.3v-2.1
				c0-1.8,0.5-3.5,1.3-4.6c0.8-1.2,1.9-1.9,3.2-1.9H249v-6.6H113.2c-2.5,0-4.7,1.5-6.3,3.9c-1.4,2.1-2.4,5-2.6,8.1H71h-5.2l3.6,5.6
				l13,19.9L69.4,93l-3.2,5.4H71h33.2c0.1,3.5,1.1,6.7,2.6,9c1.6,2.4,3.9,3.9,6.3,3.9H249v-6.6H113.2z"/>
			<polygon style="clip-path:url(#SVGID_4_);fill-rule:evenodd;clip-rule:evenodd;fill:#D53C09;" points="85.5,71 71,95.2 
				114.2,95.2 114.2,48.9 71,48.9 			"/>
			<polygon style="clip-path:url(#SVGID_4_);fill-rule:evenodd;clip-rule:evenodd;fill:#D53C09;" points="383.8,48.9 383.8,95.2 
				427,95.2 412.5,71 427,48.9 			"/>
			<path style="clip-path:url(#SVGID_4_);fill-rule:evenodd;clip-rule:evenodd;fill:#F6460A;" d="M386.4,36.9H113.2
				c-3.7,0-6.7,4.4-6.7,9.9v51.4c0,5.4,3,9.9,6.7,9.9h273.3c3.7,0,6.7-4.4,6.7-9.9V46.7C393.2,41.3,390.1,36.9,386.4,36.9"/>
		</g>
	</g>
</g>
</svg>
