<svg id="Layer_1" data-name="Layer 1" xmlns="http://www.w3.org/2000/svg" xmlns:xlink="http://www.w3.org/1999/xlink" viewBox="0 0 1642 1048"><defs><style>.cls-1{fill:none;}.cls-2{clip-path:url(#clip-path);}.cls-3{clip-path:url(#clip-path-2);}.cls-4{fill:#2b419a;}.cls-5{opacity:0.1;}.cls-6{fill:#6d6eff;}.cls-7{clip-path:url(#clip-path-4);}.cls-8{opacity:0.28;isolation:isolate;}.cls-9{fill:#9791c6;}.cls-10{clip-path:url(#clip-path-7);}.cls-11{clip-path:url(#clip-path-8);}.cls-12{fill:#104673;}.cls-13{clip-path:url(#clip-path-9);}.cls-14{clip-path:url(#clip-path-10);}.cls-15{fill:#00c923;}.cls-16{clip-path:url(#clip-path-11);}.cls-17{clip-path:url(#clip-path-12);}.cls-18{fill:#f4931f;}.cls-19{clip-path:url(#clip-path-13);}.cls-20{clip-path:url(#clip-path-14);}.cls-21{fill:#51caf5;}.cls-22{clip-path:url(#clip-path-15);}.cls-23,.cls-24,.cls-35{fill:#fff;}.cls-23{fill-rule:evenodd;}.cls-25{clip-path:url(#clip-path-17);}.cls-26{opacity:0.5;}.cls-27{clip-path:url(#clip-path-18);}.cls-28{clip-path:url(#clip-path-20);}.cls-29{clip-path:url(#clip-path-21);}.cls-30{fill:#000004;stroke:#101010;stroke-miterlimit:10;}.cls-31{font-size:12px;}.cls-31,.cls-35{font-family:MyriadPro-Regular, Myriad Pro;}.cls-32{letter-spacing:-0.01em;}.cls-33{letter-spacing:-0.01em;}.cls-34{letter-spacing:0em;}.cls-35{font-size:85px;}.cls-36{letter-spacing:0em;}</style><clipPath id="clip-path"><rect class="cls-1" x="-0.01" width="1642.02" height="1048.01"/></clipPath><clipPath id="clip-path-2"><rect class="cls-1" x="-16.47" y="-4.28" width="2123.16" height="1061.58"/></clipPath><clipPath id="clip-path-4"><rect class="cls-1" x="-96.77" y="78.03" width="2123.16" height="1061.58"/></clipPath><clipPath id="clip-path-7"><rect class="cls-1" x="185.11" y="-134.88" width="2123.16" height="1061.58"/></clipPath><clipPath id="clip-path-8"><rect class="cls-1" x="26.12" y="-134.88" width="2123.16" height="1061.58"/></clipPath><clipPath id="clip-path-9"><rect class="cls-1" x="-101.41" y="-959.71" width="2123.14" height="1061.57" transform="translate(584.52 553.31) rotate(-45)"/></clipPath><clipPath id="clip-path-10"><rect class="cls-1" x="-178.3" y="-129.2" width="2123.16" height="1061.58"/></clipPath><clipPath id="clip-path-11"><rect class="cls-1" x="-163.75" y="682.23" width="2123.14" height="1061.57" transform="translate(-594.77 990.14) rotate(-45)"/></clipPath><clipPath id="clip-path-12"><rect class="cls-1" x="-165.01" y="662.45" width="2123.14" height="1061.57" transform="translate(-581.15 983.45) rotate(-45)"/></clipPath><clipPath id="clip-path-13"><rect class="cls-1" x="366.56" y="-313.69" width="2123.14" height="1061.57" transform="translate(264.78 1073.42) rotate(-45)"/></clipPath><clipPath id="clip-path-14"><rect class="cls-1" x="365.73" y="-326.77" width="2123.14" height="1061.57" transform="translate(273.78 1069.01) rotate(-45)"/></clipPath><clipPath id="clip-path-15"><rect class="cls-1" x="1362.72" y="-97.34" width="2123.16" height="1061.58"/></clipPath><clipPath id="clip-path-17"><rect class="cls-1" x="-175.46" y="-4.28" width="2123.16" height="1061.58"/></clipPath><clipPath id="clip-path-18"><rect class="cls-1" x="15.56" y="90.95" width="1745.22" height="872.61"/></clipPath><clipPath id="clip-path-20"><rect class="cls-1" x="-104.8" y="94.09" width="2123.16" height="1061.58"/></clipPath><clipPath id="clip-path-21"><rect class="cls-1" x="-118.68" y="-4.28" width="2123.16" height="1061.58"/></clipPath></defs><g class="cls-2"><g class="cls-3"><rect class="cls-4" x="-16.47" y="-4.28" width="2123.16" height="1061.58"/></g><g class="cls-3"><g class="cls-5"><path class="cls-6" d="M-92.3,1168.85,448,1026.21c-1.38,3.79-2.89,7.54-4.46,11.27l-526.35,139c-3.19-2.46-6.37-5-9.5-7.59Z"/><path class="cls-6" d="M-112.81,1150.59l569.26-150.3c-1,3.7-2.11,7.31-3.26,11L-104.4,1158.45c-2.83-2.55-5.63-5.19-8.41-7.86Z"/><path class="cls-6" d="M-130.94,1131.71,462.6,975c-.72,3.57-1.48,7.15-2.33,10.74l-583.76,154.12c-2.53-2.67-5-5.39-7.45-8.14Z"/><path class="cls-6" d="M-147.13,1112.32,466.71,950.25c-.43,3.51-.94,7-1.52,10.51l-605.63,159.91c-2.29-2.74-4.53-5.53-6.69-8.35Z"/><path class="cls-6" d="M-161.38,1092.42,468.92,926c-.18,3.45-.42,6.88-.74,10.27L-155.54,1101c-2-2.83-4-5.66-5.84-8.54Z"/><path class="cls-6" d="M-173.95,1072.07l643.4-169.89c0,3.38.05,6.73,0,10.11l-638.26,168.5q-2.66-4.29-5.14-8.72Z"/><path class="cls-6" d="M-184.87,1051.28,468.37,878.79c.29,3.31.52,6.64.66,10l-649.44,171.49C-181.95,1057.26-183.46,1054.29-184.87,1051.28Z"/><path class="cls-6" d="M-194.25,1030.1l660-174.24c.49,3.24.9,6.48,1.31,9.72L-190.46,1039.2c-1.35-3-2.59-6-3.79-9.1Z"/><path class="cls-6" d="M-202.16,1008.5,461.67,833.23c.7,3.17,1.36,6.39,1.93,9.61l-662.55,174.93c-1.14-3.1-2.2-6.17-3.21-9.27Z"/><path class="cls-6" d="M-208.53,986.54,456.09,811.08c.94,3.13,1.77,6.25,2.57,9.41L-206,996c-.92-3.17-1.75-6.28-2.55-9.45Z"/><path class="cls-6" d="M-213.46,964.18,449.07,789.23c1.11,3.08,2.21,6.18,3.2,9.29L-211.55,973.79c-.69-3.17-1.36-6.39-1.91-9.61Z"/><path class="cls-6" d="M-217,941.41,440.58,767.82c1.32,3,2.6,6.07,3.8,9.11l-660,174.28c-.48-3.29-.91-6.55-1.3-9.8Z"/><path class="cls-6" d="M-218.91,918.28l649.44-171.5c1.52,2.94,3,5.91,4.44,8.92L-218.26,928.16c-.28-3.24-.48-6.55-.65-9.88Z"/><path class="cls-6" d="M-219.32,894.72,418.92,726.23c1.79,2.88,3.49,5.76,5.13,8.74L-219.34,904.84c-.07-3.4,0-6.78,0-10.12Z"/><path class="cls-6" d="M-218.06,870.74,405.63,706.06c2,2.81,4,5.66,5.86,8.51L-218.84,881C-218.63,877.57-218.36,874.12-218.06,870.74Z"/><path class="cls-6" d="M-215.07,846.26,390.56,686.35c2.28,2.74,4.53,5.52,6.69,8.33L-216.59,856.75c.42-3.49.93-7,1.52-10.49Z"/><path class="cls-6" d="M-210.15,821.29,373.61,667.17q3.79,4,7.45,8.14L-212.49,832c.69-3.61,1.47-7.18,2.34-10.74Z"/><path class="cls-6" d="M-203.08,795.78,354.48,648.55c2.83,2.57,5.65,5.19,8.41,7.86l-569.26,150.3c1-3.7,2.12-7.31,3.29-10.93Z"/><path class="cls-6" d="M-193.47,769.54l526.38-139c3.21,2.47,6.36,5,9.52,7.59L-197.88,780.81C-196.5,777-195,773.27-193.47,769.54Z"/><path class="cls-6" d="M-180.94,742.57,308.32,613.4c3.68,2.32,7.33,4.7,10.88,7.23L-186.68,754.16q2.75-5.83,5.74-11.59Z"/><path class="cls-6" d="M-164.63,714.6,280.1,597.19c4.23,2.12,8.42,4.41,12.56,6.76L-172.13,726.67c2.42-4.07,4.9-8.09,7.5-12.07Z"/><path class="cls-6" d="M-143.35,685.34,246.87,582.29c5,1.93,10,4,14.92,6.14L-153.18,698c3.16-4.28,6.44-8.51,9.83-12.65Z"/><path class="cls-6" d="M-119.55,658.9c1.65-1.64,3.31-3.27,5-4.86l320.7-84.66q9.31,2.31,18.52,5.22L-128,667.68c2.76-3,5.59-5.89,8.46-8.78Z"/><path class="cls-6" d="M-92.6,634.7q10.21-8.28,20.91-15.61L151,560.3c8.74.71,17.5,1.77,26.17,3.19Z"/><path class="cls-6" d="M-29.74,594.41a342.2,342.2,0,0,1,131.55-34.75Z"/></g></g><g class="cls-7"><circle class="cls-8" cx="116.99" cy="1124.48" r="327.16"/></g><g class="cls-7"><circle class="cls-9" cx="93.16" cy="1115.01" r="327.16"/></g><g class="cls-3"><g class="cls-5"><path class="cls-6" d="M1080.07,244.48l104.71-27.64A271.85,271.85,0,0,1,1080.07,244.48Z"/><path class="cls-6" d="M1020,241.47l214.9-56.74q-8.14,6.61-16.69,12.46L1040.88,244C1033.89,243.45,1027,242.61,1020,241.47Z"/><path class="cls-6" d="M982.12,232.61l281-74.19q-3.27,3.56-6.72,7c-1.31,1.31-2.64,2.6-4,3.9L996.9,236.77c-5-1.24-9.88-2.62-14.78-4.16Z"/><path class="cls-6" d="M952.54,221.57l330.7-87.3q-3.79,5.13-7.82,10.1l-311,82.12c-4-1.54-8-3.19-11.89-4.92Z"/><path class="cls-6" d="M927.91,209.2l370.46-97.81c-1.93,3.26-3.93,6.46-6,9.63L937.91,214.58c-3.36-1.68-6.71-3.5-10-5.38Z"/><path class="cls-6" d="M906.77,195.93,1310,89.47c-1.47,3.12-3,6.21-4.58,9.26l-389.94,103c-2.94-1.84-5.84-3.75-8.67-5.75Z"/><path class="cls-6" d="M888.26,182,1318.89,68.26c-1.09,3-2.3,6-3.54,9L895.85,188Q892,185,888.26,182Z"/><path class="cls-6" d="M871.93,167.39l453.72-119.8c-.81,2.94-1.68,5.82-2.6,8.73L878.62,173.66c-2.25-2-4.49-4.14-6.69-6.27Z"/><path class="cls-6" d="M857.46,152.35,1330.53,27.44q-.84,4.27-1.85,8.55L863.4,158.83c-2-2.12-4-4.3-5.94-6.48Z"/><path class="cls-6" d="M844.56,136.89,1333.81,7.71c-.34,2.8-.75,5.59-1.21,8.37L849.89,143.54Q847.15,140.26,844.56,136.89Z"/><path class="cls-6" d="M833.2,121,1335.58-11.61c-.14,2.74-.34,5.49-.59,8.19L837.86,127.83C836.26,125.57,834.69,123.32,833.2,121Z"/><path class="cls-6" d="M823.19,104.81,1336-30.59c0,2.69,0,5.36,0,8.05L827.29,111.77c-1.41-2.3-2.78-4.6-4.1-7Z"/><path class="cls-6" d="M814.48,88.23,1335.13-49.24c.23,2.64.41,5.29.54,7.93L818,95.36c-1.24-2.35-2.42-4.72-3.56-7.13Z"/><path class="cls-6" d="M807,71.35,1333.06-67.52c.39,2.59.71,5.17,1,7.75L810,78.59C809,76.2,808,73.78,807,71.35Z"/><path class="cls-6" d="M800.72,54.14,1329.79-85.55c.57,2.53,1.08,5.1,1.54,7.66L803.25,61.52c-.89-2.46-1.74-4.9-2.53-7.38Z"/><path class="cls-6" d="M795.62,36.62l529.73-139.84q1.11,3.73,2.05,7.5L797.66,44.16C796.93,41.65,796.26,39.15,795.62,36.62Z"/><path class="cls-6" d="M791.69,18.82l528.07-139.43c.88,2.45,1.75,4.93,2.55,7.39L793.22,26.47C792.67,23.94,792.14,21.37,791.69,18.82Z"/><path class="cls-6" d="M788.9.65,1313-137.71c1,2.41,2.07,4.83,3,7.26L789.92,8.46c-.37-2.61-.7-5.21-1-7.81Z"/></g></g><g class="cls-10"><circle class="cls-8" cx="2117.89" cy="-96.84" r="501.58"/></g><g class="cls-11"><circle class="cls-12" cx="1946.69" cy="-128.69" r="501.58"/></g><g class="cls-13"><circle class="cls-8" cx="-80.79" cy="-106.48" r="366.22"/></g><g class="cls-14"><circle class="cls-15" cx="-80.79" cy="-125.22" r="366.23"/></g><g class="cls-16"><circle class="cls-8" cx="1674.66" cy="1151.71" r="366.22"/></g><g class="cls-17"><circle class="cls-18" cx="1650.16" cy="1143.36" r="366.22"/></g><g class="cls-19"><circle class="cls-8" cx="863.12" cy="-90.55" r="242.14" transform="translate(316.83 583.8) rotate(-45)"/></g><g class="cls-20"><circle class="cls-21" cx="846.91" cy="-96.08" r="242.14" transform="translate(315.99 570.72) rotate(-45)"/></g><g class="cls-22"><path class="cls-23" d="M1491.84,35.8A3.24,3.24,0,1,1,1488.6,39,3.24,3.24,0,0,1,1491.84,35.8Z"/><path class="cls-23" d="M1513.66,35.8a3.24,3.24,0,1,1-3.24,3.23A3.24,3.24,0,0,1,1513.66,35.8Z"/><path class="cls-23" d="M1535.47,35.8a3.24,3.24,0,1,1-3.23,3.23A3.24,3.24,0,0,1,1535.47,35.8Z"/><path class="cls-23" d="M1557.29,35.8a3.24,3.24,0,1,1-3.24,3.23A3.24,3.24,0,0,1,1557.29,35.8Z"/><path class="cls-23" d="M1579.1,35.8a3.24,3.24,0,1,1-3.23,3.23A3.24,3.24,0,0,1,1579.1,35.8Z"/><path class="cls-23" d="M1600.92,35.8a3.24,3.24,0,1,1-3.24,3.23A3.24,3.24,0,0,1,1600.92,35.8Z"/><path class="cls-23" d="M1491.84,57.24a3.24,3.24,0,1,1-3.24,3.24A3.24,3.24,0,0,1,1491.84,57.24Z"/><path class="cls-23" d="M1513.66,57.24a3.24,3.24,0,1,1-3.24,3.24A3.25,3.25,0,0,1,1513.66,57.24Z"/><path class="cls-23" d="M1535.47,57.24a3.24,3.24,0,1,1-3.23,3.24A3.24,3.24,0,0,1,1535.47,57.24Z"/><path class="cls-23" d="M1557.29,57.24a3.24,3.24,0,1,1-3.24,3.24A3.24,3.24,0,0,1,1557.29,57.24Z"/><path class="cls-23" d="M1579.1,57.24a3.24,3.24,0,1,1-3.23,3.24A3.24,3.24,0,0,1,1579.1,57.24Z"/><path class="cls-23" d="M1600.92,57.24a3.24,3.24,0,1,1-3.24,3.24A3.24,3.24,0,0,1,1600.92,57.24Z"/><path class="cls-23" d="M1491.84,78.67a3.24,3.24,0,1,1-3.24,3.23A3.24,3.24,0,0,1,1491.84,78.67Z"/><path class="cls-23" d="M1513.66,78.67a3.24,3.24,0,1,1-3.24,3.23A3.24,3.24,0,0,1,1513.66,78.67Z"/><path class="cls-23" d="M1535.47,78.67a3.24,3.24,0,1,1-3.23,3.23A3.24,3.24,0,0,1,1535.47,78.67Z"/><path class="cls-23" d="M1557.29,78.67a3.24,3.24,0,1,1-3.24,3.23A3.24,3.24,0,0,1,1557.29,78.67Z"/><path class="cls-23" d="M1579.1,78.67a3.24,3.24,0,1,1-3.23,3.23A3.24,3.24,0,0,1,1579.1,78.67Z"/><path class="cls-23" d="M1600.92,78.67a3.24,3.24,0,1,1-3.24,3.23A3.24,3.24,0,0,1,1600.92,78.67Z"/><path class="cls-23" d="M1491.84,100.11a3.24,3.24,0,1,1-3.24,3.24A3.24,3.24,0,0,1,1491.84,100.11Z"/><path class="cls-23" d="M1513.66,100.11a3.24,3.24,0,1,1-3.24,3.24A3.25,3.25,0,0,1,1513.66,100.11Z"/><circle class="cls-24" cx="1535.47" cy="103.35" r="3.24"/><path class="cls-23" d="M1557.29,100.11a3.24,3.24,0,1,1-3.24,3.24A3.24,3.24,0,0,1,1557.29,100.11Z"/><path class="cls-23" d="M1579.1,100.11a3.24,3.24,0,1,1-3.23,3.24A3.24,3.24,0,0,1,1579.1,100.11Z"/><path class="cls-23" d="M1600.92,100.11a3.24,3.24,0,1,1-3.24,3.24A3.24,3.24,0,0,1,1600.92,100.11Z"/><path class="cls-23" d="M1491.84,121.54a3.24,3.24,0,1,1-3.24,3.23A3.24,3.24,0,0,1,1491.84,121.54Z"/><path class="cls-23" d="M1513.66,121.54a3.24,3.24,0,1,1-3.24,3.23A3.24,3.24,0,0,1,1513.66,121.54Z"/><circle class="cls-24" cx="1535.47" cy="124.79" r="3.24"/><path class="cls-23" d="M1557.29,121.54a3.24,3.24,0,1,1-3.24,3.23A3.24,3.24,0,0,1,1557.29,121.54Z"/><path class="cls-23" d="M1579.1,121.54a3.24,3.24,0,1,1-3.23,3.23A3.24,3.24,0,0,1,1579.1,121.54Z"/><path class="cls-23" d="M1600.92,121.54a3.24,3.24,0,1,1-3.24,3.23A3.24,3.24,0,0,1,1600.92,121.54Z"/><path class="cls-23" d="M1491.84,143a3.24,3.24,0,1,1-3.24,3.24A3.24,3.24,0,0,1,1491.84,143Z"/><path class="cls-23" d="M1513.66,143a3.24,3.24,0,1,1-3.24,3.24A3.25,3.25,0,0,1,1513.66,143Z"/><circle class="cls-24" cx="1535.47" cy="146.22" r="3.24"/><path class="cls-23" d="M1557.29,143a3.24,3.24,0,1,1-3.24,3.24A3.24,3.24,0,0,1,1557.29,143Z"/><path class="cls-23" d="M1579.1,143a3.24,3.24,0,1,1-3.23,3.24A3.24,3.24,0,0,1,1579.1,143Z"/><path class="cls-23" d="M1600.92,143a3.24,3.24,0,1,1-3.24,3.24A3.24,3.24,0,0,1,1600.92,143Z"/><path class="cls-23" d="M1491.84,164.41a3.24,3.24,0,1,1-3.24,3.23A3.24,3.24,0,0,1,1491.84,164.41Z"/><path class="cls-23" d="M1513.66,164.41a3.24,3.24,0,1,1-3.24,3.23A3.24,3.24,0,0,1,1513.66,164.41Z"/><path class="cls-23" d="M1535.47,164.41a3.24,3.24,0,1,1-3.23,3.23A3.24,3.24,0,0,1,1535.47,164.41Z"/><path class="cls-23" d="M1557.29,164.41a3.24,3.24,0,1,1-3.24,3.23A3.24,3.24,0,0,1,1557.29,164.41Z"/><path class="cls-23" d="M1579.1,164.41a3.24,3.24,0,1,1-3.23,3.23A3.24,3.24,0,0,1,1579.1,164.41Z"/><path class="cls-23" d="M1600.92,164.41a3.24,3.24,0,1,1-3.24,3.23A3.24,3.24,0,0,1,1600.92,164.41Z"/><path class="cls-23" d="M1491.84,185.85a3.24,3.24,0,1,1-3.24,3.24A3.24,3.24,0,0,1,1491.84,185.85Z"/><path class="cls-23" d="M1513.66,185.85a3.24,3.24,0,1,1-3.24,3.24A3.25,3.25,0,0,1,1513.66,185.85Z"/><path class="cls-23" d="M1535.47,185.85a3.24,3.24,0,1,1-3.23,3.24A3.24,3.24,0,0,1,1535.47,185.85Z"/><path class="cls-23" d="M1557.29,185.85a3.24,3.24,0,1,1-3.24,3.24A3.24,3.24,0,0,1,1557.29,185.85Z"/><path class="cls-23" d="M1579.1,185.85a3.24,3.24,0,1,1-3.23,3.24A3.24,3.24,0,0,1,1579.1,185.85Z"/><path class="cls-23" d="M1600.92,185.85a3.24,3.24,0,1,1-3.24,3.24A3.24,3.24,0,0,1,1600.92,185.85Z"/><path class="cls-23" d="M1491.84,207.29a3.24,3.24,0,1,1-3.24,3.24A3.24,3.24,0,0,1,1491.84,207.29Z"/><path class="cls-23" d="M1513.66,207.29a3.24,3.24,0,1,1-3.24,3.24A3.25,3.25,0,0,1,1513.66,207.29Z"/><circle class="cls-24" cx="1535.47" cy="210.53" r="3.24"/><path class="cls-23" d="M1557.29,207.29a3.24,3.24,0,1,1-3.24,3.24A3.24,3.24,0,0,1,1557.29,207.29Z"/><path class="cls-23" d="M1579.1,207.29a3.24,3.24,0,1,1-3.23,3.24A3.24,3.24,0,0,1,1579.1,207.29Z"/><path class="cls-23" d="M1600.92,207.29a3.24,3.24,0,1,1-3.24,3.24A3.24,3.24,0,0,1,1600.92,207.29Z"/><path class="cls-23" d="M1491.84,228.72a3.24,3.24,0,1,1-3.24,3.24A3.24,3.24,0,0,1,1491.84,228.72Z"/><path class="cls-23" d="M1513.66,228.72a3.24,3.24,0,1,1-3.24,3.24A3.25,3.25,0,0,1,1513.66,228.72Z"/><path class="cls-23" d="M1535.47,228.72a3.24,3.24,0,1,1-3.23,3.24A3.24,3.24,0,0,1,1535.47,228.72Z"/><path class="cls-23" d="M1557.29,228.72a3.24,3.24,0,1,1-3.24,3.24A3.24,3.24,0,0,1,1557.29,228.72Z"/><path class="cls-23" d="M1579.1,228.72a3.24,3.24,0,1,1-3.23,3.24A3.24,3.24,0,0,1,1579.1,228.72Z"/><path class="cls-23" d="M1600.92,228.72a3.24,3.24,0,1,1-3.24,3.24A3.24,3.24,0,0,1,1600.92,228.72Z"/><path class="cls-23" d="M1491.84,250.16a3.24,3.24,0,1,1-3.24,3.24A3.24,3.24,0,0,1,1491.84,250.16Z"/><path class="cls-23" d="M1513.66,250.16a3.24,3.24,0,1,1-3.24,3.24A3.25,3.25,0,0,1,1513.66,250.16Z"/><circle class="cls-24" cx="1535.47" cy="253.4" r="3.24"/><path class="cls-23" d="M1557.29,250.16a3.24,3.24,0,1,1-3.24,3.24A3.24,3.24,0,0,1,1557.29,250.16Z"/><path class="cls-23" d="M1579.1,250.16a3.24,3.24,0,1,1-3.23,3.24A3.24,3.24,0,0,1,1579.1,250.16Z"/><path class="cls-23" d="M1600.92,250.16a3.24,3.24,0,1,1-3.24,3.24A3.24,3.24,0,0,1,1600.92,250.16Z"/><path class="cls-23" d="M1491.84,271.59a3.24,3.24,0,1,1-3.24,3.24A3.24,3.24,0,0,1,1491.84,271.59Z"/><path class="cls-23" d="M1513.66,271.59a3.24,3.24,0,1,1-3.24,3.24A3.25,3.25,0,0,1,1513.66,271.59Z"/><path class="cls-23" d="M1535.47,271.59a3.24,3.24,0,1,1-3.23,3.24A3.24,3.24,0,0,1,1535.47,271.59Z"/><path class="cls-23" d="M1557.29,271.59a3.24,3.24,0,1,1-3.24,3.24A3.24,3.24,0,0,1,1557.29,271.59Z"/><path class="cls-23" d="M1579.1,271.59a3.24,3.24,0,1,1-3.23,3.24A3.24,3.24,0,0,1,1579.1,271.59Z"/><path class="cls-23" d="M1600.92,271.59a3.24,3.24,0,1,1-3.24,3.24A3.24,3.24,0,0,1,1600.92,271.59Z"/><path class="cls-23" d="M1491.84,293a3.24,3.24,0,1,1-3.24,3.24A3.24,3.24,0,0,1,1491.84,293Z"/><path class="cls-23" d="M1513.66,293a3.24,3.24,0,1,1-3.24,3.24A3.25,3.25,0,0,1,1513.66,293Z"/><path class="cls-23" d="M1535.47,293a3.24,3.24,0,1,1-3.23,3.24A3.24,3.24,0,0,1,1535.47,293Z"/><path class="cls-23" d="M1557.29,293a3.24,3.24,0,1,1-3.24,3.24A3.24,3.24,0,0,1,1557.29,293Z"/><path class="cls-23" d="M1579.1,293a3.24,3.24,0,1,1-3.23,3.24A3.24,3.24,0,0,1,1579.1,293Z"/><path class="cls-23" d="M1600.92,293a3.24,3.24,0,1,1-3.24,3.24A3.24,3.24,0,0,1,1600.92,293Z"/><path class="cls-23" d="M1491.84,314.46a3.24,3.24,0,1,1-3.24,3.24A3.24,3.24,0,0,1,1491.84,314.46Z"/><path class="cls-23" d="M1513.66,314.46a3.24,3.24,0,1,1-3.24,3.24A3.25,3.25,0,0,1,1513.66,314.46Z"/><path class="cls-23" d="M1535.47,314.46a3.24,3.24,0,1,1-3.23,3.24A3.24,3.24,0,0,1,1535.47,314.46Z"/><path class="cls-23" d="M1557.29,314.46a3.24,3.24,0,1,1-3.24,3.24A3.24,3.24,0,0,1,1557.29,314.46Z"/><path class="cls-23" d="M1579.1,314.46a3.24,3.24,0,1,1-3.23,3.24A3.24,3.24,0,0,1,1579.1,314.46Z"/><path class="cls-23" d="M1600.92,314.46a3.24,3.24,0,1,1-3.24,3.24A3.24,3.24,0,0,1,1600.92,314.46Z"/><path class="cls-23" d="M1491.84,335.9a3.24,3.24,0,1,1-3.24,3.24A3.24,3.24,0,0,1,1491.84,335.9Z"/><path class="cls-23" d="M1513.66,335.9a3.24,3.24,0,1,1-3.24,3.24A3.25,3.25,0,0,1,1513.66,335.9Z"/><path class="cls-23" d="M1535.47,335.9a3.24,3.24,0,1,1-3.23,3.24A3.24,3.24,0,0,1,1535.47,335.9Z"/><path class="cls-23" d="M1557.29,335.9a3.24,3.24,0,1,1-3.24,3.24A3.24,3.24,0,0,1,1557.29,335.9Z"/><path class="cls-23" d="M1579.1,335.9a3.24,3.24,0,1,1-3.23,3.24A3.24,3.24,0,0,1,1579.1,335.9Z"/><path class="cls-23" d="M1600.92,335.9a3.24,3.24,0,1,1-3.24,3.24A3.24,3.24,0,0,1,1600.92,335.9Z"/><path class="cls-23" d="M1491.84,357.35a3.24,3.24,0,1,1-3.24,3.24A3.24,3.24,0,0,1,1491.84,357.35Z"/><path class="cls-23" d="M1513.66,357.35a3.24,3.24,0,1,1-3.24,3.24A3.25,3.25,0,0,1,1513.66,357.35Z"/><circle class="cls-24" cx="1535.47" cy="360.59" r="3.24"/><path class="cls-23" d="M1557.29,357.35a3.24,3.24,0,1,1-3.24,3.24A3.24,3.24,0,0,1,1557.29,357.35Z"/><path class="cls-23" d="M1579.1,357.35a3.24,3.24,0,1,1-3.23,3.24A3.24,3.24,0,0,1,1579.1,357.35Z"/><path class="cls-23" d="M1600.92,357.35a3.24,3.24,0,1,1-3.24,3.24A3.24,3.24,0,0,1,1600.92,357.35Z"/><path class="cls-23" d="M1491.84,378.77a3.24,3.24,0,1,1-3.24,3.24A3.24,3.24,0,0,1,1491.84,378.77Z"/><path class="cls-23" d="M1513.66,378.77a3.24,3.24,0,1,1-3.24,3.24A3.25,3.25,0,0,1,1513.66,378.77Z"/><circle class="cls-24" cx="1535.47" cy="382.01" r="3.24"/><path class="cls-23" d="M1557.29,378.77a3.24,3.24,0,1,1-3.24,3.24A3.24,3.24,0,0,1,1557.29,378.77Z"/><path class="cls-23" d="M1579.1,378.77a3.24,3.24,0,1,1-3.23,3.24A3.24,3.24,0,0,1,1579.1,378.77Z"/><path class="cls-23" d="M1600.92,378.77a3.24,3.24,0,1,1-3.24,3.24A3.24,3.24,0,0,1,1600.92,378.77Z"/><path class="cls-23" d="M1491.84,400.22a3.24,3.24,0,1,1-3.24,3.24A3.24,3.24,0,0,1,1491.84,400.22Z"/><path class="cls-23" d="M1513.66,400.22a3.24,3.24,0,1,1-3.24,3.24A3.25,3.25,0,0,1,1513.66,400.22Z"/><path class="cls-23" d="M1535.47,400.22a3.24,3.24,0,1,1-3.23,3.24A3.24,3.24,0,0,1,1535.47,400.22Z"/><path class="cls-23" d="M1557.29,400.22a3.24,3.24,0,1,1-3.24,3.24A3.24,3.24,0,0,1,1557.29,400.22Z"/><path class="cls-23" d="M1579.1,400.22a3.24,3.24,0,1,1-3.23,3.24A3.24,3.24,0,0,1,1579.1,400.22Z"/><path class="cls-23" d="M1600.92,400.22a3.24,3.24,0,1,1-3.24,3.24A3.24,3.24,0,0,1,1600.92,400.22Z"/></g><g class="cls-3"><rect class="cls-1" x="-16.47" y="-4.28" width="1769.3" height="1061.58"/></g><g class="cls-25"><g class="cls-26"><path class="cls-24" d="M1271.79,352l-21.58,37.07A107.44,107.44,0,0,1,1271.79,352Z"/><path class="cls-24" d="M1289.45,336l-44.29,76.07c.29-2.76.68-5.49,1.19-8.16l36.55-62.77c2.11-1.81,4.3-3.53,6.55-5.14Z"/><path class="cls-24" d="M1302.54,327.89l-57.92,99.47c-.06-1.28-.08-2.55-.08-3.84,0-.75,0-1.47,0-2.22l52.67-90.46c1.76-1,3.51-2,5.31-2.95Z"/><path class="cls-24" d="M1313.92,322.7l-68.15,117c-.25-1.66-.46-3.34-.64-5l64.08-110.09C1310.77,324,1312.34,323.3,1313.92,322.7Z"/><path class="cls-24" d="M1324.29,319.25l-76.35,131.12c-.37-1.45-.71-2.9-1-4.37l73-125.46c1.42-.46,2.87-.88,4.32-1.29Z"/><path class="cls-24" d="M1333.93,317.06l-83.09,142.71c-.46-1.29-.9-2.57-1.31-3.88l80.37-138c1.32-.3,2.67-.58,4-.81Z"/><path class="cls-24" d="M1343,315.78l-88.74,152.43c-.53-1.15-1-2.32-1.53-3.5l86.47-148.48c1.24-.18,2.53-.32,3.8-.45Z"/><path class="cls-24" d="M1351.68,315.29l-93.51,160.6c-.6-1.05-1.17-2.11-1.72-3.17l91.6-157.31c1.18-.05,2.41-.1,3.63-.12Z"/><path class="cls-24" d="M1359.94,315.45l-97.49,167.44c-.64-.95-1.27-1.92-1.88-2.92l95.9-164.68c1.15,0,2.32.09,3.47.16Z"/><path class="cls-24" d="M1367.88,316.17,1267.05,489.35c-.69-.88-1.36-1.77-2-2.69l99.49-170.86c1.1.11,2.23.23,3.34.37Z"/><path class="cls-24" d="M1375.49,317.43,1272,495.24c-.72-.81-1.43-1.62-2.12-2.46l102.46-175.95c1.08.19,2.14.39,3.2.6Z"/><path class="cls-24" d="M1382.85,319.16,1277.17,500.68l-2.25-2.25,104.83-180.06c1,.24,2.06.51,3.1.79Z"/><path class="cls-24" d="M1389.93,321.37,1282.62,505.66q-1.2-1-2.37-2.07l106.67-183.22c1,.31,2,.65,3,1Z"/><path class="cls-24" d="M1396.74,324l-108.42,186.2c-.83-.62-1.65-1.24-2.46-1.87l108-185.51c1,.37,1.93.76,2.87,1.18Z"/><path class="cls-24" d="M1403.32,327.05l-109,187.28c-.87-.54-1.73-1.11-2.57-1.71l108.83-186.91c.94.44,1.86.88,2.78,1.34Z"/><path class="cls-24" d="M1409.66,330.54,1300.49,518c-.9-.49-1.79-1-2.67-1.52L1407,329c.91.5,1.79,1,2.68,1.54Z"/><path class="cls-24" d="M1415.74,334.43,1306.91,521.34c-.93-.44-1.87-.88-2.79-1.36l109-187.28c.88.56,1.73,1.13,2.58,1.73Z"/><path class="cls-24" d="M1421.6,338.73l-108,185.49c-1-.37-1.93-.77-2.88-1.18l108.42-186.22c.85.64,1.68,1.27,2.48,1.91Z"/><path class="cls-24" d="M1427.21,343.46,1320.54,526.68c-1-.31-2-.63-3-1l107.3-184.29c.78.67,1.58,1.36,2.36,2.07Z"/><path class="cls-24" d="M1432.55,348.62l-104.85,180c-1-.25-2.07-.52-3.09-.82l105.68-181.51C1431.06,347.1,1431.83,347.86,1432.55,348.62Z"/><path class="cls-24" d="M1437.63,354.27l-102.44,176c-1.08-.17-2.16-.37-3.21-.58l103.54-177.83c.71.79,1.42,1.62,2.11,2.46Z"/><path class="cls-24" d="M1442.42,360.39l-99.48,170.86c-1.12-.11-2.25-.23-3.37-.37L1440.41,357.7C1441.1,358.58,1441.77,359.49,1442.42,360.39Z"/><path class="cls-24" d="M1446.9,367.06,1351,531.74c-1.16,0-2.31-.08-3.48-.16L1445,364.14c.65.95,1.29,1.93,1.89,2.92Z"/><path class="cls-24" d="M1451,374.33l-91.57,157.31c-1.21.05-2.43.1-3.63.12l93.51-160.6c.58,1,1.15,2.11,1.69,3.17Z"/><path class="cls-24" d="M1454.72,382.33l-86.47,148.49c-1.27.16-2.53.3-3.82.43l88.75-152.43C1453.73,380,1454.24,381.14,1454.72,382.33Z"/><path class="cls-24" d="M1457.94,391.14l-80.36,138c-1.35.3-2.69.58-4,.81l83.1-142.71c.46,1.29.9,2.59,1.31,3.88Z"/><path class="cls-24" d="M1460.54,401l-73,125.46c-1.42.48-2.87.9-4.32,1.29l76.35-131.12c.38,1.45.72,2.9,1,4.37Z"/><path class="cls-24" d="M1462.33,412.32,1398.24,522.4c-1.55.69-3.11,1.35-4.7,2l68.17-117.08c.23,1.66.46,3.35.62,5Z"/><path class="cls-24" d="M1462.91,423.52c0,.74,0,1.46,0,2.19l-52.69,90.48c-1.73,1-3.5,2-5.29,3l57.93-99.48c.05,1.27.07,2.56.07,3.84Z"/><path class="cls-24" d="M1462.31,435c-.28,2.76-.67,5.46-1.18,8.15l-36.58,62.81c-2.1,1.79-4.3,3.51-6.54,5.13Z"/><path class="cls-24" d="M1457.27,458a107.82,107.82,0,0,1-21.61,37.12Z"/></g></g><g class="cls-27"><g class="cls-26"><path class="cls-24" d="M318,239.83,300.29,270.3A88.31,88.31,0,0,1,318,239.83Z"/><path class="cls-24" d="M332.55,226.7l-36.4,62.52c.23-2.27.55-4.51,1-6.7l30.07-51.6c1.71-1.49,3.51-2.9,5.36-4.22Z"/><path class="cls-24" d="M343.31,220,295.7,301.77c-.05-1-.06-2.09-.06-3.15,0-.61,0-1.21,0-1.82L339,222.44c1.44-.84,2.9-1.66,4.36-2.43Z"/><path class="cls-24" d="M352.67,215.75l-56,96.2c-.2-1.36-.37-2.74-.52-4.13l52.68-90.49C350.08,216.78,351.37,216.24,352.67,215.75Z"/><path class="cls-24" d="M361.19,212.91,298.43,320.69c-.3-1.19-.58-2.38-.84-3.59L357.64,214c1.16-.37,2.36-.72,3.55-1.06Z"/><path class="cls-24" d="M369.11,211.11,300.82,328.42c-.38-1.06-.74-2.11-1.08-3.19L365.8,211.78c1.09-.25,2.19-.48,3.31-.67Z"/><path class="cls-24" d="M376.59,210.06,303.64,335.35c-.44-.94-.86-1.9-1.25-2.88l71.07-122c1-.15,2.08-.27,3.13-.37Z"/><path class="cls-24" d="M383.7,209.66l-76.86,132c-.5-.86-1-1.73-1.41-2.61l75.29-129.3C381.69,209.71,382.7,209.67,383.7,209.66Z"/><path class="cls-24" d="M390.49,209.79,310.36,347.43c-.53-.79-1.05-1.59-1.54-2.4l78.82-135.37c.95,0,1.89.07,2.85.13Z"/><path class="cls-24" d="M397,210.38,314.14,352.73c-.57-.72-1.12-1.45-1.64-2.21l81.77-140.44c.91.08,1.84.19,2.75.3Z"/><path class="cls-24" d="M403.28,211.41,318.17,357.58c-.6-.67-1.18-1.34-1.75-2l84.22-144.64Z"/><path class="cls-24" d="M409.33,212.84,322.46,362c-.63-.61-1.24-1.22-1.85-1.85l86.17-148c.85.2,1.69.42,2.55.65Z"/><path class="cls-24" d="M415.14,214.66l-88.2,151.48c-.66-.55-1.31-1.12-1.95-1.7l87.68-150.61c.83.26,1.66.54,2.47.83Z"/><path class="cls-24" d="M420.74,216.83l-89.12,153-2-1.54,88.79-152.49c.78.31,1.58.63,2.35,1Z"/><path class="cls-24" d="M426.15,219.33,336.52,373.27c-.71-.45-1.42-.92-2.11-1.41l89.46-153.64Q425,218.76,426.15,219.33Z"/><path class="cls-24" d="M431.36,222.19,341.63,376.31c-.74-.41-1.47-.82-2.2-1.25l89.73-154.13c.75.4,1.47.83,2.2,1.26Z"/><path class="cls-24" d="M436.36,225.39,346.91,379c-.77-.37-1.55-.73-2.3-1.12L434.24,224C435,224.43,435.66,224.9,436.36,225.39Z"/><path class="cls-24" d="M441.18,228.93,352.39,381.4c-.8-.31-1.59-.64-2.37-1l89.14-153c.68.51,1.36,1,2,1.56Z"/><path class="cls-24" d="M445.79,232.81,358.1,383.42c-.81-.26-1.64-.52-2.45-.83l88.2-151.48c.64.55,1.3,1.12,1.94,1.7Z"/><path class="cls-24" d="M450.18,237.05,364,385.05c-.85-.2-1.7-.42-2.54-.67l86.87-149.2C449,235.8,449.58,236.43,450.18,237.05Z"/><path class="cls-24" d="M454.35,241.69l-84.2,144.64c-.89-.15-1.78-.31-2.64-.48l85.11-146.18C453.2,240.33,453.79,241,454.35,241.69Z"/><path class="cls-24" d="M458.29,246.73,376.52,387.17c-.92-.08-1.85-.19-2.77-.3l82.89-142.35c.56.72,1.12,1.46,1.65,2.21Z"/><path class="cls-24" d="M462,252.21,383.15,387.58c-1,0-1.91-.07-2.87-.13l80.14-137.64C461,250.59,461.48,251.39,462,252.21Z"/><path class="cls-24" d="M465.35,258.19l-75.28,129.3c-1,.05-2,.09-3,.1l76.86-132c.48.86.95,1.73,1.4,2.61Z"/><path class="cls-24" d="M468.4,264.76,397.33,386.82c-1.05.13-2.08.25-3.14.35l72.95-125.29c.45,1,.87,1.91,1.26,2.88Z"/><path class="cls-24" d="M471.05,272,405,385.46c-1.1.24-2.21.48-3.33.67L470,268.82q.57,1.59,1.08,3.18Z"/><path class="cls-24" d="M473.19,280.13,413.14,383.26c-1.17.39-2.36.74-3.55,1.06l62.75-107.78c.32,1.19.6,2.39.85,3.59Z"/><path class="cls-24" d="M474.66,289.41,422,379.9c-1.28.57-2.56,1.11-3.87,1.62l56-96.24C474.34,286.65,474.53,288,474.66,289.41Z"/><path class="cls-24" d="M475.14,298.62c0,.61,0,1.2,0,1.8L431.81,374.8c-1.42.85-2.88,1.67-4.35,2.44l47.62-81.78C475.12,296.51,475.14,297.57,475.14,298.62Z"/><path class="cls-24" d="M474.64,308c-.23,2.27-.55,4.5-1,6.71l-30.06,51.63c-1.74,1.47-3.54,2.88-5.39,4.21Z"/><path class="cls-24" d="M470.5,326.93a88.8,88.8,0,0,1-17.76,30.52Z"/></g></g><g class="cls-27"><g class="cls-26"><path class="cls-24" d="M309.31,674.68l-17.74,30.47A88.44,88.44,0,0,1,309.31,674.68Z"/><path class="cls-24" d="M323.83,661.55l-36.41,62.52c.24-2.27.56-4.51,1-6.7l30.06-51.6C320.18,664.28,322,662.87,323.83,661.55Z"/><path class="cls-24" d="M334.59,654.86,287,736.62q-.06-1.56-.06-3.15c0-.61,0-1.21,0-1.82l43.29-74.36c1.44-.84,2.9-1.66,4.37-2.43Z"/><path class="cls-24" d="M343.94,650.6l-56,96.2c-.21-1.36-.38-2.74-.53-4.13l52.68-90.49C341.35,651.63,342.64,651.09,343.94,650.6Z"/><path class="cls-24" d="M352.46,647.76,289.71,755.54c-.31-1.19-.59-2.38-.85-3.59l60.05-103.13c1.17-.37,2.36-.72,3.55-1.06Z"/><path class="cls-24" d="M360.39,646l-68.3,117.31c-.38-1.06-.74-2.11-1.07-3.19l66.05-113.45C358.16,646.38,359.27,646.15,360.39,646Z"/><path class="cls-24" d="M367.86,644.91,294.91,770.2c-.43-.94-.85-1.9-1.25-2.88l71.08-122c1-.15,2.08-.27,3.12-.37Z"/><path class="cls-24" d="M375,644.5l-76.87,132q-.74-1.29-1.41-2.61L372,644.61c1-.05,2-.09,3-.11Z"/><path class="cls-24" d="M381.77,644.64,301.63,782.28c-.52-.79-1-1.59-1.54-2.4L378.92,644.5c.94,0,1.9.08,2.85.14Z"/><path class="cls-24" d="M388.3,645.23,305.41,787.58c-.56-.72-1.12-1.45-1.64-2.21l81.78-140.44C386.45,645,387.38,645.12,388.3,645.23Z"/><path class="cls-24" d="M394.55,646.26,309.44,792.43c-.59-.67-1.18-1.34-1.74-2l84.22-144.64C392.81,645.93,393.68,646.08,394.55,646.26Z"/><path class="cls-24" d="M400.6,647.69l-86.87,149.2c-.62-.61-1.23-1.22-1.84-1.85l86.17-148c.84.2,1.68.42,2.54.65Z"/><path class="cls-24" d="M406.42,649.51,318.21,801c-.65-.55-1.31-1.12-1.95-1.7L404,648.68c.82.26,1.65.54,2.47.83Z"/><path class="cls-24" d="M412,651.67,322.89,804.73l-2-1.54L409.66,650.7C410.45,651,411.25,651.33,412,651.67Z"/><path class="cls-24" d="M417.43,654.18,327.8,808.12c-.72-.45-1.43-.92-2.11-1.41l89.45-153.64c.77.36,1.53.73,2.29,1.11Z"/><path class="cls-24" d="M422.63,657,332.9,811.16c-.74-.41-1.47-.82-2.2-1.25l89.74-154.13c.74.4,1.47.83,2.19,1.26Z"/><path class="cls-24" d="M427.64,660.24,338.18,813.88c-.77-.37-1.54-.73-2.3-1.12l89.63-153.94c.73.46,1.43.93,2.13,1.42Z"/><path class="cls-24" d="M432.45,663.78,343.66,816.25c-.8-.31-1.58-.64-2.37-1L430.41,662.2c.7.53,1.39,1,2,1.58Z"/><path class="cls-24" d="M437.06,667.66,349.38,818.27c-.82-.26-1.64-.52-2.46-.83L435.13,666c.64.55,1.29,1.12,1.93,1.7Z"/><path class="cls-24" d="M441.45,671.9l-86.18,148c-.86-.2-1.7-.42-2.55-.67L439.59,670c.64.62,1.27,1.25,1.86,1.87Z"/><path class="cls-24" d="M445.63,676.54,361.42,821.18c-.89-.15-1.77-.31-2.63-.48L443.9,674.52C444.48,675.18,445.06,675.86,445.63,676.54Z"/><path class="cls-24" d="M449.57,681.58,367.79,822c-.92-.08-1.85-.19-2.76-.3l82.88-142.35c.57.72,1.12,1.46,1.66,2.21Z"/><path class="cls-24" d="M453.25,687.06,374.42,822.43c-1,0-1.9-.07-2.86-.13l80.13-137.64q.81,1.17,1.56,2.4Z"/><path class="cls-24" d="M456.62,693l-75.27,129.3c-1,0-2,.09-3,.1l76.87-132c.48.86.94,1.73,1.39,2.61Z"/><path class="cls-24" d="M459.68,699.61,388.6,821.67c-1,.13-2.08.25-3.14.35l73-125.29C458.86,697.69,459.28,698.64,459.68,699.61Z"/><path class="cls-24" d="M462.32,706.85,396.27,820.31c-1.11.24-2.21.48-3.33.67l68.31-117.31C461.63,704.73,462,705.79,462.32,706.85Z"/><path class="cls-24" d="M464.46,715l-60,103.13c-1.16.39-2.36.74-3.55,1.06l62.76-107.78c.32,1.19.59,2.39.84,3.59Z"/><path class="cls-24" d="M465.93,724.26l-52.68,90.49c-1.28.57-2.56,1.11-3.87,1.62l56-96.24C465.61,721.5,465.8,722.88,465.93,724.26Z"/><path class="cls-24" d="M466.41,733.47c0,.61,0,1.2,0,1.8l-43.32,74.38c-1.42.85-2.87,1.67-4.34,2.44l47.61-81.78c0,1.05.06,2.11.06,3.16Z"/><path class="cls-24" d="M465.92,742.86c-.24,2.27-.56,4.5-1,6.71L434.88,801.2c-1.73,1.47-3.53,2.88-5.38,4.21Z"/><path class="cls-24" d="M461.77,761.78A88.64,88.64,0,0,1,444,792.3Z"/></g></g><g class="cls-28"><g class="cls-26"><path class="cls-24" d="M1073.52,839.62l-21.59,37.07A107.46,107.46,0,0,1,1073.52,839.62Z"/><path class="cls-24" d="M1091.17,823.64l-44.28,76.06q.42-4.14,1.18-8.15l36.58-62.78c2.08-1.8,4.28-3.52,6.52-5.13Z"/><path class="cls-24" d="M1104.27,815.5,1046.34,915c0-1.27-.07-2.54-.07-3.84,0-.74,0-1.46,0-2.21L1099,818.46c1.75-1,3.5-2,5.31-3Z"/><path class="cls-24" d="M1115.64,810.32l-68.15,117c-.25-1.67-.46-3.35-.64-5l64.09-110.08C1112.49,811.57,1114.07,810.92,1115.64,810.32Z"/><path class="cls-24" d="M1126,806.87,1049.67,938c-.37-1.45-.71-2.9-1-4.37l73.06-125.46c1.41-.46,2.86-.88,4.31-1.29Z"/><path class="cls-24" d="M1135.66,804.67l-83.09,142.72c-.46-1.3-.9-2.57-1.31-3.88l80.36-138C1133,805.19,1134.29,804.9,1135.66,804.67Z"/><path class="cls-24" d="M1144.75,803.4,1056,955.83c-.53-1.15-1-2.32-1.52-3.51L1141,803.84c1.23-.17,2.53-.32,3.8-.44Z"/><path class="cls-24" d="M1153.4,802.91,1059.89,963.5c-.6-1-1.16-2.1-1.71-3.16L1149.77,803c1.19,0,2.41-.11,3.63-.12Z"/><path class="cls-24" d="M1161.66,803.06l-97.48,167.45c-.64-1-1.28-1.93-1.88-2.92l95.9-164.68c1.15,0,2.31.08,3.46.15Z"/><path class="cls-24" d="M1169.61,803.79,1068.78,977c-.69-.89-1.37-1.77-2-2.69l99.48-170.86C1167.36,803.52,1168.49,803.65,1169.61,803.79Z"/><path class="cls-24" d="M1177.22,805.05,1073.68,982.86q-1.1-1.22-2.13-2.46l102.46-176c1.08.2,2.14.38,3.21.61Z"/><path class="cls-24" d="M1184.58,806.78,1078.9,988.29c-.76-.74-1.51-1.48-2.25-2.24L1181.48,806c1,.25,2,.52,3.1.8Z"/><path class="cls-24" d="M1191.65,809l-107.3,184.29c-.8-.67-1.6-1.36-2.38-2.07L1188.65,808c1,.32,2,.66,3,1Z"/><path class="cls-24" d="M1198.47,811.63,1090,997.83c-.83-.62-1.64-1.24-2.46-1.88l108-185.51c1,.37,1.93.76,2.87,1.19Z"/><path class="cls-24" d="M1205.05,814.67,1096,1002c-.87-.55-1.74-1.11-2.57-1.71l108.83-186.91c.94.44,1.86.88,2.78,1.34Z"/><path class="cls-24" d="M1211.38,818.16l-109.16,187.49c-.91-.5-1.79-1-2.68-1.52l109.17-187.51c.9.49,1.79,1,2.67,1.54Z"/><path class="cls-24" d="M1217.47,822.05,1108.64,1009c-.94-.44-1.88-.89-2.8-1.36l109-187.28C1215.77,820.88,1216.62,821.45,1217.47,822.05Z"/><path class="cls-24" d="M1223.32,826.35l-108,185.49c-1-.37-1.93-.78-2.89-1.18l108.43-186.22c.85.63,1.68,1.27,2.47,1.91Z"/><path class="cls-24" d="M1228.93,831.07,1122.26,1014.3c-1-.32-2-.64-3-1L1226.58,829c.78.67,1.57,1.36,2.35,2.07Z"/><path class="cls-24" d="M1234.28,836.24l-104.85,180c-1-.24-2.07-.51-3.1-.81L1232,834c.78.76,1.54,1.52,2.27,2.28Z"/><path class="cls-24" d="M1239.35,841.88l-102.44,176c-1.08-.18-2.16-.37-3.2-.58l103.54-177.84c.71.8,1.41,1.63,2.1,2.46Z"/><path class="cls-24" d="M1244.15,848l-99.49,170.87c-1.11-.11-2.25-.23-3.36-.38l100.83-173.17c.69.88,1.36,1.78,2,2.68Z"/><path class="cls-24" d="M1248.62,854.68l-95.89,164.68c-1.17,0-2.32-.09-3.49-.16l97.49-167.44c.66,1,1.29,1.92,1.89,2.92Z"/><path class="cls-24" d="M1252.73,862l-91.58,157.31c-1.2,0-2.42.1-3.63.12L1251,858.78c.59,1,1.15,2.11,1.7,3.17Z"/><path class="cls-24" d="M1256.45,869.94,1170,1018.44c-1.27.16-2.53.3-3.82.43l88.75-152.43C1255.45,867.61,1256,868.76,1256.45,869.94Z"/><path class="cls-24" d="M1259.67,878.76l-80.37,138c-1.34.3-2.69.58-4,.81l83.11-142.71c.46,1.29.9,2.58,1.31,3.88Z"/><path class="cls-24" d="M1262.27,888.65l-73.06,125.46c-1.41.47-2.86.9-4.32,1.29l76.35-131.12c.39,1.45.73,2.9,1,4.37Z"/><path class="cls-24" d="M1264.05,899.93,1200,1010c-1.56.69-3.11,1.34-4.71,2l68.17-117.07c.23,1.66.46,3.34.62,5Z"/><path class="cls-24" d="M1264.64,911.13c0,.75,0,1.47,0,2.2l-52.69,90.48c-1.73,1-3.5,2-5.29,3l57.93-99.49c0,1.28.07,2.57.07,3.84Z"/><path class="cls-24" d="M1264,922.56c-.29,2.76-.68,5.47-1.19,8.16l-36.57,62.81c-2.11,1.79-4.3,3.5-6.55,5.13Z"/><path class="cls-24" d="M1259,945.58a107.8,107.8,0,0,1-21.6,37.12Z"/></g></g><g class="cls-29"><rect class="cls-24" x="1376.34" y="900.49" width="40.92" height="2.6" transform="translate(-228.59 1251.59) rotate(-44.99)"/><rect class="cls-24" x="1405.26" y="900.41" width="40.92" height="2.6" transform="translate(-220.02 1272.24) rotate(-45)"/><rect class="cls-24" x="1434.24" y="900.58" width="40.92" height="2.6" transform="translate(-211.71 1292.55) rotate(-44.99)"/><rect class="cls-24" x="1463.19" y="900.57" width="40.92" height="2.6" transform="translate(-203.23 1313.01) rotate(-44.99)"/><rect class="cls-24" x="1492.13" y="900.58" width="40.92" height="2.6" transform="translate(-194.76 1333.48) rotate(-44.99)"/></g><g class="cls-27"><rect class="cls-24" x="150.79" y="884.11" width="33.64" height="2.14" transform="translate(-576.75 377.68) rotate(-44.99)"/><rect class="cls-24" x="174.6" y="884.08" width="33.64" height="2.14" transform="translate(-569.83 394.61) rotate(-45)"/><rect class="cls-24" x="198.35" y="884.14" width="33.64" height="2.14" transform="translate(-562.85 411.31) rotate(-44.99)"/><rect class="cls-24" x="222.14" y="884.15" width="33.64" height="2.14" transform="translate(-555.89 428.14) rotate(-44.99)"/><rect class="cls-24" x="245.94" y="884.14" width="33.64" height="2.14" transform="translate(-548.91 444.95) rotate(-44.99)"/></g></g><rect class="cls-30" x="204.05" y="123.84" width="1255.04" height="435.96"/><text class="cls-31" transform="translate(716.76 319.36)"><tspan class="cls-32">L</tspan><tspan x="5.5" y="0">o</tspan><tspan class="cls-33" x="12.08" y="0">r</tspan><tspan class="cls-34" x="15.89" y="0">em ipsum</tspan></text><text class="cls-35" transform="translate(251.74 229.53)"><tspan class="cls-36" x="100.64" y="0"></tspan><tspan x="146.79" y="0"></tspan></text></svg>