<svg id="Layer_1" data-name="Layer 1" xmlns="http://www.w3.org/2000/svg" xmlns:xlink="http://www.w3.org/1999/xlink" viewBox="0 0 1978.15 1047.98"><defs><style>.cls-1{fill:#70b7ff;}.cls-10,.cls-12,.cls-13,.cls-14,.cls-15,.cls-16,.cls-18,.cls-19,.cls-2,.cls-20,.cls-21,.cls-22,.cls-23,.cls-24,.cls-25,.cls-26,.cls-27,.cls-3,.cls-30,.cls-31,.cls-32,.cls-6,.cls-7,.cls-8,.cls-9{fill-rule:evenodd;}.cls-2{fill:url(#GradientFill_1);}.cls-3{fill:url(#linear-gradient);}.cls-4{fill:#825823;}.cls-5{fill:#724d22;}.cls-6{fill:#77bb08;}.cls-7{fill:#3b5e04;}.cls-8{fill:#4d7c06;}.cls-9{fill:#609a07;}.cls-10{opacity:0.1;}.cls-11{fill:#ac7930;}.cls-12{fill:#a57230;}.cls-13,.cls-28{fill:#9b6b2a;}.cls-14{fill:#785422;}.cls-15{fill:#528205;}.cls-16{fill:#7bc207;}.cls-17,.cls-30{fill:#8de009;}.cls-18,.cls-20,.cls-21,.cls-22,.cls-23,.cls-24,.cls-25,.cls-26,.cls-27{fill:none;stroke:#c48837;stroke-miterlimit:22.93;}.cls-18{stroke-width:0.48px;}.cls-19,.cls-29{fill:#8a5e29;}.cls-20{stroke-width:0.2px;}.cls-21{stroke-width:0.38px;}.cls-22{stroke-width:0.7px;}.cls-23{stroke-width:0.34px;}.cls-24{stroke-width:0.71px;}.cls-25{stroke-width:0.29px;}.cls-26{stroke-width:0.4px;}.cls-27{stroke-width:0.27px;}.cls-31{fill:#63a007;}.cls-32{fill:#76bf08;}</style><linearGradient id="GradientFill_1" x1="989.44" y1="357.7" x2="989.44" y2="135.59" gradientUnits="userSpaceOnUse"><stop offset="0" stop-color="#6bb0e1"/><stop offset="1" stop-color="#519fd7"/></linearGradient><linearGradient id="linear-gradient" x1="989.44" y1="599.44" x2="989.44" y2="368.36" gradientUnits="userSpaceOnUse"><stop offset="0" stop-color="#6bb0e1"/><stop offset="1" stop-color="#3c8bca"/></linearGradient></defs><rect class="cls-1" x="0.73" y="1.32" width="1977.42" height="1046.66"/><path class="cls-2" d="M1978.15,333c-50.37-25.72-160.94-63.25-216.1-61.87-67.68,1.68-239.88,64.87-352.32,56s-117.27-205.34-237.6-214.73-175,235.27-244.48,225.9S720,110.57,633.59,109.28,391.32,325.73,274.79,327C165.54,328.13,125.58,249.09.73,266.74V597.87H1978.15Z"/><path class="cls-3" d="M.73,399.33c13.77-6,29.89-9.54,49.35-9.06,94.52,2.36,200.46,88.35,316.82,79.21S529.21,390,653.72,380.25s230.86,96.5,362.2,96.55,242.14-101.35,331.6-102.68,196.09,82.36,332,83.81c87.08.93,182.6-69.39,298.58-74.05V795.53H.73Z"/><rect class="cls-4" x="1292.95" y="736.01" width="107.81" height="127.83"/><rect class="cls-5" x="1346.85" y="736.01" width="53.91" height="127.83"/><path class="cls-6" d="M1346.77,414.28h0c117.49,0,213.62,79.69,213.62,177.07V763.06c0,24.59-24.57,44.52-54.86,44.52-25.43,0-46.82-14.05-53-33.1-6.22,19-27.61,33.1-53,33.1-25.74,0-47.35-14.4-53.25-33.8-5.91,19.4-27.53,33.8-53.26,33.8-25.43,0-46.82-14.05-53-33.1-6.22,19-27.6,33.1-53,33.1-30.3,0-54.86-19.93-54.86-44.52,0-92.29,1.14-79.39,1.14-171.71C1133.16,494,1229.28,414.28,1346.77,414.28Z"/><path class="cls-7" d="M1293,711.43c-25.43,0-46.82-14-53-33.1-6.22,19-27.6,33.1-53,33.1-27.48,0-50.25-16.41-54.24-37.81-.3,21.15-.62,40.51-.62,89.44,0,24.58,24.56,44.52,54.86,44.52,25.43,0,46.81-14.05,53-33.1,6.22,19,27.61,33.1,53,33.1,25.73,0,47.35-14.39,53.25-33.8,5.91,19.41,27.52,33.8,53.26,33.8,25.43,0,46.82-14.05,53-33.1,6.21,19,27.6,33.1,53,33.1,30.29,0,54.86-19.94,54.86-44.52V666.91c0,24.59-24.57,44.52-54.86,44.52-25.43,0-46.82-14-53-33.1-6.22,19-27.61,33.1-53,33.1-25.74,0-47.35-14.39-53.26-33.8C1340.3,697,1318.68,711.43,1293,711.43Z"/><path class="cls-8" d="M1239.91,678.33c6.22,19,27.61,33.1,53,33.1,25.73,0,47.35-14.39,53.25-33.8,5.91,19.41,27.52,33.8,53.26,33.8,25.43,0,46.82-14,53-33.1,6.21,19,27.6,33.1,53,33.1,30.29,0,54.86-19.93,54.86-44.52V591.35a147.17,147.17,0,0,0-3.4-31.45c-7.75,17-27.87,29.05-51.46,29.05-25.43,0-46.82-14.05-53-33.1-6.22,19-27.61,33.1-53,33.1-25.74,0-47.35-14.4-53.26-33.8-5.9,19.4-27.51,33.8-53.25,33.8-25.44,0-46.82-14.05-53-33.1-6.22,19-27.6,33.1-53,33.1-22.83,0-42.41-11.32-50.67-27.43a147.55,147.55,0,0,0-3,29.83c0,43.38-.26,63.53-.52,82.27,4,21.4,26.76,37.81,54.24,37.81C1212.31,711.43,1233.69,697.38,1239.91,678.33Z"/><path class="cls-9" d="M1239.91,555.85c6.22,19,27.6,33.1,53,33.1,25.74,0,47.35-14.4,53.25-33.8,5.91,19.4,27.52,33.8,53.26,33.8,25.43,0,46.82-14.05,53-33.1,6.21,19,27.6,33.1,53,33.1,23.59,0,43.71-12.09,51.46-29.05-8.89-40.67-34.69-76.62-71.07-102.63-5.46,10.78-18.52,18.37-33.77,18.37-16.91,0-31.13-9.34-35.26-22-4.14,12.67-18.36,22-35.27,22-17.12,0-31.49-9.57-35.42-22.48-3.92,12.91-18.3,22.48-35.42,22.48-16.91,0-31.13-9.34-35.26-22-4.14,12.67-18.36,22-35.27,22-15,0-27.83-7.31-33.45-17.78-36.44,26.31-62.11,62.63-70.59,103.66,8.26,16.11,27.84,27.43,50.67,27.43C1212.31,589,1233.69,574.9,1239.91,555.85Z"/><path class="cls-10" d="M1346.77,414.28h0c117.49,0,213.62,79.69,213.62,177.07V763.06c0,24.58-24.57,44.52-54.86,44.52-20.48,0-38.33-9.12-47.76-22.61a38,38,0,0,0,7.1-21.91V591.35c0-83.79-71.17-154.48-165.87-172.58A254.34,254.34,0,0,1,1346.77,414.28Z"/><rect class="cls-4" x="980.16" y="758.19" width="89.11" height="105.66"/><rect class="cls-5" x="1024.72" y="758.19" width="44.56" height="105.66"/><path class="cls-6" d="M1024.65,492.26h0c97.11,0,176.56,65.86,176.56,146.36V780.55c0,20.31-20.3,36.79-45.34,36.79-21,0-38.7-11.61-43.83-27.36-5.14,15.75-22.83,27.36-43.84,27.36-21.28,0-39.14-11.9-44-27.94-4.88,16-22.75,27.94-44,27.94-21,0-38.7-11.61-43.84-27.36-5.13,15.75-22.81,27.36-43.83,27.36-25,0-45.34-16.48-45.34-36.79,0-76.29.94-65.63.94-141.93C848.09,558.11,927.54,492.26,1024.65,492.26Z"/><path class="cls-7" d="M980.16,737.87c-21,0-38.7-11.62-43.84-27.36-5.13,15.74-22.81,27.36-43.83,27.36-22.71,0-41.53-13.56-44.83-31.25-.25,17.48-.51,33.48-.51,73.92,0,20.32,20.3,36.8,45.34,36.8,21,0,38.7-11.61,43.83-27.36,5.14,15.75,22.82,27.36,43.84,27.36,21.27,0,39.14-11.9,44-27.94,4.88,16,22.74,27.94,44,27.94,21,0,38.7-11.61,43.84-27.36,5.13,15.75,22.81,27.36,43.83,27.36,25,0,45.34-16.48,45.34-36.8V701.07c0,20.32-20.3,36.8-45.34,36.8-21,0-38.7-11.62-43.83-27.36-5.14,15.74-22.82,27.36-43.84,27.36-21.28,0-39.14-11.9-44-27.94C1019.3,726,1001.43,737.87,980.16,737.87Z"/><path class="cls-8" d="M936.32,710.51c5.14,15.74,22.82,27.36,43.84,27.36,21.27,0,39.14-11.9,44-27.94,4.88,16,22.74,27.94,44,27.94,21,0,38.7-11.62,43.84-27.36,5.13,15.74,22.81,27.36,43.83,27.36,25,0,45.34-16.48,45.34-36.8V638.61a121.23,121.23,0,0,0-2.81-26c-6.4,14-23,24-42.53,24-21,0-38.7-11.61-43.83-27.36-5.14,15.75-22.82,27.36-43.84,27.36-21.28,0-39.14-11.9-44-27.94-4.88,16-22.75,27.94-44,27.94-21,0-38.7-11.61-43.84-27.36-5.13,15.75-22.81,27.36-43.83,27.36-18.87,0-35.06-9.36-41.88-22.67a121.48,121.48,0,0,0-2.52,24.65c0,35.86-.21,52.51-.43,68,3.3,17.69,22.12,31.25,44.83,31.25C913.51,737.87,931.19,726.25,936.32,710.51Z"/><path class="cls-9" d="M936.32,609.27c5.14,15.75,22.82,27.36,43.84,27.36,21.27,0,39.14-11.9,44-27.94,4.88,16,22.74,27.94,44,27.94,21,0,38.7-11.61,43.84-27.36,5.13,15.75,22.81,27.36,43.83,27.36,19.5,0,36.13-10,42.53-24-7.35-33.62-28.67-63.33-58.74-84.83-4.51,8.91-15.3,15.19-27.9,15.19-14,0-25.74-7.73-29.16-18.2-3.41,10.47-15.17,18.2-29.15,18.2-14.14,0-26-7.91-29.27-18.59-3.25,10.68-15.13,18.59-29.27,18.59-14,0-25.74-7.73-29.16-18.2-3.42,10.47-15.17,18.2-29.14,18.2-12.37,0-23-6.05-27.66-14.7C878.84,550,857.62,580.05,850.61,614c6.82,13.31,23,22.67,41.88,22.67C913.51,636.63,931.19,625,936.32,609.27Z"/><path class="cls-10" d="M1024.65,492.26h0c97.11,0,176.56,65.86,176.56,146.35V780.54c0,20.32-20.3,36.8-45.34,36.8-16.93,0-31.69-7.54-39.47-18.69a31.46,31.46,0,0,0,5.86-18.11V638.61c0-69.25-58.82-127.67-137.09-142.64A210.11,210.11,0,0,1,1024.65,492.26Z"/><rect class="cls-4" x="630.63" y="723.81" width="118.1" height="140.03"/><rect class="cls-5" x="689.68" y="723.81" width="59.05" height="140.03"/><path class="cls-6" d="M689.59,371.37h0c128.7,0,234,87.3,234,194v188.1c0,26.93-26.91,48.77-60.1,48.77-27.86,0-51.28-15.39-58.09-36.26-6.81,20.87-30.24,36.26-58.1,36.26-28.19,0-51.87-15.77-58.34-37-6.47,21.26-30.15,37-58.34,37-27.85,0-51.29-15.39-58.1-36.26-6.8,20.87-30.23,36.26-58.09,36.26-33.19,0-60.09-21.84-60.09-48.77,0-101.1,1.24-87,1.24-188.1C455.59,458.65,560.89,371.37,689.59,371.37Z"/><path class="cls-7" d="M630.63,696.88c-27.85,0-51.29-15.39-58.1-36.26-6.8,20.87-30.23,36.26-58.09,36.26-30.11,0-55.05-18-59.41-41.41-.33,23.16-.68,44.37-.68,98,0,26.93,26.91,48.77,60.09,48.77,27.86,0,51.29-15.4,58.09-36.26,6.81,20.86,30.25,36.26,58.1,36.26,28.19,0,51.87-15.77,58.34-37,6.47,21.26,30.15,37,58.34,37,27.86,0,51.29-15.4,58.1-36.26,6.81,20.86,30.23,36.26,58.09,36.26,33.19,0,60.1-21.84,60.1-48.77V648.12c0,26.93-26.91,48.76-60.1,48.76-27.86,0-51.28-15.39-58.09-36.26-6.81,20.87-30.24,36.26-58.1,36.26-28.19,0-51.87-15.76-58.34-37C682.5,681.12,658.82,696.88,630.63,696.88Z"/><path class="cls-8" d="M572.53,660.62c6.81,20.87,30.25,36.26,58.1,36.26,28.19,0,51.87-15.76,58.34-37,6.47,21.26,30.15,37,58.34,37,27.86,0,51.29-15.39,58.1-36.26,6.81,20.87,30.23,36.26,58.09,36.26,33.19,0,60.1-21.83,60.1-48.76V565.34a160.74,160.74,0,0,0-3.73-34.45c-8.48,18.58-30.52,31.82-56.37,31.82-27.86,0-51.28-15.39-58.09-36.26-6.81,20.87-30.24,36.26-58.1,36.26-28.19,0-51.87-15.77-58.34-37-6.47,21.26-30.14,37-58.34,37-27.86,0-51.29-15.39-58.1-36.26-6.8,20.87-30.23,36.26-58.09,36.26-25,0-46.46-12.4-55.51-30.05a161.11,161.11,0,0,0-3.34,32.68c0,47.52-.28,69.59-.56,90.13,4.36,23.44,29.3,41.41,59.41,41.41C542.3,696.88,565.73,681.49,572.53,660.62Z"/><path class="cls-9" d="M572.53,526.45c6.81,20.87,30.24,36.26,58.1,36.26,28.2,0,51.87-15.77,58.34-37,6.47,21.26,30.15,37,58.34,37,27.86,0,51.29-15.39,58.1-36.26,6.81,20.87,30.23,36.26,58.09,36.26,25.85,0,47.89-13.24,56.37-31.82-9.74-44.55-38-83.93-77.85-112.42-6,11.8-20.28,20.12-37,20.12-18.53,0-34.11-10.24-38.64-24.11-4.52,13.87-20.11,24.11-38.64,24.11C709,438.59,693.27,428.1,689,414c-4.3,14.14-20.05,24.63-38.8,24.63-18.52,0-34.11-10.24-38.63-24.11-4.54,13.87-20.11,24.11-38.64,24.11-16.38,0-30.48-8-36.64-19.48-39.92,28.82-68,68.61-77.33,113.55,9.05,17.65,30.5,30.05,55.51,30.05C542.3,562.71,565.73,547.32,572.53,526.45Z"/><path class="cls-10" d="M689.59,371.37h0c128.7,0,234,87.3,234,194v188.1c0,26.93-26.91,48.77-60.1,48.77-22.43,0-42-10-52.31-24.77a41.66,41.66,0,0,0,7.77-24V565.34c0-91.78-78-169.21-181.7-189A278.66,278.66,0,0,1,689.59,371.37Z"/><rect class="cls-4" x="1641.32" y="720.05" width="121.27" height="143.79"/><rect class="cls-5" x="1701.95" y="720.05" width="60.64" height="143.79"/><path class="cls-6" d="M1701.86,358.14h0c132.16,0,240.29,89.64,240.29,199.18V750.48c0,27.65-27.63,50.07-61.71,50.07-28.61,0-52.66-15.8-59.65-37.23-7,21.43-31.06,37.23-59.66,37.23-29,0-53.26-16.19-59.91-38-6.65,21.83-31,38-59.91,38-28.6,0-52.67-15.8-59.66-37.23-7,21.43-31,37.23-59.65,37.23-34.08,0-61.7-22.42-61.7-50.07,0-103.82,1.27-89.31,1.27-193.16C1461.57,447.77,1569.7,358.14,1701.86,358.14Z"/><path class="cls-7" d="M1641.31,692.4c-28.6,0-52.67-15.81-59.66-37.23-7,21.42-31,37.23-59.65,37.23-30.91,0-56.53-18.46-61-42.53-.34,23.79-.69,45.57-.69,100.61,0,27.65,27.62,50.07,61.7,50.07,28.61,0,52.66-15.8,59.65-37.23,7,21.43,31.06,37.23,59.66,37.23,29,0,53.26-16.19,59.91-38,6.65,21.83,31,38,59.91,38,28.6,0,52.67-15.8,59.66-37.23,7,21.43,31,37.23,59.65,37.23,34.08,0,61.71-22.42,61.71-50.07V642.33c0,27.65-27.63,50.07-61.71,50.07-28.6,0-52.66-15.81-59.65-37.23-7,21.42-31.06,37.23-59.66,37.23-29,0-53.26-16.19-59.91-38C1694.57,676.21,1670.26,692.4,1641.31,692.4Z"/><path class="cls-8" d="M1581.65,655.17c7,21.42,31.06,37.23,59.66,37.23,29,0,53.26-16.19,59.91-38,6.65,21.83,31,38,59.91,38,28.6,0,52.67-15.81,59.66-37.23,7,21.42,31,37.23,59.65,37.23,34.08,0,61.71-22.42,61.71-50.07v-85a165.58,165.58,0,0,0-3.83-35.38c-8.71,19.08-31.34,32.68-57.88,32.68-28.6,0-52.66-15.8-59.65-37.23-7,21.43-31.06,37.23-59.66,37.23-29,0-53.26-16.19-59.91-38-6.65,21.83-31,38-59.91,38-28.61,0-52.67-15.8-59.66-37.23-7,21.43-31,37.23-59.65,37.23-25.68,0-47.71-12.73-57-30.85a166,166,0,0,0-3.43,33.55c0,48.8-.29,71.46-.58,92.55,4.48,24.07,30.1,42.53,61,42.53C1550.61,692.4,1574.66,676.59,1581.65,655.17Z"/><path class="cls-9" d="M1581.65,517.39c7,21.43,31,37.23,59.66,37.23,29,0,53.26-16.19,59.91-38,6.65,21.83,31,38,59.91,38,28.6,0,52.67-15.8,59.66-37.23,7,21.43,31,37.23,59.65,37.23,26.54,0,49.17-13.6,57.88-32.68-10-45.74-39-86.18-79.94-115.43-6.14,12.12-20.83,20.66-38,20.66-19,0-35-10.51-39.67-24.76-4.65,14.25-20.65,24.76-39.68,24.76-19.24,0-35.41-10.77-39.83-25.29-4.42,14.52-20.59,25.29-39.84,25.29-19,0-35-10.51-39.67-24.76-4.66,14.25-20.65,24.76-39.67,24.76-16.83,0-31.3-8.23-37.63-20-41,29.59-69.86,70.45-79.41,116.6,9.29,18.12,31.32,30.85,57,30.85C1550.61,554.62,1574.66,538.82,1581.65,517.39Z"/><path class="cls-10" d="M1701.86,358.14h0c132.16,0,240.29,89.65,240.29,199.18V750.48c0,27.65-27.63,50.07-61.71,50.07-23,0-43.12-10.25-53.72-25.43a42.79,42.79,0,0,0,8-24.64V557.32c0-94.24-80-173.76-186.57-194.12A285.71,285.71,0,0,1,1701.86,358.14Z"/><rect class="cls-4" x="302.99" y="736.43" width="107.46" height="127.42"/><rect class="cls-5" x="356.72" y="736.43" width="53.73" height="127.42"/><path class="cls-6" d="M356.64,415.75h0c117.1,0,212.91,79.43,212.91,176.49V763.39c0,24.5-24.48,44.37-54.68,44.37-25.35,0-46.66-14-52.85-33-6.2,19-27.52,33-52.87,33-25.65,0-47.19-14.35-53.08-33.69-5.89,19.34-27.43,33.69-53.08,33.69-25.35,0-46.67-14-52.87-33-6.19,19-27.51,33-52.85,33-30.2,0-54.68-19.87-54.68-44.37,0-92,1.13-79.13,1.13-171.15C143.72,495.16,239.53,415.75,356.64,415.75Z"/><path class="cls-7" d="M303,711.93c-25.35,0-46.67-14-52.87-33-6.19,19-27.51,33-52.85,33-27.4,0-50.09-16.35-54.06-37.69-.3,21.08-.62,40.38-.62,89.15,0,24.5,24.48,44.37,54.68,44.37,25.34,0,46.66-14,52.85-33,6.2,19,27.52,33,52.87,33,25.65,0,47.19-14.34,53.08-33.69,5.89,19.35,27.43,33.69,53.08,33.69,25.35,0,46.67-14,52.87-33,6.19,19,27.51,33,52.85,33,30.2,0,54.68-19.87,54.68-44.37V667.56c0,24.5-24.48,44.37-54.68,44.37-25.34,0-46.66-14-52.85-33-6.2,19-27.52,33-52.87,33-25.65,0-47.19-14.35-53.08-33.69C350.18,697.58,328.64,711.93,303,711.93Z"/><path class="cls-8" d="M250.12,678.93c6.2,19,27.52,33,52.87,33,25.65,0,47.19-14.35,53.08-33.69,5.89,19.34,27.43,33.69,53.08,33.69,25.35,0,46.67-14,52.87-33,6.19,19,27.51,33,52.85,33,30.2,0,54.68-19.87,54.68-44.37V592.24a146.31,146.31,0,0,0-3.39-31.35c-7.72,16.91-27.77,29-51.29,29-25.34,0-46.66-14-52.85-33-6.2,19-27.52,33-52.87,33-25.65,0-47.19-14.35-53.08-33.7-5.89,19.35-27.43,33.7-53.08,33.7-25.35,0-46.67-14-52.87-33-6.19,19-27.51,33-52.85,33-22.76,0-42.28-11.29-50.51-27.34a146.57,146.57,0,0,0-3,29.73c0,43.24-.25,63.32-.51,82,4,21.34,26.66,37.69,54.06,37.69C222.61,711.93,243.93,697.92,250.12,678.93Z"/><path class="cls-9" d="M250.12,556.86c6.2,19,27.52,33,52.87,33,25.65,0,47.19-14.35,53.08-33.7,5.89,19.35,27.43,33.7,53.08,33.7,25.35,0,46.67-14,52.87-33,6.19,19,27.51,33,52.85,33,23.52,0,43.57-12.05,51.29-29-8.86-40.53-34.56-76.37-70.83-102.29-5.44,10.74-18.46,18.31-33.65,18.31-16.86,0-31-9.31-35.16-21.94-4.12,12.63-18.29,21.94-35.15,21.94-17.06,0-31.39-9.54-35.3-22.41-3.92,12.87-18.25,22.41-35.3,22.41-16.86,0-31-9.31-35.16-21.94-4.12,12.63-18.29,21.94-35.15,21.94-14.91,0-27.73-7.29-33.34-17.72-36.32,26.22-61.9,62.42-70.36,103.32,8.23,16,27.75,27.34,50.51,27.34C222.61,589.85,243.93,575.84,250.12,556.86Z"/><path class="cls-10" d="M356.64,415.75h0c117.1,0,212.91,79.43,212.91,176.49V763.39c0,24.5-24.48,44.37-54.68,44.37-20.41,0-38.2-9.08-47.6-22.53a37.88,37.88,0,0,0,7.08-21.84V592.24c0-83.51-70.93-154-165.33-172A253.58,253.58,0,0,1,356.64,415.75Z"/><rect class="cls-11" x="0.73" y="875.53" width="1977.42" height="172.46"/><path class="cls-12" d="M.73,1048H1978.15v-83.8c-94.2,10.11-192.31,18.24-284.41,7.68-172.89-19.83-373.36,3.84-519.74,6-185.54,2.77-214.43-15.22-406.71-12.52-157.55,2.21-355.36,4-511.25,3.1-89.9-.49-171-7.05-255.31-19Z"/><path class="cls-13" d="M.73,1048H1978.15v-46.41c-141.77,5.69-294.64,12.52-416.37,2.46-361.8-29.89-568.31,47.64-878.42-2.81-226.12-36.79-448.83,5.43-682.63,6.54Z"/><path class="cls-14" d="M1978.15,928.68V891.42H.73v41.35c9,7.23,21.29,11.68,34.82,11.68,22.18,0,41-12,47.58-28.53,6.58,16.57,25.39,28.53,47.58,28.53s41-12,47.59-28.53c6.57,16.57,25.39,28.53,47.58,28.53s41-12,47.58-28.53c6.58,16.57,25.4,28.53,47.58,28.53s41-12,47.59-28.53c6.58,16.57,25.39,28.53,47.58,28.53s41-12,47.58-28.53c6.58,16.57,25.4,28.53,47.58,28.53s41-12,47.59-28.53c6.58,16.57,25.39,28.53,47.58,28.53s41-12,47.58-28.53c6.58,16.57,25.4,28.53,47.59,28.53s41-12,47.58-28.53c6.58,16.57,25.39,28.53,47.58,28.53s41-12,47.58-28.53c6.58,16.57,25.4,28.53,47.59,28.53s41-12,47.58-28.53c6.58,16.57,25.39,28.53,47.58,28.53s41-12,47.59-28.53c6.58,16.57,25.39,28.53,47.58,28.53s41-12,47.58-28.53c6.58,16.57,25.39,28.53,47.58,28.53s41-12,47.58-28.53c6.59,16.57,25.4,28.53,47.59,28.53s41-12,47.58-28.53c6.58,16.57,25.4,28.53,47.59,28.53s41-12,47.58-28.53c6.58,16.57,25.39,28.53,47.58,28.53s41-12,47.58-28.53c6.58,16.57,25.4,28.53,47.59,28.53s41-12,47.58-28.53c6.58,16.57,25.39,28.53,47.58,28.53s41-12,47.58-28.53c6.58,16.57,25.4,28.53,47.59,28.53s41-12,47.58-28.53c6.58,16.57,25.39,28.53,47.58,28.53s41-12,47.59-28.53c6.58,16.57,25.39,28.53,47.58,28.53C1954.78,944.45,1969,938.29,1978.15,928.68Z"/><path class="cls-15" d="M1978.15,919.93V882.66H.73V924c9,7.23,21.29,11.68,34.82,11.68,22.18,0,41-12,47.58-28.52,6.58,16.56,25.39,28.52,47.58,28.52s41-12,47.59-28.52c6.57,16.56,25.39,28.52,47.58,28.52s41-12,47.58-28.52c6.58,16.56,25.4,28.52,47.58,28.52s41-12,47.59-28.52c6.58,16.56,25.39,28.52,47.58,28.52s41-12,47.58-28.52c6.58,16.56,25.4,28.52,47.58,28.52s41-12,47.59-28.52c6.58,16.56,25.39,28.52,47.58,28.52s41-12,47.58-28.52c6.58,16.56,25.4,28.52,47.59,28.52s41-12,47.58-28.52c6.58,16.56,25.39,28.52,47.58,28.52s41-12,47.58-28.52c6.58,16.56,25.4,28.52,47.59,28.52s41-12,47.58-28.52c6.58,16.56,25.39,28.52,47.58,28.52s41-12,47.59-28.52c6.58,16.56,25.39,28.52,47.58,28.52s41-12,47.58-28.52c6.58,16.56,25.39,28.52,47.58,28.52s41-12,47.58-28.52c6.59,16.56,25.4,28.52,47.59,28.52s41-12,47.58-28.52c6.58,16.56,25.4,28.52,47.59,28.52s41-12,47.58-28.52c6.58,16.56,25.39,28.52,47.58,28.52s41-12,47.58-28.52c6.58,16.56,25.4,28.52,47.59,28.52s41-12,47.58-28.52c6.58,16.56,25.39,28.52,47.58,28.52s41-12,47.58-28.52c6.58,16.56,25.4,28.52,47.59,28.52s41-12,47.58-28.52c6.58,16.56,25.39,28.52,47.58,28.52s41-12,47.59-28.52c6.58,16.56,25.39,28.52,47.58,28.52C1954.78,935.69,1969,929.53,1978.15,919.93Z"/><path class="cls-16" d="M1978.15,912.79V863.85H.73v53c9,7.22,21.29,11.67,34.82,11.67,22.18,0,41-12,47.58-28.52,6.58,16.56,25.39,28.52,47.58,28.52s41-12,47.59-28.52c6.57,16.56,25.39,28.52,47.58,28.52s41-12,47.58-28.52c6.58,16.56,25.4,28.52,47.58,28.52s41-12,47.59-28.52c6.58,16.56,25.39,28.52,47.58,28.52s41-12,47.58-28.52c6.58,16.56,25.4,28.52,47.58,28.52s41-12,47.59-28.52c6.58,16.56,25.39,28.52,47.58,28.52s41-12,47.58-28.52c6.58,16.56,25.4,28.52,47.59,28.52s41-12,47.58-28.52c6.58,16.56,25.39,28.52,47.58,28.52s41-12,47.58-28.52c6.58,16.56,25.4,28.52,47.59,28.52s41-12,47.58-28.52c6.58,16.56,25.39,28.52,47.58,28.52s41-12,47.59-28.52c6.58,16.56,25.39,28.52,47.58,28.52s41-12,47.58-28.52c6.58,16.56,25.39,28.52,47.58,28.52s41-12,47.58-28.52c6.59,16.56,25.4,28.52,47.59,28.52s41-12,47.58-28.52c6.58,16.56,25.4,28.52,47.59,28.52s41-12,47.58-28.52c6.58,16.56,25.39,28.52,47.58,28.52s41-12,47.58-28.52c6.58,16.56,25.4,28.52,47.59,28.52s41-12,47.58-28.52c6.58,16.56,25.39,28.52,47.58,28.52s41-12,47.58-28.52c6.58,16.56,25.4,28.52,47.59,28.52s41-12,47.58-28.52c6.58,16.56,25.39,28.52,47.58,28.52s41-12,47.59-28.52c6.58,16.56,25.39,28.52,47.58,28.52C1954.78,928.55,1969,922.39,1978.15,912.79Z"/><rect class="cls-17" x="0.73" y="866.93" width="1977.42" height="9.87"/><path class="cls-18" d="M93.08,1004.59c14.11,0,25.63-9.54,25.63-21.24S107.19,962.1,93.08,962.1s-25.63,9.54-25.63,21.25S79,1004.59,93.08,1004.59Z"/><path class="cls-19" d="M93.08,1004.59c14.11,0,25.63-9.54,25.63-21.24S107.19,962.1,93.08,962.1s-25.63,9.54-25.63,21.25S79,1004.59,93.08,1004.59Z"/><path class="cls-14" d="M67.54,985.21c1.14-10.86,12.14-19.38,25.54-19.38s24.39,8.52,25.53,19.38c.06-.61.1-1.24.1-1.86,0-11.74-11.48-21.25-25.63-21.25s-25.63,9.51-25.63,21.25C67.45,984,67.48,984.6,67.54,985.21Z"/><path class="cls-20" d="M328.65,1013.15c5.82,0,10.56-3.93,10.56-8.76s-4.74-8.76-10.56-8.76-10.57,3.93-10.57,8.76S322.83,1013.15,328.65,1013.15Z"/><path class="cls-19" d="M328.65,1013.15c5.82,0,10.56-3.93,10.56-8.76s-4.74-8.76-10.56-8.76-10.57,3.93-10.57,8.76S322.83,1013.15,328.65,1013.15Z"/><path class="cls-14" d="M318.12,1005.16c.47-4.48,5-8,10.53-8s10.05,3.51,10.52,8a6.51,6.51,0,0,0,0-.77c0-4.84-4.73-8.76-10.56-8.76s-10.57,3.92-10.57,8.76A6.51,6.51,0,0,0,318.12,1005.16Z"/><path class="cls-21" d="M698.91,1000.15c11.16,0,20.27-7.55,20.27-16.8s-9.11-16.81-20.27-16.81-20.27,7.55-20.27,16.81S687.74,1000.15,698.91,1000.15Z"/><path class="cls-19" d="M698.91,1000.15c11.16,0,20.27-7.55,20.27-16.8s-9.11-16.81-20.27-16.81-20.27,7.55-20.27,16.81S687.74,1000.15,698.91,1000.15Z"/><path class="cls-14" d="M678.71,984.82c.9-8.59,9.6-15.33,20.2-15.33s19.29,6.74,20.19,15.33a12,12,0,0,0,.08-1.47c0-9.28-9.07-16.81-20.27-16.81s-20.28,7.53-20.28,16.81A14.32,14.32,0,0,0,678.71,984.82Z"/><path class="cls-18" d="M1906.41,1025.64c14.12,0,25.63-9.55,25.63-21.25s-11.51-21.25-25.63-21.25-25.63,9.55-25.63,21.25S1892.3,1025.64,1906.41,1025.64Z"/><path class="cls-19" d="M1906.41,1025.64c14.12,0,25.63-9.55,25.63-21.25s-11.51-21.25-25.63-21.25-25.63,9.55-25.63,21.25S1892.3,1025.64,1906.41,1025.64Z"/><path class="cls-14" d="M1932,1006.26c-1.14-10.86-12.14-19.38-25.54-19.38s-24.39,8.52-25.53,19.38a16.61,16.61,0,0,1-.1-1.87c0-11.73,11.48-21.25,25.63-21.25s25.63,9.52,25.63,21.25C1932,1005,1932,1005.64,1932,1006.26Z"/><path class="cls-22" d="M1547.28,1014.16c20.47,0,37.17-13.84,37.17-30.81s-16.7-30.82-37.17-30.82-37.17,13.84-37.17,30.82S1526.8,1014.16,1547.28,1014.16Z"/><path class="cls-19" d="M1547.28,1014.16c20.47,0,37.17-13.84,37.17-30.81s-16.7-30.82-37.17-30.82-37.17,13.84-37.17,30.82S1526.8,1014.16,1547.28,1014.16Z"/><path class="cls-14" d="M1584.3,986.05c-1.65-15.75-17.6-28.11-37-28.11s-35.38,12.36-37,28.11a24.17,24.17,0,0,1-.14-2.7c0-17,16.64-30.82,37.17-30.82s37.17,13.8,37.17,30.82A24.16,24.16,0,0,1,1584.3,986.05Z"/><path class="cls-23" d="M1311.7,1019.41c10,0,18.12-6.75,18.12-15s-8.13-15-18.12-15-18.12,6.75-18.12,15S1301.72,1019.41,1311.7,1019.41Z"/><path class="cls-19" d="M1311.7,1019.41c10,0,18.12-6.75,18.12-15s-8.13-15-18.12-15-18.12,6.75-18.12,15S1301.72,1019.41,1311.7,1019.41Z"/><path class="cls-14" d="M1329.76,1005.71C1329,998,1321.18,992,1311.7,992s-17.25,6-18,13.71a11.43,11.43,0,0,1-.07-1.32c0-8.3,8.11-15,18.12-15s18.12,6.72,18.12,15Q1329.82,1005.07,1329.76,1005.71Z"/><path class="cls-18" d="M1194.88,1004.59c14.12,0,25.64-9.54,25.64-21.24S1209,962.1,1194.88,962.1s-25.63,9.54-25.63,21.25S1180.77,1004.59,1194.88,1004.59Z"/><path class="cls-19" d="M1194.88,1004.59c14.12,0,25.64-9.54,25.64-21.24S1209,962.1,1194.88,962.1s-25.63,9.54-25.63,21.25S1180.77,1004.59,1194.88,1004.59Z"/><path class="cls-14" d="M1220.42,985.21c-1.14-10.86-12.14-19.38-25.54-19.38s-24.39,8.52-25.53,19.38c-.06-.61-.1-1.24-.1-1.86,0-11.74,11.48-21.25,25.63-21.25s25.64,9.51,25.64,21.25C1220.52,984,1220.48,984.6,1220.42,985.21Z"/><path class="cls-24" d="M934.48,1035.81c20.88,0,37.91-14.11,37.91-31.42S955.36,973,934.48,973s-37.9,14.11-37.9,31.42S913.6,1035.81,934.48,1035.81Z"/><path class="cls-19" d="M934.48,1035.81c20.88,0,37.91-14.11,37.91-31.42S955.36,973,934.48,973s-37.9,14.11-37.9,31.42S913.6,1035.81,934.48,1035.81Z"/><path class="cls-14" d="M972.24,1007.15c-1.68-16.06-18-28.67-37.76-28.67s-36.08,12.61-37.76,28.67a25.25,25.25,0,0,1-.15-2.76c0-17.35,17-31.42,37.91-31.42s37.9,14.07,37.9,31.42A25.25,25.25,0,0,1,972.24,1007.15Z"/><path class="cls-18" d="M500,1028c14.12,0,25.63-9.55,25.63-21.25S514.16,985.45,500,985.45s-25.63,9.55-25.63,21.25S485.92,1028,500,1028Z"/><path class="cls-19" d="M500,1028c14.12,0,25.63-9.55,25.63-21.25S514.16,985.45,500,985.45s-25.63,9.55-25.63,21.25S485.92,1028,500,1028Z"/><path class="cls-14" d="M474.5,1008.57c1.14-10.86,12.14-19.38,25.54-19.38s24.39,8.52,25.53,19.38c.06-.62.1-1.24.1-1.87,0-11.73-11.48-21.24-25.63-21.24s-25.63,9.51-25.63,21.24C474.41,1007.33,474.44,1008,474.5,1008.57Z"/><path class="cls-25" d="M396.73,983.4c8.44,0,15.32-5.71,15.32-12.7S405.17,958,396.73,958s-15.32,5.71-15.32,12.71S388.29,983.4,396.73,983.4Z"/><path class="cls-19" d="M396.73,983.4c8.44,0,15.32-5.71,15.32-12.7S405.17,958,396.73,958s-15.32,5.71-15.32,12.71S388.29,983.4,396.73,983.4Z"/><path class="cls-14" d="M381.46,971.81c.69-6.49,7.26-11.59,15.27-11.59s14.58,5.1,15.26,11.59a10.32,10.32,0,0,0,.06-1.11c0-7-6.86-12.71-15.32-12.71s-15.33,5.69-15.33,12.71C381.4,971.07,381.43,971.44,381.46,971.81Z"/><path class="cls-26" d="M1084.75,1022.05c11.73,0,21.29-7.93,21.29-17.66s-9.56-17.66-21.29-17.66-21.31,7.93-21.31,17.66S1073,1022.05,1084.75,1022.05Z"/><path class="cls-19" d="M1084.75,1022.05c11.73,0,21.29-7.93,21.29-17.66s-9.56-17.66-21.29-17.66-21.31,7.93-21.31,17.66S1073,1022.05,1084.75,1022.05Z"/><path class="cls-14" d="M1106,1005.94c-1-9-10.08-16.11-21.21-16.11s-20.28,7.09-21.23,16.11c0-.51-.08-1-.08-1.55,0-9.75,9.54-17.66,21.31-17.66s21.29,7.91,21.29,17.66A13.3,13.3,0,0,1,1106,1005.94Z"/><path class="cls-27" d="M1733.12,995.31c8,0,14.43-5.38,14.43-12s-6.48-12-14.43-12-14.44,5.38-14.44,12S1725.16,995.31,1733.12,995.31Z"/><path class="cls-19" d="M1733.12,995.31c8,0,14.43-5.38,14.43-12s-6.48-12-14.43-12-14.44,5.38-14.44,12S1725.16,995.31,1733.12,995.31Z"/><path class="cls-14" d="M1747.49,984.4c-.64-6.12-6.83-10.92-14.37-10.92s-13.74,4.8-14.38,10.92a9.24,9.24,0,0,1-.06-1c0-6.61,6.46-12,14.44-12s14.43,5.36,14.43,12A9.24,9.24,0,0,1,1747.49,984.4Z"/><path class="cls-27" d="M1657.55,1027.42c7.94,0,14.43-5.38,14.43-12s-6.49-12-14.43-12-14.43,5.37-14.43,12S1649.6,1027.42,1657.55,1027.42Z"/><path class="cls-19" d="M1657.55,1027.42c7.94,0,14.43-5.38,14.43-12s-6.49-12-14.43-12-14.43,5.37-14.43,12S1649.6,1027.42,1657.55,1027.42Z"/><path class="cls-14" d="M1671.92,1016.51c-.64-6.12-6.83-10.92-14.37-10.92s-13.74,4.8-14.38,10.92a9.29,9.29,0,0,1-.05-1.06c0-6.6,6.46-12,14.43-12s14.43,5.36,14.43,12A9.28,9.28,0,0,1,1671.92,1016.51Z"/><rect class="cls-28" x="1454.86" y="744.1" width="100.99" height="119.75"/><rect class="cls-29" x="1505.36" y="744.1" width="50.49" height="119.75"/><path class="cls-30" d="M1505.28,442.72h0c110.06,0,200.11,74.64,200.11,165.87V769.44c0,23-23,41.7-51.39,41.7-23.83,0-43.86-13.16-49.68-31-5.82,17.85-25.86,31-49.69,31-24.1,0-44.35-13.49-49.88-31.67-5.54,18.18-25.78,31.67-49.89,31.67-23.82,0-43.86-13.16-49.68-31-5.82,17.85-25.86,31-49.68,31-28.38,0-51.39-18.67-51.39-41.7,0-86.46,1.07-74.37,1.07-160.85C1305.18,517.35,1395.22,442.72,1505.28,442.72Z"/><path class="cls-15" d="M1454.86,721.07c-23.82,0-43.86-13.16-49.68-31-5.82,17.85-25.86,31-49.68,31-25.74,0-47.07-15.37-50.81-35.42-.28,19.82-.58,38-.58,83.79,0,23,23,41.7,51.39,41.7,23.82,0,43.86-13.17,49.68-31,5.82,17.84,25.86,31,49.68,31,24.11,0,44.35-13.48,49.89-31.67,5.53,18.19,25.78,31.67,49.88,31.67,23.83,0,43.87-13.17,49.69-31,5.82,17.84,25.85,31,49.68,31,28.37,0,51.39-18.68,51.39-41.7V679.37c0,23-23,41.7-51.39,41.7-23.83,0-43.86-13.16-49.68-31-5.82,17.85-25.86,31-49.69,31-24.1,0-44.35-13.48-49.88-31.66C1499.21,707.59,1479,721.07,1454.86,721.07Z"/><path class="cls-31" d="M1405.18,690.06c5.82,17.85,25.86,31,49.68,31,24.11,0,44.35-13.48,49.89-31.66,5.53,18.18,25.78,31.66,49.88,31.66,23.83,0,43.87-13.16,49.69-31,5.82,17.85,25.85,31,49.68,31,28.37,0,51.39-18.67,51.39-41.7V608.58a137.91,137.91,0,0,0-3.19-29.46c-7.26,15.89-26.1,27.22-48.2,27.22-23.83,0-43.86-13.17-49.68-31-5.82,17.84-25.86,31-49.69,31-24.1,0-44.35-13.49-49.88-31.67-5.54,18.18-25.77,31.67-49.89,31.67-23.82,0-43.86-13.17-49.68-31-5.82,17.84-25.86,31-49.68,31-21.39,0-39.73-10.61-47.46-25.69a137.63,137.63,0,0,0-2.86,27.93c0,40.64-.24,59.51-.49,77.07,3.74,20.05,25.07,35.42,50.81,35.42C1379.32,721.07,1399.36,707.91,1405.18,690.06Z"/><path class="cls-32" d="M1405.18,575.33c5.82,17.84,25.86,31,49.68,31,24.12,0,44.35-13.49,49.89-31.67,5.53,18.18,25.78,31.67,49.88,31.67,23.83,0,43.87-13.17,49.69-31,5.82,17.84,25.85,31,49.68,31,22.1,0,40.94-11.33,48.2-27.22-8.33-38.09-32.49-71.77-66.57-96.13-5.11,10.1-17.35,17.21-31.63,17.21-15.84,0-29.17-8.76-33-20.62-3.87,11.86-17.19,20.62-33,20.62-16,0-29.49-9-33.17-21.06-3.68,12.09-17.15,21.06-33.18,21.06-15.84,0-29.17-8.76-33-20.62-3.87,11.86-17.19,20.62-33,20.62-14,0-26.07-6.85-31.34-16.66C1340,508.18,1316,542.21,1308,580.65c7.73,15.08,26.07,25.69,47.46,25.69C1379.32,606.34,1399.36,593.17,1405.18,575.33Z"/><path class="cls-10" d="M1505.28,442.71h0c110.06,0,200.11,74.66,200.11,165.87V769.44c0,23-23,41.7-51.39,41.7-19.19,0-35.92-8.54-44.74-21.18a35.65,35.65,0,0,0,6.65-20.52V608.58c0-78.48-66.67-144.7-155.38-161.66A238.56,238.56,0,0,1,1505.28,442.71Z"/><rect class="cls-28" x="1130.03" y="769.63" width="79.46" height="94.21"/><rect class="cls-29" x="1169.76" y="769.63" width="39.73" height="94.21"/><path class="cls-30" d="M1169.7,532.51h0c86.59,0,157.43,58.73,157.43,130.51V789.57c0,18.12-18.1,32.81-40.43,32.81-18.74,0-34.5-10.36-39.08-24.4-4.58,14-20.35,24.4-39.09,24.4-19,0-34.89-10.61-39.25-24.91-4.35,14.3-20.28,24.91-39.25,24.91-18.74,0-34.51-10.36-39.09-24.4-4.58,14-20.34,24.4-39.08,24.4-22.33,0-40.43-14.69-40.43-32.81,0-68,.83-58.51.83-126.55C1012.26,591.23,1083.11,532.51,1169.7,532.51Z"/><path class="cls-15" d="M1130,751.52c-18.74,0-34.51-10.36-39.09-24.4-4.58,14-20.34,24.4-39.08,24.4-20.26,0-37-12.1-40-27.87-.22,15.59-.45,29.86-.45,65.92,0,18.11,18.1,32.81,40.43,32.81,18.74,0,34.5-10.36,39.08-24.4,4.58,14,20.35,24.4,39.09,24.4,19,0,34.9-10.61,39.25-24.91,4.36,14.3,20.28,24.91,39.25,24.91,18.74,0,34.51-10.36,39.09-24.4,4.58,14,20.34,24.4,39.08,24.4,22.33,0,40.43-14.7,40.43-32.81V718.71c0,18.11-18.1,32.81-40.43,32.81-18.74,0-34.5-10.36-39.08-24.4-4.58,14-20.35,24.4-39.09,24.4-19,0-34.89-10.61-39.25-24.92C1164.93,740.91,1149,751.52,1130,751.52Z"/><path class="cls-31" d="M1090.94,727.12c4.58,14,20.35,24.4,39.09,24.4,19,0,34.9-10.61,39.25-24.92,4.36,14.31,20.28,24.92,39.25,24.92,18.74,0,34.51-10.36,39.09-24.4,4.58,14,20.34,24.4,39.08,24.4,22.33,0,40.43-14.7,40.43-32.81V663a108.15,108.15,0,0,0-2.5-23.18c-5.71,12.51-20.54,21.42-37.93,21.42-18.74,0-34.5-10.36-39.08-24.4-4.58,14-20.35,24.4-39.09,24.4-19,0-34.89-10.61-39.25-24.92-4.35,14.31-20.28,24.92-39.25,24.92-18.75,0-34.51-10.36-39.09-24.4-4.58,14-20.34,24.4-39.08,24.4-16.83,0-31.26-8.35-37.35-20.22a109.05,109.05,0,0,0-2.25,22c0,32-.18,46.82-.38,60.64,2.94,15.77,19.72,27.87,40,27.87C1070.6,751.52,1086.36,741.16,1090.94,727.12Z"/><path class="cls-32" d="M1090.94,636.85c4.58,14,20.34,24.4,39.09,24.4,19,0,34.9-10.61,39.25-24.92,4.36,14.31,20.28,24.92,39.25,24.92,18.74,0,34.51-10.36,39.09-24.4,4.58,14,20.34,24.4,39.08,24.4,17.39,0,32.22-8.91,37.93-21.42-6.55-30-25.56-56.46-52.38-75.63-4,7.94-13.65,13.54-24.88,13.54-12.46,0-22.95-6.89-26-16.23-3,9.34-13.52,16.23-26,16.23s-23.21-7.06-26.1-16.57c-2.89,9.51-13.49,16.57-26.1,16.57s-23-6.89-26-16.23c-3,9.34-13.53,16.23-26,16.23-11,0-20.51-5.39-24.65-13.11-26.86,19.39-45.77,46.16-52,76.4,6.09,11.87,20.52,20.22,37.35,20.22C1070.6,661.25,1086.36,650.89,1090.94,636.85Z"/><path class="cls-10" d="M1169.7,532.51h0c86.59,0,157.43,58.73,157.43,130.5V789.57c0,18.11-18.1,32.81-40.43,32.81-15.09,0-28.25-6.72-35.19-16.67a28,28,0,0,0,5.23-16.14V663c0-61.75-52.45-113.84-122.24-127.19A187.86,187.86,0,0,1,1169.7,532.51Z"/><rect class="cls-28" x="468.87" y="759.61" width="87.91" height="104.24"/><rect class="cls-29" x="512.83" y="759.61" width="43.96" height="104.24"/><path class="cls-30" d="M512.76,497.25h0c95.81,0,174.19,65,174.19,144.39v140c0,20.05-20,36.31-44.74,36.31C621.48,818,604,806.51,599,791c-5.06,15.54-22.51,27-43.25,27-21,0-38.61-11.74-43.42-27.57C507.48,806.23,489.86,818,468.87,818c-20.74,0-38.18-11.46-43.25-27-5.06,15.54-22.5,27-43.24,27-24.7,0-44.73-16.26-44.73-36.31,0-75.26.92-64.73.92-140C338.57,562.23,417,497.25,512.76,497.25Z"/><path class="cls-15" d="M468.87,739.56c-20.74,0-38.18-11.46-43.25-27-5.06,15.53-22.5,27-43.24,27-22.41,0-41-13.38-44.23-30.83-.24,17.25-.5,33-.5,72.93,0,20.05,20,36.31,44.73,36.31,20.74,0,38.18-11.46,43.24-27,5.07,15.54,22.51,27,43.25,27,21,0,38.61-11.74,43.42-27.57,4.82,15.83,22.45,27.57,43.43,27.57,20.74,0,38.18-11.46,43.25-27,5.07,15.54,22.51,27,43.25,27,24.7,0,44.73-16.26,44.73-36.31v-78.4c0,20-20,36.3-44.73,36.3-20.74,0-38.18-11.46-43.25-27-5.07,15.53-22.51,27-43.25,27-21,0-38.61-11.73-43.43-27.56C507.48,727.83,489.86,739.56,468.87,739.56Z"/><path class="cls-31" d="M425.62,712.57c5.07,15.53,22.51,27,43.25,27,21,0,38.61-11.73,43.42-27.56,4.82,15.83,22.45,27.56,43.43,27.56,20.74,0,38.18-11.46,43.25-27,5.07,15.53,22.51,27,43.25,27,24.7,0,44.73-16.25,44.73-36.3V641.64A119.88,119.88,0,0,0,684.18,616c-6.32,13.83-22.72,23.69-42,23.69-20.74,0-38.18-11.46-43.25-27-5.07,15.54-22.51,27-43.25,27-21,0-38.61-11.74-43.43-27.57-4.81,15.83-22.43,27.57-43.42,27.57-20.74,0-38.18-11.46-43.25-27-5.06,15.54-22.5,27-43.24,27-18.62,0-34.59-9.24-41.32-22.37a120.38,120.38,0,0,0-2.49,24.32c0,35.38-.2,51.81-.42,67.09,3.25,17.45,21.82,30.83,44.23,30.83C403.12,739.56,420.56,728.1,425.62,712.57Z"/><path class="cls-32" d="M425.62,612.69c5.07,15.54,22.51,27,43.25,27,21,0,38.61-11.74,43.42-27.57,4.82,15.83,22.45,27.57,43.43,27.57,20.74,0,38.18-11.46,43.25-27,5.07,15.54,22.51,27,43.25,27,19.24,0,35.64-9.86,42-23.69-7.25-33.16-28.28-62.48-57.95-83.69-4.45,8.79-15.1,15-27.53,15-13.79,0-25.39-7.62-28.77-17.95-3.36,10.33-15,17.95-28.76,17.95s-25.67-7.8-28.88-18.33c-3.19,10.53-14.92,18.33-28.87,18.33-13.79,0-25.4-7.62-28.76-17.95-3.38,10.33-15,17.95-28.76,17.95-12.2,0-22.69-6-27.28-14.5-29.71,21.46-50.64,51.08-57.56,84.53,6.73,13.13,22.7,22.37,41.32,22.37C403.12,639.69,420.56,628.23,425.62,612.69Z"/><path class="cls-10" d="M512.76,497.25h0c95.8,0,174.19,65,174.19,144.39v140c0,20.05-20,36.31-44.73,36.31-16.7,0-31.26-7.44-39-18.44a31,31,0,0,0,5.79-17.87v-140c0-68.32-58-126-135.25-140.72A207.14,207.14,0,0,1,512.76,497.25Z"/><rect class="cls-28" x="1767.35" y="763.09" width="84.98" height="100.76"/><rect class="cls-29" x="1809.84" y="763.09" width="42.49" height="100.76"/><path class="cls-30" d="M1809.77,509.48h0c92.61,0,168.38,62.82,168.38,139.58V784.41c0,19.37-19.37,35.08-43.25,35.08-20,0-36.9-11.07-41.8-26.09-4.89,15-21.75,26.09-41.8,26.09-20.29,0-37.32-11.34-42-26.64-4.66,15.3-21.69,26.64-42,26.64-20,0-36.91-11.07-41.8-26.09-4.9,15-21.76,26.09-41.8,26.09-23.89,0-43.24-15.71-43.24-35.08,0-72.75.89-62.58.89-135.35C1641.39,572.29,1717.16,509.48,1809.77,509.48Z"/><path class="cls-15" d="M1767.34,743.71c-20,0-36.9-11.08-41.8-26.09-4.9,15-21.76,26.09-41.8,26.09-21.66,0-39.61-12.93-42.76-29.8-.23,16.67-.48,31.93-.48,70.5,0,19.37,19.36,35.08,43.24,35.08,20,0,36.9-11.07,41.8-26.09,4.9,15,21.76,26.09,41.8,26.09,20.29,0,37.32-11.34,42-26.64,4.66,15.3,21.69,26.64,42,26.64,20,0,36.91-11.07,41.8-26.09,4.9,15,21.76,26.09,41.81,26.09,23.87,0,43.24-15.71,43.24-35.08V708.62c0,19.38-19.37,35.09-43.24,35.09-20.05,0-36.91-11.08-41.81-26.09-4.89,15-21.75,26.09-41.8,26.09-20.29,0-37.32-11.35-42-26.65C1804.66,732.36,1787.63,743.71,1767.34,743.71Z"/><path class="cls-31" d="M1725.54,717.62c4.9,15,21.76,26.09,41.8,26.09,20.29,0,37.32-11.35,42-26.65,4.66,15.3,21.69,26.65,42,26.65,20,0,36.91-11.08,41.8-26.09,4.9,15,21.76,26.09,41.81,26.09,23.87,0,43.24-15.71,43.24-35.09V649.05a115.77,115.77,0,0,0-2.68-24.78c-6.11,13.37-22,22.89-40.56,22.89-20.05,0-36.91-11.07-41.81-26.09-4.89,15-21.75,26.09-41.8,26.09-20.29,0-37.32-11.34-42-26.64-4.66,15.3-21.69,26.64-42,26.64-20,0-36.9-11.07-41.8-26.09-4.9,15-21.76,26.09-41.8,26.09-18,0-33.43-8.92-40-21.62a116.83,116.83,0,0,0-2.4,23.51c0,34.2-.2,50.08-.41,64.86,3.15,16.87,21.1,29.8,42.76,29.8C1703.78,743.71,1720.64,732.63,1725.54,717.62Z"/><path class="cls-32" d="M1725.54,621.07c4.9,15,21.75,26.09,41.8,26.09,20.29,0,37.32-11.34,42-26.64,4.66,15.3,21.69,26.64,42,26.64,20,0,36.91-11.07,41.8-26.09,4.9,15,21.76,26.09,41.81,26.09,18.59,0,34.45-9.52,40.56-22.89-7-32.06-27.34-60.4-56-80.9-4.3,8.5-14.6,14.48-26.61,14.48-13.33,0-24.54-7.36-27.8-17.35-3.26,10-14.47,17.35-27.81,17.35s-24.82-7.54-27.91-17.72c-3.1,10.18-14.43,17.72-27.91,17.72s-24.55-7.36-27.8-17.35c-3.26,10-14.47,17.35-27.8,17.35-11.79,0-21.94-5.76-26.38-14-28.71,20.73-49,49.36-55.64,81.7,6.52,12.7,22,21.62,40,21.62C1703.78,647.16,1720.64,636.09,1725.54,621.07Z"/><path class="cls-10" d="M1809.77,509.48h0c92.61,0,168.38,62.82,168.38,139.57V784.41c0,19.37-19.37,35.08-43.24,35.08-16.15,0-30.22-7.18-37.65-17.82a29.92,29.92,0,0,0,5.6-17.26V649.05c0-66-56.1-121.75-130.74-136A200.91,200.91,0,0,1,1809.77,509.48Z"/><rect class="cls-28" x="150.75" y="744.1" width="100.99" height="119.75"/><rect class="cls-29" x="201.24" y="744.1" width="50.5" height="119.75"/><path class="cls-30" d="M201.17,442.72h0c110.06,0,200.1,74.64,200.1,165.87V769.44c0,23-23,41.7-51.39,41.7-23.82,0-43.86-13.16-49.67-31-5.83,17.85-25.86,31-49.69,31-24.1,0-44.35-13.49-49.88-31.67-5.54,18.18-25.78,31.67-49.89,31.67-23.82,0-43.86-13.16-49.68-31-5.83,17.85-25.86,31-49.68,31C23,811.14,0,792.47,0,769.44,0,683,1.06,695.07,1.06,608.59,1.06,517.35,91.11,442.72,201.17,442.72Z"/><path class="cls-15" d="M150.75,721.07c-23.82,0-43.86-13.16-49.68-31-5.83,17.85-25.86,31-49.68,31-25.75,0-47.07-15.37-50.81-35.42C.3,705.47,0,723.6,0,769.44c0,23,23,41.7,51.39,41.7,23.82,0,43.85-13.17,49.68-31,5.82,17.84,25.86,31,49.68,31,24.1,0,44.35-13.48,49.88-31.67,5.54,18.19,25.79,31.67,49.89,31.67,23.83,0,43.86-13.17,49.69-31,5.82,17.84,25.85,31,49.67,31,28.38,0,51.39-18.68,51.39-41.7V679.37c0,23-23,41.7-51.39,41.7-23.82,0-43.85-13.16-49.67-31-5.83,17.85-25.86,31-49.69,31-24.1,0-44.35-13.48-49.89-31.66C195.1,707.59,174.85,721.07,150.75,721.07Z"/><path class="cls-31" d="M101.07,690.06c5.82,17.85,25.86,31,49.68,31,24.1,0,44.35-13.48,49.88-31.66,5.54,18.18,25.79,31.66,49.89,31.66,23.83,0,43.86-13.16,49.69-31,5.82,17.85,25.85,31,49.67,31,28.38,0,51.39-18.67,51.39-41.7V608.58a137.9,137.9,0,0,0-3.18-29.46C390.83,595,372,606.34,349.88,606.34c-23.82,0-43.85-13.17-49.67-31-5.83,17.84-25.86,31-49.69,31-24.1,0-44.35-13.49-49.89-31.67-5.53,18.18-25.77,31.67-49.88,31.67-23.83,0-43.86-13.17-49.68-31-5.83,17.84-25.86,31-49.68,31-21.39,0-39.73-10.61-47.47-25.69a138.35,138.35,0,0,0-2.86,27.93c0,40.64-.23,59.51-.48,77.07,3.74,20.05,25.06,35.42,50.81,35.42C75.21,721.07,95.24,707.91,101.07,690.06Z"/><path class="cls-32" d="M101.07,575.33c5.82,17.84,25.85,31,49.68,31,24.11,0,44.35-13.49,49.88-31.67,5.54,18.18,25.79,31.67,49.89,31.67,23.83,0,43.86-13.17,49.69-31,5.82,17.84,25.85,31,49.67,31,22.1,0,40.95-11.33,48.21-27.22C389.76,541,365.6,507.35,331.52,483c-5.11,10.1-17.35,17.21-31.63,17.21-15.84,0-29.17-8.76-33-20.62-3.87,11.86-17.2,20.62-33,20.62-16,0-29.5-9-33.18-21.06-3.67,12.09-17.14,21.06-33.17,21.06-15.84,0-29.17-8.76-33-20.62-3.87,11.86-17.19,20.62-33,20.62-14,0-26.07-6.85-31.34-16.66-34.13,24.64-58.18,58.67-66.13,97.11,7.74,15.08,26.08,25.69,47.47,25.69C75.21,606.34,95.24,593.17,101.07,575.33Z"/><path class="cls-10" d="M201.17,442.71h0c110.05,0,200.1,74.66,200.1,165.87V769.44c0,23-23,41.7-51.39,41.7-19.18,0-35.91-8.54-44.73-21.18a35.64,35.64,0,0,0,6.64-20.52V608.58c0-78.48-66.66-144.7-155.37-161.66A238.56,238.56,0,0,1,201.17,442.71Z"/><rect class="cls-28" x="793.91" y="751.24" width="94.97" height="112.61"/><rect class="cls-29" x="841.39" y="751.24" width="47.48" height="112.61"/><path class="cls-30" d="M841.32,467.83h0c103.49,0,188.17,70.2,188.17,156V775.07c0,21.65-21.64,39.21-48.33,39.21-22.4,0-41.24-12.38-46.71-29.16-5.47,16.78-24.32,29.16-46.72,29.16-22.67,0-41.71-12.68-46.91-29.77-5.21,17.09-24.24,29.77-46.91,29.77-22.41,0-41.25-12.38-46.72-29.16-5.48,16.78-24.32,29.16-46.72,29.16-26.69,0-48.32-17.56-48.32-39.21,0-81.3,1-69.94,1-151.26C653.15,538,737.82,467.83,841.32,467.83Z"/><path class="cls-15" d="M793.91,729.59c-22.41,0-41.25-12.38-46.72-29.16-5.48,16.78-24.32,29.16-46.72,29.16-24.21,0-44.26-14.46-47.78-33.31-.26,18.63-.54,35.69-.54,78.79,0,21.65,21.64,39.21,48.32,39.21,22.4,0,41.24-12.38,46.72-29.16,5.47,16.78,24.31,29.16,46.72,29.16,22.66,0,41.7-12.68,46.9-29.77,5.21,17.09,24.25,29.77,46.92,29.77,22.4,0,41.24-12.38,46.72-29.16,5.47,16.78,24.31,29.16,46.71,29.16,26.69,0,48.33-17.56,48.33-39.21v-84.7c0,21.66-21.64,39.22-48.33,39.22-22.4,0-41.24-12.38-46.71-29.16-5.48,16.78-24.32,29.16-46.72,29.16-22.67,0-41.71-12.68-46.92-29.78C835.61,716.91,816.57,729.59,793.91,729.59Z"/><path class="cls-31" d="M747.19,700.43c5.47,16.78,24.31,29.16,46.72,29.16,22.66,0,41.7-12.68,46.9-29.78,5.21,17.1,24.25,29.78,46.92,29.78,22.4,0,41.24-12.38,46.72-29.16,5.47,16.78,24.31,29.16,46.71,29.16,26.69,0,48.33-17.56,48.33-39.22V623.81a129.39,129.39,0,0,0-3-27.71c-6.82,14.95-24.54,25.6-45.33,25.6-22.4,0-41.24-12.38-46.71-29.16-5.48,16.78-24.32,29.16-46.72,29.16-22.67,0-41.71-12.68-46.92-29.78-5.2,17.1-24.23,29.78-46.9,29.78-22.41,0-41.25-12.38-46.72-29.16-5.48,16.78-24.32,29.16-46.72,29.16-20.11,0-37.36-10-44.63-24.17a129.46,129.46,0,0,0-2.69,26.28c0,38.21-.22,56-.46,72.47,3.52,18.85,23.57,33.31,47.78,33.31C722.87,729.59,741.71,717.21,747.19,700.43Z"/><path class="cls-32" d="M747.19,592.54c5.47,16.78,24.31,29.16,46.72,29.16,22.67,0,41.7-12.68,46.9-29.78C846,609,865.06,621.7,887.73,621.7c22.4,0,41.24-12.38,46.72-29.16,5.47,16.78,24.31,29.16,46.71,29.16,20.79,0,38.51-10.65,45.33-25.6-7.83-35.82-30.55-67.48-62.6-90.4-4.81,9.5-16.31,16.19-29.74,16.19-14.9,0-27.43-8.24-31.07-19.39-3.64,11.15-16.17,19.39-31.07,19.39-15.07,0-27.73-8.44-31.2-19.81-3.45,11.37-16.12,19.81-31.19,19.81-14.9,0-27.43-8.24-31.07-19.39-3.64,11.15-16.17,19.39-31.06,19.39-13.18,0-24.52-6.45-29.47-15.67-32.1,23.17-54.71,55.17-62.18,91.31,7.27,14.19,24.52,24.17,44.63,24.17C722.87,621.7,741.71,609.32,747.19,592.54Z"/><path class="cls-10" d="M841.32,467.83h0c103.49,0,188.17,70.2,188.17,156V775.07c0,21.65-21.64,39.21-48.33,39.21-18,0-33.76-8-42.06-19.92a33.54,33.54,0,0,0,6.25-19.29V623.81c0-73.81-62.69-136.07-146.11-152A223.92,223.92,0,0,1,841.32,467.83Z"/></svg>