<?xml version="1.0" encoding="utf-8"?>
<!-- Generator: Adobe Illustrator 24.2.1, SVG Export Plug-In . SVG Version: 6.00 Build 0)  -->
<svg version="1.1" id="Layer_1" xmlns="http://www.w3.org/2000/svg" xmlns:xlink="http://www.w3.org/1999/xlink" x="0px" y="0px"
	 viewBox="0 0 557.7 106.4" style="enable-background:new 0 0 557.7 106.4;" xml:space="preserve">
<style type="text/css">
	.st0{clip-path:url(#SVGID_2_);}
	.st1{clip-path:url(#SVGID_4_);fill:none;stroke:#792205;stroke-width:11.1221;stroke-miterlimit:22.926;}
	.st2{clip-path:url(#SVGID_4_);fill-rule:evenodd;clip-rule:evenodd;fill:#792205;}
	.st3{clip-path:url(#SVGID_4_);fill:none;stroke:#962A06;stroke-width:11.1221;stroke-miterlimit:22.926;}
	.st4{clip-path:url(#SVGID_4_);fill-rule:evenodd;clip-rule:evenodd;fill:#FFFFFF;}
	.st5{clip-path:url(#SVGID_4_);fill-rule:evenodd;clip-rule:evenodd;fill:#DCB000;}
	.st6{clip-path:url(#SVGID_4_);fill:none;stroke:#FEF500;stroke-width:2.7805;stroke-miterlimit:22.926;}
	.st7{clip-path:url(#SVGID_4_);fill-rule:evenodd;clip-rule:evenodd;fill:#FFCC00;}
	.st8{clip-path:url(#SVGID_4_);fill-rule:evenodd;clip-rule:evenodd;fill:#FEF500;}
	.st9{font-family:'KidGames';}
	.st10{font-size:40px;}
</style>
<g id="Artwork_27_1_">
	<g>
		<defs>
			<rect id="SVGID_1_" x="13" y="12.4" width="519" height="85"/>
		</defs>
		<clipPath id="SVGID_2_">
			<use xlink:href="#SVGID_1_"  style="overflow:visible;"/>
		</clipPath>
		<g class="st0">
			<defs>
				<rect id="SVGID_3_" x="13" y="12.4" width="519" height="85"/>
			</defs>
			<clipPath id="SVGID_4_">
				<use xlink:href="#SVGID_3_"  style="overflow:visible;"/>
			</clipPath>
			<path class="st1" d="M504.6,25.8c-11.1-3.5-26.4-5.7-43.3-5.7H83.7c-16.9,0-32.2,2.2-43.3,5.7c-11.1,3.5-18,8.3-18,13.6v35.4
				c0,5.3,6.9,10.1,18,13.6c11.1,3.5,26.4,5.7,43.3,5.7h377.6c16.9,0,32.2-2.2,43.3-5.7c11.1-3.5,18-8.3,18-13.6V39.4
				C522.6,34.1,515.7,29.3,504.6,25.8z M503.7,74.8c0,3.7-4.8,7-12.5,9.4s-18.3,3.9-30,3.9H83.7c-11.7,0-22.3-1.5-30-3.9
				c-7.7-2.4-12.5-5.8-12.5-9.4V39.4c0-3.7,4.8-7,12.5-9.4c7.7-2.4,18.3-3.9,30-3.9h377.6c11.7,0,22.3,1.5,30,3.9
				c7.7,2.4,12.5,5.8,12.5,9.4V74.8z"/>
			<path class="st2" d="M504.6,25.8c-11.1-3.5-26.4-5.7-43.3-5.7H272.5V26h188.8c11.7,0,22.3,1.5,30,3.9c7.7,2.4,12.5,5.8,12.5,9.4
				v35.4c0,3.7-4.8,7-12.5,9.4s-18.3,3.9-30,3.9H272.5v5.9h188.8c16.9,0,32.2-2.2,43.3-5.7c11.1-3.5,18-8.3,18-13.6V39.4
				C522.6,34.1,515.7,29.3,504.6,25.8"/>
			<path class="st2" d="M83.7,88.1c-11.7,0-22.3-1.5-30-3.9c-7.7-2.4-12.5-5.8-12.5-9.4V39.4c0-3.7,4.8-7,12.5-9.4
				c7.7-2.4,18.3-3.9,30-3.9h188.8v-5.9H83.7c-16.9,0-32.2,2.2-43.3,5.7c-11.1,3.5-18,8.3-18,13.6v35.4c0,5.3,6.9,10.1,18,13.6
				c11.1,3.5,26.4,5.7,43.3,5.7h188.8v-5.9H83.7z"/>
			<path class="st3" d="M504.6,21.3c-11.1-3.5-26.4-5.7-43.3-5.7H83.7c-16.9,0-32.2,2.2-43.3,5.7c-11.1,3.5-18,8.3-18,13.6v35.4
				c0,5.3,6.9,10.1,18,13.6c11.1,3.5,26.4,5.7,43.3,5.7h377.6c16.9,0,32.2-2.2,43.3-5.7c11.1-3.5,18-8.3,18-13.6V34.9
				C522.6,29.6,515.7,24.8,504.6,21.3z M503.7,70.3c0,3.7-4.8,7-12.5,9.4c-7.7,2.4-18.3,3.9-30,3.9H83.7c-11.7,0-22.3-1.5-30-3.9
				c-7.7-2.4-12.5-5.8-12.5-9.4V34.9c0-3.7,4.8-7,12.5-9.4c7.7-2.4,18.3-3.9,30-3.9h377.6c11.7,0,22.3,1.5,30,3.9
				c7.7,2.4,12.5,5.8,12.5,9.4V70.3z"/>
			<path class="st4" d="M83.7,83.7c-11.7,0-22.3-1.5-30-3.9c-7.7-2.4-12.5-5.8-12.5-9.4V34.9c0-3.7,4.8-7,12.5-9.4
				c7.7-2.4,18.3-3.9,30-3.9h188.8v-5.9H83.7c-16.9,0-32.2,2.2-43.3,5.7c-11.1,3.5-18,8.3-18,13.6v35.4c0,5.3,6.9,10.1,18,13.6
				c11.1,3.5,26.4,5.7,43.3,5.7h188.8v-5.9H83.7z"/>
			<path class="st4" d="M504.6,21.3c-11.1-3.5-26.4-5.7-43.3-5.7H272.5v5.9h188.8c11.7,0,22.3,1.5,30,3.9c7.7,2.4,12.5,5.8,12.5,9.4
				v35.4c0,3.7-4.8,7-12.5,9.4c-7.7,2.4-18.3,3.9-30,3.9H272.5v5.9h188.8c16.9,0,32.2-2.2,43.3-5.7c11.1-3.5,18-8.3,18-13.6V34.9
				C522.6,29.6,515.7,24.8,504.6,21.3"/>
			<path class="st5" d="M466.2,18.6H78.8c-25.8,0-47,7.3-47,16.3v35.4c0,9,21.1,16.3,47,16.3h387.4c25.8,0,46.9-7.3,46.9-16.3V34.9
				C513.1,26,492,18.6,466.2,18.6"/>
			<path class="st6" d="M458.2,21.9H86.8c-21.6,0-39.3,6.2-39.3,13.7v29.6c0,7.5,17.7,13.7,39.3,13.7h371.3
				c21.6,0,39.3-6.2,39.3-13.7V35.6C497.5,28,479.8,21.9,458.2,21.9z"/>
			<path class="st7" d="M458.2,21.9H86.8c-21.6,0-39.3,6.2-39.3,13.7v29.6c0,7.5,17.7,13.7,39.3,13.7h371.3
				c21.6,0,39.3-6.2,39.3-13.7V35.6C497.5,28,479.8,21.9,458.2,21.9"/>
			<path class="st8" d="M458.2,75.8H86.8c-21.6,0-39.3-6.2-39.3-13.7v3.1c0,7.5,17.7,13.7,39.3,13.7h371.3
				c21.6,0,39.3-6.2,39.3-13.7v-3.1C497.5,69.6,479.8,75.8,458.2,75.8"/>
		</g>
	</g>
</g>
<text transform="matrix(1 0 0 1 124.0508 63.5603)" class="st9 st10">ADD PICTURE</text>
</svg>
