<svg id="Layer_1" data-name="Layer 1" xmlns="http://www.w3.org/2000/svg" xmlns:xlink="http://www.w3.org/1999/xlink" viewBox="0 0 557.68 106.36"><defs><style>.cls-1,.cls-4,.cls-6,.cls-9{fill:none;}.cls-2{clip-path:url(#clip-path);}.cls-3{clip-path:url(#clip-path-2);}.cls-4{stroke:#792205;}.cls-4,.cls-6,.cls-9{stroke-miterlimit:22.93;}.cls-4,.cls-6{stroke-width:11.12px;}.cls-5{fill:#792205;}.cls-10,.cls-11,.cls-5,.cls-7,.cls-8{fill-rule:evenodd;}.cls-6{stroke:#962a06;}.cls-7{fill:#fff;}.cls-8{fill:#dcb000;}.cls-9{stroke:#fef500;stroke-width:2.78px;}.cls-10{fill:#fc0;}.cls-11{fill:#fef500;}.cls-12{font-size:40px;font-family:KidGames, Kid Games;}.cls-13{letter-spacing:-0.03em;}.cls-14{letter-spacing:-0.03em;}</style><clipPath id="clip-path"><rect class="cls-1" x="13" y="12.36" width="519" height="85"/></clipPath><clipPath id="clip-path-2"><rect class="cls-1" x="13" y="12.36" width="519" height="85"/></clipPath></defs><g id="Artwork_27" data-name="Artwork 27"><g class="cls-2"><g class="cls-3"><path class="cls-4" d="M504.57,25.76c-11.1-3.5-26.43-5.67-43.29-5.67H83.72c-16.87,0-32.19,2.17-43.29,5.67s-18,8.32-18,13.63V74.78c0,5.31,6.89,10.13,18,13.63s26.42,5.67,43.29,5.67H461.28c16.86,0,32.19-2.17,43.29-5.67s18-8.32,18-13.63V39.39C522.57,34.08,515.67,29.25,504.57,25.76Zm-.86,49c0,3.67-4.77,7-12.47,9.43s-18.29,3.93-30,3.93H83.72c-11.66,0-22.27-1.51-30-3.93s-12.47-5.76-12.47-9.43V39.39c0-3.67,4.78-7,12.47-9.43S72.06,26,83.72,26H461.28c11.67,0,22.27,1.5,30,3.93s12.47,5.76,12.47,9.43Z"/><path class="cls-5" d="M504.57,25.76c-11.1-3.5-26.43-5.67-43.29-5.67H272.51V26H461.28c11.66,0,22.27,1.5,30,3.93s12.47,5.76,12.47,9.43V74.78c0,3.67-4.78,7-12.47,9.43s-18.3,3.93-30,3.93H272.51v5.94H461.28c16.86,0,32.19-2.17,43.29-5.67s18-8.33,18-13.63V39.39c0-5.31-6.91-10.14-18-13.63"/><path class="cls-5" d="M83.72,88.14c-11.66,0-22.28-1.5-30-3.93s-12.47-5.76-12.47-9.43V39.39c0-3.67,4.78-7,12.47-9.43S72.06,26,83.72,26H272.5V20.09H83.72c-16.86,0-32.19,2.17-43.29,5.67s-18,8.32-18,13.63V74.78c0,5.31,6.9,10.13,18,13.63s26.43,5.67,43.29,5.67H272.5V88.14Z"/><path class="cls-6" d="M504.57,21.3c-11.1-3.49-26.43-5.66-43.29-5.66H83.72c-16.87,0-32.19,2.17-43.29,5.66s-18,8.33-18,13.64V70.32c0,5.31,6.89,10.14,18,13.64s26.42,5.66,43.29,5.66H461.28c16.86,0,32.19-2.17,43.29-5.66s18-8.33,18-13.64V34.94C522.57,29.63,515.67,24.8,504.57,21.3Zm-.86,49c0,3.68-4.77,7-12.47,9.44s-18.29,3.93-30,3.93H83.72c-11.66,0-22.27-1.51-30-3.93S41.29,74,41.29,70.32V34.94c0-3.68,4.78-7,12.47-9.44s18.3-3.93,30-3.93H461.28c11.67,0,22.27,1.51,30,3.93s12.47,5.76,12.47,9.44Z"/><path class="cls-7" d="M83.72,83.68c-11.66,0-22.28-1.5-30-3.92S41.29,74,41.29,70.32V34.94c0-3.67,4.78-7,12.47-9.44s18.3-3.93,30-3.93H272.5V15.64H83.72c-16.86,0-32.19,2.17-43.29,5.66s-18,8.33-18,13.64V70.32c0,5.31,6.9,10.14,18,13.64s26.43,5.67,43.29,5.67H272.5V83.68Z"/><path class="cls-7" d="M504.57,21.3c-11.1-3.49-26.43-5.66-43.29-5.66H272.51v5.94H461.28c11.66,0,22.27,1.5,30,3.92s12.47,5.77,12.47,9.44V70.33c0,3.66-4.78,7-12.47,9.43s-18.3,3.92-30,3.92H272.51v5.94H461.28c16.86,0,32.19-2.17,43.29-5.66s18-8.33,18-13.63V34.94c0-5.31-6.91-10.14-18-13.64"/><path class="cls-8" d="M466.19,18.61H78.81c-25.82,0-47,7.34-47,16.33V70.32c0,9,21.14,16.33,47,16.33H466.19c25.82,0,46.94-7.34,46.94-16.33V34.94c0-9-21.12-16.33-46.94-16.33"/><path class="cls-9" d="M458.16,21.89H86.85c-21.63,0-39.33,6.16-39.33,13.68V65.21c0,7.52,17.7,13.68,39.33,13.68H458.16c21.63,0,39.33-6.16,39.33-13.68V35.57C497.49,28.05,479.79,21.89,458.16,21.89Z"/><path class="cls-10" d="M458.16,21.89H86.85c-21.63,0-39.33,6.16-39.33,13.68V65.21c0,7.52,17.7,13.68,39.33,13.68H458.16c21.63,0,39.33-6.16,39.33-13.68V35.57c0-7.52-17.7-13.68-39.33-13.68"/><path class="cls-11" d="M458.16,75.79H86.85c-21.63,0-39.33-6.15-39.33-13.68v3.1c0,7.52,17.7,13.68,39.33,13.68H458.16c21.63,0,39.33-6.16,39.33-13.68v-3.1c0,7.53-17.7,13.68-39.33,13.68"/></g></g></g><text class="cls-12" transform="translate(161.05 63.56)"><tspan class="cls-13">A</tspan><tspan x="31.95" y="0">DD CHI</tspan><tspan class="cls-14" x="183.54" y="0">L</tspan><tspan x="208.42" y="0">D</tspan></text></svg>