<?xml version="1.0" encoding="utf-8"?>
<!-- Generator: Adobe Illustrator 24.2.1, SVG Export Plug-In . SVG Version: 6.00 Build 0)  -->
<svg version="1.1" id="Layer_1" xmlns="http://www.w3.org/2000/svg" xmlns:xlink="http://www.w3.org/1999/xlink" x="0px" y="0px"
	 viewBox="0 0 227 78" style="enable-background:new 0 0 227 78;" xml:space="preserve">
<style type="text/css">
	.st0{fill:#FFFFFF;}
	.st1{font-family:'KidGames';}
	.st2{font-size:18px;}
	.st3{clip-path:url(#SVGID_2_);}
	.st4{clip-path:url(#SVGID_4_);}
	.st5{fill:none;stroke:#792205;stroke-width:6.1572;stroke-miterlimit:22.926;}
	.st6{fill-rule:evenodd;clip-rule:evenodd;fill:#792205;}
	.st7{fill:none;stroke:#962A06;stroke-width:6.1572;stroke-miterlimit:22.926;}
	.st8{fill-rule:evenodd;clip-rule:evenodd;fill:#FFFFFF;}
	.st9{fill-rule:evenodd;clip-rule:evenodd;fill:#DCB000;}
	.st10{fill:none;stroke:#FEF500;stroke-width:1.5393;stroke-miterlimit:22.926;}
	.st11{fill-rule:evenodd;clip-rule:evenodd;fill:#FFCC00;}
	.st12{fill-rule:evenodd;clip-rule:evenodd;fill:#FEF500;}
	.st13{display:none;}
	.st14{display:inline;}
	.st15{clip-path:url(#SVGID_6_);}
	.st16{clip-path:url(#SVGID_8_);}
	.st17{fill:none;stroke:#792205;stroke-width:6.5273;stroke-miterlimit:22.926;}
	.st18{fill:none;stroke:#962A06;stroke-width:6.5273;stroke-miterlimit:22.926;}
	.st19{fill-rule:evenodd;clip-rule:evenodd;fill:#D53C09;}
	.st20{fill:none;stroke:#F8754A;stroke-width:1.6318;stroke-miterlimit:22.926;}
	.st21{fill-rule:evenodd;clip-rule:evenodd;fill:#F6460A;}
	.st22{fill-rule:evenodd;clip-rule:evenodd;fill:#F8754A;}
	.st23{font-size:35.2364px;}
	.st24{letter-spacing:-3;}
	.st25{letter-spacing:-1;}
	.st26{fill:#231F20;}
	.st27{font-size:40px;}
</style>
<text transform="matrix(1 0 0 1 62.3 31.93)" class="st0 st1 st2">RE</text>
<text transform="matrix(1 0 0 1 90.3 31.93)" class="st0 st1 st2">A</text>
<text transform="matrix(1 0 0 1 104.68 31.93)" class="st0 st1 st2">DY TO </text>
<text transform="matrix(1 0 0 1 59.44 53.53)" class="st0 st1 st2">PRACTICE?</text>
<g id="Artwork_27">
	<g>
		<defs>
			<rect id="SVGID_1_" x="10" y="6" width="208" height="65"/>
		</defs>
		<clipPath id="SVGID_2_">
			<use xlink:href="#SVGID_1_"  style="overflow:visible;"/>
		</clipPath>
		<g class="st3">
			<g>
				<defs>
					<rect id="SVGID_3_" x="10" y="6" width="208" height="65"/>
				</defs>
				<clipPath id="SVGID_4_">
					<use xlink:href="#SVGID_3_"  style="overflow:visible;"/>
				</clipPath>
				<g class="st4">
					<path class="st5" d="M207,16.2c-5.3-3-11.3-4.5-17.4-4.3H38.3c-6.1-0.1-12,1.4-17.3,4.3c-4.5,2.7-7.2,6.4-7.2,10.4v27.1
						c0,4.1,2.8,7.8,7.2,10.4c5.3,3,11.3,4.4,17.3,4.3h151.3c6.1,0.1,12-1.4,17.3-4.3c4.4-2.7,7.2-6.4,7.2-10.4V26.7
						C214.2,22.6,211.5,18.9,207,16.2z M206.6,53.7c0,2.8-1.9,5.4-5,7.2c-3.7,2-7.8,3.1-12,3H38.3c-4.2,0.1-8.3-1-12-3
						c-3.1-1.8-5-4.4-5-7.2V26.7c0-2.8,1.9-5.4,5-7.2c3.7-2,7.8-3.1,12-3h151.3c4.2-0.1,8.3,1,12,3c3.1,1.9,5,4.4,5,7.2L206.6,53.7z
						"/>
					<path class="st6" d="M207,16.2c-5.3-3-11.3-4.5-17.4-4.3H114v4.5h75.7c4.2-0.1,8.3,1,12,3c3.1,1.9,5,4.4,5,7.2v27.1
						c0,2.8-1.9,5.4-5,7.2c-3.7,2-7.8,3.1-12,3H114v4.5h75.7c6.1,0.1,12-1.4,17.3-4.3c4.4-2.7,7.2-6.4,7.2-10.4V26.7
						C214.2,22.6,211.5,18.9,207,16.2"/>
					<path class="st6" d="M38.3,64c-4.2,0.1-8.3-1-12-3c-3.1-1.8-5-4.4-5-7.2V26.7c0-2.8,1.9-5.4,5-7.2c3.7-2,7.8-3.1,12-3H114v-4.5
						H38.3c-6.1-0.1-12,1.4-17.3,4.3c-4.5,2.7-7.2,6.4-7.2,10.4v27.1c0,4.1,2.8,7.8,7.2,10.4c5.3,3,11.3,4.4,17.3,4.3H114V64H38.3z"
						/>
					<path class="st7" d="M207,12.8c-5.3-3-11.3-4.4-17.4-4.3H38.3c-6.1-0.1-12,1.4-17.3,4.3c-4.5,2.7-7.2,6.4-7.2,10.4v27.1
						c0,4.1,2.8,7.8,7.2,10.4c5.3,3,11.3,4.5,17.3,4.3h151.3c6.1,0.1,12-1.4,17.3-4.3c4.4-2.7,7.2-6.4,7.2-10.4V23.3
						C214.2,19.2,211.5,15.5,207,12.8z M206.6,50.3c0,2.8-1.9,5.4-5,7.2c-3.7,2-7.8,3.1-12,3H38.3c-4.2,0.1-8.3-1-12-3
						c-3.1-1.8-5-4.4-5-7.2V23.3c0-2.8,1.9-5.4,5-7.2c3.7-2,7.8-3.1,12-3h151.3c4.2-0.1,8.3,1,12,3c3.1,1.9,5,4.4,5,7.2L206.6,50.3z
						"/>
					<path class="st8" d="M38.3,60.5c-4.2,0.1-8.3-1-12-3c-3.1-1.8-5-4.4-5-7.2V23.3c0-2.8,1.9-5.4,5-7.2c3.7-2,7.8-3.1,12-3H114
						V8.5H38.3c-6.1-0.1-12,1.4-17.3,4.3c-4.5,2.7-7.2,6.4-7.2,10.4v27.1c0,4.1,2.8,7.8,7.2,10.4c5.3,3,11.3,4.5,17.3,4.3H114v-4.5
						H38.3z"/>
					<path class="st8" d="M207,12.8c-5.3-3-11.3-4.4-17.4-4.3H114v4.5h75.7c4.2-0.1,8.3,1,12,3c3.1,1.9,5,4.4,5,7.2v27.1
						c0,2.8-1.9,5.4-5,7.2c-3.7,2-7.8,3.1-12,3H114v4.6h75.7c6.1,0.1,12-1.4,17.3-4.3c4.4-2.7,7.2-6.4,7.2-10.4V23.3
						C214.2,19.2,211.5,15.5,207,12.8"/>
					<path class="st9" d="M191.6,10.8H36.4c-10.4,0-18.8,5.6-18.8,12.5v27.1c0,6.9,8.5,12.5,18.8,12.5h155.2
						c10.4,0,18.8-5.6,18.8-12.5V23.3C210.4,16.4,202,10.8,191.6,10.8"/>
					<path class="st10" d="M188.4,13.3H39.6c-8.7,0-15.8,4.7-15.8,10.5v22.7c0,5.8,7.1,10.5,15.8,10.5h148.8
						c8.7,0,15.8-4.7,15.8-10.5V23.8C204.2,18,197.1,13.3,188.4,13.3z"/>
					<path class="st11" d="M188.4,13.3H39.6c-8.7,0-15.8,4.7-15.8,10.5v22.7c0,5.8,7.1,10.5,15.8,10.5h148.8
						c8.7,0,15.8-4.7,15.8-10.5V23.8C204.2,18,197.1,13.3,188.4,13.3"/>
					<path class="st12" d="M188.4,54.5H39.6c-8.7,0-15.8-4.7-15.8-10.5v2.4c0,5.8,7.1,10.5,15.8,10.5h148.8
						c8.7,0,15.8-4.7,15.8-10.5V44C204.2,49.8,197.1,54.5,188.4,54.5"/>
				</g>
			</g>
		</g>
	</g>
</g>
<g id="Artwork_26" class="st13">
	<g class="st14">
		<defs>
			<rect id="SVGID_5_" x="6" y="4" width="214" height="71"/>
		</defs>
		<clipPath id="SVGID_6_">
			<use xlink:href="#SVGID_5_"  style="overflow:visible;"/>
		</clipPath>
		<g class="st15">
			<g>
				<defs>
					<rect id="SVGID_7_" x="6" y="4" width="214" height="71"/>
				</defs>
				<clipPath id="SVGID_8_">
					<use xlink:href="#SVGID_7_"  style="overflow:visible;"/>
				</clipPath>
				<g class="st16">
					<path class="st17" d="M208.7,15.2c-5.4-3.2-11.6-4.8-17.9-4.7H35.2c-6.3-0.1-12.5,1.5-17.9,4.7c-4.6,2.9-7.4,7-7.4,11.4v29.6
						c0,4.4,2.8,8.5,7.4,11.4c5.4,3.2,11.6,4.8,17.9,4.7h155.7c6.3,0.1,12.5-1.5,17.9-4.7c4.6-2.9,7.4-7,7.4-11.4V26.6
						C216.1,22.1,213.3,18.1,208.7,15.2z M208.3,56.2c0,3.1-2,5.9-5.1,7.9c-3.7,2.2-8,3.4-12.4,3.3H35.2c-4.3,0.1-8.6-1.1-12.4-3.3
						c-3.2-2-5.1-4.8-5.1-7.9V26.6c0-3.1,2-5.9,5.1-7.9c3.7-2.2,8-3.4,12.4-3.3h155.7c4.3-0.1,8.6,1.1,12.4,3.3
						c3.2,2,5.1,4.8,5.1,7.9V56.2z"/>
					<path class="st6" d="M208.7,15.2c-5.4-3.2-11.6-4.8-17.9-4.7H113v5h77.8c4.3-0.1,8.6,1.1,12.4,3.3c3.2,2,5.1,4.8,5.1,7.9v29.5
						c0,3.1-2,5.9-5.1,7.9c-3.7,2.2-8,3.4-12.4,3.3H113v5h77.8c6.3,0.1,12.5-1.5,17.9-4.7c4.6-2.9,7.4-7,7.4-11.4V26.6
						C216.1,22.1,213.3,18.1,208.7,15.2"/>
					<path class="st6" d="M35.2,67.3c-4.3,0.1-8.6-1.1-12.4-3.3c-3.2-2-5.1-4.8-5.1-7.9V26.6c0-3.1,2-5.9,5.1-7.9
						c3.7-2.2,8-3.4,12.4-3.3H113v-5H35.2c-6.3-0.1-12.5,1.5-17.9,4.7c-4.6,2.9-7.4,7-7.4,11.4v29.6c0,4.4,2.8,8.5,7.4,11.4
						c5.4,3.2,11.6,4.8,17.9,4.7H113v-5L35.2,67.3z"/>
					<path class="st18" d="M208.7,11.5c-5.4-3.2-11.6-4.8-17.9-4.7H35.2c-6.3-0.1-12.5,1.5-17.9,4.7c-4.6,2.9-7.4,7-7.4,11.4v29.6
						c0,4.4,2.8,8.5,7.4,11.4c5.4,3.2,11.6,4.8,17.9,4.7h155.7c6.3,0.1,12.5-1.5,17.9-4.7c4.6-2.9,7.4-7,7.4-11.4V22.9
						C216.1,18.4,213.3,14.4,208.7,11.5z M208.3,52.5c0,3.1-2,5.9-5.1,7.9c-3.7,2.2-8,3.4-12.4,3.3H35.2c-4.3,0.1-8.6-1.1-12.4-3.3
						c-3.2-2-5.1-4.8-5.1-7.9V22.9c0-3.1,2-5.9,5.1-7.9c3.7-2.2,8-3.4,12.4-3.3h155.7c4.3-0.1,8.6,1.1,12.4,3.3
						c3.2,2,5.1,4.8,5.1,7.9V52.5z"/>
					<path class="st8" d="M35.2,63.6c-4.3,0.1-8.6-1.1-12.4-3.3c-3.2-2-5.1-4.8-5.1-7.9V22.9c0-3.1,2-5.9,5.1-7.9
						c3.7-2.2,8-3.4,12.4-3.3H113v-5H35.2c-6.3-0.1-12.5,1.5-17.9,4.7c-4.6,2.9-7.4,7-7.4,11.4v29.6c0,4.4,2.8,8.5,7.4,11.4
						c5.4,3.2,11.6,4.8,17.9,4.7H113v-5L35.2,63.6z"/>
					<path class="st8" d="M208.7,11.5c-5.4-3.2-11.6-4.8-17.9-4.7H113v5h77.8c4.3-0.1,8.6,1,12.4,3.3c3.2,2,5.1,4.8,5.1,7.9v29.5
						c0,3.1-2,5.9-5.1,7.9c-3.7,2.2-8,3.4-12.4,3.3H113v5h77.8c6.3,0.1,12.5-1.5,17.9-4.7c4.6-2.9,7.4-7,7.4-11.4V22.9
						C216.1,18.4,213.3,14.4,208.7,11.5"/>
					<path class="st19" d="M192.9,9.2H33.1c-10.6,0-19.4,6.1-19.4,13.6v29.6c0,7.5,8.7,13.6,19.4,13.6h159.7
						c10.6,0,19.4-6.1,19.4-13.6V22.9C212.2,15.4,203.5,9.2,192.9,9.2"/>
					<path class="st20" d="M189.6,12H36.5c-8.9,0-16.2,5.1-16.2,11.4v24.7c0,6.3,7.3,11.4,16.2,11.4h153.1c8.9,0,16.2-5.1,16.2-11.4
						V23.4C205.8,17.1,198.5,12,189.6,12z"/>
					<path class="st21" d="M189.6,12H36.5c-8.9,0-16.2,5.1-16.2,11.4v24.7c0,6.3,7.3,11.4,16.2,11.4h153.1c8.9,0,16.2-5.1,16.2-11.4
						V23.4C205.8,17.1,198.5,12,189.6,12"/>
					<path class="st22" d="M189.6,57H36.5c-8.9,0-16.2-5.1-16.2-11.4v2.6c0,6.3,7.3,11.4,16.2,11.4h153.1c8.9,0,16.2-5.1,16.2-11.4
						v-2.6C205.8,51.9,198.5,57,189.6,57"/>
				</g>
			</g>
		</g>
	</g>
</g>
<text transform="matrix(1 0 0 1 49.45 46.84)" class="st1 st23">S</text>
<text transform="matrix(1 0 0 1 74.12 46.84)" class="st1 st23 st24">T</text>
<text transform="matrix(1 0 0 1 96.3 46.84)" class="st1 st23 st25">A</text>
<text transform="matrix(1 0 0 1 123.74 46.84)" class="st1 st23">RT</text>
<text transform="matrix(1 0 0 1 78 45)" class="st26 st1 st27">GO!</text>
</svg>
