<svg xmlns="http://www.w3.org/2000/svg" viewBox="0 0 155.89 39.52"><g id="Layer_1" data-name="Layer 1"><path d="M145,16.2h-14a3.42,3.42,0,0,0-3.4-3.11H23.6a3.42,3.42,0,0,0-3.4,3.11H5.58L7,17.64l5,5.14-5,5.68L5.7,29.87H20.19a3.42,3.42,0,0,0,3.41,3.32H127.54A3.42,3.42,0,0,0,131,29.87h13.87l-1.23-1.41-5-5.68,4.94-5.14Zm-8.1,6-.54.56.52.58,4.25,4.86H129.25v1.62a1.71,1.71,0,0,1-.51,1.2,1.67,1.67,0,0,1-1.2.5H23.6a1.71,1.71,0,0,1-1.21-.5,1.75,1.75,0,0,1-.5-1.2V28.17H9.45l4.25-4.86.51-.58-.54-.56L9.57,17.9H21.89V16.5a1.71,1.71,0,0,1,1.71-1.71H127.54a1.72,1.72,0,0,1,1.71,1.71v1.4H141Z" style="fill:none;stroke:#962a06;stroke-miterlimit:22.925600000000003;stroke-width:3.4047px;fill-rule:evenodd"/><path d="M145,16.2h-14a3.42,3.42,0,0,0-3.4-3.11H75.26v1.7h52.28a1.72,1.72,0,0,1,1.71,1.71v1.4H141l-4.11,4.27-.54.56.52.58,4.25,4.86H129.25v1.62a1.71,1.71,0,0,1-.51,1.2,1.67,1.67,0,0,1-1.2.5H75.26v1.7h52.28A3.42,3.42,0,0,0,131,29.87h13.87l-1.23-1.41-5-5.68,4.94-5.14Z" style="fill:#fff;fill-rule:evenodd"/><path d="M23.6,31.49a1.71,1.71,0,0,1-1.21-.5,1.75,1.75,0,0,1-.5-1.2V28.17H9.45l4.25-4.86.51-.58-.54-.56L9.57,17.9H21.89V16.5a1.71,1.71,0,0,1,1.71-1.71H75.26v-1.7H23.6a3.42,3.42,0,0,0-3.4,3.11H5.58L7,17.64l5,5.14-5,5.68L5.7,29.87H20.19a3.42,3.42,0,0,0,3.41,3.32H75.26v-1.7Z" style="fill:#fff;fill-rule:evenodd"/><polygon points="13.06 22.76 7.58 29.02 23.98 29.02 23.98 17.05 7.58 17.05 13.06 22.76" style="fill:#d53c09;fill-rule:evenodd"/><polygon points="126.55 17.05 126.55 29.02 142.95 29.02 137.47 22.76 142.95 17.05 126.55 17.05" style="fill:#d53c09;fill-rule:evenodd"/><rect x="21.04" y="13.94" width="109.05" height="18.4" rx="2.55" style="fill:#f6460a"/><text transform="translate(32.91 26.5)" style="font-size:12px;font-family:KidGames, Kid Games">GRE<tspan x="27.21" y="0" style="letter-spacing:-0.06396484375em">A</tspan><tspan x="36.41" y="0">T JOB!</tspan></text></g></svg>