<svg id="Layer_1" data-name="Layer 1" xmlns="http://www.w3.org/2000/svg" xmlns:xlink="http://www.w3.org/1999/xlink" viewBox="0 0 1366 768"><defs><style>.cls-1,.cls-11,.cls-16,.cls-17,.cls-18,.cls-3,.cls-5,.cls-8{fill:none;}.cls-2{clip-path:url(#clip-path);}.cls-16,.cls-3{stroke:#792205;}.cls-11,.cls-16,.cls-17,.cls-18,.cls-3,.cls-5,.cls-8{stroke-miterlimit:22.93;}.cls-3,.cls-5{stroke-width:11.75px;}.cls-4{fill:#792205;}.cls-10,.cls-12,.cls-13,.cls-19,.cls-20,.cls-4,.cls-6,.cls-7,.cls-9{fill-rule:evenodd;}.cls-11,.cls-17,.cls-5{stroke:#962a06;}.cls-33,.cls-35,.cls-6{fill:#fff;}.cls-7{fill:#66cff2;}.cls-8{stroke:#bce7f5;stroke-width:2.36px;}.cls-9{fill:#91daf2;}.cls-10{fill:#bce7f5;}.cls-11{stroke-width:9.4px;}.cls-12{fill:#d53c09;}.cls-13{fill:#f6460a;}.cls-14{clip-path:url(#clip-path-3);}.cls-15{clip-path:url(#clip-path-4);}.cls-16,.cls-17{stroke-width:2.99px;}.cls-18{stroke:#f8754a;stroke-width:0.75px;}.cls-19{fill:#f8754a;}.cls-20{fill:#b43308;}.cls-21{clip-path:url(#clip-path-5);}.cls-22{clip-path:url(#clip-path-6);}.cls-23{clip-path:url(#clip-path-7);}.cls-24{clip-path:url(#clip-path-8);}.cls-25{clip-path:url(#clip-path-9);}.cls-26{clip-path:url(#clip-path-10);}.cls-27{clip-path:url(#clip-path-11);}.cls-28{clip-path:url(#clip-path-12);}.cls-29{clip-path:url(#clip-path-13);}.cls-30{clip-path:url(#clip-path-14);}.cls-31{clip-path:url(#clip-path-15);}.cls-32{clip-path:url(#clip-path-16);}.cls-33{font-size:40px;}.cls-33,.cls-34,.cls-35{font-family:KidGames, Kid Games;}.cls-34{font-size:37.96px;fill:#fc3;}.cls-35{font-size:37.27px;}.cls-36{letter-spacing:-0.05em;}</style><clipPath id="clip-path"><rect class="cls-1" x="426" y="192" width="496" height="421.9"/></clipPath><clipPath id="clip-path-3"><rect class="cls-1" x="485" y="300" width="69" height="76"/></clipPath><clipPath id="clip-path-4"><rect class="cls-1" x="485" y="300" width="69" height="76"/></clipPath><clipPath id="clip-path-5"><rect class="cls-1" x="590" y="300" width="69" height="76"/></clipPath><clipPath id="clip-path-6"><rect class="cls-1" x="590" y="300" width="69" height="76"/></clipPath><clipPath id="clip-path-7"><rect class="cls-1" x="692" y="300" width="69" height="76"/></clipPath><clipPath id="clip-path-8"><rect class="cls-1" x="692" y="300" width="69" height="76"/></clipPath><clipPath id="clip-path-9"><rect class="cls-1" x="794" y="300" width="69" height="76"/></clipPath><clipPath id="clip-path-10"><rect class="cls-1" x="794" y="300" width="69" height="76"/></clipPath><clipPath id="clip-path-11"><rect class="cls-1" x="525" y="428" width="69" height="76"/></clipPath><clipPath id="clip-path-12"><rect class="cls-1" x="525" y="428" width="69" height="76"/></clipPath><clipPath id="clip-path-13"><rect class="cls-1" x="645" y="428" width="69" height="76"/></clipPath><clipPath id="clip-path-14"><rect class="cls-1" x="645" y="428" width="69" height="76"/></clipPath><clipPath id="clip-path-15"><rect class="cls-1" x="764" y="428" width="69" height="76"/></clipPath><clipPath id="clip-path-16"><rect class="cls-1" x="764" y="428" width="69" height="76"/></clipPath></defs><g id="Artwork_35" data-name="Artwork 35"><g class="cls-2"><g class="cls-2"><path class="cls-3" d="M909.9,237.68A21.06,21.06,0,0,0,895,231.47H453a21.06,21.06,0,0,0-14.92,6.21l0,0a21.06,21.06,0,0,0-6.21,14.92V586.88a21.06,21.06,0,0,0,6.21,14.92l0,0A21.06,21.06,0,0,0,453,608H895a21.06,21.06,0,0,0,14.92-6.21l0,0a21.06,21.06,0,0,0,6.21-14.92V252.62a21.06,21.06,0,0,0-6.21-14.92Zm-3.17,349.2A11.78,11.78,0,0,1,895,598.63H453a11.78,11.78,0,0,1-11.75-11.75V252.62A11.78,11.78,0,0,1,453,240.87H895a11.78,11.78,0,0,1,11.75,11.75Z"/><path class="cls-4" d="M909.9,237.68A21.06,21.06,0,0,0,895,231.47H674v9.4H895a11.78,11.78,0,0,1,11.75,11.75V586.88A11.78,11.78,0,0,1,895,598.63H674V608H895a21.06,21.06,0,0,0,14.92-6.21l0,0a21.06,21.06,0,0,0,6.21-14.92V252.62a21.06,21.06,0,0,0-6.21-14.92Z"/><path class="cls-4" d="M453,598.63a11.78,11.78,0,0,1-11.75-11.75V252.62A11.78,11.78,0,0,1,453,240.87H674v-9.4H453a21.06,21.06,0,0,0-14.92,6.21l0,0a21.06,21.06,0,0,0-6.21,14.92V586.88a21.06,21.06,0,0,0,6.21,14.92l0,0A21.06,21.06,0,0,0,453,608H674v-9.4Z"/><path class="cls-5" d="M909.9,230A21.06,21.06,0,0,0,895,223.82H453A21.06,21.06,0,0,0,438.1,230l0,0A21.06,21.06,0,0,0,431.87,245V579.23a21.06,21.06,0,0,0,6.21,14.92l0,0A21.06,21.06,0,0,0,453,600.38H895a21.06,21.06,0,0,0,14.92-6.21l0,0a21.06,21.06,0,0,0,6.21-14.92V245a21.06,21.06,0,0,0-6.21-14.92Zm-3.17,349.2A11.78,11.78,0,0,1,895,591H453a11.78,11.78,0,0,1-11.75-11.75V245A11.76,11.76,0,0,1,453,233.23H895A11.76,11.76,0,0,1,906.73,245Z"/><path class="cls-6" d="M453,591a11.78,11.78,0,0,1-11.75-11.75V245A11.78,11.78,0,0,1,453,233.22H674v-9.4H453A21.06,21.06,0,0,0,438.1,230l0,0A21.06,21.06,0,0,0,431.87,245V579.23a21.06,21.06,0,0,0,6.21,14.92l0,0A21.06,21.06,0,0,0,453,600.38H674V591Z"/><path class="cls-6" d="M909.9,230A21.06,21.06,0,0,0,895,223.82H674v9.41H895A11.76,11.76,0,0,1,906.73,245V579.23A11.78,11.78,0,0,1,895,591H674v9.4H895a21.06,21.06,0,0,0,14.92-6.21l0,0a21.06,21.06,0,0,0,6.21-14.92V245a21.06,21.06,0,0,0-6.21-14.92Z"/><path class="cls-7" d="M895,228.52H453A16.49,16.49,0,0,0,436.58,245V579.23A16.49,16.49,0,0,0,453,595.68H895a16.5,16.5,0,0,0,16.45-16.45V245A16.5,16.5,0,0,0,895,228.52"/><rect class="cls-8" x="447.11" y="234.84" width="453.79" height="345.93" rx="15.5"/><path class="cls-9" d="M885.4,234.84H462.61a15.54,15.54,0,0,0-15.5,15.49V565.27a15.55,15.55,0,0,0,15.5,15.5H885.4a15.54,15.54,0,0,0,15.49-15.5V250.33a15.53,15.53,0,0,0-15.49-15.49"/><path class="cls-10" d="M885.4,577.78H462.61a15.54,15.54,0,0,1-15.5-15.49v3a15.55,15.55,0,0,0,15.5,15.5H885.4a15.54,15.54,0,0,0,15.49-15.5v-3a15.53,15.53,0,0,1-15.49,15.49"/><path class="cls-11" d="M893.25,205.27H854.57a9.44,9.44,0,0,0-9.37-8.57H498.88a9.42,9.42,0,0,0-9.36,8.57H449.14l3.82,4,13.66,14.2-13.73,15.67L449.48,243h40a9.43,9.43,0,0,0,9.4,9.18H845.2a9.43,9.43,0,0,0,9.4-9.18h38.31l-3.41-3.89-13.73-15.67,13.66-14.2Zm-22.34,16.48-1.49,1.55,1.41,1.62,11.74,13.39H849.9v4.48a4.71,4.71,0,0,1-4.7,4.7H498.88a4.71,4.71,0,0,1-4.7-4.7v-4.48H459.82l11.74-13.39L473,223.3l-1.5-1.55L460.16,210h34V206.1a4.71,4.71,0,0,1,4.7-4.7H845.2a4.71,4.71,0,0,1,4.7,4.7V210h32.33Z"/><path class="cls-6" d="M893.25,205.27H854.57a9.44,9.44,0,0,0-9.37-8.57h-174v4.7h174a4.71,4.71,0,0,1,4.7,4.7V210h32.33l-11.32,11.78-1.49,1.55,1.41,1.62,11.74,13.39H849.9v4.48a4.71,4.71,0,0,1-4.7,4.7h-174v4.7h174a9.43,9.43,0,0,0,9.4-9.18h38.31l-3.41-3.89-13.73-15.67,13.66-14.2Z"/><path class="cls-6" d="M498.88,247.49a4.71,4.71,0,0,1-4.7-4.7v-4.48H459.82l11.74-13.39L473,223.3l-1.49-1.55L460.16,210h34V206.1a4.71,4.71,0,0,1,4.7-4.7H671.19v-4.7H498.88a9.42,9.42,0,0,0-9.36,8.57H449.15l3.81,4,13.66,14.21-13.73,15.67L449.48,243h40a9.43,9.43,0,0,0,9.4,9.18H671.19v-4.7Z"/><polygon class="cls-12" points="469.8 223.38 454.65 240.66 499.94 240.66 499.94 207.62 454.65 207.62 469.8 223.38"/><polygon class="cls-12" points="842.46 207.62 842.46 240.66 887.74 240.66 872.6 223.38 887.74 207.62 842.46 207.62"/><path class="cls-13" d="M845.2,199.05H498.88a7.07,7.07,0,0,0-7.05,7v36.69a7.07,7.07,0,0,0,7.05,7.05H845.2a7.07,7.07,0,0,0,7-7.05V206.1a7.07,7.07,0,0,0-7-7"/></g></g></g><g id="Artwork_36" data-name="Artwork 36"><g class="cls-14"><g class="cls-15"><path class="cls-16" d="M542.44,303.42H496.56a10.87,10.87,0,0,0-7.07,2.51,8,8,0,0,0-2.95,6v54a7.93,7.93,0,0,0,2.95,6,10.87,10.87,0,0,0,7.07,2.51h45.88a10.94,10.94,0,0,0,7.08-2.51,8,8,0,0,0,2.94-6V312a8,8,0,0,0-2.94-6A10.94,10.94,0,0,0,542.44,303.42ZM549.37,366a5.51,5.51,0,0,1-2,4.17,7.59,7.59,0,0,1-4.9,1.74H496.56a7.59,7.59,0,0,1-4.9-1.74,5.51,5.51,0,0,1-2-4.17V312a5.51,5.51,0,0,1,2-4.18,7.59,7.59,0,0,1,4.9-1.74h45.88a7.59,7.59,0,0,1,4.9,1.74,5.51,5.51,0,0,1,2,4.18Z"/><path class="cls-4" d="M542.44,303.42H519.5v2.63h22.94a7.59,7.59,0,0,1,4.9,1.74,5.51,5.51,0,0,1,2,4.18v54a5.51,5.51,0,0,1-2,4.18,7.59,7.59,0,0,1-4.9,1.74H519.5v2.63h22.94a10.94,10.94,0,0,0,7.08-2.51,8,8,0,0,0,2.94-6V312a8,8,0,0,0-2.94-6,10.94,10.94,0,0,0-7.08-2.51"/><path class="cls-4" d="M496.56,371.92a7.59,7.59,0,0,1-4.9-1.74,5.48,5.48,0,0,1-2-4.17V312a5.48,5.48,0,0,1,2-4.18,7.59,7.59,0,0,1,4.9-1.74H519.5v-2.63H496.56a10.94,10.94,0,0,0-7.08,2.51,8,8,0,0,0-2.94,6v54a8,8,0,0,0,2.94,6,10.94,10.94,0,0,0,7.08,2.51H519.5v-2.63Z"/><path class="cls-17" d="M542.44,301.45H496.56a10.87,10.87,0,0,0-7.07,2.51,7.94,7.94,0,0,0-2.95,6v54a8,8,0,0,0,2.95,6,10.87,10.87,0,0,0,7.07,2.51h45.88a10.94,10.94,0,0,0,7.08-2.51,8,8,0,0,0,2.94-6V310a8,8,0,0,0-2.94-6A10.94,10.94,0,0,0,542.44,301.45ZM549.37,364a5.51,5.51,0,0,1-2,4.18,7.59,7.59,0,0,1-4.9,1.74H496.56a7.59,7.59,0,0,1-4.9-1.74,5.51,5.51,0,0,1-2-4.18V310a5.51,5.51,0,0,1,2-4.18,7.59,7.59,0,0,1,4.9-1.74h45.88a7.59,7.59,0,0,1,4.9,1.74,5.51,5.51,0,0,1,2,4.18Z"/><path class="cls-6" d="M496.56,370a7.59,7.59,0,0,1-4.9-1.74,5.48,5.48,0,0,1-2-4.18V310a5.48,5.48,0,0,1,2-4.18,7.59,7.59,0,0,1,4.9-1.74H519.5v-2.63H496.56a10.94,10.94,0,0,0-7.08,2.51,8,8,0,0,0-2.94,6v54a8,8,0,0,0,2.94,6,10.94,10.94,0,0,0,7.08,2.51H519.5V370Z"/><path class="cls-6" d="M542.44,301.45H519.5v2.63h22.94a7.59,7.59,0,0,1,4.9,1.74,5.51,5.51,0,0,1,2,4.18v54a5.51,5.51,0,0,1-2,4.18,7.59,7.59,0,0,1-4.9,1.74H519.5v2.63h22.94a10.94,10.94,0,0,0,7.08-2.51,8,8,0,0,0,2.94-6V310a8,8,0,0,0-2.94-6,10.94,10.94,0,0,0-7.08-2.51"/><path class="cls-12" d="M543.24,302.77H495.76a7.49,7.49,0,0,0-7.68,7.23v54a7.49,7.49,0,0,0,7.68,7.23h47.48a7.49,7.49,0,0,0,7.68-7.23V310a7.49,7.49,0,0,0-7.68-7.23"/><path class="cls-18" d="M541.93,304.22H497.07a6.27,6.27,0,0,0-6.43,6v51.5a6.27,6.27,0,0,0,6.43,6.05h44.86a6.27,6.27,0,0,0,6.43-6.05v-51.5A6.27,6.27,0,0,0,541.93,304.22Z"/><path class="cls-13" d="M541.93,304.22H497.07a6.27,6.27,0,0,0-6.43,6v51.5a6.27,6.27,0,0,0,6.43,6.05h44.86a6.27,6.27,0,0,0,6.43-6.05v-51.5a6.27,6.27,0,0,0-6.43-6"/><path class="cls-19" d="M541.93,366.45H497.07a6.27,6.27,0,0,1-6.43-6.05v1.37a6.27,6.27,0,0,0,6.43,6.05h44.86a6.27,6.27,0,0,0,6.43-6.05V360.4a6.45,6.45,0,0,1-6.43,6.05"/><path class="cls-12" d="M501.54,350.86a6,6,0,1,0,6.32,5.95,6.14,6.14,0,0,0-6.32-5.95"/><path class="cls-20" d="M501.54,350.86a6.14,6.14,0,0,0-6.32,5.95,5.55,5.55,0,0,0,.15,1.29,6.41,6.41,0,0,1,12.34,0,5.55,5.55,0,0,0,.15-1.29,6.14,6.14,0,0,0-6.32-5.95"/><path class="cls-12" d="M519.46,350.86a6,6,0,1,0,6.32,5.95,6.14,6.14,0,0,0-6.32-5.95"/><path class="cls-20" d="M519.46,350.86a6.14,6.14,0,0,0-6.32,5.95,5.55,5.55,0,0,0,.15,1.29,6.41,6.41,0,0,1,12.34,0,5.55,5.55,0,0,0,.15-1.29,6.14,6.14,0,0,0-6.32-5.95"/><path class="cls-12" d="M537.38,350.86a6,6,0,1,0,6.32,5.95,6.14,6.14,0,0,0-6.32-5.95"/><path class="cls-20" d="M537.38,350.86a6.14,6.14,0,0,0-6.32,5.95,5.55,5.55,0,0,0,.15,1.29,6.41,6.41,0,0,1,12.34,0,5.55,5.55,0,0,0,.15-1.29,6.14,6.14,0,0,0-6.32-5.95"/></g></g></g><g id="Artwork_36-2" data-name="Artwork 36"><g class="cls-21"><g class="cls-22"><path class="cls-16" d="M647.44,303.42H601.56a10.87,10.87,0,0,0-7.07,2.51,8,8,0,0,0-3,6v54a7.93,7.93,0,0,0,3,6,10.87,10.87,0,0,0,7.07,2.51h45.88a10.94,10.94,0,0,0,7.08-2.51,8,8,0,0,0,2.94-6V312a8,8,0,0,0-2.94-6A10.94,10.94,0,0,0,647.44,303.42ZM654.37,366a5.51,5.51,0,0,1-2,4.17,7.59,7.59,0,0,1-4.9,1.74H601.56a7.59,7.59,0,0,1-4.9-1.74,5.51,5.51,0,0,1-2-4.17V312a5.51,5.51,0,0,1,2-4.18,7.59,7.59,0,0,1,4.9-1.74h45.88a7.59,7.59,0,0,1,4.9,1.74,5.51,5.51,0,0,1,2,4.18Z"/><path class="cls-4" d="M647.44,303.42H624.5v2.63h22.94a7.59,7.59,0,0,1,4.9,1.74,5.51,5.51,0,0,1,2,4.18v54a5.51,5.51,0,0,1-2,4.18,7.59,7.59,0,0,1-4.9,1.74H624.5v2.63h22.94a10.94,10.94,0,0,0,7.08-2.51,8,8,0,0,0,2.94-6V312a8,8,0,0,0-2.94-6,10.94,10.94,0,0,0-7.08-2.51"/><path class="cls-4" d="M601.56,371.92a7.59,7.59,0,0,1-4.9-1.74,5.48,5.48,0,0,1-2-4.17V312a5.48,5.48,0,0,1,2-4.18,7.59,7.59,0,0,1,4.9-1.74H624.5v-2.63H601.56a10.94,10.94,0,0,0-7.08,2.51,8,8,0,0,0-2.94,6v54a8,8,0,0,0,2.94,6,10.94,10.94,0,0,0,7.08,2.51H624.5v-2.63Z"/><path class="cls-17" d="M647.44,301.45H601.56a10.87,10.87,0,0,0-7.07,2.51,7.94,7.94,0,0,0-3,6v54a8,8,0,0,0,3,6,10.87,10.87,0,0,0,7.07,2.51h45.88a10.94,10.94,0,0,0,7.08-2.51,8,8,0,0,0,2.94-6V310a8,8,0,0,0-2.94-6A10.94,10.94,0,0,0,647.44,301.45ZM654.37,364a5.51,5.51,0,0,1-2,4.18,7.59,7.59,0,0,1-4.9,1.74H601.56a7.59,7.59,0,0,1-4.9-1.74,5.51,5.51,0,0,1-2-4.18V310a5.51,5.51,0,0,1,2-4.18,7.59,7.59,0,0,1,4.9-1.74h45.88a7.59,7.59,0,0,1,4.9,1.74,5.51,5.51,0,0,1,2,4.18Z"/><path class="cls-6" d="M601.56,370a7.59,7.59,0,0,1-4.9-1.74,5.48,5.48,0,0,1-2-4.18V310a5.48,5.48,0,0,1,2-4.18,7.59,7.59,0,0,1,4.9-1.74H624.5v-2.63H601.56a10.94,10.94,0,0,0-7.08,2.51,8,8,0,0,0-2.94,6v54a8,8,0,0,0,2.94,6,10.94,10.94,0,0,0,7.08,2.51H624.5V370Z"/><path class="cls-6" d="M647.44,301.45H624.5v2.63h22.94a7.59,7.59,0,0,1,4.9,1.74,5.51,5.51,0,0,1,2,4.18v54a5.51,5.51,0,0,1-2,4.18,7.59,7.59,0,0,1-4.9,1.74H624.5v2.63h22.94a10.94,10.94,0,0,0,7.08-2.51,8,8,0,0,0,2.94-6V310a8,8,0,0,0-2.94-6,10.94,10.94,0,0,0-7.08-2.51"/><path class="cls-12" d="M648.24,302.77H600.76a7.49,7.49,0,0,0-7.68,7.23v54a7.49,7.49,0,0,0,7.68,7.23h47.48a7.49,7.49,0,0,0,7.68-7.23V310a7.49,7.49,0,0,0-7.68-7.23"/><path class="cls-18" d="M646.93,304.22H602.07a6.27,6.27,0,0,0-6.43,6v51.5a6.27,6.27,0,0,0,6.43,6.05h44.86a6.27,6.27,0,0,0,6.43-6.05v-51.5A6.27,6.27,0,0,0,646.93,304.22Z"/><path class="cls-13" d="M646.93,304.22H602.07a6.27,6.27,0,0,0-6.43,6v51.5a6.27,6.27,0,0,0,6.43,6.05h44.86a6.27,6.27,0,0,0,6.43-6.05v-51.5a6.27,6.27,0,0,0-6.43-6"/><path class="cls-19" d="M646.93,366.45H602.07a6.27,6.27,0,0,1-6.43-6.05v1.37a6.27,6.27,0,0,0,6.43,6.05h44.86a6.27,6.27,0,0,0,6.43-6.05V360.4a6.45,6.45,0,0,1-6.43,6.05"/><path class="cls-12" d="M606.54,350.86a6,6,0,1,0,6.32,5.95,6.14,6.14,0,0,0-6.32-5.95"/><path class="cls-20" d="M606.54,350.86a6.14,6.14,0,0,0-6.32,5.95,5.55,5.55,0,0,0,.15,1.29,6.41,6.41,0,0,1,12.34,0,5.55,5.55,0,0,0,.15-1.29,6.14,6.14,0,0,0-6.32-5.95"/><path class="cls-12" d="M624.46,350.86a6,6,0,1,0,6.32,5.95,6.14,6.14,0,0,0-6.32-5.95"/><path class="cls-20" d="M624.46,350.86a6.14,6.14,0,0,0-6.32,5.95,5.55,5.55,0,0,0,.15,1.29,6.41,6.41,0,0,1,12.34,0,5.55,5.55,0,0,0,.15-1.29,6.14,6.14,0,0,0-6.32-5.95"/><path class="cls-12" d="M642.38,350.86a6,6,0,1,0,6.32,5.95,6.14,6.14,0,0,0-6.32-5.95"/><path class="cls-20" d="M642.38,350.86a6.14,6.14,0,0,0-6.32,5.95,5.55,5.55,0,0,0,.15,1.29,6.41,6.41,0,0,1,12.34,0,5.55,5.55,0,0,0,.15-1.29,6.14,6.14,0,0,0-6.32-5.95"/></g></g></g><g id="Artwork_36-3" data-name="Artwork 36"><g class="cls-23"><g class="cls-24"><path class="cls-16" d="M749.44,303.42H703.56a10.87,10.87,0,0,0-7.07,2.51,8,8,0,0,0-3,6v54a7.93,7.93,0,0,0,3,6,10.87,10.87,0,0,0,7.07,2.51h45.88a10.94,10.94,0,0,0,7.08-2.51,8,8,0,0,0,2.94-6V312a8,8,0,0,0-2.94-6A10.94,10.94,0,0,0,749.44,303.42ZM756.37,366a5.51,5.51,0,0,1-2,4.17,7.59,7.59,0,0,1-4.9,1.74H703.56a7.59,7.59,0,0,1-4.9-1.74,5.51,5.51,0,0,1-2-4.17V312a5.51,5.51,0,0,1,2-4.18,7.59,7.59,0,0,1,4.9-1.74h45.88a7.59,7.59,0,0,1,4.9,1.74,5.51,5.51,0,0,1,2,4.18Z"/><path class="cls-4" d="M749.44,303.42H726.5v2.63h22.94a7.59,7.59,0,0,1,4.9,1.74,5.51,5.51,0,0,1,2,4.18v54a5.51,5.51,0,0,1-2,4.18,7.59,7.59,0,0,1-4.9,1.74H726.5v2.63h22.94a10.94,10.94,0,0,0,7.08-2.51,8,8,0,0,0,2.94-6V312a8,8,0,0,0-2.94-6,10.94,10.94,0,0,0-7.08-2.51"/><path class="cls-4" d="M703.56,371.92a7.59,7.59,0,0,1-4.9-1.74,5.48,5.48,0,0,1-2-4.17V312a5.48,5.48,0,0,1,2-4.18,7.59,7.59,0,0,1,4.9-1.74H726.5v-2.63H703.56a10.94,10.94,0,0,0-7.08,2.51,8,8,0,0,0-2.94,6v54a8,8,0,0,0,2.94,6,10.94,10.94,0,0,0,7.08,2.51H726.5v-2.63Z"/><path class="cls-17" d="M749.44,301.45H703.56a10.87,10.87,0,0,0-7.07,2.51,7.94,7.94,0,0,0-3,6v54a8,8,0,0,0,3,6,10.87,10.87,0,0,0,7.07,2.51h45.88a10.94,10.94,0,0,0,7.08-2.51,8,8,0,0,0,2.94-6V310a8,8,0,0,0-2.94-6A10.94,10.94,0,0,0,749.44,301.45ZM756.37,364a5.51,5.51,0,0,1-2,4.18,7.59,7.59,0,0,1-4.9,1.74H703.56a7.59,7.59,0,0,1-4.9-1.74,5.51,5.51,0,0,1-2-4.18V310a5.51,5.51,0,0,1,2-4.18,7.59,7.59,0,0,1,4.9-1.74h45.88a7.59,7.59,0,0,1,4.9,1.74,5.51,5.51,0,0,1,2,4.18Z"/><path class="cls-6" d="M703.56,370a7.59,7.59,0,0,1-4.9-1.74,5.48,5.48,0,0,1-2-4.18V310a5.48,5.48,0,0,1,2-4.18,7.59,7.59,0,0,1,4.9-1.74H726.5v-2.63H703.56a10.94,10.94,0,0,0-7.08,2.51,8,8,0,0,0-2.94,6v54a8,8,0,0,0,2.94,6,10.94,10.94,0,0,0,7.08,2.51H726.5V370Z"/><path class="cls-6" d="M749.44,301.45H726.5v2.63h22.94a7.59,7.59,0,0,1,4.9,1.74,5.51,5.51,0,0,1,2,4.18v54a5.51,5.51,0,0,1-2,4.18,7.59,7.59,0,0,1-4.9,1.74H726.5v2.63h22.94a10.94,10.94,0,0,0,7.08-2.51,8,8,0,0,0,2.94-6V310a8,8,0,0,0-2.94-6,10.94,10.94,0,0,0-7.08-2.51"/><path class="cls-12" d="M750.24,302.77H702.76a7.49,7.49,0,0,0-7.68,7.23v54a7.49,7.49,0,0,0,7.68,7.23h47.48a7.49,7.49,0,0,0,7.68-7.23V310a7.49,7.49,0,0,0-7.68-7.23"/><path class="cls-18" d="M748.93,304.22H704.07a6.27,6.27,0,0,0-6.43,6v51.5a6.27,6.27,0,0,0,6.43,6.05h44.86a6.27,6.27,0,0,0,6.43-6.05v-51.5A6.27,6.27,0,0,0,748.93,304.22Z"/><path class="cls-13" d="M748.93,304.22H704.07a6.27,6.27,0,0,0-6.43,6v51.5a6.27,6.27,0,0,0,6.43,6.05h44.86a6.27,6.27,0,0,0,6.43-6.05v-51.5a6.27,6.27,0,0,0-6.43-6"/><path class="cls-19" d="M748.93,366.45H704.07a6.27,6.27,0,0,1-6.43-6.05v1.37a6.27,6.27,0,0,0,6.43,6.05h44.86a6.27,6.27,0,0,0,6.43-6.05V360.4a6.45,6.45,0,0,1-6.43,6.05"/><path class="cls-12" d="M708.54,350.86a6,6,0,1,0,6.32,5.95,6.14,6.14,0,0,0-6.32-5.95"/><path class="cls-20" d="M708.54,350.86a6.14,6.14,0,0,0-6.32,5.95,5.55,5.55,0,0,0,.15,1.29,6.41,6.41,0,0,1,12.34,0,5.55,5.55,0,0,0,.15-1.29,6.14,6.14,0,0,0-6.32-5.95"/><path class="cls-12" d="M726.46,350.86a6,6,0,1,0,6.32,5.95,6.14,6.14,0,0,0-6.32-5.95"/><path class="cls-20" d="M726.46,350.86a6.14,6.14,0,0,0-6.32,5.95,5.55,5.55,0,0,0,.15,1.29,6.41,6.41,0,0,1,12.34,0,5.55,5.55,0,0,0,.15-1.29,6.14,6.14,0,0,0-6.32-5.95"/><path class="cls-12" d="M744.38,350.86a6,6,0,1,0,6.32,5.95,6.14,6.14,0,0,0-6.32-5.95"/><path class="cls-20" d="M744.38,350.86a6.14,6.14,0,0,0-6.32,5.95,5.55,5.55,0,0,0,.15,1.29,6.41,6.41,0,0,1,12.34,0,5.55,5.55,0,0,0,.15-1.29,6.14,6.14,0,0,0-6.32-5.95"/></g></g></g><g id="Artwork_36-4" data-name="Artwork 36"><g class="cls-25"><g class="cls-26"><path class="cls-16" d="M851.44,303.42H805.56a10.87,10.87,0,0,0-7.07,2.51,8,8,0,0,0-3,6v54a7.93,7.93,0,0,0,3,6,10.87,10.87,0,0,0,7.07,2.51h45.88a10.94,10.94,0,0,0,7.08-2.51,8,8,0,0,0,2.94-6V312a8,8,0,0,0-2.94-6A10.94,10.94,0,0,0,851.44,303.42ZM858.37,366a5.51,5.51,0,0,1-2,4.17,7.59,7.59,0,0,1-4.9,1.74H805.56a7.59,7.59,0,0,1-4.9-1.74,5.51,5.51,0,0,1-2-4.17V312a5.51,5.51,0,0,1,2-4.18,7.59,7.59,0,0,1,4.9-1.74h45.88a7.59,7.59,0,0,1,4.9,1.74,5.51,5.51,0,0,1,2,4.18Z"/><path class="cls-4" d="M851.44,303.42H828.5v2.63h22.94a7.59,7.59,0,0,1,4.9,1.74,5.51,5.51,0,0,1,2,4.18v54a5.51,5.51,0,0,1-2,4.18,7.59,7.59,0,0,1-4.9,1.74H828.5v2.63h22.94a10.94,10.94,0,0,0,7.08-2.51,8,8,0,0,0,2.94-6V312a8,8,0,0,0-2.94-6,10.94,10.94,0,0,0-7.08-2.51"/><path class="cls-4" d="M805.56,371.92a7.59,7.59,0,0,1-4.9-1.74,5.48,5.48,0,0,1-2-4.17V312a5.48,5.48,0,0,1,2-4.18,7.59,7.59,0,0,1,4.9-1.74H828.5v-2.63H805.56a10.94,10.94,0,0,0-7.08,2.51,8,8,0,0,0-2.94,6v54a8,8,0,0,0,2.94,6,10.94,10.94,0,0,0,7.08,2.51H828.5v-2.63Z"/><path class="cls-17" d="M851.44,301.45H805.56a10.87,10.87,0,0,0-7.07,2.51,7.94,7.94,0,0,0-3,6v54a8,8,0,0,0,3,6,10.87,10.87,0,0,0,7.07,2.51h45.88a10.94,10.94,0,0,0,7.08-2.51,8,8,0,0,0,2.94-6V310a8,8,0,0,0-2.94-6A10.94,10.94,0,0,0,851.44,301.45ZM858.37,364a5.51,5.51,0,0,1-2,4.18,7.59,7.59,0,0,1-4.9,1.74H805.56a7.59,7.59,0,0,1-4.9-1.74,5.51,5.51,0,0,1-2-4.18V310a5.51,5.51,0,0,1,2-4.18,7.59,7.59,0,0,1,4.9-1.74h45.88a7.59,7.59,0,0,1,4.9,1.74,5.51,5.51,0,0,1,2,4.18Z"/><path class="cls-6" d="M805.56,370a7.59,7.59,0,0,1-4.9-1.74,5.48,5.48,0,0,1-2-4.18V310a5.48,5.48,0,0,1,2-4.18,7.59,7.59,0,0,1,4.9-1.74H828.5v-2.63H805.56a10.94,10.94,0,0,0-7.08,2.51,8,8,0,0,0-2.94,6v54a8,8,0,0,0,2.94,6,10.94,10.94,0,0,0,7.08,2.51H828.5V370Z"/><path class="cls-6" d="M851.44,301.45H828.5v2.63h22.94a7.59,7.59,0,0,1,4.9,1.74,5.51,5.51,0,0,1,2,4.18v54a5.51,5.51,0,0,1-2,4.18,7.59,7.59,0,0,1-4.9,1.74H828.5v2.63h22.94a10.94,10.94,0,0,0,7.08-2.51,8,8,0,0,0,2.94-6V310a8,8,0,0,0-2.94-6,10.94,10.94,0,0,0-7.08-2.51"/><path class="cls-12" d="M852.24,302.77H804.76a7.49,7.49,0,0,0-7.68,7.23v54a7.49,7.49,0,0,0,7.68,7.23h47.48a7.49,7.49,0,0,0,7.68-7.23V310a7.49,7.49,0,0,0-7.68-7.23"/><path class="cls-18" d="M850.93,304.22H806.07a6.27,6.27,0,0,0-6.43,6v51.5a6.27,6.27,0,0,0,6.43,6.05h44.86a6.27,6.27,0,0,0,6.43-6.05v-51.5A6.27,6.27,0,0,0,850.93,304.22Z"/><path class="cls-13" d="M850.93,304.22H806.07a6.27,6.27,0,0,0-6.43,6v51.5a6.27,6.27,0,0,0,6.43,6.05h44.86a6.27,6.27,0,0,0,6.43-6.05v-51.5a6.27,6.27,0,0,0-6.43-6"/><path class="cls-19" d="M850.93,366.45H806.07a6.27,6.27,0,0,1-6.43-6.05v1.37a6.27,6.27,0,0,0,6.43,6.05h44.86a6.27,6.27,0,0,0,6.43-6.05V360.4a6.45,6.45,0,0,1-6.43,6.05"/><path class="cls-12" d="M810.54,350.86a6,6,0,1,0,6.32,5.95,6.14,6.14,0,0,0-6.32-5.95"/><path class="cls-20" d="M810.54,350.86a6.14,6.14,0,0,0-6.32,5.95,5.55,5.55,0,0,0,.15,1.29,6.41,6.41,0,0,1,12.34,0,5.55,5.55,0,0,0,.15-1.29,6.14,6.14,0,0,0-6.32-5.95"/><path class="cls-12" d="M828.46,350.86a6,6,0,1,0,6.32,5.95,6.14,6.14,0,0,0-6.32-5.95"/><path class="cls-20" d="M828.46,350.86a6.14,6.14,0,0,0-6.32,5.95,5.55,5.55,0,0,0,.15,1.29,6.41,6.41,0,0,1,12.34,0,5.55,5.55,0,0,0,.15-1.29,6.14,6.14,0,0,0-6.32-5.95"/><path class="cls-12" d="M846.38,350.86a6,6,0,1,0,6.32,5.95,6.14,6.14,0,0,0-6.32-5.95"/><path class="cls-20" d="M846.38,350.86a6.14,6.14,0,0,0-6.32,5.95,5.55,5.55,0,0,0,.15,1.29,6.41,6.41,0,0,1,12.34,0,5.55,5.55,0,0,0,.15-1.29,6.14,6.14,0,0,0-6.32-5.95"/></g></g></g><g id="Artwork_36-5" data-name="Artwork 36"><g class="cls-27"><g class="cls-28"><path class="cls-16" d="M582.44,431.42H536.56a10.87,10.87,0,0,0-7.07,2.51,8,8,0,0,0-3,6v54a7.93,7.93,0,0,0,3,6,10.87,10.87,0,0,0,7.07,2.51h45.88a10.94,10.94,0,0,0,7.08-2.51,8,8,0,0,0,2.94-6V440a8,8,0,0,0-2.94-6A10.94,10.94,0,0,0,582.44,431.42ZM589.37,494a5.51,5.51,0,0,1-2,4.17,7.59,7.59,0,0,1-4.9,1.74H536.56a7.59,7.59,0,0,1-4.9-1.74,5.51,5.51,0,0,1-2-4.17V440a5.51,5.51,0,0,1,2-4.18,7.59,7.59,0,0,1,4.9-1.74h45.88a7.59,7.59,0,0,1,4.9,1.74,5.51,5.51,0,0,1,2,4.18Z"/><path class="cls-4" d="M582.44,431.42H559.5v2.63h22.94a7.59,7.59,0,0,1,4.9,1.74,5.51,5.51,0,0,1,2,4.18v54a5.51,5.51,0,0,1-2,4.18,7.59,7.59,0,0,1-4.9,1.74H559.5v2.63h22.94a10.94,10.94,0,0,0,7.08-2.51,8,8,0,0,0,2.94-6V440a8,8,0,0,0-2.94-6,10.94,10.94,0,0,0-7.08-2.51"/><path class="cls-4" d="M536.56,499.92a7.59,7.59,0,0,1-4.9-1.74,5.48,5.48,0,0,1-2-4.17V440a5.48,5.48,0,0,1,2-4.18,7.59,7.59,0,0,1,4.9-1.74H559.5v-2.63H536.56a10.94,10.94,0,0,0-7.08,2.51,8,8,0,0,0-2.94,6v54a8,8,0,0,0,2.94,6,10.94,10.94,0,0,0,7.08,2.51H559.5v-2.63Z"/><path class="cls-17" d="M582.44,429.45H536.56a10.87,10.87,0,0,0-7.07,2.51,7.94,7.94,0,0,0-3,6v54a8,8,0,0,0,3,6,10.87,10.87,0,0,0,7.07,2.51h45.88a10.94,10.94,0,0,0,7.08-2.51,8,8,0,0,0,2.94-6V438a8,8,0,0,0-2.94-6A10.94,10.94,0,0,0,582.44,429.45ZM589.37,492a5.51,5.51,0,0,1-2,4.18,7.59,7.59,0,0,1-4.9,1.74H536.56a7.59,7.59,0,0,1-4.9-1.74,5.51,5.51,0,0,1-2-4.18V438a5.51,5.51,0,0,1,2-4.18,7.59,7.59,0,0,1,4.9-1.74h45.88a7.59,7.59,0,0,1,4.9,1.74,5.51,5.51,0,0,1,2,4.18Z"/><path class="cls-6" d="M536.56,498a7.59,7.59,0,0,1-4.9-1.74,5.48,5.48,0,0,1-2-4.18V438a5.48,5.48,0,0,1,2-4.18,7.59,7.59,0,0,1,4.9-1.74H559.5v-2.63H536.56a10.94,10.94,0,0,0-7.08,2.51,8,8,0,0,0-2.94,6v54a8,8,0,0,0,2.94,6,10.94,10.94,0,0,0,7.08,2.51H559.5V498Z"/><path class="cls-6" d="M582.44,429.45H559.5v2.63h22.94a7.59,7.59,0,0,1,4.9,1.74,5.51,5.51,0,0,1,2,4.18v54a5.51,5.51,0,0,1-2,4.18,7.59,7.59,0,0,1-4.9,1.74H559.5v2.63h22.94a10.94,10.94,0,0,0,7.08-2.51,8,8,0,0,0,2.94-6V438a8,8,0,0,0-2.94-6,10.94,10.94,0,0,0-7.08-2.51"/><path class="cls-12" d="M583.24,430.77H535.76a7.49,7.49,0,0,0-7.68,7.23v54a7.49,7.49,0,0,0,7.68,7.23h47.48a7.49,7.49,0,0,0,7.68-7.23V438a7.49,7.49,0,0,0-7.68-7.23"/><path class="cls-18" d="M581.93,432.22H537.07a6.27,6.27,0,0,0-6.43,6v51.5a6.27,6.27,0,0,0,6.43,6.05h44.86a6.27,6.27,0,0,0,6.43-6.05v-51.5A6.27,6.27,0,0,0,581.93,432.22Z"/><path class="cls-13" d="M581.93,432.22H537.07a6.27,6.27,0,0,0-6.43,6v51.5a6.27,6.27,0,0,0,6.43,6.05h44.86a6.27,6.27,0,0,0,6.43-6.05v-51.5a6.27,6.27,0,0,0-6.43-6"/><path class="cls-19" d="M581.93,494.45H537.07a6.27,6.27,0,0,1-6.43-6.05v1.37a6.27,6.27,0,0,0,6.43,6.05h44.86a6.27,6.27,0,0,0,6.43-6.05V488.4a6.45,6.45,0,0,1-6.43,6.05"/><path class="cls-12" d="M541.54,478.86a6,6,0,1,0,6.32,5.95,6.14,6.14,0,0,0-6.32-5.95"/><path class="cls-20" d="M541.54,478.86a6.14,6.14,0,0,0-6.32,5.95,5.55,5.55,0,0,0,.15,1.29,6.41,6.41,0,0,1,12.34,0,5.55,5.55,0,0,0,.15-1.29,6.14,6.14,0,0,0-6.32-5.95"/><path class="cls-12" d="M559.46,478.86a6,6,0,1,0,6.32,5.95,6.14,6.14,0,0,0-6.32-5.95"/><path class="cls-20" d="M559.46,478.86a6.14,6.14,0,0,0-6.32,5.95,5.55,5.55,0,0,0,.15,1.29,6.41,6.41,0,0,1,12.34,0,5.55,5.55,0,0,0,.15-1.29,6.14,6.14,0,0,0-6.32-5.95"/><path class="cls-12" d="M577.38,478.86a6,6,0,1,0,6.32,5.95,6.14,6.14,0,0,0-6.32-5.95"/><path class="cls-20" d="M577.38,478.86a6.14,6.14,0,0,0-6.32,5.95,5.55,5.55,0,0,0,.15,1.29,6.41,6.41,0,0,1,12.34,0,5.55,5.55,0,0,0,.15-1.29,6.14,6.14,0,0,0-6.32-5.95"/></g></g></g><g id="Artwork_36-6" data-name="Artwork 36"><g class="cls-29"><g class="cls-30"><path class="cls-16" d="M702.44,431.42H656.56a10.87,10.87,0,0,0-7.07,2.51,8,8,0,0,0-3,6v54a7.93,7.93,0,0,0,3,6,10.87,10.87,0,0,0,7.07,2.51h45.88a10.94,10.94,0,0,0,7.08-2.51,8,8,0,0,0,2.94-6V440a8,8,0,0,0-2.94-6A10.94,10.94,0,0,0,702.44,431.42ZM709.37,494a5.51,5.51,0,0,1-2,4.17,7.59,7.59,0,0,1-4.9,1.74H656.56a7.59,7.59,0,0,1-4.9-1.74,5.51,5.51,0,0,1-2-4.17V440a5.51,5.51,0,0,1,2-4.18,7.59,7.59,0,0,1,4.9-1.74h45.88a7.59,7.59,0,0,1,4.9,1.74,5.51,5.51,0,0,1,2,4.18Z"/><path class="cls-4" d="M702.44,431.42H679.5v2.63h22.94a7.59,7.59,0,0,1,4.9,1.74,5.51,5.51,0,0,1,2,4.18v54a5.51,5.51,0,0,1-2,4.18,7.59,7.59,0,0,1-4.9,1.74H679.5v2.63h22.94a10.94,10.94,0,0,0,7.08-2.51,8,8,0,0,0,2.94-6V440a8,8,0,0,0-2.94-6,10.94,10.94,0,0,0-7.08-2.51"/><path class="cls-4" d="M656.56,499.92a7.59,7.59,0,0,1-4.9-1.74,5.48,5.48,0,0,1-2-4.17V440a5.48,5.48,0,0,1,2-4.18,7.59,7.59,0,0,1,4.9-1.74H679.5v-2.63H656.56a10.94,10.94,0,0,0-7.08,2.51,8,8,0,0,0-2.94,6v54a8,8,0,0,0,2.94,6,10.94,10.94,0,0,0,7.08,2.51H679.5v-2.63Z"/><path class="cls-17" d="M702.44,429.45H656.56a10.87,10.87,0,0,0-7.07,2.51,7.94,7.94,0,0,0-3,6v54a8,8,0,0,0,3,6,10.87,10.87,0,0,0,7.07,2.51h45.88a10.94,10.94,0,0,0,7.08-2.51,8,8,0,0,0,2.94-6V438a8,8,0,0,0-2.94-6A10.94,10.94,0,0,0,702.44,429.45ZM709.37,492a5.51,5.51,0,0,1-2,4.18,7.59,7.59,0,0,1-4.9,1.74H656.56a7.59,7.59,0,0,1-4.9-1.74,5.51,5.51,0,0,1-2-4.18V438a5.51,5.51,0,0,1,2-4.18,7.59,7.59,0,0,1,4.9-1.74h45.88a7.59,7.59,0,0,1,4.9,1.74,5.51,5.51,0,0,1,2,4.18Z"/><path class="cls-6" d="M656.56,498a7.59,7.59,0,0,1-4.9-1.74,5.48,5.48,0,0,1-2-4.18V438a5.48,5.48,0,0,1,2-4.18,7.59,7.59,0,0,1,4.9-1.74H679.5v-2.63H656.56a10.94,10.94,0,0,0-7.08,2.51,8,8,0,0,0-2.94,6v54a8,8,0,0,0,2.94,6,10.94,10.94,0,0,0,7.08,2.51H679.5V498Z"/><path class="cls-6" d="M702.44,429.45H679.5v2.63h22.94a7.59,7.59,0,0,1,4.9,1.74,5.51,5.51,0,0,1,2,4.18v54a5.51,5.51,0,0,1-2,4.18,7.59,7.59,0,0,1-4.9,1.74H679.5v2.63h22.94a10.94,10.94,0,0,0,7.08-2.51,8,8,0,0,0,2.94-6V438a8,8,0,0,0-2.94-6,10.94,10.94,0,0,0-7.08-2.51"/><path class="cls-12" d="M703.24,430.77H655.76a7.49,7.49,0,0,0-7.68,7.23v54a7.49,7.49,0,0,0,7.68,7.23h47.48a7.49,7.49,0,0,0,7.68-7.23V438a7.49,7.49,0,0,0-7.68-7.23"/><path class="cls-18" d="M701.93,432.22H657.07a6.27,6.27,0,0,0-6.43,6v51.5a6.27,6.27,0,0,0,6.43,6.05h44.86a6.27,6.27,0,0,0,6.43-6.05v-51.5A6.27,6.27,0,0,0,701.93,432.22Z"/><path class="cls-13" d="M701.93,432.22H657.07a6.27,6.27,0,0,0-6.43,6v51.5a6.27,6.27,0,0,0,6.43,6.05h44.86a6.27,6.27,0,0,0,6.43-6.05v-51.5a6.27,6.27,0,0,0-6.43-6"/><path class="cls-19" d="M701.93,494.45H657.07a6.27,6.27,0,0,1-6.43-6.05v1.37a6.27,6.27,0,0,0,6.43,6.05h44.86a6.27,6.27,0,0,0,6.43-6.05V488.4a6.45,6.45,0,0,1-6.43,6.05"/><path class="cls-12" d="M661.54,478.86a6,6,0,1,0,6.32,5.95,6.14,6.14,0,0,0-6.32-5.95"/><path class="cls-20" d="M661.54,478.86a6.14,6.14,0,0,0-6.32,5.95,5.55,5.55,0,0,0,.15,1.29,6.41,6.41,0,0,1,12.34,0,5.55,5.55,0,0,0,.15-1.29,6.14,6.14,0,0,0-6.32-5.95"/><path class="cls-12" d="M679.46,478.86a6,6,0,1,0,6.32,5.95,6.14,6.14,0,0,0-6.32-5.95"/><path class="cls-20" d="M679.46,478.86a6.14,6.14,0,0,0-6.32,5.95,5.55,5.55,0,0,0,.15,1.29,6.41,6.41,0,0,1,12.34,0,5.55,5.55,0,0,0,.15-1.29,6.14,6.14,0,0,0-6.32-5.95"/><path class="cls-12" d="M697.38,478.86a6,6,0,1,0,6.32,5.95,6.14,6.14,0,0,0-6.32-5.95"/><path class="cls-20" d="M697.38,478.86a6.14,6.14,0,0,0-6.32,5.95,5.55,5.55,0,0,0,.15,1.29,6.41,6.41,0,0,1,12.34,0,5.55,5.55,0,0,0,.15-1.29,6.14,6.14,0,0,0-6.32-5.95"/></g></g></g><g id="Artwork_36-7" data-name="Artwork 36"><g class="cls-31"><g class="cls-32"><path class="cls-16" d="M821.44,431.42H775.56a10.87,10.87,0,0,0-7.07,2.51,8,8,0,0,0-3,6v54a7.93,7.93,0,0,0,3,6,10.87,10.87,0,0,0,7.07,2.51h45.88a10.94,10.94,0,0,0,7.08-2.51,8,8,0,0,0,2.94-6V440a8,8,0,0,0-2.94-6A10.94,10.94,0,0,0,821.44,431.42ZM828.37,494a5.51,5.51,0,0,1-2,4.17,7.59,7.59,0,0,1-4.9,1.74H775.56a7.59,7.59,0,0,1-4.9-1.74,5.51,5.51,0,0,1-2-4.17V440a5.51,5.51,0,0,1,2-4.18,7.59,7.59,0,0,1,4.9-1.74h45.88a7.59,7.59,0,0,1,4.9,1.74,5.51,5.51,0,0,1,2,4.18Z"/><path class="cls-4" d="M821.44,431.42H798.5v2.63h22.94a7.59,7.59,0,0,1,4.9,1.74,5.51,5.51,0,0,1,2,4.18v54a5.51,5.51,0,0,1-2,4.18,7.59,7.59,0,0,1-4.9,1.74H798.5v2.63h22.94a10.94,10.94,0,0,0,7.08-2.51,8,8,0,0,0,2.94-6V440a8,8,0,0,0-2.94-6,10.94,10.94,0,0,0-7.08-2.51"/><path class="cls-4" d="M775.56,499.92a7.59,7.59,0,0,1-4.9-1.74,5.48,5.48,0,0,1-2-4.17V440a5.48,5.48,0,0,1,2-4.18,7.59,7.59,0,0,1,4.9-1.74H798.5v-2.63H775.56a10.94,10.94,0,0,0-7.08,2.51,8,8,0,0,0-2.94,6v54a8,8,0,0,0,2.94,6,10.94,10.94,0,0,0,7.08,2.51H798.5v-2.63Z"/><path class="cls-17" d="M821.44,429.45H775.56a10.87,10.87,0,0,0-7.07,2.51,7.94,7.94,0,0,0-3,6v54a8,8,0,0,0,3,6,10.87,10.87,0,0,0,7.07,2.51h45.88a10.94,10.94,0,0,0,7.08-2.51,8,8,0,0,0,2.94-6V438a8,8,0,0,0-2.94-6A10.94,10.94,0,0,0,821.44,429.45ZM828.37,492a5.51,5.51,0,0,1-2,4.18,7.59,7.59,0,0,1-4.9,1.74H775.56a7.59,7.59,0,0,1-4.9-1.74,5.51,5.51,0,0,1-2-4.18V438a5.51,5.51,0,0,1,2-4.18,7.59,7.59,0,0,1,4.9-1.74h45.88a7.59,7.59,0,0,1,4.9,1.74,5.51,5.51,0,0,1,2,4.18Z"/><path class="cls-6" d="M775.56,498a7.59,7.59,0,0,1-4.9-1.74,5.48,5.48,0,0,1-2-4.18V438a5.48,5.48,0,0,1,2-4.18,7.59,7.59,0,0,1,4.9-1.74H798.5v-2.63H775.56a10.94,10.94,0,0,0-7.08,2.51,8,8,0,0,0-2.94,6v54a8,8,0,0,0,2.94,6,10.94,10.94,0,0,0,7.08,2.51H798.5V498Z"/><path class="cls-6" d="M821.44,429.45H798.5v2.63h22.94a7.59,7.59,0,0,1,4.9,1.74,5.51,5.51,0,0,1,2,4.18v54a5.51,5.51,0,0,1-2,4.18,7.59,7.59,0,0,1-4.9,1.74H798.5v2.63h22.94a10.94,10.94,0,0,0,7.08-2.51,8,8,0,0,0,2.94-6V438a8,8,0,0,0-2.94-6,10.94,10.94,0,0,0-7.08-2.51"/><path class="cls-12" d="M822.24,430.77H774.76a7.49,7.49,0,0,0-7.68,7.23v54a7.49,7.49,0,0,0,7.68,7.23h47.48a7.49,7.49,0,0,0,7.68-7.23V438a7.49,7.49,0,0,0-7.68-7.23"/><path class="cls-18" d="M820.93,432.22H776.07a6.27,6.27,0,0,0-6.43,6v51.5a6.27,6.27,0,0,0,6.43,6.05h44.86a6.27,6.27,0,0,0,6.43-6.05v-51.5A6.27,6.27,0,0,0,820.93,432.22Z"/><path class="cls-13" d="M820.93,432.22H776.07a6.27,6.27,0,0,0-6.43,6v51.5a6.27,6.27,0,0,0,6.43,6.05h44.86a6.27,6.27,0,0,0,6.43-6.05v-51.5a6.27,6.27,0,0,0-6.43-6"/><path class="cls-19" d="M820.93,494.45H776.07a6.27,6.27,0,0,1-6.43-6.05v1.37a6.27,6.27,0,0,0,6.43,6.05h44.86a6.27,6.27,0,0,0,6.43-6.05V488.4a6.45,6.45,0,0,1-6.43,6.05"/><path class="cls-12" d="M780.54,478.86a6,6,0,1,0,6.32,5.95,6.14,6.14,0,0,0-6.32-5.95"/><path class="cls-20" d="M780.54,478.86a6.14,6.14,0,0,0-6.32,5.95,5.55,5.55,0,0,0,.15,1.29,6.41,6.41,0,0,1,12.34,0,5.55,5.55,0,0,0,.15-1.29,6.14,6.14,0,0,0-6.32-5.95"/><path class="cls-12" d="M798.46,478.86a6,6,0,1,0,6.32,5.95,6.14,6.14,0,0,0-6.32-5.95"/><path class="cls-20" d="M798.46,478.86a6.14,6.14,0,0,0-6.32,5.95,5.55,5.55,0,0,0,.15,1.29,6.41,6.41,0,0,1,12.34,0,5.55,5.55,0,0,0,.15-1.29,6.14,6.14,0,0,0-6.32-5.95"/><path class="cls-12" d="M816.38,478.86a6,6,0,1,0,6.32,5.95,6.14,6.14,0,0,0-6.32-5.95"/><path class="cls-20" d="M816.38,478.86a6.14,6.14,0,0,0-6.32,5.95,5.55,5.55,0,0,0,.15,1.29,6.41,6.41,0,0,1,12.34,0,5.55,5.55,0,0,0,.15-1.29,6.14,6.14,0,0,0-6.32-5.95"/></g></g></g><text class="cls-33" transform="translate(509.31 340.04)">1</text><text class="cls-33" transform="translate(613.17 342.6)">2</text><text class="cls-33" transform="translate(714.17 342.6)">3</text><text class="cls-33" transform="translate(815.17 345.6)">4</text><text class="cls-33" transform="translate(547.17 470.6)">5</text><text class="cls-33" transform="translate(667.17 470.6)">6</text><text class="cls-33" transform="translate(788.17 470.6)">7</text><text class="cls-34" transform="translate(511.59 338.29) scale(0.97 1)">1</text><text class="cls-34" transform="translate(613.54 339.94) scale(0.97 1)">2</text><text class="cls-34" transform="translate(715.54 339.94) scale(0.97 1)">3</text><text class="cls-34" transform="translate(817.54 342.94) scale(0.97 1)">4</text><text class="cls-34" transform="translate(550.54 470.94) scale(0.97 1)">5</text><text class="cls-34" transform="translate(669.54 470.94) scale(0.97 1)">6</text><text class="cls-34" transform="translate(790.54 470.94) scale(0.97 1)">7</text><text class="cls-35" transform="translate(586.26 236.37) scale(1.05 1)"><tspan class="cls-36">L</tspan><tspan x="22.36" y="0">EVELS</tspan></text></svg>