<svg id="Layer_1" data-name="Layer 1" xmlns="http://www.w3.org/2000/svg" xmlns:xlink="http://www.w3.org/1999/xlink" viewBox="0 0 520 459"><defs><style>.cls-1,.cls-10,.cls-12,.cls-13,.cls-4{fill:none;}.cls-2{clip-path:url(#clip-path);}.cls-3{clip-path:url(#clip-path-2);}.cls-12,.cls-4{stroke:#962a06;}.cls-10,.cls-12,.cls-13,.cls-4{stroke-miterlimit:22.93;}.cls-4{stroke-width:8.88px;}.cls-28,.cls-30,.cls-5{fill:#fff;}.cls-11,.cls-14,.cls-15,.cls-5,.cls-6,.cls-7{fill-rule:evenodd;}.cls-6{fill:#d53c09;}.cls-7{fill:#f6460a;}.cls-8{clip-path:url(#clip-path-3);}.cls-9{clip-path:url(#clip-path-4);}.cls-10{stroke:#792205;}.cls-10,.cls-12{stroke-width:2.99px;}.cls-11{fill:#792205;}.cls-13{stroke:#f8754a;stroke-width:0.75px;}.cls-14{fill:#f8754a;}.cls-15{fill:#b43308;}.cls-16{clip-path:url(#clip-path-5);}.cls-17{clip-path:url(#clip-path-6);}.cls-18{clip-path:url(#clip-path-7);}.cls-19{clip-path:url(#clip-path-8);}.cls-20{clip-path:url(#clip-path-9);}.cls-21{clip-path:url(#clip-path-10);}.cls-22{clip-path:url(#clip-path-11);}.cls-23{clip-path:url(#clip-path-12);}.cls-24{clip-path:url(#clip-path-13);}.cls-25{clip-path:url(#clip-path-14);}.cls-26{clip-path:url(#clip-path-15);}.cls-27{clip-path:url(#clip-path-16);}.cls-28{font-size:40px;}.cls-28,.cls-29,.cls-30{font-family:KidGames, Kid Games;}.cls-29{font-size:37.96px;fill:#fc3;}.cls-30{font-size:37.27px;}.cls-31{letter-spacing:-0.05em;}</style><clipPath id="clip-path"><rect class="cls-1" x="34" y="23" width="436" height="54"/></clipPath><clipPath id="clip-path-2"><rect class="cls-1" x="34" y="23" width="436" height="54"/></clipPath><clipPath id="clip-path-3"><rect class="cls-1" x="70" y="127" width="69" height="76"/></clipPath><clipPath id="clip-path-4"><rect class="cls-1" x="70" y="127" width="69" height="76"/></clipPath><clipPath id="clip-path-5"><rect class="cls-1" x="175" y="127" width="69" height="76"/></clipPath><clipPath id="clip-path-6"><rect class="cls-1" x="175" y="127" width="69" height="76"/></clipPath><clipPath id="clip-path-7"><rect class="cls-1" x="277" y="127" width="69" height="76"/></clipPath><clipPath id="clip-path-8"><rect class="cls-1" x="277" y="127" width="69" height="76"/></clipPath><clipPath id="clip-path-9"><rect class="cls-1" x="379" y="127" width="69" height="76"/></clipPath><clipPath id="clip-path-10"><rect class="cls-1" x="379" y="127" width="69" height="76"/></clipPath><clipPath id="clip-path-11"><rect class="cls-1" x="110" y="255" width="69" height="76"/></clipPath><clipPath id="clip-path-12"><rect class="cls-1" x="110" y="255" width="69" height="76"/></clipPath><clipPath id="clip-path-13"><rect class="cls-1" x="230" y="255" width="69" height="76"/></clipPath><clipPath id="clip-path-14"><rect class="cls-1" x="230" y="255" width="69" height="76"/></clipPath><clipPath id="clip-path-15"><rect class="cls-1" x="349" y="255" width="69" height="76"/></clipPath><clipPath id="clip-path-16"><rect class="cls-1" x="349" y="255" width="69" height="76"/></clipPath></defs><g id="Artwork_37" data-name="Artwork 37"><g class="cls-2"><g class="cls-3"><path class="cls-4" d="M458.17,34H416.71a7.24,7.24,0,0,0-2.91-4.83,11.66,11.66,0,0,0-7.12-2.3H99.13A11.64,11.64,0,0,0,92,29.21,7.26,7.26,0,0,0,89.09,34H45.83l4.09,3.31L64.56,49.17l-14.72,13-3.65,3.24H89.06a7.08,7.08,0,0,0,3,5.34,11.64,11.64,0,0,0,7.12,2.3H406.68a11.66,11.66,0,0,0,7.12-2.3,7.08,7.08,0,0,0,2.95-5.34h41.06l-3.66-3.24-14.71-13,14.64-11.82ZM434.23,47.76l-1.6,1.29,1.52,1.34,12.57,11.15h-35v3.73A3.53,3.53,0,0,1,410.23,68a5.8,5.8,0,0,1-3.55,1.15H99.13A5.83,5.83,0,0,1,95.57,68a3.54,3.54,0,0,1-1.48-2.76V61.54H57.27L69.85,50.39l1.52-1.34-1.6-1.29L57.63,38H94.09V34.73A3.54,3.54,0,0,1,95.57,32a5.83,5.83,0,0,1,3.56-1.15H406.68A5.8,5.8,0,0,1,410.23,32a3.53,3.53,0,0,1,1.49,2.76V38h34.64Z"/><path class="cls-5" d="M99.13,69.18A5.83,5.83,0,0,1,95.57,68a3.54,3.54,0,0,1-1.48-2.76V61.54H57.27L69.85,50.39l1.52-1.34-1.6-1.29L57.64,38H94.09V34.73A3.54,3.54,0,0,1,95.57,32a5.83,5.83,0,0,1,3.56-1.15H252V26.91H99.13A11.66,11.66,0,0,0,92,29.21,7.29,7.29,0,0,0,89.09,34H45.83l4.09,3.31L64.56,49.17l-14.72,13-3.65,3.23H89.06a7.08,7.08,0,0,0,3,5.34,11.66,11.66,0,0,0,7.12,2.3H252V69.18Z"/><path class="cls-5" d="M458.17,34H416.71a7.24,7.24,0,0,0-2.91-4.83,11.66,11.66,0,0,0-7.12-2.3H252v3.91H406.68A5.8,5.8,0,0,1,410.23,32a3.53,3.53,0,0,1,1.49,2.76V38h34.64l-12.13,9.81-1.6,1.29,1.52,1.34,12.57,11.15h-35v3.73A3.53,3.53,0,0,1,410.23,68a5.8,5.8,0,0,1-3.55,1.15H252v3.91H406.68a11.66,11.66,0,0,0,7.12-2.3,7.08,7.08,0,0,0,2.95-5.34h41.06l-3.65-3.23-14.72-13,14.64-11.82Z"/><polygon class="cls-6" points="67.96 49.11 51.73 63.5 100.26 63.5 100.26 36 51.73 36 67.96 49.11"/><polygon class="cls-6" points="403.74 36 403.74 63.5 452.27 63.5 436.04 49.11 452.27 36 403.74 36"/><path class="cls-7" d="M406.68,28.87H99.13c-4.16,0-7.56,2.64-7.56,5.86V65.27c0,3.22,3.4,5.86,7.56,5.86H406.68c4.15,0,7.56-2.64,7.56-5.86V34.73c0-3.22-3.41-5.86-7.56-5.86"/></g></g></g><g id="Artwork_36" data-name="Artwork 36"><g class="cls-8"><g class="cls-9"><path class="cls-10" d="M127.44,130.42H81.56a10.87,10.87,0,0,0-7.07,2.51,8,8,0,0,0-2.95,6v54a7.93,7.93,0,0,0,2.95,6,10.87,10.87,0,0,0,7.07,2.51h45.88a10.94,10.94,0,0,0,7.08-2.51,8,8,0,0,0,2.94-6V139a8,8,0,0,0-2.94-6A10.94,10.94,0,0,0,127.44,130.42ZM134.37,193a5.51,5.51,0,0,1-2,4.17,7.59,7.59,0,0,1-4.9,1.74H81.56a7.59,7.59,0,0,1-4.9-1.74,5.51,5.51,0,0,1-2-4.17V139a5.51,5.51,0,0,1,2-4.18,7.59,7.59,0,0,1,4.9-1.74h45.88a7.59,7.59,0,0,1,4.9,1.74,5.51,5.51,0,0,1,2,4.18Z"/><path class="cls-11" d="M127.44,130.42H104.5v2.63h22.94a7.59,7.59,0,0,1,4.9,1.74,5.51,5.51,0,0,1,2,4.18v54a5.51,5.51,0,0,1-2,4.18,7.59,7.59,0,0,1-4.9,1.74H104.5v2.63h22.94a10.94,10.94,0,0,0,7.08-2.51,8,8,0,0,0,2.94-6V139a8,8,0,0,0-2.94-6,10.94,10.94,0,0,0-7.08-2.51"/><path class="cls-11" d="M81.56,198.92a7.59,7.59,0,0,1-4.9-1.74,5.48,5.48,0,0,1-2-4.17V139a5.48,5.48,0,0,1,2-4.18,7.59,7.59,0,0,1,4.9-1.74H104.5v-2.63H81.56a10.94,10.94,0,0,0-7.08,2.51,8,8,0,0,0-2.94,6v54a8,8,0,0,0,2.94,6,10.94,10.94,0,0,0,7.08,2.51H104.5v-2.63Z"/><path class="cls-12" d="M127.44,128.45H81.56A10.87,10.87,0,0,0,74.49,131a7.94,7.94,0,0,0-2.95,6v54a8,8,0,0,0,2.95,6,10.87,10.87,0,0,0,7.07,2.51h45.88a10.94,10.94,0,0,0,7.08-2.51,8,8,0,0,0,2.94-6V137a8,8,0,0,0-2.94-6A10.94,10.94,0,0,0,127.44,128.45ZM134.37,191a5.51,5.51,0,0,1-2,4.18,7.59,7.59,0,0,1-4.9,1.74H81.56a7.59,7.59,0,0,1-4.9-1.74,5.51,5.51,0,0,1-2-4.18V137a5.51,5.51,0,0,1,2-4.18,7.59,7.59,0,0,1,4.9-1.74h45.88a7.59,7.59,0,0,1,4.9,1.74,5.51,5.51,0,0,1,2,4.18Z"/><path class="cls-5" d="M81.56,197a7.59,7.59,0,0,1-4.9-1.74,5.48,5.48,0,0,1-2-4.18V137a5.48,5.48,0,0,1,2-4.18,7.59,7.59,0,0,1,4.9-1.74H104.5v-2.63H81.56A10.94,10.94,0,0,0,74.48,131a8,8,0,0,0-2.94,6v54a8,8,0,0,0,2.94,6,10.94,10.94,0,0,0,7.08,2.51H104.5V197Z"/><path class="cls-5" d="M127.44,128.45H104.5v2.63h22.94a7.59,7.59,0,0,1,4.9,1.74,5.51,5.51,0,0,1,2,4.18v54a5.51,5.51,0,0,1-2,4.18,7.59,7.59,0,0,1-4.9,1.74H104.5v2.63h22.94a10.94,10.94,0,0,0,7.08-2.51,8,8,0,0,0,2.94-6V137a8,8,0,0,0-2.94-6,10.94,10.94,0,0,0-7.08-2.51"/><path class="cls-6" d="M128.24,129.77H80.76A7.49,7.49,0,0,0,73.08,137v54a7.49,7.49,0,0,0,7.68,7.23h47.48a7.49,7.49,0,0,0,7.68-7.23V137a7.49,7.49,0,0,0-7.68-7.23"/><path class="cls-13" d="M126.93,131.22H82.07a6.27,6.27,0,0,0-6.43,6.05v51.5a6.27,6.27,0,0,0,6.43,6h44.86a6.27,6.27,0,0,0,6.43-6v-51.5A6.27,6.27,0,0,0,126.93,131.22Z"/><path class="cls-7" d="M126.93,131.22H82.07a6.27,6.27,0,0,0-6.43,6.05v51.5a6.27,6.27,0,0,0,6.43,6h44.86a6.27,6.27,0,0,0,6.43-6v-51.5a6.27,6.27,0,0,0-6.43-6.05"/><path class="cls-14" d="M126.93,193.45H82.07a6.27,6.27,0,0,1-6.43-6v1.37a6.27,6.27,0,0,0,6.43,6h44.86a6.27,6.27,0,0,0,6.43-6V187.4a6.45,6.45,0,0,1-6.43,6"/><path class="cls-6" d="M86.54,177.86a6,6,0,1,0,6.32,5.95,6.14,6.14,0,0,0-6.32-5.95"/><path class="cls-15" d="M86.54,177.86a6.14,6.14,0,0,0-6.32,5.95,5.55,5.55,0,0,0,.15,1.29,6.41,6.41,0,0,1,12.34,0,5.55,5.55,0,0,0,.15-1.29,6.14,6.14,0,0,0-6.32-5.95"/><path class="cls-6" d="M104.46,177.86a6,6,0,1,0,6.32,5.95,6.14,6.14,0,0,0-6.32-5.95"/><path class="cls-15" d="M104.46,177.86a6.14,6.14,0,0,0-6.32,5.95,5.55,5.55,0,0,0,.15,1.29,6.41,6.41,0,0,1,12.34,0,5.55,5.55,0,0,0,.15-1.29,6.14,6.14,0,0,0-6.32-5.95"/><path class="cls-6" d="M122.38,177.86a6,6,0,1,0,6.32,5.95,6.14,6.14,0,0,0-6.32-5.95"/><path class="cls-15" d="M122.38,177.86a6.14,6.14,0,0,0-6.32,5.95,5.55,5.55,0,0,0,.15,1.29,6.41,6.41,0,0,1,12.34,0,5.55,5.55,0,0,0,.15-1.29,6.14,6.14,0,0,0-6.32-5.95"/></g></g></g><g id="Artwork_36-2" data-name="Artwork 36"><g class="cls-16"><g class="cls-17"><path class="cls-10" d="M232.44,130.42H186.56a10.87,10.87,0,0,0-7.07,2.51,8,8,0,0,0-3,6v54a7.93,7.93,0,0,0,3,6,10.87,10.87,0,0,0,7.07,2.51h45.88a10.94,10.94,0,0,0,7.08-2.51,8,8,0,0,0,2.94-6V139a8,8,0,0,0-2.94-6A10.94,10.94,0,0,0,232.44,130.42ZM239.37,193a5.51,5.51,0,0,1-2,4.17,7.59,7.59,0,0,1-4.9,1.74H186.56a7.59,7.59,0,0,1-4.9-1.74,5.51,5.51,0,0,1-2-4.17V139a5.51,5.51,0,0,1,2-4.18,7.59,7.59,0,0,1,4.9-1.74h45.88a7.59,7.59,0,0,1,4.9,1.74,5.51,5.51,0,0,1,2,4.18Z"/><path class="cls-11" d="M232.44,130.42H209.5v2.63h22.94a7.59,7.59,0,0,1,4.9,1.74,5.51,5.51,0,0,1,2,4.18v54a5.51,5.51,0,0,1-2,4.18,7.59,7.59,0,0,1-4.9,1.74H209.5v2.63h22.94a10.94,10.94,0,0,0,7.08-2.51,8,8,0,0,0,2.94-6V139a8,8,0,0,0-2.94-6,10.94,10.94,0,0,0-7.08-2.51"/><path class="cls-11" d="M186.56,198.92a7.59,7.59,0,0,1-4.9-1.74,5.48,5.48,0,0,1-2-4.17V139a5.48,5.48,0,0,1,2-4.18,7.59,7.59,0,0,1,4.9-1.74H209.5v-2.63H186.56a10.94,10.94,0,0,0-7.08,2.51,8,8,0,0,0-2.94,6v54a8,8,0,0,0,2.94,6,10.94,10.94,0,0,0,7.08,2.51H209.5v-2.63Z"/><path class="cls-12" d="M232.44,128.45H186.56a10.87,10.87,0,0,0-7.07,2.51,7.94,7.94,0,0,0-3,6v54a8,8,0,0,0,3,6,10.87,10.87,0,0,0,7.07,2.51h45.88a10.94,10.94,0,0,0,7.08-2.51,8,8,0,0,0,2.94-6V137a8,8,0,0,0-2.94-6A10.94,10.94,0,0,0,232.44,128.45ZM239.37,191a5.51,5.51,0,0,1-2,4.18,7.59,7.59,0,0,1-4.9,1.74H186.56a7.59,7.59,0,0,1-4.9-1.74,5.51,5.51,0,0,1-2-4.18V137a5.51,5.51,0,0,1,2-4.18,7.59,7.59,0,0,1,4.9-1.74h45.88a7.59,7.59,0,0,1,4.9,1.74,5.51,5.51,0,0,1,2,4.18Z"/><path class="cls-5" d="M186.56,197a7.59,7.59,0,0,1-4.9-1.74,5.48,5.48,0,0,1-2-4.18V137a5.48,5.48,0,0,1,2-4.18,7.59,7.59,0,0,1,4.9-1.74H209.5v-2.63H186.56a10.94,10.94,0,0,0-7.08,2.51,8,8,0,0,0-2.94,6v54a8,8,0,0,0,2.94,6,10.94,10.94,0,0,0,7.08,2.51H209.5V197Z"/><path class="cls-5" d="M232.44,128.45H209.5v2.63h22.94a7.59,7.59,0,0,1,4.9,1.74,5.51,5.51,0,0,1,2,4.18v54a5.51,5.51,0,0,1-2,4.18,7.59,7.59,0,0,1-4.9,1.74H209.5v2.63h22.94a10.94,10.94,0,0,0,7.08-2.51,8,8,0,0,0,2.94-6V137a8,8,0,0,0-2.94-6,10.94,10.94,0,0,0-7.08-2.51"/><path class="cls-6" d="M233.24,129.77H185.76a7.49,7.49,0,0,0-7.68,7.23v54a7.49,7.49,0,0,0,7.68,7.23h47.48a7.49,7.49,0,0,0,7.68-7.23V137a7.49,7.49,0,0,0-7.68-7.23"/><path class="cls-13" d="M231.93,131.22H187.07a6.27,6.27,0,0,0-6.43,6.05v51.5a6.27,6.27,0,0,0,6.43,6h44.86a6.27,6.27,0,0,0,6.43-6v-51.5A6.27,6.27,0,0,0,231.93,131.22Z"/><path class="cls-7" d="M231.93,131.22H187.07a6.27,6.27,0,0,0-6.43,6.05v51.5a6.27,6.27,0,0,0,6.43,6h44.86a6.27,6.27,0,0,0,6.43-6v-51.5a6.27,6.27,0,0,0-6.43-6.05"/><path class="cls-14" d="M231.93,193.45H187.07a6.27,6.27,0,0,1-6.43-6v1.37a6.27,6.27,0,0,0,6.43,6h44.86a6.27,6.27,0,0,0,6.43-6V187.4a6.45,6.45,0,0,1-6.43,6"/><path class="cls-6" d="M191.54,177.86a6,6,0,1,0,6.32,5.95,6.14,6.14,0,0,0-6.32-5.95"/><path class="cls-15" d="M191.54,177.86a6.14,6.14,0,0,0-6.32,5.95,5.55,5.55,0,0,0,.15,1.29,6.41,6.41,0,0,1,12.34,0,5.55,5.55,0,0,0,.15-1.29,6.14,6.14,0,0,0-6.32-5.95"/><path class="cls-6" d="M209.46,177.86a6,6,0,1,0,6.32,5.95,6.14,6.14,0,0,0-6.32-5.95"/><path class="cls-15" d="M209.46,177.86a6.14,6.14,0,0,0-6.32,5.95,5.55,5.55,0,0,0,.15,1.29,6.41,6.41,0,0,1,12.34,0,5.55,5.55,0,0,0,.15-1.29,6.14,6.14,0,0,0-6.32-5.95"/><path class="cls-6" d="M227.38,177.86a6,6,0,1,0,6.32,5.95,6.14,6.14,0,0,0-6.32-5.95"/><path class="cls-15" d="M227.38,177.86a6.14,6.14,0,0,0-6.32,5.95,5.55,5.55,0,0,0,.15,1.29,6.41,6.41,0,0,1,12.34,0,5.55,5.55,0,0,0,.15-1.29,6.14,6.14,0,0,0-6.32-5.95"/></g></g></g><g id="Artwork_36-3" data-name="Artwork 36"><g class="cls-18"><g class="cls-19"><path class="cls-10" d="M334.44,130.42H288.56a10.87,10.87,0,0,0-7.07,2.51,8,8,0,0,0-2.95,6v54a7.93,7.93,0,0,0,2.95,6,10.87,10.87,0,0,0,7.07,2.51h45.88a10.94,10.94,0,0,0,7.08-2.51,8,8,0,0,0,2.94-6V139a8,8,0,0,0-2.94-6A10.94,10.94,0,0,0,334.44,130.42ZM341.37,193a5.51,5.51,0,0,1-2,4.17,7.59,7.59,0,0,1-4.9,1.74H288.56a7.59,7.59,0,0,1-4.9-1.74,5.51,5.51,0,0,1-2-4.17V139a5.51,5.51,0,0,1,2-4.18,7.59,7.59,0,0,1,4.9-1.74h45.88a7.59,7.59,0,0,1,4.9,1.74,5.51,5.51,0,0,1,2,4.18Z"/><path class="cls-11" d="M334.44,130.42H311.5v2.63h22.94a7.59,7.59,0,0,1,4.9,1.74,5.51,5.51,0,0,1,2,4.18v54a5.51,5.51,0,0,1-2,4.18,7.59,7.59,0,0,1-4.9,1.74H311.5v2.63h22.94a10.94,10.94,0,0,0,7.08-2.51,8,8,0,0,0,2.94-6V139a8,8,0,0,0-2.94-6,10.94,10.94,0,0,0-7.08-2.51"/><path class="cls-11" d="M288.56,198.92a7.59,7.59,0,0,1-4.9-1.74,5.48,5.48,0,0,1-2-4.17V139a5.48,5.48,0,0,1,2-4.18,7.59,7.59,0,0,1,4.9-1.74H311.5v-2.63H288.56a10.94,10.94,0,0,0-7.08,2.51,8,8,0,0,0-2.94,6v54a8,8,0,0,0,2.94,6,10.94,10.94,0,0,0,7.08,2.51H311.5v-2.63Z"/><path class="cls-12" d="M334.44,128.45H288.56a10.87,10.87,0,0,0-7.07,2.51,7.94,7.94,0,0,0-2.95,6v54a8,8,0,0,0,2.95,6,10.87,10.87,0,0,0,7.07,2.51h45.88a10.94,10.94,0,0,0,7.08-2.51,8,8,0,0,0,2.94-6V137a8,8,0,0,0-2.94-6A10.94,10.94,0,0,0,334.44,128.45ZM341.37,191a5.51,5.51,0,0,1-2,4.18,7.59,7.59,0,0,1-4.9,1.74H288.56a7.59,7.59,0,0,1-4.9-1.74,5.51,5.51,0,0,1-2-4.18V137a5.51,5.51,0,0,1,2-4.18,7.59,7.59,0,0,1,4.9-1.74h45.88a7.59,7.59,0,0,1,4.9,1.74,5.51,5.51,0,0,1,2,4.18Z"/><path class="cls-5" d="M288.56,197a7.59,7.59,0,0,1-4.9-1.74,5.48,5.48,0,0,1-2-4.18V137a5.48,5.48,0,0,1,2-4.18,7.59,7.59,0,0,1,4.9-1.74H311.5v-2.63H288.56a10.94,10.94,0,0,0-7.08,2.51,8,8,0,0,0-2.94,6v54a8,8,0,0,0,2.94,6,10.94,10.94,0,0,0,7.08,2.51H311.5V197Z"/><path class="cls-5" d="M334.44,128.45H311.5v2.63h22.94a7.59,7.59,0,0,1,4.9,1.74,5.51,5.51,0,0,1,2,4.18v54a5.51,5.51,0,0,1-2,4.18,7.59,7.59,0,0,1-4.9,1.74H311.5v2.63h22.94a10.94,10.94,0,0,0,7.08-2.51,8,8,0,0,0,2.94-6V137a8,8,0,0,0-2.94-6,10.94,10.94,0,0,0-7.08-2.51"/><path class="cls-6" d="M335.24,129.77H287.76a7.49,7.49,0,0,0-7.68,7.23v54a7.49,7.49,0,0,0,7.68,7.23h47.48a7.49,7.49,0,0,0,7.68-7.23V137a7.49,7.49,0,0,0-7.68-7.23"/><path class="cls-13" d="M333.93,131.22H289.07a6.27,6.27,0,0,0-6.43,6.05v51.5a6.27,6.27,0,0,0,6.43,6h44.86a6.27,6.27,0,0,0,6.43-6v-51.5A6.27,6.27,0,0,0,333.93,131.22Z"/><path class="cls-7" d="M333.93,131.22H289.07a6.27,6.27,0,0,0-6.43,6.05v51.5a6.27,6.27,0,0,0,6.43,6h44.86a6.27,6.27,0,0,0,6.43-6v-51.5a6.27,6.27,0,0,0-6.43-6.05"/><path class="cls-14" d="M333.93,193.45H289.07a6.27,6.27,0,0,1-6.43-6v1.37a6.27,6.27,0,0,0,6.43,6h44.86a6.27,6.27,0,0,0,6.43-6V187.4a6.45,6.45,0,0,1-6.43,6"/><path class="cls-6" d="M293.54,177.86a6,6,0,1,0,6.32,5.95,6.14,6.14,0,0,0-6.32-5.95"/><path class="cls-15" d="M293.54,177.86a6.14,6.14,0,0,0-6.32,5.95,5.55,5.55,0,0,0,.15,1.29,6.41,6.41,0,0,1,12.34,0,5.55,5.55,0,0,0,.15-1.29,6.14,6.14,0,0,0-6.32-5.95"/><path class="cls-6" d="M311.46,177.86a6,6,0,1,0,6.32,5.95,6.14,6.14,0,0,0-6.32-5.95"/><path class="cls-15" d="M311.46,177.86a6.14,6.14,0,0,0-6.32,5.95,5.55,5.55,0,0,0,.15,1.29,6.41,6.41,0,0,1,12.34,0,5.55,5.55,0,0,0,.15-1.29,6.14,6.14,0,0,0-6.32-5.95"/><path class="cls-6" d="M329.38,177.86a6,6,0,1,0,6.32,5.95,6.14,6.14,0,0,0-6.32-5.95"/><path class="cls-15" d="M329.38,177.86a6.14,6.14,0,0,0-6.32,5.95,5.55,5.55,0,0,0,.15,1.29,6.41,6.41,0,0,1,12.34,0,5.55,5.55,0,0,0,.15-1.29,6.14,6.14,0,0,0-6.32-5.95"/></g></g></g><g id="Artwork_36-4" data-name="Artwork 36"><g class="cls-20"><g class="cls-21"><path class="cls-10" d="M436.44,130.42H390.56a10.87,10.87,0,0,0-7.07,2.51,8,8,0,0,0-2.95,6v54a7.93,7.93,0,0,0,2.95,6,10.87,10.87,0,0,0,7.07,2.51h45.88a10.94,10.94,0,0,0,7.08-2.51,8,8,0,0,0,2.94-6V139a8,8,0,0,0-2.94-6A10.94,10.94,0,0,0,436.44,130.42ZM443.37,193a5.51,5.51,0,0,1-2,4.17,7.59,7.59,0,0,1-4.9,1.74H390.56a7.59,7.59,0,0,1-4.9-1.74,5.51,5.51,0,0,1-2-4.17V139a5.51,5.51,0,0,1,2-4.18,7.59,7.59,0,0,1,4.9-1.74h45.88a7.59,7.59,0,0,1,4.9,1.74,5.51,5.51,0,0,1,2,4.18Z"/><path class="cls-11" d="M436.44,130.42H413.5v2.63h22.94a7.59,7.59,0,0,1,4.9,1.74,5.51,5.51,0,0,1,2,4.18v54a5.51,5.51,0,0,1-2,4.18,7.59,7.59,0,0,1-4.9,1.74H413.5v2.63h22.94a10.94,10.94,0,0,0,7.08-2.51,8,8,0,0,0,2.94-6V139a8,8,0,0,0-2.94-6,10.94,10.94,0,0,0-7.08-2.51"/><path class="cls-11" d="M390.56,198.92a7.59,7.59,0,0,1-4.9-1.74,5.48,5.48,0,0,1-2-4.17V139a5.48,5.48,0,0,1,2-4.18,7.59,7.59,0,0,1,4.9-1.74H413.5v-2.63H390.56a10.94,10.94,0,0,0-7.08,2.51,8,8,0,0,0-2.94,6v54a8,8,0,0,0,2.94,6,10.94,10.94,0,0,0,7.08,2.51H413.5v-2.63Z"/><path class="cls-12" d="M436.44,128.45H390.56a10.87,10.87,0,0,0-7.07,2.51,7.94,7.94,0,0,0-2.95,6v54a8,8,0,0,0,2.95,6,10.87,10.87,0,0,0,7.07,2.51h45.88a10.94,10.94,0,0,0,7.08-2.51,8,8,0,0,0,2.94-6V137a8,8,0,0,0-2.94-6A10.94,10.94,0,0,0,436.44,128.45ZM443.37,191a5.51,5.51,0,0,1-2,4.18,7.59,7.59,0,0,1-4.9,1.74H390.56a7.59,7.59,0,0,1-4.9-1.74,5.51,5.51,0,0,1-2-4.18V137a5.51,5.51,0,0,1,2-4.18,7.59,7.59,0,0,1,4.9-1.74h45.88a7.59,7.59,0,0,1,4.9,1.74,5.51,5.51,0,0,1,2,4.18Z"/><path class="cls-5" d="M390.56,197a7.59,7.59,0,0,1-4.9-1.74,5.48,5.48,0,0,1-2-4.18V137a5.48,5.48,0,0,1,2-4.18,7.59,7.59,0,0,1,4.9-1.74H413.5v-2.63H390.56a10.94,10.94,0,0,0-7.08,2.51,8,8,0,0,0-2.94,6v54a8,8,0,0,0,2.94,6,10.94,10.94,0,0,0,7.08,2.51H413.5V197Z"/><path class="cls-5" d="M436.44,128.45H413.5v2.63h22.94a7.59,7.59,0,0,1,4.9,1.74,5.51,5.51,0,0,1,2,4.18v54a5.51,5.51,0,0,1-2,4.18,7.59,7.59,0,0,1-4.9,1.74H413.5v2.63h22.94a10.94,10.94,0,0,0,7.08-2.51,8,8,0,0,0,2.94-6V137a8,8,0,0,0-2.94-6,10.94,10.94,0,0,0-7.08-2.51"/><path class="cls-6" d="M437.24,129.77H389.76a7.49,7.49,0,0,0-7.68,7.23v54a7.49,7.49,0,0,0,7.68,7.23h47.48a7.49,7.49,0,0,0,7.68-7.23V137a7.49,7.49,0,0,0-7.68-7.23"/><path class="cls-13" d="M435.93,131.22H391.07a6.27,6.27,0,0,0-6.43,6.05v51.5a6.27,6.27,0,0,0,6.43,6h44.86a6.27,6.27,0,0,0,6.43-6v-51.5A6.27,6.27,0,0,0,435.93,131.22Z"/><path class="cls-7" d="M435.93,131.22H391.07a6.27,6.27,0,0,0-6.43,6.05v51.5a6.27,6.27,0,0,0,6.43,6h44.86a6.27,6.27,0,0,0,6.43-6v-51.5a6.27,6.27,0,0,0-6.43-6.05"/><path class="cls-14" d="M435.93,193.45H391.07a6.27,6.27,0,0,1-6.43-6v1.37a6.27,6.27,0,0,0,6.43,6h44.86a6.27,6.27,0,0,0,6.43-6V187.4a6.45,6.45,0,0,1-6.43,6"/><path class="cls-6" d="M395.54,177.86a6,6,0,1,0,6.32,5.95,6.14,6.14,0,0,0-6.32-5.95"/><path class="cls-15" d="M395.54,177.86a6.14,6.14,0,0,0-6.32,5.95,5.55,5.55,0,0,0,.15,1.29,6.41,6.41,0,0,1,12.34,0,5.55,5.55,0,0,0,.15-1.29,6.14,6.14,0,0,0-6.32-5.95"/><path class="cls-6" d="M413.46,177.86a6,6,0,1,0,6.32,5.95,6.14,6.14,0,0,0-6.32-5.95"/><path class="cls-15" d="M413.46,177.86a6.14,6.14,0,0,0-6.32,5.95,5.55,5.55,0,0,0,.15,1.29,6.41,6.41,0,0,1,12.34,0,5.55,5.55,0,0,0,.15-1.29,6.14,6.14,0,0,0-6.32-5.95"/><path class="cls-6" d="M431.38,177.86a6,6,0,1,0,6.32,5.95,6.14,6.14,0,0,0-6.32-5.95"/><path class="cls-15" d="M431.38,177.86a6.14,6.14,0,0,0-6.32,5.95,5.55,5.55,0,0,0,.15,1.29,6.41,6.41,0,0,1,12.34,0,5.55,5.55,0,0,0,.15-1.29,6.14,6.14,0,0,0-6.32-5.95"/></g></g></g><g id="Artwork_36-5" data-name="Artwork 36"><g class="cls-22"><g class="cls-23"><path class="cls-10" d="M167.44,258.42H121.56a10.87,10.87,0,0,0-7.07,2.51,8,8,0,0,0-2.95,6v54a7.93,7.93,0,0,0,2.95,6,10.87,10.87,0,0,0,7.07,2.51h45.88a10.94,10.94,0,0,0,7.08-2.51,8,8,0,0,0,2.94-6V267a8,8,0,0,0-2.94-6A10.94,10.94,0,0,0,167.44,258.42ZM174.37,321a5.51,5.51,0,0,1-2,4.17,7.59,7.59,0,0,1-4.9,1.74H121.56a7.59,7.59,0,0,1-4.9-1.74,5.51,5.51,0,0,1-2-4.17V267a5.51,5.51,0,0,1,2-4.18,7.59,7.59,0,0,1,4.9-1.74h45.88a7.59,7.59,0,0,1,4.9,1.74,5.51,5.51,0,0,1,2,4.18Z"/><path class="cls-11" d="M167.44,258.42H144.5v2.63h22.94a7.59,7.59,0,0,1,4.9,1.74,5.51,5.51,0,0,1,2,4.18v54a5.51,5.51,0,0,1-2,4.18,7.59,7.59,0,0,1-4.9,1.74H144.5v2.63h22.94a10.94,10.94,0,0,0,7.08-2.51,8,8,0,0,0,2.94-6V267a8,8,0,0,0-2.94-6,10.94,10.94,0,0,0-7.08-2.51"/><path class="cls-11" d="M121.56,326.92a7.59,7.59,0,0,1-4.9-1.74,5.48,5.48,0,0,1-2-4.17V267a5.48,5.48,0,0,1,2-4.18,7.59,7.59,0,0,1,4.9-1.74H144.5v-2.63H121.56a10.94,10.94,0,0,0-7.08,2.51,8,8,0,0,0-2.94,6v54a8,8,0,0,0,2.94,6,10.94,10.94,0,0,0,7.08,2.51H144.5v-2.63Z"/><path class="cls-12" d="M167.44,256.45H121.56a10.87,10.87,0,0,0-7.07,2.51,7.94,7.94,0,0,0-2.95,6v54a8,8,0,0,0,2.95,6,10.87,10.87,0,0,0,7.07,2.51h45.88a10.94,10.94,0,0,0,7.08-2.51,8,8,0,0,0,2.94-6V265a8,8,0,0,0-2.94-6A10.94,10.94,0,0,0,167.44,256.45ZM174.37,319a5.51,5.51,0,0,1-2,4.18,7.59,7.59,0,0,1-4.9,1.74H121.56a7.59,7.59,0,0,1-4.9-1.74,5.51,5.51,0,0,1-2-4.18V265a5.51,5.51,0,0,1,2-4.18,7.59,7.59,0,0,1,4.9-1.74h45.88a7.59,7.59,0,0,1,4.9,1.74,5.51,5.51,0,0,1,2,4.18Z"/><path class="cls-5" d="M121.56,325a7.59,7.59,0,0,1-4.9-1.74,5.48,5.48,0,0,1-2-4.18V265a5.48,5.48,0,0,1,2-4.18,7.59,7.59,0,0,1,4.9-1.74H144.5v-2.63H121.56a10.94,10.94,0,0,0-7.08,2.51,8,8,0,0,0-2.94,6v54a8,8,0,0,0,2.94,6,10.94,10.94,0,0,0,7.08,2.51H144.5V325Z"/><path class="cls-5" d="M167.44,256.45H144.5v2.63h22.94a7.59,7.59,0,0,1,4.9,1.74,5.51,5.51,0,0,1,2,4.18v54a5.51,5.51,0,0,1-2,4.18,7.59,7.59,0,0,1-4.9,1.74H144.5v2.63h22.94a10.94,10.94,0,0,0,7.08-2.51,8,8,0,0,0,2.94-6V265a8,8,0,0,0-2.94-6,10.94,10.94,0,0,0-7.08-2.51"/><path class="cls-6" d="M168.24,257.77H120.76a7.49,7.49,0,0,0-7.68,7.23v54a7.49,7.49,0,0,0,7.68,7.23h47.48a7.49,7.49,0,0,0,7.68-7.23V265a7.49,7.49,0,0,0-7.68-7.23"/><path class="cls-13" d="M166.93,259.22H122.07a6.27,6.27,0,0,0-6.43,6v51.5a6.27,6.27,0,0,0,6.43,6.05h44.86a6.27,6.27,0,0,0,6.43-6.05v-51.5A6.27,6.27,0,0,0,166.93,259.22Z"/><path class="cls-7" d="M166.93,259.22H122.07a6.27,6.27,0,0,0-6.43,6v51.5a6.27,6.27,0,0,0,6.43,6.05h44.86a6.27,6.27,0,0,0,6.43-6.05v-51.5a6.27,6.27,0,0,0-6.43-6"/><path class="cls-14" d="M166.93,321.45H122.07a6.27,6.27,0,0,1-6.43-6.05v1.37a6.27,6.27,0,0,0,6.43,6.05h44.86a6.27,6.27,0,0,0,6.43-6.05V315.4a6.45,6.45,0,0,1-6.43,6.05"/><path class="cls-6" d="M126.54,305.86a6,6,0,1,0,6.32,5.95,6.14,6.14,0,0,0-6.32-5.95"/><path class="cls-15" d="M126.54,305.86a6.14,6.14,0,0,0-6.32,5.95,5.55,5.55,0,0,0,.15,1.29,6.41,6.41,0,0,1,12.34,0,5.55,5.55,0,0,0,.15-1.29,6.14,6.14,0,0,0-6.32-5.95"/><path class="cls-6" d="M144.46,305.86a6,6,0,1,0,6.32,5.95,6.14,6.14,0,0,0-6.32-5.95"/><path class="cls-15" d="M144.46,305.86a6.14,6.14,0,0,0-6.32,5.95,5.55,5.55,0,0,0,.15,1.29,6.41,6.41,0,0,1,12.34,0,5.55,5.55,0,0,0,.15-1.29,6.14,6.14,0,0,0-6.32-5.95"/><path class="cls-6" d="M162.38,305.86a6,6,0,1,0,6.32,5.95,6.14,6.14,0,0,0-6.32-5.95"/><path class="cls-15" d="M162.38,305.86a6.14,6.14,0,0,0-6.32,5.95,5.55,5.55,0,0,0,.15,1.29,6.41,6.41,0,0,1,12.34,0,5.55,5.55,0,0,0,.15-1.29,6.14,6.14,0,0,0-6.32-5.95"/></g></g></g><g id="Artwork_36-6" data-name="Artwork 36"><g class="cls-24"><g class="cls-25"><path class="cls-10" d="M287.44,258.42H241.56a10.87,10.87,0,0,0-7.07,2.51,8,8,0,0,0-3,6v54a7.93,7.93,0,0,0,3,6,10.87,10.87,0,0,0,7.07,2.51h45.88a10.94,10.94,0,0,0,7.08-2.51,8,8,0,0,0,2.94-6V267a8,8,0,0,0-2.94-6A10.94,10.94,0,0,0,287.44,258.42ZM294.37,321a5.51,5.51,0,0,1-2,4.17,7.59,7.59,0,0,1-4.9,1.74H241.56a7.59,7.59,0,0,1-4.9-1.74,5.51,5.51,0,0,1-2-4.17V267a5.51,5.51,0,0,1,2-4.18,7.59,7.59,0,0,1,4.9-1.74h45.88a7.59,7.59,0,0,1,4.9,1.74,5.51,5.51,0,0,1,2,4.18Z"/><path class="cls-11" d="M287.44,258.42H264.5v2.63h22.94a7.59,7.59,0,0,1,4.9,1.74,5.51,5.51,0,0,1,2,4.18v54a5.51,5.51,0,0,1-2,4.18,7.59,7.59,0,0,1-4.9,1.74H264.5v2.63h22.94a10.94,10.94,0,0,0,7.08-2.51,8,8,0,0,0,2.94-6V267a8,8,0,0,0-2.94-6,10.94,10.94,0,0,0-7.08-2.51"/><path class="cls-11" d="M241.56,326.92a7.59,7.59,0,0,1-4.9-1.74,5.48,5.48,0,0,1-2-4.17V267a5.48,5.48,0,0,1,2-4.18,7.59,7.59,0,0,1,4.9-1.74H264.5v-2.63H241.56a10.94,10.94,0,0,0-7.08,2.51,8,8,0,0,0-2.94,6v54a8,8,0,0,0,2.94,6,10.94,10.94,0,0,0,7.08,2.51H264.5v-2.63Z"/><path class="cls-12" d="M287.44,256.45H241.56a10.87,10.87,0,0,0-7.07,2.51,7.94,7.94,0,0,0-3,6v54a8,8,0,0,0,3,6,10.87,10.87,0,0,0,7.07,2.51h45.88a10.94,10.94,0,0,0,7.08-2.51,8,8,0,0,0,2.94-6V265a8,8,0,0,0-2.94-6A10.94,10.94,0,0,0,287.44,256.45ZM294.37,319a5.51,5.51,0,0,1-2,4.18,7.59,7.59,0,0,1-4.9,1.74H241.56a7.59,7.59,0,0,1-4.9-1.74,5.51,5.51,0,0,1-2-4.18V265a5.51,5.51,0,0,1,2-4.18,7.59,7.59,0,0,1,4.9-1.74h45.88a7.59,7.59,0,0,1,4.9,1.74,5.51,5.51,0,0,1,2,4.18Z"/><path class="cls-5" d="M241.56,325a7.59,7.59,0,0,1-4.9-1.74,5.48,5.48,0,0,1-2-4.18V265a5.48,5.48,0,0,1,2-4.18,7.59,7.59,0,0,1,4.9-1.74H264.5v-2.63H241.56a10.94,10.94,0,0,0-7.08,2.51,8,8,0,0,0-2.94,6v54a8,8,0,0,0,2.94,6,10.94,10.94,0,0,0,7.08,2.51H264.5V325Z"/><path class="cls-5" d="M287.44,256.45H264.5v2.63h22.94a7.59,7.59,0,0,1,4.9,1.74,5.51,5.51,0,0,1,2,4.18v54a5.51,5.51,0,0,1-2,4.18,7.59,7.59,0,0,1-4.9,1.74H264.5v2.63h22.94a10.94,10.94,0,0,0,7.08-2.51,8,8,0,0,0,2.94-6V265a8,8,0,0,0-2.94-6,10.94,10.94,0,0,0-7.08-2.51"/><path class="cls-6" d="M288.24,257.77H240.76a7.49,7.49,0,0,0-7.68,7.23v54a7.49,7.49,0,0,0,7.68,7.23h47.48a7.49,7.49,0,0,0,7.68-7.23V265a7.49,7.49,0,0,0-7.68-7.23"/><path class="cls-13" d="M286.93,259.22H242.07a6.27,6.27,0,0,0-6.43,6v51.5a6.27,6.27,0,0,0,6.43,6.05h44.86a6.27,6.27,0,0,0,6.43-6.05v-51.5A6.27,6.27,0,0,0,286.93,259.22Z"/><path class="cls-7" d="M286.93,259.22H242.07a6.27,6.27,0,0,0-6.43,6v51.5a6.27,6.27,0,0,0,6.43,6.05h44.86a6.27,6.27,0,0,0,6.43-6.05v-51.5a6.27,6.27,0,0,0-6.43-6"/><path class="cls-14" d="M286.93,321.45H242.07a6.27,6.27,0,0,1-6.43-6.05v1.37a6.27,6.27,0,0,0,6.43,6.05h44.86a6.27,6.27,0,0,0,6.43-6.05V315.4a6.45,6.45,0,0,1-6.43,6.05"/><path class="cls-6" d="M246.54,305.86a6,6,0,1,0,6.32,5.95,6.14,6.14,0,0,0-6.32-5.95"/><path class="cls-15" d="M246.54,305.86a6.14,6.14,0,0,0-6.32,5.95,5.55,5.55,0,0,0,.15,1.29,6.41,6.41,0,0,1,12.34,0,5.55,5.55,0,0,0,.15-1.29,6.14,6.14,0,0,0-6.32-5.95"/><path class="cls-6" d="M264.46,305.86a6,6,0,1,0,6.32,5.95,6.14,6.14,0,0,0-6.32-5.95"/><path class="cls-15" d="M264.46,305.86a6.14,6.14,0,0,0-6.32,5.95,5.55,5.55,0,0,0,.15,1.29,6.41,6.41,0,0,1,12.34,0,5.55,5.55,0,0,0,.15-1.29,6.14,6.14,0,0,0-6.32-5.95"/><path class="cls-6" d="M282.38,305.86a6,6,0,1,0,6.32,5.95,6.14,6.14,0,0,0-6.32-5.95"/><path class="cls-15" d="M282.38,305.86a6.14,6.14,0,0,0-6.32,5.95,5.55,5.55,0,0,0,.15,1.29,6.41,6.41,0,0,1,12.34,0,5.55,5.55,0,0,0,.15-1.29,6.14,6.14,0,0,0-6.32-5.95"/></g></g></g><g id="Artwork_36-7" data-name="Artwork 36"><g class="cls-26"><g class="cls-27"><path class="cls-10" d="M406.44,258.42H360.56a10.87,10.87,0,0,0-7.07,2.51,8,8,0,0,0-2.95,6v54a7.93,7.93,0,0,0,2.95,6,10.87,10.87,0,0,0,7.07,2.51h45.88a10.94,10.94,0,0,0,7.08-2.51,8,8,0,0,0,2.94-6V267a8,8,0,0,0-2.94-6A10.94,10.94,0,0,0,406.44,258.42ZM413.37,321a5.51,5.51,0,0,1-2,4.17,7.59,7.59,0,0,1-4.9,1.74H360.56a7.59,7.59,0,0,1-4.9-1.74,5.51,5.51,0,0,1-2-4.17V267a5.51,5.51,0,0,1,2-4.18,7.59,7.59,0,0,1,4.9-1.74h45.88a7.59,7.59,0,0,1,4.9,1.74,5.51,5.51,0,0,1,2,4.18Z"/><path class="cls-11" d="M406.44,258.42H383.5v2.63h22.94a7.59,7.59,0,0,1,4.9,1.74,5.51,5.51,0,0,1,2,4.18v54a5.51,5.51,0,0,1-2,4.18,7.59,7.59,0,0,1-4.9,1.74H383.5v2.63h22.94a10.94,10.94,0,0,0,7.08-2.51,8,8,0,0,0,2.94-6V267a8,8,0,0,0-2.94-6,10.94,10.94,0,0,0-7.08-2.51"/><path class="cls-11" d="M360.56,326.92a7.59,7.59,0,0,1-4.9-1.74,5.48,5.48,0,0,1-2-4.17V267a5.48,5.48,0,0,1,2-4.18,7.59,7.59,0,0,1,4.9-1.74H383.5v-2.63H360.56a10.94,10.94,0,0,0-7.08,2.51,8,8,0,0,0-2.94,6v54a8,8,0,0,0,2.94,6,10.94,10.94,0,0,0,7.08,2.51H383.5v-2.63Z"/><path class="cls-12" d="M406.44,256.45H360.56a10.87,10.87,0,0,0-7.07,2.51,7.94,7.94,0,0,0-2.95,6v54a8,8,0,0,0,2.95,6,10.87,10.87,0,0,0,7.07,2.51h45.88a10.94,10.94,0,0,0,7.08-2.51,8,8,0,0,0,2.94-6V265a8,8,0,0,0-2.94-6A10.94,10.94,0,0,0,406.44,256.45ZM413.37,319a5.51,5.51,0,0,1-2,4.18,7.59,7.59,0,0,1-4.9,1.74H360.56a7.59,7.59,0,0,1-4.9-1.74,5.51,5.51,0,0,1-2-4.18V265a5.51,5.51,0,0,1,2-4.18,7.59,7.59,0,0,1,4.9-1.74h45.88a7.59,7.59,0,0,1,4.9,1.74,5.51,5.51,0,0,1,2,4.18Z"/><path class="cls-5" d="M360.56,325a7.59,7.59,0,0,1-4.9-1.74,5.48,5.48,0,0,1-2-4.18V265a5.48,5.48,0,0,1,2-4.18,7.59,7.59,0,0,1,4.9-1.74H383.5v-2.63H360.56a10.94,10.94,0,0,0-7.08,2.51,8,8,0,0,0-2.94,6v54a8,8,0,0,0,2.94,6,10.94,10.94,0,0,0,7.08,2.51H383.5V325Z"/><path class="cls-5" d="M406.44,256.45H383.5v2.63h22.94a7.59,7.59,0,0,1,4.9,1.74,5.51,5.51,0,0,1,2,4.18v54a5.51,5.51,0,0,1-2,4.18,7.59,7.59,0,0,1-4.9,1.74H383.5v2.63h22.94a10.94,10.94,0,0,0,7.08-2.51,8,8,0,0,0,2.94-6V265a8,8,0,0,0-2.94-6,10.94,10.94,0,0,0-7.08-2.51"/><path class="cls-6" d="M407.24,257.77H359.76a7.49,7.49,0,0,0-7.68,7.23v54a7.49,7.49,0,0,0,7.68,7.23h47.48a7.49,7.49,0,0,0,7.68-7.23V265a7.49,7.49,0,0,0-7.68-7.23"/><path class="cls-13" d="M405.93,259.22H361.07a6.27,6.27,0,0,0-6.43,6v51.5a6.27,6.27,0,0,0,6.43,6.05h44.86a6.27,6.27,0,0,0,6.43-6.05v-51.5A6.27,6.27,0,0,0,405.93,259.22Z"/><path class="cls-7" d="M405.93,259.22H361.07a6.27,6.27,0,0,0-6.43,6v51.5a6.27,6.27,0,0,0,6.43,6.05h44.86a6.27,6.27,0,0,0,6.43-6.05v-51.5a6.27,6.27,0,0,0-6.43-6"/><path class="cls-14" d="M405.93,321.45H361.07a6.27,6.27,0,0,1-6.43-6.05v1.37a6.27,6.27,0,0,0,6.43,6.05h44.86a6.27,6.27,0,0,0,6.43-6.05V315.4a6.45,6.45,0,0,1-6.43,6.05"/><path class="cls-6" d="M365.54,305.86a6,6,0,1,0,6.32,5.95,6.14,6.14,0,0,0-6.32-5.95"/><path class="cls-15" d="M365.54,305.86a6.14,6.14,0,0,0-6.32,5.95,5.55,5.55,0,0,0,.15,1.29,6.41,6.41,0,0,1,12.34,0,5.55,5.55,0,0,0,.15-1.29,6.14,6.14,0,0,0-6.32-5.95"/><path class="cls-6" d="M383.46,305.86a6,6,0,1,0,6.32,5.95,6.14,6.14,0,0,0-6.32-5.95"/><path class="cls-15" d="M383.46,305.86a6.14,6.14,0,0,0-6.32,5.95,5.55,5.55,0,0,0,.15,1.29,6.41,6.41,0,0,1,12.34,0,5.55,5.55,0,0,0,.15-1.29,6.14,6.14,0,0,0-6.32-5.95"/><path class="cls-6" d="M401.38,305.86a6,6,0,1,0,6.32,5.95,6.14,6.14,0,0,0-6.32-5.95"/><path class="cls-15" d="M401.38,305.86a6.14,6.14,0,0,0-6.32,5.95,5.55,5.55,0,0,0,.15,1.29,6.41,6.41,0,0,1,12.34,0,5.55,5.55,0,0,0,.15-1.29,6.14,6.14,0,0,0-6.32-5.95"/></g></g></g><text class="cls-28" transform="translate(94.31 167.04)">1</text><text class="cls-28" transform="translate(198.17 169.6)">2</text><text class="cls-28" transform="translate(299.17 169.6)">3</text><text class="cls-28" transform="translate(400.17 172.6)">4</text><text class="cls-28" transform="translate(132.17 297.6)">5</text><text class="cls-28" transform="translate(252.17 297.6)">6</text><text class="cls-28" transform="translate(373.17 297.6)">7</text><text class="cls-29" transform="translate(96.59 165.29) scale(0.97 1)">1</text><text class="cls-29" transform="translate(198.54 166.94) scale(0.97 1)">2</text><text class="cls-29" transform="translate(300.54 166.94) scale(0.97 1)">3</text><text class="cls-29" transform="translate(402.54 169.94) scale(0.97 1)">4</text><text class="cls-29" transform="translate(135.54 297.94) scale(0.97 1)">5</text><text class="cls-29" transform="translate(254.54 297.94) scale(0.97 1)">6</text><text class="cls-29" transform="translate(375.54 297.94) scale(0.97 1)">7</text><text class="cls-30" transform="translate(171.26 63.37) scale(1.05 1)"><tspan class="cls-31">L</tspan><tspan x="22.36" y="0">EVELS</tspan></text></svg>