<svg xmlns="http://www.w3.org/2000/svg" xmlns:xlink="http://www.w3.org/1999/xlink" viewBox="0 0 486.51 291.55"><defs><linearGradient id="GradientFill_1" x1="243.25" y1="165.32" x2="243.25" y2="225.99" gradientUnits="userSpaceOnUse"><stop offset="0" stop-color="#4d7d3a"/><stop offset="1" stop-color="#71ae44"/></linearGradient><linearGradient id="GradientFill_2" x1="243.25" y1="198.65" x2="243.25" y2="237.37" gradientUnits="userSpaceOnUse"><stop offset="0" stop-color="#71ae44"/><stop offset="1" stop-color="#4d7d3a"/></linearGradient><linearGradient id="GradientFill_3" x1="243.25" y1="232.65" x2="243.25" y2="253.42" gradientUnits="userSpaceOnUse"><stop offset="0" stop-color="#80c041"/><stop offset="1" stop-color="#4d7d3a"/></linearGradient></defs><g id="Layer_2" data-name="Layer 2"><rect width="486.51" height="278" style="fill:#b9dcf7"/></g><g id="Layer_3" data-name="Layer 3"><path d="M486.51,76.2V56a97.87,97.87,0,0,1-17.86-2.35c-14.58-3.54-63.47-30.29-114.82-33S265.33,52,236.32,57.88C211,63,210.58,63.43,182.37,61.5c-25.16-1.73-50.6-10.82-74.92-16.53-36.72-8.63-53.52-8.56-88.51,4.76C10.1,53.09,4.79,54.74,0,55.51V95.75c23.09-.35,47.52-3.3,68.26-4.77,37.65-2.66,102.62,10,125,11.91,87.46,7.46,108-21.79,169.91-21.79,31.53,0,85.07,12.12,123.37,21.89Z" style="fill:#a8d2f6;fill-rule:evenodd"/></g><g id="Layer_4" data-name="Layer 4"><path d="M68.26,67.82C47.52,69.28,23.09,72.23,0,72.58V278H486.51V79.82c-38.3-9.77-91.84-21.88-123.37-21.88-61.93,0-82.45,29.24-169.91,21.78C170.88,77.81,105.91,65.16,68.26,67.82Z" style="fill:#94c7f4;fill-rule:evenodd"/></g><g id="Layer_5" data-name="Layer 5"><path d="M486.51,193.85V177h-.35a54,54,0,0,1-4.39-6.53q1.2-.28,2.4-.63a46.92,46.92,0,0,1-4.18-6.28c.87-.19,1.74-.42,2.62-.67a40.37,40.37,0,0,1-4.05-6.21c.75-.17,1.49-.35,2.23-.57-4.17-5.25-6.45-11.74-8.45-18.7-1.2,7.44-3.25,14.25-8.46,18.7a28.68,28.68,0,0,0,3.16.8,23.51,23.51,0,0,1-5,6,34.54,34.54,0,0,0,3.63.93,28.15,28.15,0,0,1-2.81,3.7,27.93,27.93,0,0,1-.81-4.09,32.87,32.87,0,0,1-2.45,7.33,18.18,18.18,0,0,1-2.54-3.9,13.87,13.87,0,0,0,2-.61c-3.29-3.39-4.58-8.58-5.34-14.25-1.26,5.3-2.7,10.25-5.34,14.25.47.17.94.31,1.41.43a32.53,32.53,0,0,1-2.55,4.74q.83.28,1.65.51c-.47,1-1,2-1.52,3a16.75,16.75,0,0,1-.91-1.61,10.62,10.62,0,0,0,1.61-.49c-2.65-2.73-3.69-6.92-4.3-11.49-1,4.28-2.18,8.26-4.3,11.49.38.13.75.25,1.13.35a26.26,26.26,0,0,1-1.37,2.7,35.32,35.32,0,0,1-3.24-4.4c.74-.14,1.48-.3,2.23-.48-4.18-4.47-6.46-10-8.46-15.91-1.2,6.33-3.24,12.13-8.45,15.91a31.78,31.78,0,0,0,3.16.68,21.26,21.26,0,0,1-4.7,4.88c-1.72-3-2.55-6.73-3.09-10.76-1.17,4.94-2.52,9.55-5,13.28.44.15.87.29,1.31.4a30.15,30.15,0,0,1-2.38,4.42c.52.17,1,.33,1.54.47a32.56,32.56,0,0,1-2.46,4.46q.71.25,1.41.45a40.53,40.53,0,0,1-2.24,4.11l-.36.09c-.27-.41-.53-.83-.77-1.27a15.59,15.59,0,0,0,1.8-.57,15.84,15.84,0,0,1-2.64-3.7,17,17,0,0,0,1.85-.57,14.27,14.27,0,0,1-2.54-3.68,11.9,11.9,0,0,0,1.61-.49c-2.65-2.74-3.69-6.92-4.3-11.49-1,4.27-2.18,8.26-4.3,11.49.38.13.75.25,1.13.35a26.38,26.38,0,0,1-2.06,3.82c.45.15.89.29,1.33.41a29.38,29.38,0,0,1-2.12,3.86c.41.14.81.27,1.22.38-.14.3-.29.6-.44.89a28.39,28.39,0,0,1-2.79-3.62c.63-.12,1.27-.26,1.9-.41A25.73,25.73,0,0,1,394.5,185c.54-.1,1.08-.21,1.62-.35-3-3.25-4.7-7.28-6.16-11.59-.88,4.61-2.37,8.83-6.16,11.59a23,23,0,0,0,2.3.5,15.56,15.56,0,0,1-3.63,3.71c.88.23,1.77.43,2.65.57a17.71,17.71,0,0,1-3.79,3.74c.86.23,1.72.42,2.58.58a20.54,20.54,0,0,1-2.48,2.64,14.26,14.26,0,0,1-1.18-1.51c.62-.12,1.23-.27,1.85-.45a11.59,11.59,0,0,1-2.53-2.9,16.36,16.36,0,0,0,1.61-.39c-2.66-2.15-3.7-5.45-4.31-9.05-1,3.37-2.18,6.51-4.3,9.05.38.11.76.2,1.14.28a20.54,20.54,0,0,1-2.06,3c.44.12.89.23,1.33.32a20.26,20.26,0,0,1-1.21,1.85,24.18,24.18,0,0,1-5-5,36.24,36.24,0,0,0,3.63-.79,21,21,0,0,1-5-5.08c1.05-.18,2.1-.4,3.15-.68-5.21-3.79-7.25-9.59-8.45-15.91-2,5.92-4.28,11.44-8.45,15.91q1.11.27,2.22.48a34.67,34.67,0,0,1-3.62,4.82A19.9,19.9,0,0,1,348,183c-1,3.58-2.18,6.92-4.3,9.62.37.11.75.21,1.13.29a21,21,0,0,1-2.06,3.2c.44.13.89.24,1.33.34-.31.57-.64,1.11-1,1.65a15.67,15.67,0,0,1-3.49-3.61c.77-.13,1.54-.29,2.31-.5-3.8-2.76-5.29-7-6.17-11.59a34.37,34.37,0,0,1-4.93,10.14,29.89,29.89,0,0,1-2-3,30.73,30.73,0,0,0,3.63-1,25.43,25.43,0,0,1-5-6.52,24.39,24.39,0,0,0,3.16-.88c-5.21-4.85-7.25-12.28-8.45-20.39-2,7.59-4.28,14.66-8.46,20.39.75.24,1.49.44,2.23.62a45.61,45.61,0,0,1-4,6.78c.87.27,1.74.52,2.61.73a51.91,51.91,0,0,1-3.7,6.19,12.42,12.42,0,0,1-2.24-2.82,13.1,13.1,0,0,0,1.61-.41c-2.65-2.29-3.69-5.79-4.3-9.62-1,3.58-2.18,6.92-4.3,9.62.38.11.75.21,1.13.29a21,21,0,0,1-2.05,3.2c.44.13.88.25,1.33.35a24.68,24.68,0,0,1-2.13,3.23c.41.12.81.23,1.22.32-.09.17-.19.33-.29.5a15.69,15.69,0,0,1-3.36-3.51,23,23,0,0,0,2.3-.5c-3.8-2.76-5.28-7-6.16-11.59-1.41,4.18-3,8.1-5.89,11.3A10.13,10.13,0,0,1,286,193.7a11.17,11.17,0,0,0,1.35-.35c-2.23-1.92-3.1-4.87-3.62-8.09a22.93,22.93,0,0,1-3.61,8.09c.31.09.63.18.95.25a19.76,19.76,0,0,1-1.13,1.87,18.47,18.47,0,0,1-2.65-3.33,22.21,22.21,0,0,0,2.46-.63,16,16,0,0,1-3.37-4.1,19.23,19.23,0,0,0,2.14-.55c-3.53-3-4.91-7.71-5.73-12.8-1.35,4.76-2.9,9.21-5.72,12.8.5.15,1,.28,1.51.39a29.16,29.16,0,0,1-2.74,4.26q.88.26,1.77.45a32.32,32.32,0,0,1-2.83,4.31c.54.15,1.08.3,1.62.43-.34.6-.7,1.2-1.08,1.79A29.75,29.75,0,0,1,262,195c1.18-.22,2.36-.48,3.54-.8a24.55,24.55,0,0,1-5.2-5.12c1.21-.2,2.43-.47,3.64-.79a21.25,21.25,0,0,1-5-5.09c1.05-.17,2.11-.4,3.16-.68-5.21-3.78-7.25-9.58-8.45-15.91-2,5.92-4.29,11.44-8.46,15.91.74.18,1.49.34,2.23.48a34.62,34.62,0,0,1-4,5.29q1.31.31,2.61.57a40.65,40.65,0,0,1-4.17,5.34c.79.2,1.59.37,2.39.53-.36.55-.74,1.09-1.13,1.61a21.47,21.47,0,0,1-2.75-3.36c.8-.18,1.6-.39,2.4-.65a17.94,17.94,0,0,1-3.52-4.12,22.21,22.21,0,0,0,2.46-.63,16.32,16.32,0,0,1-3.37-4.1,18.68,18.68,0,0,0,2.14-.55c-3.53-3-4.91-7.71-5.73-12.8-1.35,4.76-2.9,9.21-5.72,12.8.5.15,1,.28,1.51.39a29.16,29.16,0,0,1-2.74,4.26q.89.25,1.77.45a31.59,31.59,0,0,1-2.83,4.3c.54.16,1.08.31,1.63.43-.3.53-.61,1-.92,1.54a31.64,31.64,0,0,1-3.54-4.39,35.61,35.61,0,0,0,3.54-.94,26.7,26.7,0,0,1-5.19-6,34.54,34.54,0,0,0,3.63-.93,23.77,23.77,0,0,1-5-6,25.66,25.66,0,0,0,3.16-.8c-5.21-4.45-7.25-11.26-8.45-18.7-2,7-4.28,13.45-8.46,18.7.75.22,1.49.41,2.23.57a41.66,41.66,0,0,1-4,6.22q1.31.38,2.61.66a45.61,45.61,0,0,1-4.17,6.28q1.2.36,2.4.63-.57,1-1.17,1.95a21.93,21.93,0,0,1-2.66-3.28c.8-.17,1.6-.39,2.4-.64a18.4,18.4,0,0,1-3.52-4.12,24.74,24.74,0,0,0,2.46-.64,16,16,0,0,1-3.37-4.1,16.35,16.35,0,0,0,2.14-.54c-3.53-3.05-4.91-7.72-5.72-12.81-1.36,4.77-2.9,9.21-5.73,12.81.5.14,1,.27,1.51.38a27.12,27.12,0,0,1-2.74,4.26c.59.17,1.18.33,1.77.46a31.27,31.27,0,0,1-2.52,3.9c-.35-.37-.69-.75-1-1.15.67-.12,1.34-.27,2-.45a14,14,0,0,1-2.94-2.9c.69-.12,1.37-.27,2.06-.45a11.84,11.84,0,0,1-2.82-2.88c.6-.1,1.19-.23,1.79-.39-2.95-2.14-4.11-5.42-4.79-9-1.13,3.35-2.42,6.47-4.79,9,.42.11.85.2,1.27.28-.26.41-.54.81-.82,1.21a23.35,23.35,0,0,1-4.56-4.6,33.5,33.5,0,0,0,3.49-.76,20.5,20.5,0,0,1-4.78-4.89,30.56,30.56,0,0,0,3-.65c-5-3.64-7-9.21-8.13-15.28-1.92,5.68-4.11,11-8.12,15.28.71.18,1.42.33,2.14.46a33.57,33.57,0,0,1-3.89,5.08c.84.21,1.68.39,2.52.55a38.43,38.43,0,0,1-4,5.13c.77.19,1.54.36,2.31.52-.69,1-1.41,2-2.17,3a15.82,15.82,0,0,1-1.29-1.44c.67-.12,1.34-.27,2-.45a14.2,14.2,0,0,1-2.94-2.9c.69-.12,1.37-.27,2.06-.45a12,12,0,0,1-2.82-2.88c.6-.1,1.2-.23,1.79-.39-2.95-2.14-4.11-5.42-4.79-9-1.13,3.35-2.42,6.47-4.78,9,.42.11.84.2,1.26.28a21,21,0,0,1-1.65,2.26,11.72,11.72,0,0,1-2.52-2.66c.59-.1,1.19-.22,1.79-.38-2.95-2.15-4.11-5.43-4.79-9a25.25,25.25,0,0,1-4.32,8.49,17.11,17.11,0,0,1-3-3.65,19.39,19.39,0,0,0,2.31-.56c-3.8-3.12-5.29-7.89-6.17-13.11-1.45,4.88-3.12,9.43-6.16,13.11.54.15,1.08.28,1.62.4a28.38,28.38,0,0,1-2.94,4.35c.63.18,1.27.34,1.9.47-.51.89-1.06,1.75-1.65,2.59-.36-.38-.7-.77-1-1.17.66-.12,1.33-.27,2-.45a13.72,13.72,0,0,1-2.94-2.9,18.81,18.81,0,0,0,2-.45,12,12,0,0,1-2.81-2.88,16.82,16.82,0,0,0,1.79-.38c-3-2.15-4.11-5.43-4.79-9-1.13,3.35-2.43,6.48-4.79,9q.63.15,1.26.27a18.68,18.68,0,0,1-2.29,3c.5.13,1,.23,1.48.33a21.77,21.77,0,0,1-2.36,3l1.36.31c-.15.2-.29.41-.44.62a14,14,0,0,1-1.88-2.06c.68-.11,1.37-.26,2-.44a12,12,0,0,1-2.81-2.89,16.82,16.82,0,0,0,1.79-.38c-3-2.14-4.11-5.43-4.79-9-1.13,3.35-2.43,6.48-4.79,9l1.26.27a21.33,21.33,0,0,1-1.23,1.76,30.72,30.72,0,0,1-2.42-2.7c1.18-.21,2.36-.48,3.54-.8a24,24,0,0,1-5.19-5.12,36.24,36.24,0,0,0,3.63-.79,21.25,21.25,0,0,1-5-5.09,29.19,29.19,0,0,0,3.16-.68c-5.21-3.78-7.25-9.58-8.45-15.9-2,5.92-4.28,11.44-8.45,15.9.74.19,1.48.35,2.22.49a36.87,36.87,0,0,1-2.25,3.2c-2.89-2.45-4.08-6-4.81-9.79-1.29,3.84-2.77,7.41-5.48,10.31.49.12,1,.22,1.45.31a22.57,22.57,0,0,1-2.62,3.43c.56.14,1.13.26,1.69.36a25.47,25.47,0,0,1-2.7,3.47c.51.12,1,.24,1.55.34l-.49.71a15.82,15.82,0,0,1-2.16-2.34c.78-.14,1.57-.31,2.35-.52a13.74,13.74,0,0,1-3.22-3.29c.68-.12,1.36-.26,2-.44-3.37-2.46-4.69-6.21-5.47-10.31a36.63,36.63,0,0,1-3.14,7.19,26.85,26.85,0,0,1-1.94-2.68,34.54,34.54,0,0,0,3.63-.93,23.48,23.48,0,0,1-5-6,28.68,28.68,0,0,0,3.16-.8c-5.22-4.45-7.26-11.27-8.46-18.7-2,7-4.28,13.44-8.45,18.7.74.21,1.48.4,2.22.56a40.66,40.66,0,0,1-4,6.22c.87.25,1.75.47,2.62.67a46.92,46.92,0,0,1-4.18,6.28q1.2.34,2.4.63c-.7,1.21-1.43,2.39-2.21,3.54A17.36,17.36,0,0,1,37.4,167a25.62,25.62,0,0,0,2.65-.57,15.37,15.37,0,0,1-3.63-3.71c.77-.13,1.53-.29,2.3-.5-3.8-2.76-5.29-7-6.16-11.59C31.1,155,29.44,159,26.4,162.23c.54.14,1.08.25,1.62.35-.43.69-.9,1.37-1.39,2A23.42,23.42,0,0,1,21.55,160q1.82-.27,3.63-.72a20.49,20.49,0,0,1-5-4.69c1.05-.16,2.1-.36,3.16-.62-5.21-3.49-7.26-8.82-8.46-14.65-2,5.45-4.28,10.53-8.45,14.65.74.16,1.48.31,2.23.44a33,33,0,0,1-4,4.87c.88.19,1.75.37,2.62.52a37.7,37.7,0,0,1-4.18,4.92c.8.18,1.6.34,2.4.49a43,43,0,0,1-4.54,5.26l2.44.51-3.38,0V278H20.62l.37-1.38.68,1.38h83.82a4.55,4.55,0,0,1,1.72-2.61,4.47,4.47,0,0,1,2.69-.88,4.52,4.52,0,0,1,4.32,3.2l.08.29H241.49a24.38,24.38,0,0,1,.65-2.54c.43,1,.88,1.8,1.3,2.54H372.18a24.23,24.23,0,0,1,.64-2.54c.43,1,.89,1.8,1.3,2.54H486.51V251.22c0-9.35-.4-51.21,0-57.37Zm-27.54-20c-.37-.56-.71-1.15-1-1.75.36-.08.72-.18,1.08-.29l-.21.32c.29.1.58.19.86.26-.22.5-.45,1-.7,1.46Zm6.8,5,1.34.17-1.64.28-.18-.31.48-.14Zm-18.35-.9-.24-.44.52-.13-.28.57Zm-7.52-.6c-.31.68-.65,1.35-1,2-.51-.68-1-1.37-1.45-2.07l1.32-.27c.38.13.76.24,1.13.34Zm-20.07,2.24a14.67,14.67,0,0,0,1.86-.57,12.52,12.52,0,0,1-1.69-2.19c1.05.27,2.1.49,3.15.67a24,24,0,0,1-2.78,3.12c-.19-.34-.37-.68-.54-1Zm-22.35,14.85c-.22-.31-.44-.61-.65-.92.44-.09.87-.18,1.31-.29l-.66,1.21Zm-25.41,3.62c-.42.69-.86,1.36-1.34,2a30.71,30.71,0,0,1-2.29-2.57q1.57-.28,3.15-.69c-.24.32-.48.63-.74.93.41.11.82.22,1.22.31Zm9.47.05c.76.17,1.52.31,2.27.43l-2.19.36c-.18-.22-.36-.46-.53-.69l.45-.1Zm-30.9-5.05c.27,0,.55-.11.82-.18-.17.23-.33.46-.51.69l-.31-.51Zm-7.49,7-.6,1a17.69,17.69,0,0,1-2-2.25c.8-.13,1.6-.3,2.41-.51-.33.49-.67,1-1,1.43.4.12.81.22,1.22.32Zm7.6-9q.87.19,1.74.36c-.2.31-.41.62-.62.93a9.09,9.09,0,0,1-1.12-1.29Zm-40.27,4.92-.15.21c.8.25,1.59.48,2.4.68-.39.74-.79,1.46-1.2,2.17a13.46,13.46,0,0,1-2.28-2.77c.41-.08.82-.18,1.23-.29Zm.74,3.59-.61,1c-.18-.24-.35-.49-.52-.74.38-.08.75-.17,1.13-.28Zm-11.77,2.67c-.37-.41-.72-.84-1.05-1.28.73-.12,1.46-.27,2.19-.46-.36.6-.74,1.17-1.14,1.74Zm-11.37-5.9.94.19q-.57.93-1.23,1.8a11.79,11.79,0,0,1-1.21-1.6,13.8,13.8,0,0,0,1.5-.39Zm-7.61.27c-.33.59-.68,1.17-1.06,1.72q-.53-.67-1-1.38c.56-.12,1.12-.26,1.67-.42l.38.08ZM190.4,188l-.16.28-.49-.44.65.16Zm-1.1,1.82-.74-.11.92-.18-.18.29Zm-10.25-7.28c-.29.45-.6.88-.93,1.31a29.83,29.83,0,0,1-2.05-2.32c.85-.16,1.7-.34,2.56-.55-.34.42-.69.84-1.06,1.24.49.12,1,.23,1.48.32Zm-2.48,5.3h0Zm-30-8.53c-.32.48-.65,1-1,1.41a12.82,12.82,0,0,1-1.6-1.79c.48-.08,1-.18,1.44-.29l-.32.35c.49.12,1,.23,1.48.32Zm-1,3.33-.16.24-.28-.33.44.09Zm-10.41-5a21.29,21.29,0,0,1-1.28-1.72c.74-.14,1.48-.32,2.22-.53l.59.12a19.75,19.75,0,0,1-1.53,2.13ZM79.32,163.35l.7-.12-.43.49-.27-.37Zm1.19,1.49,1,.2-.33.49q-.36-.33-.69-.69Zm-53.53,2c-.31.47-.63.94-1,1.39a27.67,27.67,0,0,1-2.8-2.83c1.1-.18,2.21-.41,3.31-.68a21.15,21.15,0,0,1-1.45,1.71c.64.15,1.27.29,1.91.41Zm-1.3,4.29-.14.21-.94,0,1-.19Z" style="fill-rule:evenodd;fill:url(#GradientFill_1)"/></g><g id="Layer_6" data-name="Layer 6"><path d="M219.63,219.55c-59.47-10.18-117-23.21-219.63-24.64v96.64H486.51V207.4C378.13,213,330.42,238.51,219.63,219.55Z" style="fill-rule:evenodd;fill:url(#GradientFill_2)"/></g><g id="Layer_1" data-name="Layer 1"><rect y="226.73" width="486.51" height="64.83" style="fill:#630"/><path d="M18.05,226.43a16.05,16.05,0,0,1-2.69-3.59c2.25.75,4.05,1,5.23,1.48a13.74,13.74,0,0,1,.76-5.33c1.16,2.57,2.45,4.15,2.64,5.51,1.09-.75,2.94-1.18,5.23-2.29a14.87,14.87,0,0,1-2.48,4.22h84.74a17,17,0,0,1-3.28-4.27c2.54.85,4.56,1.09,5.9,1.67a15.45,15.45,0,0,1,.84-6c1.32,2.9,2.77,4.68,3,6.21,1.23-.84,3.31-1.32,5.88-2.57a16,16,0,0,1-3,5H266.9a17,17,0,0,1-3.28-4.27c2.54.85,4.56,1.09,5.9,1.67a15.29,15.29,0,0,1,.85-6c1.31,2.9,2.76,4.68,3,6.21,1.23-.84,3.31-1.32,5.88-2.57a16,16,0,0,1-3,5H369.7a17.23,17.23,0,0,1-3.27-4.27c2.53.85,4.55,1.09,5.89,1.67a15.67,15.67,0,0,1,.85-6c1.31,2.9,2.76,4.68,3,6.21,1.23-.84,3.31-1.32,5.89-2.57a16,16,0,0,1-3,5H486.51v30H0v-30Z" style="fill-rule:evenodd;fill:url(#GradientFill_3)"/><rect y="247" width="486.51" height="9.41" style="fill:#547c2c"/><rect y="256.41" width="486.51" height="3.62" style="fill:#3c1e00"/><path d="M0,286.92a252.85,252.85,0,0,0,47.78-1.61c22.78-3,30.61-2.82,53-1.38,33,2.12,81.72-.76,116.1-.76,9.17,0,29.93,1.2,37.74-1,13.78-3.92,38.28-1.15,52.79-1.15,10.28,0,44.51,1.44,52.6,4.52,9.48,3.61,39,.51,49.48-.93,11.54-1.59,22.93-1.78,35.11-1.78,5.52,1.32,28.71-1.69,41.87,1.42v-6.5a34.9,34.9,0,0,1-6.57-1.26c-33.6-10.31-202.67-5.81-245.8-2.77-37.24,2.63-75.86,1.51-113.72,1.51-27.32,0-51.1-9.74-72.4-5.19-14,3-33,2.89-48,4Z" style="fill:#502800;fill-rule:evenodd"/><path d="M47.78,285.31A252.85,252.85,0,0,1,0,286.92v4.63H486.51v-7.32c-13.16-3.11-36.35-.1-41.87-1.42-12.18,0-23.57.19-35.11,1.78-10.48,1.44-40,4.54-49.48.93-8.09-3.08-42.32-4.52-52.6-4.52-14.51,0-39-2.77-52.79,1.15-7.81,2.22-28.57,1-37.74,1-34.38,0-83.09,2.88-116.1.76C78.39,282.49,70.56,282.32,47.78,285.31Z" style="fill:#3c1e00;fill-rule:evenodd"/><circle cx="24.65" cy="273.13" r="8.42" style="fill:#2e1700"/><path d="M38.23,281.37A2.27,2.27,0,1,0,36,279.1,2.27,2.27,0,0,0,38.23,281.37Z" style="fill:#2e1700;fill-rule:evenodd"/><path d="M94.33,266a1.72,1.72,0,1,0-1.72-1.72A1.72,1.72,0,0,0,94.33,266Z" style="fill:#2e1700;fill-rule:evenodd"/><path d="M82.39,288.42a8.05,8.05,0,1,0-8.06-8.05A8.07,8.07,0,0,0,82.39,288.42Z" style="fill:#2e1700;fill-rule:evenodd"/><path d="M125.37,272.32a1.45,1.45,0,1,0-1.44-1.45A1.46,1.46,0,0,0,125.37,272.32Z" style="fill:#2e1700;fill-rule:evenodd"/><circle cx="156.32" cy="278.99" r="3.62" style="fill:#2e1700"/><path d="M150.08,266.89a1.36,1.36,0,1,0-1.36-1.36A1.36,1.36,0,0,0,150.08,266.89Z" style="fill:#2e1700;fill-rule:evenodd"/><path d="M169.63,274.67a2.27,2.27,0,1,0-2.27-2.26A2.27,2.27,0,0,0,169.63,274.67Z" style="fill:#2e1700;fill-rule:evenodd"/><path d="M418.49,282.27a3.71,3.71,0,1,0-3.71-3.71A3.72,3.72,0,0,0,418.49,282.27Z" style="fill:#2e1700;fill-rule:evenodd"/><path d="M394.33,275.57a5.25,5.25,0,1,0-5.25-5.24A5.25,5.25,0,0,0,394.33,275.57Z" style="fill:#2e1700;fill-rule:evenodd"/><path d="M376.59,287.14a3.43,3.43,0,1,0-3.44-3.43A3.44,3.44,0,0,0,376.59,287.14Z" style="fill:#2e1700;fill-rule:evenodd"/><path d="M362.42,273.22a1.57,1.57,0,1,0-1.57-1.57A1.57,1.57,0,0,0,362.42,273.22Z" style="fill:#2e1700;fill-rule:evenodd"/><path d="M348.36,286.07a4.35,4.35,0,1,0-4.34-4.34A4.35,4.35,0,0,0,348.36,286.07Z" style="fill:#2e1700;fill-rule:evenodd"/><path d="M350.35,270.15a3.44,3.44,0,1,0-3.44-3.44A3.45,3.45,0,0,0,350.35,270.15Z" style="fill:#2e1700;fill-rule:evenodd"/><path d="M308.63,285.64a7.34,7.34,0,1,0-7.33-7.33A7.34,7.34,0,0,0,308.63,285.64Z" style="fill:#2e1700;fill-rule:evenodd"/><path d="M324.79,270.42a3,3,0,1,0-3-3A3,3,0,0,0,324.79,270.42Z" style="fill:#2e1700;fill-rule:evenodd"/><path d="M331.3,287.7a3,3,0,1,0-3-3A3,3,0,0,0,331.3,287.7Z" style="fill:#2e1700;fill-rule:evenodd"/><path d="M210.81,279.56a6.16,6.16,0,1,0-6.16-6.16A6.17,6.17,0,0,0,210.81,279.56Z" style="fill:#2e1700;fill-rule:evenodd"/><path d="M189.89,283.52a2.26,2.26,0,1,0-2.25-2.25A2.25,2.25,0,0,0,189.89,283.52Z" style="fill:#2e1700;fill-rule:evenodd"/><path d="M186.19,268.34a1.81,1.81,0,1,0-1.81-1.81A1.82,1.82,0,0,0,186.19,268.34Z" style="fill:#2e1700;fill-rule:evenodd"/><circle cx="175.33" cy="283.72" r="1.99" style="fill:#2e1700"/><path d="M247.27,282.82a9.87,9.87,0,1,0-9.86-9.87A9.89,9.89,0,0,0,247.27,282.82Z" style="fill:#2e1700;fill-rule:evenodd"/><path d="M277.5,274.31a3.35,3.35,0,1,0-3.35-3.35A3.36,3.36,0,0,0,277.5,274.31Z" style="fill:#2e1700;fill-rule:evenodd"/><path d="M272.43,282.63a1.72,1.72,0,1,0-1.72-1.72A1.72,1.72,0,0,0,272.43,282.63Z" style="fill:#2e1700;fill-rule:evenodd"/><path d="M295.42,266.71a2.63,2.63,0,1,0-2.62-2.63A2.63,2.63,0,0,0,295.42,266.71Z" style="fill:#2e1700;fill-rule:evenodd"/><path d="M225.06,287.88a2.31,2.31,0,1,0-2.31-2.31A2.32,2.32,0,0,0,225.06,287.88Z" style="fill:#2e1700;fill-rule:evenodd"/><path d="M51.08,272.86a4.44,4.44,0,1,0-4.44-4.44A4.44,4.44,0,0,0,51.08,272.86Z" style="fill:#2e1700;fill-rule:evenodd"/><path d="M57.59,281.55A2.54,2.54,0,1,0,55.06,279,2.54,2.54,0,0,0,57.59,281.55Z" style="fill:#2e1700;fill-rule:evenodd"/><path d="M106.83,279.27a2.53,2.53,0,1,0-2.53-2.52A2.53,2.53,0,0,0,106.83,279.27Z" style="fill:#2e1700;fill-rule:evenodd"/><path d="M113.34,268.88a1.81,1.81,0,1,0-1.81-1.81A1.81,1.81,0,0,0,113.34,268.88Z" style="fill:#2e1700;fill-rule:evenodd"/></g></svg>